<svg xmlns="http://www.w3.org/2000/svg" width="175.3" height="156.92" viewBox="0 0 175.3 156.92"><defs><style>.cls-1{fill:#0d0811;}.cls-2{fill:#7e5289;}</style></defs><g id="points_and_time" data-name="points and time"><path class="cls-1" d="M16.84,133.77q-7.27-9.09-7.28-24t8-23.68q8-8.72,20.74-8.72t19.25,8.85Q64,95,64,109.37t-7.32,23.9q-7.32,9.58-19,9.58Q24.11,142.85,16.84,133.77Zm32.85-9.67A61.58,61.58,0,0,0,51,111.81a72.76,72.76,0,0,0-.68-10.62A33.35,33.35,0,0,0,48,92.87Q44.64,85,35.86,85a17.9,17.9,0,0,0-5,.72,9.24,9.24,0,0,0-3.57,1.72q-2,2.63-3.34,8.45a47.41,47.41,0,0,0-1.36,10.75,76.05,76.05,0,0,0,.45,8.77A44.33,44.33,0,0,0,24.61,123a22.64,22.64,0,0,0,2.94,6.37,13.07,13.07,0,0,0,11.39,5.88,13.43,13.43,0,0,0,3.84-.72,7.3,7.3,0,0,0,3.39-2C47.67,131,48.85,128.22,49.69,124.1Z"/><path class="cls-1" d="M96.14,77.6,107,75.52v2q-3.7,7-11.8,26.93t-11,27.7q-2.94,7.73-6.19,17.49L66.14,152.7v-2q2.89-5.24,11-24.4t11.16-27.2Z"/><path class="cls-1" d="M141.51,122.61q0-10.76-15.36-11.75l-12-.82-2.26-2.44q1.53-11.47,5-28.82l32-.46,2.26,13.2h-1.72a20.93,20.93,0,0,0-8.27-4A42.71,42.71,0,0,0,129.58,86h-4.7a113.37,113.37,0,0,0-3.62,17q10.12.45,14,.94a42.08,42.08,0,0,1,7.55,1.72,17.86,17.86,0,0,1,6,3.12q5.32,4.34,5.33,13.06a19.16,19.16,0,0,1-6.91,14.86q-6.91,6.15-18.21,6.15t-23.59-6.06a17.26,17.26,0,0,1,2.08-4.92,17.56,17.56,0,0,1,3.34-4.47q11.56,8.31,20.43,8.31a17.45,17.45,0,0,0,6.87-1.17,13.55,13.55,0,0,0,2.53-5.38A26.19,26.19,0,0,0,141.51,122.61Z"/><path class="cls-2" d="M21.59,130.24q-7.28-9.08-7.28-24t8-23.67q8-8.73,20.74-8.73t19.25,8.86q6.47,8.86,6.47,23.18t-7.33,23.91q-7.32,9.57-19,9.58Q28.86,139.33,21.59,130.24Zm32.85-9.67a61.41,61.41,0,0,0,1.26-12.29A73.07,73.07,0,0,0,55,97.66a34.27,34.27,0,0,0-2.31-8.31q-3.34-7.86-12.11-7.86a18,18,0,0,0-5,.72A9.1,9.1,0,0,0,32,83.93q-2,2.61-3.34,8.45a47.91,47.91,0,0,0-1.36,10.75,73.71,73.71,0,0,0,.46,8.77,43.4,43.4,0,0,0,1.58,7.59,22.49,22.49,0,0,0,2.94,6.37,13.05,13.05,0,0,0,11.38,5.88,13.37,13.37,0,0,0,3.84-.73,7.09,7.09,0,0,0,3.39-2C52.42,127.52,53.59,124.7,54.44,120.57Z"/><path class="cls-2" d="M100.89,74.08,111.73,72v2q-3.7,7-11.79,26.93t-11,27.7Q86,136.35,82.72,146.1l-11.83,3.08v-2q2.88-5.25,11-24.4T93,95.59Z"/><path class="cls-2" d="M146.25,119.08q0-10.76-15.36-11.75l-12-.81-2.26-2.44q1.55-11.47,5-28.83l32-.45L155.84,88h-1.72a21.2,21.2,0,0,0-8.27-4,43.19,43.19,0,0,0-11.53-1.49h-4.7a113.41,113.41,0,0,0-3.61,17q10.12.45,14,1a40.07,40.07,0,0,1,7.55,1.72,18,18,0,0,1,6,3.11q5.32,4.35,5.33,13.06a19.19,19.19,0,0,1-6.92,14.87q-6.92,6.15-18.21,6.15t-23.59-6.06a17.56,17.56,0,0,1,2.08-4.92,17.83,17.83,0,0,1,3.35-4.48q11.56,8.32,20.42,8.32a17.26,17.26,0,0,0,6.87-1.18,13.29,13.29,0,0,0,2.53-5.38A26.13,26.13,0,0,0,146.25,119.08Z"/><path class="cls-1" d="M13.13,7.72l8.71-.11q7.35,0,11.19,2.3c2.56,1.53,3.83,4.18,3.83,8a10.3,10.3,0,0,1-4.48,8.87A19.06,19.06,0,0,1,21,29.94a18.38,18.38,0,0,1-3.71-.37V36.4A18.27,18.27,0,0,0,18.35,43v1.14H8.85V43A22.16,22.16,0,0,0,9.9,35.67V17A29.85,29.85,0,0,0,9,8.76V7.61C11.37,7.68,12.75,7.72,13.13,7.72ZM29,18.41q0-4-1.72-5.69c-1.15-1.14-3-1.72-5.5-1.72s-4,0-4.41.05q-.11,1.57-.11,8.66v6.68a13.61,13.61,0,0,0,3.65.47,7.8,7.8,0,0,0,6-2.24A8.87,8.87,0,0,0,29,18.41Z"/><path class="cls-1" d="M52.59,45.11q-6.08,0-9.55-3.54a12.8,12.8,0,0,1-3.46-9.34A13.94,13.94,0,0,1,53.84,18.15q6.24,0,9.55,3.47t3.31,9.31a13.92,13.92,0,0,1-4,10A13.43,13.43,0,0,1,52.59,45.11Zm6.6-12.88a17.61,17.61,0,0,0-1.46-7.9,5.25,5.25,0,0,0-5.11-2.84A5.38,5.38,0,0,0,49,22.63a10.23,10.23,0,0,0-1.35,3.6,21.73,21.73,0,0,0-.52,4.65q0,10.89,6.93,10.9a5.1,5.1,0,0,0,3.39-1.1A8.83,8.83,0,0,0,58.74,37,26.66,26.66,0,0,0,59.19,32.23Z"/><path class="cls-1" d="M81.3,23.63V34.79A19.35,19.35,0,0,0,82.82,43v1.14H73.69V43a22.94,22.94,0,0,0,.88-7V28.22a11.34,11.34,0,0,0-.88-4.78,5.43,5.43,0,0,0-2.25-2.63V19.66L81,17.89l.63,1A22.3,22.3,0,0,0,81.3,23.63Zm-1-16.9A3,3,0,0,1,81,8.5a15.56,15.56,0,0,1,.19,2.09,7.25,7.25,0,0,1-.11,1.3l-.47.42a29.55,29.55,0,0,1-6,.94L74,13a6.14,6.14,0,0,1-.65-2.24,16.93,16.93,0,0,1-.24-2.16V7.77l.47-.42a17.76,17.76,0,0,1,5.58-.94h.58Z"/><path class="cls-1" d="M106.29,18.1a7.64,7.64,0,0,1,6,2.42q2.13,2.43,2.13,7v6.62A22.44,22.44,0,0,0,116,43v1.14h-9.18V43a21.7,21.7,0,0,0,.89-7V29.42A10.38,10.38,0,0,0,107,25c-.49-1-1.53-1.44-3.13-1.44s-3.64.73-6.11,2.19v8.56A20.82,20.82,0,0,0,99.3,43v1.14H90.17V43a24.47,24.47,0,0,0,.89-7.41v-7c0-4.14-1-6.73-3.13-7.77V19.66L96.38,18,97,19a13.86,13.86,0,0,1,.57,3.33,33.6,33.6,0,0,1,4.62-3.2A8.44,8.44,0,0,1,106.29,18.1Z"/><path class="cls-1" d="M131.74,38.07c0,1.26.33,1.88,1,1.88A17.32,17.32,0,0,0,138,38.33l1.56,2.35a39.7,39.7,0,0,1-4.95,2.69,12.41,12.41,0,0,1-5,1.33q-4.59,0-4.59-5.27V22.84c-.52,0-2.24.13-5.16.37l1.87-4.7a28.53,28.53,0,0,0,3.34.26c-.07-1.59-.17-3.07-.31-4.43l7-1.77v6.15q2.08,0,8.19-.68l-2,5.38a42.07,42.07,0,0,0-6.15-.58Z"/><path class="cls-1" d="M155.37,40.73c2,0,3-.95,3-2.87q0-2.65-5.06-4c-1.39-.38-2.78-.82-4.17-1.31a8.37,8.37,0,0,1-3.55-2.34,5.93,5.93,0,0,1-1.46-4.12,6.29,6.29,0,0,1,3.23-5.61,14.65,14.65,0,0,1,7.88-2,24,24,0,0,1,9.7,2.24q-.25,2.31-2.82,5.53a16.32,16.32,0,0,0-4.32-3.18A9.19,9.19,0,0,0,153.85,22a7,7,0,0,0-2.55.36,2.8,2.8,0,0,0-.78,2.22A2.59,2.59,0,0,0,152,26.91a13.57,13.57,0,0,0,3.63,1.33,42.84,42.84,0,0,1,4.27,1.23,8.09,8.09,0,0,1,3.63,2.47A6.83,6.83,0,0,1,165,36.51a6.86,6.86,0,0,1-3.16,6.13,15.14,15.14,0,0,1-8.37,2.06,18.4,18.4,0,0,1-10-3,10.12,10.12,0,0,1,2.34-5.78Q151,40.73,155.37,40.73Z"/><path class="cls-2" d="M16.13,5.53l8.71-.11q7.35,0,11.19,2.3c2.56,1.53,3.83,4.18,3.83,8a10.31,10.31,0,0,1-4.48,8.87A19.06,19.06,0,0,1,24,27.75a19.13,19.13,0,0,1-3.71-.37v6.83a18.27,18.27,0,0,0,1.05,6.58v1.14h-9.5V40.79a22.16,22.16,0,0,0,1.05-7.31V14.76A29.85,29.85,0,0,0,12,6.57V5.42C14.37,5.49,15.75,5.53,16.13,5.53ZM32,16.22q0-4-1.72-5.69c-1.15-1.14-3-1.72-5.5-1.72s-4,0-4.41,0c-.07,1.05-.11,3.93-.11,8.66V24.2a13.61,13.61,0,0,0,3.65.47,7.8,7.8,0,0,0,6-2.24A8.87,8.87,0,0,0,32,16.22Z"/><path class="cls-2" d="M55.59,42.92q-6.08,0-9.55-3.54A12.8,12.8,0,0,1,42.58,30,13.94,13.94,0,0,1,56.84,16q6.24,0,9.55,3.47t3.31,9.31a13.92,13.92,0,0,1-4,10A13.43,13.43,0,0,1,55.59,42.92ZM62.19,30a17.58,17.58,0,0,0-1.46-7.9,5.25,5.25,0,0,0-5.11-2.84A5.38,5.38,0,0,0,52,20.44,10.23,10.23,0,0,0,50.61,24a21.73,21.73,0,0,0-.52,4.65q0,10.89,6.93,10.9a5.1,5.1,0,0,0,3.39-1.1,8.83,8.83,0,0,0,1.33-3.68A26.66,26.66,0,0,0,62.19,30Z"/><path class="cls-2" d="M84.3,21.44V32.6a19.35,19.35,0,0,0,1.52,8.19v1.14H76.69V40.79a23,23,0,0,0,.88-7V26a11.34,11.34,0,0,0-.88-4.78,5.43,5.43,0,0,0-2.25-2.63V17.47L84,15.7l.63,1A22.3,22.3,0,0,0,84.3,21.44Zm-1-16.9A2.88,2.88,0,0,1,84,6.31a15.56,15.56,0,0,1,.19,2.09A7.25,7.25,0,0,1,84,9.7l-.47.42a29.55,29.55,0,0,1-6,.94L77,10.79a6.35,6.35,0,0,1-.65-2.24,16.93,16.93,0,0,1-.24-2.16V5.58l.47-.42a17.76,17.76,0,0,1,5.58-.94h.58Z"/><path class="cls-2" d="M109.29,15.91a7.64,7.64,0,0,1,6,2.42c1.42,1.62,2.14,4,2.14,7V32A22.44,22.44,0,0,0,119,40.79v1.14h-9.18V40.79a21.76,21.76,0,0,0,.89-7V27.22a10.36,10.36,0,0,0-.73-4.45c-.49-1-1.53-1.44-3.13-1.44s-3.64.73-6.11,2.19v8.56a20.82,20.82,0,0,0,1.52,8.71v1.14H93.17V40.79a24.47,24.47,0,0,0,.89-7.41v-7c0-4.14-1-6.73-3.13-7.77V17.47l8.45-1.62.57,1a13.86,13.86,0,0,1,.57,3.33,33.6,33.6,0,0,1,4.62-3.2A8.44,8.44,0,0,1,109.29,15.91Z"/><path class="cls-2" d="M134.74,35.88c0,1.25.33,1.88,1,1.88A17.32,17.32,0,0,0,141,36.14l1.56,2.35a39.7,39.7,0,0,1-4.95,2.69,12.41,12.41,0,0,1-5,1.33q-4.59,0-4.59-5.27V20.65c-.52,0-2.24.12-5.16.37l1.87-4.7a28.53,28.53,0,0,0,3.34.26c-.07-1.59-.17-3.07-.31-4.43l7-1.77v6.15q2.08,0,8.19-.68l-2,5.38a42.07,42.07,0,0,0-6.15-.58Z"/><path class="cls-2" d="M158.37,38.54c2,0,3-.95,3-2.87s-1.69-3.11-5.06-4c-1.39-.38-2.78-.82-4.17-1.31A8.37,8.37,0,0,1,148.56,28a5.93,5.93,0,0,1-1.46-4.12,6.29,6.29,0,0,1,3.23-5.61,14.65,14.65,0,0,1,7.88-2,24,24,0,0,1,9.7,2.24c-.17,1.53-1.11,3.38-2.82,5.53a16.32,16.32,0,0,0-4.32-3.18,9.19,9.19,0,0,0-3.92-1.09,7,7,0,0,0-2.55.36,2.8,2.8,0,0,0-.78,2.22A2.6,2.6,0,0,0,155,24.72a13.57,13.57,0,0,0,3.63,1.33,42.84,42.84,0,0,1,4.27,1.23,8.09,8.09,0,0,1,3.63,2.47A6.83,6.83,0,0,1,168,34.32a6.86,6.86,0,0,1-3.16,6.13,15.14,15.14,0,0,1-8.37,2.06,18.4,18.4,0,0,1-10-3,10.18,10.18,0,0,1,2.34-5.79Q154,38.54,158.37,38.54Z"/></g></svg>