<svg xmlns="http://www.w3.org/2000/svg" width="175.3" height="156.92" viewBox="0 0 175.3 156.92"><defs><style>.cls-1{fill:#0d0811;}.cls-2{fill:#7e5289;}</style></defs><g id="points_and_time" data-name="points and time"><path class="cls-1" d="M96.76,77.6l10.85-2.08v2q-3.7,7-11.79,26.93t-11,27.7q-2.94,7.73-6.19,17.49L66.76,152.7v-2q2.89-5.24,11-24.4T88.9,99.11Z"/><path class="cls-1" d="M142.13,122.61q0-10.76-15.36-11.75l-12-.82-2.26-2.44q1.53-11.47,5-28.82l32-.46,2.26,13.2H150a20.86,20.86,0,0,0-8.27-4A42.66,42.66,0,0,0,130.2,86h-4.7a113.37,113.37,0,0,0-3.62,17q10.13.45,14,.94a41.88,41.88,0,0,1,7.55,1.72,17.86,17.86,0,0,1,6,3.12q5.32,4.34,5.33,13.06a19.16,19.16,0,0,1-6.91,14.86q-6.92,6.15-18.21,6.15T106,136.79a17.26,17.26,0,0,1,2.08-4.92,17.56,17.56,0,0,1,3.34-4.47q11.58,8.31,20.43,8.31a17.45,17.45,0,0,0,6.87-1.17,13.55,13.55,0,0,0,2.53-5.38A26.19,26.19,0,0,0,142.13,122.61Z"/><path class="cls-2" d="M101.51,74.08,112.35,72v2q-3.7,7-11.79,26.93t-11,27.7q-2.93,7.73-6.19,17.48l-11.83,3.08v-2q2.88-5.25,11-24.4t11.17-27.2Z"/><path class="cls-2" d="M146.87,119.08q0-10.76-15.36-11.75l-12-.81-2.26-2.44q1.55-11.47,5-28.83l32-.45L156.46,88h-1.72a21.2,21.2,0,0,0-8.27-4,43.19,43.19,0,0,0-11.53-1.49h-4.69a111.93,111.93,0,0,0-3.62,17q10.13.45,14,1a40.07,40.07,0,0,1,7.55,1.72,18,18,0,0,1,6,3.11q5.32,4.35,5.33,13.06a19.19,19.19,0,0,1-6.92,14.87q-6.92,6.15-18.21,6.15t-23.58-6.06a17.18,17.18,0,0,1,2.07-4.92,18.07,18.07,0,0,1,3.35-4.48q11.56,8.32,20.42,8.32a17.26,17.26,0,0,0,6.87-1.18,13.29,13.29,0,0,0,2.53-5.38A26.13,26.13,0,0,0,146.87,119.08Z"/><path class="cls-1" d="M13.75,7.72l8.71-.11q7.35,0,11.19,2.3c2.56,1.53,3.83,4.18,3.83,8A10.3,10.3,0,0,1,33,26.73a19.06,19.06,0,0,1-11.37,3.21,18.38,18.38,0,0,1-3.71-.37V36.4A18.27,18.27,0,0,0,19,43v1.14H9.47V43a22.16,22.16,0,0,0,1-7.31V17a29.85,29.85,0,0,0-.89-8.19V7.61C12,7.68,13.37,7.72,13.75,7.72ZM29.66,18.41q0-4-1.72-5.69C26.79,11.58,25,11,22.44,11s-4,0-4.41.05q-.11,1.57-.11,8.66v6.68a13.61,13.61,0,0,0,3.65.47,7.79,7.79,0,0,0,6-2.24A8.87,8.87,0,0,0,29.66,18.41Z"/><path class="cls-1" d="M53.21,45.11q-6.08,0-9.55-3.54a12.8,12.8,0,0,1-3.46-9.34A13.94,13.94,0,0,1,54.46,18.15q6.24,0,9.55,3.47t3.31,9.31a13.92,13.92,0,0,1-4,10A13.43,13.43,0,0,1,53.21,45.11Zm6.6-12.88a17.61,17.61,0,0,0-1.46-7.9,5.25,5.25,0,0,0-5.11-2.84,5.38,5.38,0,0,0-3.66,1.14,10.23,10.23,0,0,0-1.35,3.6,21.73,21.73,0,0,0-.52,4.65q0,10.89,6.93,10.9A5.1,5.1,0,0,0,58,40.68,8.83,8.83,0,0,0,59.36,37,26.66,26.66,0,0,0,59.81,32.23Z"/><path class="cls-1" d="M81.92,23.63V34.79A19.35,19.35,0,0,0,83.44,43v1.14H74.31V43a22.94,22.94,0,0,0,.88-7V28.22a11.34,11.34,0,0,0-.88-4.78,5.43,5.43,0,0,0-2.25-2.63V19.66l9.55-1.77.63,1A22.3,22.3,0,0,0,81.92,23.63Zm-1-16.9a2.88,2.88,0,0,1,.65,1.77,15.56,15.56,0,0,1,.19,2.09,7.25,7.25,0,0,1-.11,1.3l-.47.42a29.55,29.55,0,0,1-6,.94L74.62,13A6.35,6.35,0,0,1,74,10.74a16.93,16.93,0,0,1-.24-2.16V7.77l.47-.42a17.76,17.76,0,0,1,5.58-.94h.58Z"/><path class="cls-1" d="M106.91,18.1a7.64,7.64,0,0,1,6,2.42c1.42,1.62,2.14,4,2.14,7v6.62A22.44,22.44,0,0,0,116.66,43v1.14h-9.18V43a21.7,21.7,0,0,0,.89-7V29.42a10.38,10.38,0,0,0-.73-4.46c-.49-1-1.53-1.44-3.13-1.44s-3.64.73-6.11,2.19v8.56A20.82,20.82,0,0,0,99.92,43v1.14H90.79V43a24.47,24.47,0,0,0,.89-7.41v-7c0-4.14-1.05-6.73-3.13-7.77V19.66L97,18l.57,1a13.86,13.86,0,0,1,.57,3.33,33.6,33.6,0,0,1,4.62-3.2A8.44,8.44,0,0,1,106.91,18.1Z"/><path class="cls-1" d="M132.36,38.07c0,1.26.33,1.88,1,1.88a17.32,17.32,0,0,0,5.27-1.62l1.56,2.35a39.7,39.7,0,0,1-5,2.69,12.41,12.41,0,0,1-5,1.33q-4.59,0-4.59-5.27V22.84c-.52,0-2.24.13-5.16.37l1.87-4.7a28.53,28.53,0,0,0,3.34.26c-.07-1.59-.17-3.07-.31-4.43l7-1.77v6.15q2.08,0,8.19-.68l-2,5.38a42.07,42.07,0,0,0-6.15-.58Z"/><path class="cls-1" d="M156,40.73c2,0,3-.95,3-2.87q0-2.65-5.06-4c-1.39-.38-2.78-.82-4.17-1.31a8.37,8.37,0,0,1-3.55-2.34,5.93,5.93,0,0,1-1.46-4.12A6.29,6.29,0,0,1,148,20.47a14.65,14.65,0,0,1,7.88-2,24,24,0,0,1,9.7,2.24q-.25,2.31-2.82,5.53a16.32,16.32,0,0,0-4.32-3.18A9.19,9.19,0,0,0,154.47,22a7,7,0,0,0-2.55.36,2.8,2.8,0,0,0-.78,2.22,2.59,2.59,0,0,0,1.48,2.37,13.57,13.57,0,0,0,3.63,1.33,42.84,42.84,0,0,1,4.27,1.23,8.09,8.09,0,0,1,3.63,2.47,6.83,6.83,0,0,1,1.49,4.57,6.86,6.86,0,0,1-3.16,6.13,15.14,15.14,0,0,1-8.37,2.06,18.4,18.4,0,0,1-10-3,10.12,10.12,0,0,1,2.34-5.78Q151.67,40.73,156,40.73Z"/><path class="cls-2" d="M16.75,5.53l8.71-.11q7.37,0,11.19,2.3c2.56,1.53,3.83,4.18,3.83,8A10.31,10.31,0,0,1,36,24.54a19.06,19.06,0,0,1-11.37,3.21,19,19,0,0,1-3.7-.37v6.83a18.28,18.28,0,0,0,1,6.58v1.14H12.48V40.79a22.45,22.45,0,0,0,1-7.31V14.76a29.85,29.85,0,0,0-.89-8.19V5.42C15,5.49,16.37,5.53,16.75,5.53ZM32.66,16.22q0-4-1.72-5.69c-1.15-1.14-3-1.72-5.5-1.72s-4,0-4.41,0c-.07,1.05-.1,3.93-.1,8.66V24.2a13.55,13.55,0,0,0,3.65.47,7.78,7.78,0,0,0,6-2.24A8.87,8.87,0,0,0,32.66,16.22Z"/><path class="cls-2" d="M56.21,42.92q-6.08,0-9.54-3.54A12.77,12.77,0,0,1,43.2,30,13.94,13.94,0,0,1,57.46,16Q63.7,16,67,19.43t3.31,9.31a13.92,13.92,0,0,1-4,10A13.41,13.41,0,0,1,56.21,42.92ZM62.81,30a17.58,17.58,0,0,0-1.46-7.9,5.25,5.25,0,0,0-5.11-2.84,5.34,5.34,0,0,0-3.65,1.14A10.22,10.22,0,0,0,51.23,24a21.73,21.73,0,0,0-.52,4.65q0,10.89,6.93,10.9A5.06,5.06,0,0,0,61,38.49a8.7,8.7,0,0,0,1.33-3.68A26.66,26.66,0,0,0,62.81,30Z"/><path class="cls-2" d="M84.92,21.44V32.6a19.35,19.35,0,0,0,1.52,8.19v1.14H77.31V40.79a23,23,0,0,0,.88-7V26a11.34,11.34,0,0,0-.88-4.78,5.47,5.47,0,0,0-2.24-2.63V17.47l9.54-1.77.63,1A22.3,22.3,0,0,0,84.92,21.44Zm-1-16.9a2.88,2.88,0,0,1,.65,1.77,15.56,15.56,0,0,1,.19,2.09,7.25,7.25,0,0,1-.11,1.3l-.47.42a29.55,29.55,0,0,1-6,.94l-.57-.27A6.35,6.35,0,0,1,77,8.55a16.93,16.93,0,0,1-.24-2.16V5.58l.47-.42a17.76,17.76,0,0,1,5.58-.94h.58Z"/><path class="cls-2" d="M109.91,15.91a7.64,7.64,0,0,1,6,2.42c1.42,1.62,2.14,4,2.14,7V32a22.44,22.44,0,0,0,1.56,8.82v1.14h-9.18V40.79a21.76,21.76,0,0,0,.89-7V27.22a10.36,10.36,0,0,0-.73-4.45c-.49-1-1.53-1.44-3.13-1.44s-3.64.73-6.11,2.19v8.56a20.82,20.82,0,0,0,1.52,8.71v1.14H93.79V40.79a24.47,24.47,0,0,0,.89-7.41v-7c0-4.14-1.05-6.73-3.13-7.77V17.47L100,15.85l.57,1a13.86,13.86,0,0,1,.57,3.33,33.6,33.6,0,0,1,4.62-3.2A8.44,8.44,0,0,1,109.91,15.91Z"/><path class="cls-2" d="M135.36,35.88c0,1.25.33,1.88,1,1.88a17.24,17.24,0,0,0,5.27-1.62l1.56,2.35a39.7,39.7,0,0,1-5,2.69,12.33,12.33,0,0,1-5,1.33q-4.59,0-4.59-5.27V20.65c-.52,0-2.24.12-5.16.37l1.88-4.7a28.1,28.1,0,0,0,3.33.26c-.07-1.59-.17-3.07-.31-4.43l7-1.77v6.15q2.08,0,8.19-.68l-2,5.38a42.07,42.07,0,0,0-6.15-.58Z"/><path class="cls-2" d="M159,38.54c2,0,3-.95,3-2.87s-1.69-3.11-5.06-4c-1.39-.38-2.78-.82-4.17-1.31A8.43,8.43,0,0,1,149.18,28a5.93,5.93,0,0,1-1.46-4.12A6.29,6.29,0,0,1,151,18.28a14.67,14.67,0,0,1,7.88-2,24,24,0,0,1,9.7,2.24c-.17,1.53-1.11,3.38-2.81,5.53a16.52,16.52,0,0,0-4.33-3.18,9.19,9.19,0,0,0-3.92-1.09,7,7,0,0,0-2.55.36,2.8,2.8,0,0,0-.78,2.22,2.6,2.6,0,0,0,1.48,2.37,13.57,13.57,0,0,0,3.63,1.33,42.84,42.84,0,0,1,4.27,1.23,8.09,8.09,0,0,1,3.63,2.47,6.83,6.83,0,0,1,1.49,4.57,6.86,6.86,0,0,1-3.16,6.13,15.12,15.12,0,0,1-8.37,2.06,18.4,18.4,0,0,1-10-3,10.24,10.24,0,0,1,2.34-5.79Q154.67,38.54,159,38.54Z"/><path class="cls-1" d="M52.22,122.47q0,12.61,1.46,18.1v2H38.5v-2Q40,135.09,40,122.47V96.33a63.13,63.13,0,0,0-.28-7.78,76,76,0,0,1-12,1.37l-1-5.21Q36.85,83,43.44,78.59h9.24l-.46,10.79Z"/><path class="cls-2" d="M55.22,119q0,12.61,1.46,18.1v2H41.51v-2Q43,131.56,43,119V92.8A66.07,66.07,0,0,0,42.7,85a76.29,76.29,0,0,1-12,1.37l-1-5.21q10.15-1.74,16.73-6.13h9.24l-.46,10.79Z"/></g></svg>