<svg xmlns="http://www.w3.org/2000/svg" width="175.3" height="156.92" viewBox="0 0 175.3 156.92"><defs><style>.cls-1{fill:#0d0811;}.cls-2{fill:#7e5289;}</style></defs><g id="points_and_time" data-name="points and time"><path class="cls-1" d="M96.26,79.07,107.1,77v2q-3.7,7-11.79,26.93t-11,27.7q-2.94,7.72-6.19,17.49l-11.84,3.07v-2q2.9-5.24,11-24.4t11.16-27.2Z"/><path class="cls-1" d="M141.62,124.08q0-10.76-15.36-11.75l-12-.82L112,109.07q1.53-11.47,5-28.82l32-.46L151.2,93h-1.71a21,21,0,0,0-8.28-4,42.67,42.67,0,0,0-11.52-1.49H125a113.13,113.13,0,0,0-3.61,17q10.11.45,14,.94a41.88,41.88,0,0,1,7.55,1.72,17.85,17.85,0,0,1,6,3.12q5.34,4.34,5.33,13.06a19.16,19.16,0,0,1-6.91,14.86q-6.92,6.15-18.21,6.15t-23.59-6.06a17.56,17.56,0,0,1,2.08-4.92,17.33,17.33,0,0,1,3.35-4.47q11.56,8.31,20.42,8.31a17.45,17.45,0,0,0,6.87-1.17,13.42,13.42,0,0,0,2.53-5.38A26.19,26.19,0,0,0,141.62,124.08Z"/><path class="cls-2" d="M101,75.55l10.85-2.08v2q-3.72,7-11.8,26.93t-11,27.7q-2.92,7.72-6.18,17.48L71,150.65v-2q2.88-5.25,11-24.4t11.17-27.2Z"/><path class="cls-2" d="M146.37,120.55q0-10.76-15.37-11.75L119,108l-2.25-2.44q1.53-11.47,5-28.83l32-.45L156,89.46h-1.72a21.2,21.2,0,0,0-8.27-4A43.12,43.12,0,0,0,134.44,84h-4.7a111.93,111.93,0,0,0-3.62,17q10.13.45,14,1a40.07,40.07,0,0,1,7.55,1.72,17.82,17.82,0,0,1,6,3.12q5.33,4.33,5.33,13.06A19.19,19.19,0,0,1,152,134.65q-6.9,6.15-18.21,6.15t-23.58-6.06a17.48,17.48,0,0,1,2.07-4.92,18.07,18.07,0,0,1,3.35-4.48q11.56,8.32,20.42,8.32a17.26,17.26,0,0,0,6.87-1.18,13.16,13.16,0,0,0,2.53-5.38A26.17,26.17,0,0,0,146.37,120.55Z"/><path class="cls-1" d="M13.24,9.19,22,9.08q7.36,0,11.19,2.3C35.7,12.91,37,15.56,37,19.33a10.3,10.3,0,0,1-4.48,8.87,19.06,19.06,0,0,1-11.37,3.21,18.28,18.28,0,0,1-3.7-.37v6.83a18.28,18.28,0,0,0,1,6.58v1.14H9V44.45a22.45,22.45,0,0,0,1-7.31V18.42a29.85,29.85,0,0,0-.89-8.19V9.08C11.49,9.15,12.86,9.19,13.24,9.19ZM29.15,19.88q0-4-1.72-5.69c-1.15-1.14-3-1.72-5.5-1.72s-4,0-4.41,0q-.11,1.58-.1,8.66v6.68a13.55,13.55,0,0,0,3.65.47,7.78,7.78,0,0,0,6-2.24A8.87,8.87,0,0,0,29.15,19.88Z"/><path class="cls-1" d="M52.7,46.59q-6.08,0-9.54-3.55a12.77,12.77,0,0,1-3.47-9.34A13.94,13.94,0,0,1,54,19.62q6.24,0,9.55,3.47t3.31,9.31a13.92,13.92,0,0,1-4,10A13.42,13.42,0,0,1,52.7,46.59ZM59.3,33.7a17.61,17.61,0,0,0-1.46-7.9A5.25,5.25,0,0,0,52.73,23a5.34,5.34,0,0,0-3.65,1.14,10.22,10.22,0,0,0-1.36,3.6,21.73,21.73,0,0,0-.52,4.65q0,10.89,6.93,10.9a5.06,5.06,0,0,0,3.39-1.1,8.7,8.7,0,0,0,1.33-3.68A26.66,26.66,0,0,0,59.3,33.7Z"/><path class="cls-1" d="M81.41,25.1V36.26a19.35,19.35,0,0,0,1.52,8.19v1.14H73.8V44.45a22.94,22.94,0,0,0,.88-7V29.69a11.34,11.34,0,0,0-.88-4.78,5.47,5.47,0,0,0-2.24-2.63V21.13l9.54-1.77.63,1A22.3,22.3,0,0,0,81.41,25.1Zm-1-16.9A2.88,2.88,0,0,1,81.07,10a15.56,15.56,0,0,1,.19,2.09,7.25,7.25,0,0,1-.11,1.3l-.47.42a29.55,29.55,0,0,1-6,.94l-.57-.27a6.35,6.35,0,0,1-.65-2.24,16.93,16.93,0,0,1-.24-2.16V9.24l.47-.42a17.76,17.76,0,0,1,5.58-.94h.58Z"/><path class="cls-1" d="M106.4,19.57a7.64,7.64,0,0,1,6,2.42c1.42,1.62,2.14,4,2.14,7v6.62a22.44,22.44,0,0,0,1.56,8.82v1.14H107V44.45a21.7,21.7,0,0,0,.89-7V30.89a10.38,10.38,0,0,0-.73-4.46c-.49-1-1.53-1.44-3.13-1.44s-3.64.73-6.11,2.19v8.56a20.82,20.82,0,0,0,1.52,8.71v1.14H90.28V44.45A24.47,24.47,0,0,0,91.17,37v-7c0-4.14-1-6.73-3.13-7.77V21.13l8.45-1.62.57,1a13.86,13.86,0,0,1,.57,3.33,33.6,33.6,0,0,1,4.62-3.2A8.44,8.44,0,0,1,106.4,19.57Z"/><path class="cls-1" d="M131.85,39.54c0,1.26.33,1.88,1,1.88a17.24,17.24,0,0,0,5.27-1.62l1.56,2.35a39.7,39.7,0,0,1-4.95,2.69,12.33,12.33,0,0,1-5,1.33q-4.59,0-4.59-5.27V24.31c-.52,0-2.24.13-5.16.37l1.88-4.7a28.1,28.1,0,0,0,3.33.26c-.07-1.59-.17-3.07-.31-4.43l7-1.77v6.15q2.09,0,8.19-.68l-2,5.38a42.07,42.07,0,0,0-6.15-.58Z"/><path class="cls-1" d="M155.48,42.2c2,0,3-1,3-2.87q0-2.65-5.06-4c-1.39-.38-2.78-.82-4.17-1.31a8.37,8.37,0,0,1-3.55-2.34,5.93,5.93,0,0,1-1.46-4.12,6.29,6.29,0,0,1,3.23-5.61,14.67,14.67,0,0,1,7.88-2,24,24,0,0,1,9.7,2.24q-.26,2.31-2.81,5.53a16.52,16.52,0,0,0-4.33-3.18A9.19,9.19,0,0,0,154,23.43a7,7,0,0,0-2.55.36,2.8,2.8,0,0,0-.78,2.22,2.59,2.59,0,0,0,1.48,2.37,13.57,13.57,0,0,0,3.63,1.33A42.84,42.84,0,0,1,160,30.94a8.09,8.09,0,0,1,3.63,2.47A6.83,6.83,0,0,1,165.13,38,6.86,6.86,0,0,1,162,44.11a15.12,15.12,0,0,1-8.37,2.06,18.4,18.4,0,0,1-10-3A10.19,10.19,0,0,1,146,37.41Q151.16,42.2,155.48,42.2Z"/><path class="cls-2" d="M16.24,7,25,6.89q7.36,0,11.19,2.3t3.84,8A10.3,10.3,0,0,1,35.49,26a19.06,19.06,0,0,1-11.37,3.21,18.28,18.28,0,0,1-3.7-.37v6.83a18.28,18.28,0,0,0,1,6.58V43.4H12V42.26A22.45,22.45,0,0,0,13,35V16.23A29.85,29.85,0,0,0,12.12,8V6.89C14.49,7,15.86,7,16.24,7ZM32.15,17.69q0-4-1.72-5.69c-1.15-1.14-3-1.72-5.5-1.72s-4,0-4.41.05q-.11,1.58-.1,8.66v6.68a13.55,13.55,0,0,0,3.65.47,7.78,7.78,0,0,0,6-2.24A8.82,8.82,0,0,0,32.15,17.69Z"/><path class="cls-2" d="M55.7,44.39q-6.08,0-9.54-3.54a12.77,12.77,0,0,1-3.47-9.34A13.94,13.94,0,0,1,57,17.43q6.24,0,9.55,3.47t3.31,9.31a13.92,13.92,0,0,1-4,10A13.41,13.41,0,0,1,55.7,44.39Zm6.6-12.88a17.61,17.61,0,0,0-1.46-7.9,5.24,5.24,0,0,0-5.11-2.84,5.36,5.36,0,0,0-3.65,1.14,10.22,10.22,0,0,0-1.36,3.6,21.73,21.73,0,0,0-.52,4.65q0,10.89,6.94,10.9A5.1,5.1,0,0,0,60.53,40a9,9,0,0,0,1.33-3.68A27.58,27.58,0,0,0,62.3,31.51Z"/><path class="cls-2" d="M84.42,22.91V34.07a19.36,19.36,0,0,0,1.51,8.19V43.4H76.8V42.26a22.9,22.9,0,0,0,.89-7V27.5a11.33,11.33,0,0,0-.89-4.78,5.47,5.47,0,0,0-2.24-2.63V18.94l9.54-1.77.63,1A22.52,22.52,0,0,0,84.42,22.91ZM83.42,6a2.94,2.94,0,0,1,.66,1.77,17,17,0,0,1,.18,2.09,7.25,7.25,0,0,1-.11,1.3l-.47.42a29.43,29.43,0,0,1-6,.94l-.58-.27A6.35,6.35,0,0,1,76.46,10a16.36,16.36,0,0,1-.23-2.16V7.05l.47-.42a17.66,17.66,0,0,1,5.58-.94h.57Z"/><path class="cls-2" d="M109.4,17.38a7.63,7.63,0,0,1,6,2.42c1.42,1.62,2.14,4,2.14,7v6.62a22.44,22.44,0,0,0,1.56,8.82V43.4H110V42.26a21.7,21.7,0,0,0,.89-7V28.7a10.23,10.23,0,0,0-.73-4.46c-.49-1-1.53-1.44-3.13-1.44s-3.63.73-6.1,2.19v8.56a20.83,20.83,0,0,0,1.51,8.71V43.4H93.28V42.26a24.47,24.47,0,0,0,.89-7.41v-7q0-6.21-3.13-7.77V18.94l8.45-1.62.57,1a14.31,14.31,0,0,1,.58,3.33,33,33,0,0,1,4.61-3.2A8.47,8.47,0,0,1,109.4,17.38Z"/><path class="cls-2" d="M134.85,37.35c0,1.26.33,1.88,1,1.88a17.24,17.24,0,0,0,5.27-1.62L142.68,40a40.62,40.62,0,0,1-5,2.69,12.33,12.33,0,0,1-5,1.33q-4.59,0-4.59-5.27V22.12c-.52,0-2.24.13-5.16.37l1.88-4.7a28.1,28.1,0,0,0,3.33.26c-.07-1.59-.17-3.07-.31-4.43l7-1.77V18q2.09,0,8.19-.68l-2,5.38a42.36,42.36,0,0,0-6.16-.58Z"/><path class="cls-2" d="M158.48,40c2,0,3-.95,3-2.87s-1.68-3.11-5.06-4c-1.39-.38-2.78-.82-4.17-1.31a8.43,8.43,0,0,1-3.55-2.34,5.93,5.93,0,0,1-1.46-4.12,6.28,6.28,0,0,1,3.24-5.61,14.61,14.61,0,0,1,7.87-2A24,24,0,0,1,168,20q-.26,2.31-2.81,5.53a16.35,16.35,0,0,0-4.33-3.18A9.19,9.19,0,0,0,157,21.24a7.07,7.07,0,0,0-2.56.36,2.8,2.8,0,0,0-.78,2.22,2.59,2.59,0,0,0,1.48,2.37,13.71,13.71,0,0,0,3.63,1.33A43,43,0,0,1,163,28.75a8.11,8.11,0,0,1,3.62,2.47,6.83,6.83,0,0,1,1.49,4.57A6.84,6.84,0,0,1,165,41.92,15.12,15.12,0,0,1,156.6,44a18.4,18.4,0,0,1-10-3A10.13,10.13,0,0,1,149,35.22Q154.15,40,158.48,40Z"/><path class="cls-1" d="M40.64,95.83q0-8.2-7.15-8.2-5.34,0-16,8.29a17.73,17.73,0,0,1-4.88-10.38q12-4.46,21.25-4.45t14.31,3.79a12.29,12.29,0,0,1,5,10.34q0,9.16-9.43,20.86-4.71,5.76-8.6,9.86t-9.73,9.87q5.51,0,7.6-.09,15.71-.53,21.2-4.8l2.36,1.66-4.1,10.64H14.2l-2.1-5q5-4.89,8.08-8t7.41-8.2a85,85,0,0,0,6.81-9,51.14,51.14,0,0,0,4.36-8.55A23.44,23.44,0,0,0,40.64,95.83Z"/><path class="cls-2" d="M45.19,92.21Q45.19,84,38,84q-5.32,0-16,8.29a17.74,17.74,0,0,1-4.89-10.39q12-4.44,21.25-4.45t14.31,3.8a12.26,12.26,0,0,1,5,10.34q0,9.16-9.42,20.86-4.73,5.76-8.6,9.86T30,132.18c3.66,0,6.2,0,7.59-.08q15.7-.53,21.21-4.8L61.16,129,57.07,139.6H18.75l-2.1-5q5-4.89,8.08-8t7.41-8.21A84.22,84.22,0,0,0,39,109.45a51.9,51.9,0,0,0,4.36-8.55A23.45,23.45,0,0,0,45.19,92.21Z"/></g></svg>