<svg xmlns="http://www.w3.org/2000/svg" width="175.3" height="156.92" viewBox="0 0 175.3 156.92"><defs><style>.cls-1{fill:#0d0811;}.cls-2{fill:#7e5289;}</style></defs><g id="points_and_time" data-name="points and time"><path class="cls-1" d="M96.26,77.6l10.84-2.08v2q-3.7,7-11.79,26.93t-11,27.7q-2.94,7.73-6.19,17.49L66.25,152.7v-2q2.9-5.24,11-24.4t11.16-27.2Z"/><path class="cls-1" d="M141.62,122.61q0-10.76-15.36-11.75l-12-.82L112,107.6q1.53-11.47,5-28.82l32-.46,2.26,13.2h-1.71a21,21,0,0,0-8.28-4A42.66,42.66,0,0,0,129.69,86H125a113.6,113.6,0,0,0-3.61,17q10.11.45,14,.94a41.88,41.88,0,0,1,7.55,1.72,17.67,17.67,0,0,1,6,3.12q5.34,4.34,5.33,13.06a19.16,19.16,0,0,1-6.91,14.86q-6.92,6.15-18.21,6.15t-23.59-6.06a17.56,17.56,0,0,1,2.08-4.92,17.33,17.33,0,0,1,3.35-4.47q11.56,8.31,20.42,8.31a17.45,17.45,0,0,0,6.87-1.17,13.42,13.42,0,0,0,2.53-5.38A26.19,26.19,0,0,0,141.62,122.61Z"/><path class="cls-2" d="M101,74.08,111.85,72v2q-3.72,7-11.8,26.93t-11,27.7q-2.92,7.73-6.18,17.48L71,149.18v-2q2.88-5.25,11-24.4t11.17-27.2Z"/><path class="cls-2" d="M146.37,119.08q0-10.76-15.37-11.75l-12-.81-2.25-2.44q1.53-11.47,5-28.83l32-.45L156,88h-1.72A21.2,21.2,0,0,0,146,84a43.12,43.12,0,0,0-11.52-1.49h-4.7a111.93,111.93,0,0,0-3.62,17q10.13.45,14,1a40.07,40.07,0,0,1,7.55,1.72,18,18,0,0,1,6,3.11q5.33,4.35,5.33,13.06A19.19,19.19,0,0,1,152,133.18q-6.9,6.15-18.21,6.15t-23.58-6.06a17.48,17.48,0,0,1,2.07-4.92,18.07,18.07,0,0,1,3.35-4.48q11.56,8.32,20.42,8.32a17.26,17.26,0,0,0,6.87-1.18,13.16,13.16,0,0,0,2.53-5.38A26.17,26.17,0,0,0,146.37,119.08Z"/><path class="cls-1" d="M13.24,7.72,22,7.61q7.36,0,11.19,2.3c2.56,1.53,3.83,4.18,3.83,8a10.3,10.3,0,0,1-4.48,8.87,19.06,19.06,0,0,1-11.37,3.21,18.28,18.28,0,0,1-3.7-.37V36.4a18.28,18.28,0,0,0,1,6.58v1.14H9V43a22.45,22.45,0,0,0,1-7.31V17a29.85,29.85,0,0,0-.89-8.19V7.61C11.49,7.68,12.86,7.72,13.24,7.72ZM29.15,18.41q0-4-1.72-5.69c-1.15-1.14-3-1.72-5.5-1.72s-4,0-4.41.05q-.11,1.57-.1,8.66v6.68a13.55,13.55,0,0,0,3.65.47,7.78,7.78,0,0,0,6-2.24A8.87,8.87,0,0,0,29.15,18.41Z"/><path class="cls-1" d="M52.7,45.11q-6.08,0-9.54-3.54a12.77,12.77,0,0,1-3.47-9.34A13.94,13.94,0,0,1,54,18.15q6.24,0,9.55,3.47t3.31,9.31a13.92,13.92,0,0,1-4,10A13.41,13.41,0,0,1,52.7,45.11Zm6.6-12.88a17.61,17.61,0,0,0-1.46-7.9,5.25,5.25,0,0,0-5.11-2.84,5.34,5.34,0,0,0-3.65,1.14,10.22,10.22,0,0,0-1.36,3.6,21.73,21.73,0,0,0-.52,4.65q0,10.89,6.93,10.9a5.06,5.06,0,0,0,3.39-1.1A8.7,8.7,0,0,0,58.85,37,26.66,26.66,0,0,0,59.3,32.23Z"/><path class="cls-1" d="M81.41,23.63V34.79A19.35,19.35,0,0,0,82.93,43v1.14H73.8V43a22.94,22.94,0,0,0,.88-7V28.22a11.34,11.34,0,0,0-.88-4.78,5.47,5.47,0,0,0-2.24-2.63V19.66l9.54-1.77.63,1A22.3,22.3,0,0,0,81.41,23.63Zm-1-16.9a2.88,2.88,0,0,1,.65,1.77,15.56,15.56,0,0,1,.19,2.09,7.25,7.25,0,0,1-.11,1.3l-.47.42a29.55,29.55,0,0,1-6,.94L74.11,13a6.35,6.35,0,0,1-.65-2.24,16.93,16.93,0,0,1-.24-2.16V7.77l.47-.42a17.76,17.76,0,0,1,5.58-.94h.58Z"/><path class="cls-1" d="M106.4,18.1a7.64,7.64,0,0,1,6,2.42c1.42,1.62,2.14,4,2.14,7v6.62A22.44,22.44,0,0,0,116.15,43v1.14H107V43a21.7,21.7,0,0,0,.89-7V29.42a10.38,10.38,0,0,0-.73-4.46c-.49-1-1.53-1.44-3.13-1.44s-3.64.73-6.11,2.19v8.56A20.82,20.82,0,0,0,99.41,43v1.14H90.28V43a24.47,24.47,0,0,0,.89-7.41v-7c0-4.14-1-6.73-3.13-7.77V19.66L96.49,18l.57,1a13.86,13.86,0,0,1,.57,3.33,33.6,33.6,0,0,1,4.62-3.2A8.44,8.44,0,0,1,106.4,18.1Z"/><path class="cls-1" d="M131.85,38.07c0,1.26.33,1.88,1,1.88a17.24,17.24,0,0,0,5.27-1.62l1.56,2.35a39.7,39.7,0,0,1-4.95,2.69,12.33,12.33,0,0,1-5,1.33q-4.59,0-4.59-5.27V22.84c-.52,0-2.24.13-5.16.37l1.88-4.7a28.1,28.1,0,0,0,3.33.26c-.07-1.59-.17-3.07-.31-4.43l7-1.77v6.15q2.09,0,8.19-.68l-2,5.38a42.07,42.07,0,0,0-6.15-.58Z"/><path class="cls-1" d="M155.48,40.73c2,0,3-.95,3-2.87q0-2.65-5.06-4c-1.39-.38-2.78-.82-4.17-1.31a8.37,8.37,0,0,1-3.55-2.34,5.93,5.93,0,0,1-1.46-4.12,6.29,6.29,0,0,1,3.23-5.61,14.67,14.67,0,0,1,7.88-2A24,24,0,0,1,165,20.7q-.26,2.31-2.81,5.53a16.52,16.52,0,0,0-4.33-3.18A9.19,9.19,0,0,0,154,22a7,7,0,0,0-2.55.36,2.8,2.8,0,0,0-.78,2.22,2.59,2.59,0,0,0,1.48,2.37,13.57,13.57,0,0,0,3.63,1.33A42.84,42.84,0,0,1,160,29.47a8.09,8.09,0,0,1,3.63,2.47,6.83,6.83,0,0,1,1.49,4.57A6.86,6.86,0,0,1,162,42.64a15.12,15.12,0,0,1-8.37,2.06,18.4,18.4,0,0,1-10-3A10.19,10.19,0,0,1,146,35.94Q151.16,40.73,155.48,40.73Z"/><path class="cls-2" d="M16.24,5.53,25,5.42q7.36,0,11.19,2.3t3.84,8a10.32,10.32,0,0,1-4.49,8.87,19.06,19.06,0,0,1-11.37,3.21,19,19,0,0,1-3.7-.37v6.83a18.28,18.28,0,0,0,1,6.58v1.14H12V40.79a22.45,22.45,0,0,0,1-7.31V14.76a29.85,29.85,0,0,0-.89-8.19V5.42C14.49,5.49,15.86,5.53,16.24,5.53ZM32.15,16.22q0-4-1.72-5.69c-1.15-1.14-3-1.72-5.5-1.72s-4,0-4.41,0c-.07,1.05-.1,3.93-.1,8.66V24.2a13.55,13.55,0,0,0,3.65.47,7.78,7.78,0,0,0,6-2.24A8.82,8.82,0,0,0,32.15,16.22Z"/><path class="cls-2" d="M55.7,42.92q-6.08,0-9.54-3.54A12.77,12.77,0,0,1,42.69,30,13.94,13.94,0,0,1,57,16q6.24,0,9.55,3.47t3.31,9.31a13.92,13.92,0,0,1-4,10A13.41,13.41,0,0,1,55.7,42.92ZM62.3,30a17.58,17.58,0,0,0-1.46-7.9,5.24,5.24,0,0,0-5.11-2.84,5.36,5.36,0,0,0-3.65,1.14A10.22,10.22,0,0,0,50.72,24a21.73,21.73,0,0,0-.52,4.65q0,10.89,6.94,10.9a5.1,5.1,0,0,0,3.39-1.1,9,9,0,0,0,1.33-3.68A27.58,27.58,0,0,0,62.3,30Z"/><path class="cls-2" d="M84.42,21.44V32.6a19.36,19.36,0,0,0,1.51,8.19v1.14H76.8V40.79a22.92,22.92,0,0,0,.89-7V26a11.33,11.33,0,0,0-.89-4.78,5.47,5.47,0,0,0-2.24-2.63V17.47L84.1,15.7l.63,1A22.52,22.52,0,0,0,84.42,21.44Zm-1-16.9a2.94,2.94,0,0,1,.66,1.77,17,17,0,0,1,.18,2.09,7.25,7.25,0,0,1-.11,1.3l-.47.42a29.43,29.43,0,0,1-6,.94l-.58-.27a6.35,6.35,0,0,1-.65-2.24,16.36,16.36,0,0,1-.23-2.16V5.58l.47-.42a17.66,17.66,0,0,1,5.58-.94h.57Z"/><path class="cls-2" d="M109.4,15.91a7.63,7.63,0,0,1,6,2.42c1.42,1.62,2.14,4,2.14,7V32a22.44,22.44,0,0,0,1.56,8.82v1.14H110V40.79a21.76,21.76,0,0,0,.89-7V27.22a10.21,10.21,0,0,0-.73-4.45c-.49-1-1.53-1.44-3.13-1.44s-3.63.73-6.1,2.19v8.56a20.83,20.83,0,0,0,1.51,8.71v1.14H93.28V40.79a24.47,24.47,0,0,0,.89-7.41v-7q0-6.21-3.13-7.77V17.47l8.45-1.62.57,1a14.31,14.31,0,0,1,.58,3.33,33,33,0,0,1,4.61-3.2A8.47,8.47,0,0,1,109.4,15.91Z"/><path class="cls-2" d="M134.85,35.88c0,1.25.33,1.88,1,1.88a17.24,17.24,0,0,0,5.27-1.62l1.57,2.35a40.62,40.62,0,0,1-5,2.69,12.33,12.33,0,0,1-5,1.33q-4.59,0-4.59-5.27V20.65c-.52,0-2.24.12-5.16.37l1.88-4.7a28.1,28.1,0,0,0,3.33.26c-.07-1.59-.17-3.07-.31-4.43l7-1.77v6.15q2.09,0,8.19-.68l-2,5.38a42.36,42.36,0,0,0-6.16-.58Z"/><path class="cls-2" d="M158.48,38.54c2,0,3-.95,3-2.87s-1.68-3.11-5.06-4c-1.39-.38-2.78-.82-4.17-1.31A8.43,8.43,0,0,1,148.67,28a5.93,5.93,0,0,1-1.46-4.12,6.28,6.28,0,0,1,3.24-5.61,14.61,14.61,0,0,1,7.87-2,24,24,0,0,1,9.7,2.24c-.17,1.53-1.11,3.38-2.81,5.53a16.35,16.35,0,0,0-4.33-3.18A9.19,9.19,0,0,0,157,19.77a7.07,7.07,0,0,0-2.56.36,2.8,2.8,0,0,0-.78,2.22,2.6,2.6,0,0,0,1.48,2.37,13.71,13.71,0,0,0,3.63,1.33A43,43,0,0,1,163,27.28a8.11,8.11,0,0,1,3.62,2.47,6.83,6.83,0,0,1,1.49,4.57A6.84,6.84,0,0,1,165,40.45a15.12,15.12,0,0,1-8.37,2.06,18.4,18.4,0,0,1-10-3A10.19,10.19,0,0,1,149,33.74Q154.15,38.54,158.48,38.54Z"/><path class="cls-1" d="M56.1,138.88q-6.57,5.93-18.11,5.93a45.57,45.57,0,0,1-21.29-5.06v-.55a12.24,12.24,0,0,1,3.77-8.56q10.4,7.28,17.56,7.27h.46a15,15,0,0,0,7.36-1.47q4-3.76,4-12.14,0-6.35-2.8-9t-9.15-2.62a74.54,74.54,0,0,0-8.92.36H27.18l-2.11-7h10a9.36,9.36,0,0,0,7.54-3.53,12.38,12.38,0,0,0,2.95-8.14c0-6.31-2.31-9.47-6.9-9.47q-6.16,0-15.08,7a22.43,22.43,0,0,1-4.32-10.49,74.3,74.3,0,0,1,20.32-3q18.28,0,18.29,13.79a16.16,16.16,0,0,1-2.8,9.52,18,18,0,0,1-6.66,5.93q14.24,3,14.24,16.18A19.39,19.39,0,0,1,56.1,138.88Z"/><path class="cls-2" d="M58.23,135.35q-6.57,5.93-18.11,5.93a45.55,45.55,0,0,1-21.29-5.06v-.55a12.24,12.24,0,0,1,3.77-8.55q10.4,7.27,17.56,7.27h.46A14.85,14.85,0,0,0,48,132.91c2.71-2.51,4.05-6.56,4.05-12.13q0-6.34-2.8-9t-9.15-2.62a73.94,73.94,0,0,0-8.92.37H29.31l-2.11-7h10A9.37,9.37,0,0,0,44.76,99a12.38,12.38,0,0,0,3-8.14c0-6.31-2.31-9.46-6.9-9.46q-6.16,0-15.08,7A22.41,22.41,0,0,1,21.4,77.93a74.42,74.42,0,0,1,20.33-3Q60,74.9,60,88.69a16.13,16.13,0,0,1-2.8,9.51,18,18,0,0,1-6.66,5.93q14.23,3,14.24,16.19A19.37,19.37,0,0,1,58.23,135.35Z"/></g></svg>