<svg xmlns="http://www.w3.org/2000/svg" width="175.3" height="156.92" viewBox="0 0 175.3 156.92"><defs><style>.cls-1{fill:#0d0811;}.cls-2{fill:#7e5289;}</style></defs><g id="points_and_time" data-name="points and time"><path class="cls-1" d="M95.75,77.6l10.84-2.08v2q-3.7,7-11.79,26.93t-11,27.7q-2.94,7.73-6.19,17.49L65.74,152.7v-2q2.9-5.24,11-24.4t11.16-27.2Z"/><path class="cls-1" d="M141.11,122.61q0-10.76-15.36-11.75l-12-.82-2.26-2.44q1.53-11.47,5-28.82l32-.46,2.26,13.2H149a20.93,20.93,0,0,0-8.27-4A42.79,42.79,0,0,0,129.18,86h-4.7a113.6,113.6,0,0,0-3.61,17q10.11.45,14,.94a41.88,41.88,0,0,1,7.55,1.72,17.67,17.67,0,0,1,6,3.12q5.34,4.34,5.34,13.06a19.17,19.17,0,0,1-6.92,14.86q-6.91,6.15-18.21,6.15T105,136.79a17.56,17.56,0,0,1,2.08-4.92,17.33,17.33,0,0,1,3.35-4.47q11.56,8.31,20.42,8.31a17.45,17.45,0,0,0,6.87-1.17,13.42,13.42,0,0,0,2.53-5.38A26.19,26.19,0,0,0,141.11,122.61Z"/><path class="cls-2" d="M100.49,74.08,111.34,72v2q-3.7,7-11.8,26.93t-11,27.7q-2.92,7.73-6.18,17.48l-11.84,3.08v-2q2.9-5.25,11-24.4t11.16-27.2Z"/><path class="cls-2" d="M145.86,119.08q0-10.76-15.36-11.75l-12-.81-2.25-2.44q1.53-11.47,5-28.83l32-.45L155.44,88h-1.72a21.2,21.2,0,0,0-8.27-4,43.12,43.12,0,0,0-11.52-1.49h-4.7a113.19,113.19,0,0,0-3.62,17q10.13.45,14,1a40.07,40.07,0,0,1,7.55,1.72,18,18,0,0,1,6,3.11q5.32,4.35,5.33,13.06a19.16,19.16,0,0,1-6.92,14.87q-6.9,6.15-18.21,6.15t-23.58-6.06a17.26,17.26,0,0,1,2.08-4.92,17.82,17.82,0,0,1,3.34-4.48q11.57,8.32,20.43,8.32a17.21,17.21,0,0,0,6.86-1.18,13.16,13.16,0,0,0,2.53-5.38A26.17,26.17,0,0,0,145.86,119.08Z"/><path class="cls-1" d="M12.73,7.72l8.71-.11q7.36,0,11.19,2.3t3.84,8A10.3,10.3,0,0,1,32,26.73a19.06,19.06,0,0,1-11.37,3.21,18.28,18.28,0,0,1-3.7-.37V36.4A18.28,18.28,0,0,0,18,43v1.14H8.46V43a22.45,22.45,0,0,0,1-7.31V17a29.85,29.85,0,0,0-.89-8.19V7.61C11,7.68,12.35,7.72,12.73,7.72ZM28.64,18.41q0-4-1.72-5.69c-1.15-1.14-3-1.72-5.5-1.72s-4,0-4.41.05q-.11,1.57-.1,8.66v6.68a13.55,13.55,0,0,0,3.65.47,7.78,7.78,0,0,0,6-2.24A8.82,8.82,0,0,0,28.64,18.41Z"/><path class="cls-1" d="M52.19,45.11q-6.07,0-9.54-3.54a12.77,12.77,0,0,1-3.47-9.34A13.94,13.94,0,0,1,53.44,18.15q6.24,0,9.55,3.47t3.31,9.31a13.92,13.92,0,0,1-4,10A13.41,13.41,0,0,1,52.19,45.11Zm6.6-12.88a17.61,17.61,0,0,0-1.46-7.9,5.24,5.24,0,0,0-5.11-2.84,5.36,5.36,0,0,0-3.65,1.14,10.22,10.22,0,0,0-1.36,3.6,21.73,21.73,0,0,0-.52,4.65q0,10.89,6.94,10.9A5.1,5.1,0,0,0,57,40.68,9,9,0,0,0,58.35,37,27.58,27.58,0,0,0,58.79,32.23Z"/><path class="cls-1" d="M80.9,23.63V34.79A19.35,19.35,0,0,0,82.42,43v1.14H73.29V43a22.9,22.9,0,0,0,.89-7V28.22a11.33,11.33,0,0,0-.89-4.78,5.47,5.47,0,0,0-2.24-2.63V19.66l9.54-1.77.63,1A22.3,22.3,0,0,0,80.9,23.63Zm-1-16.9a2.94,2.94,0,0,1,.66,1.77,17,17,0,0,1,.18,2.09,7.25,7.25,0,0,1-.11,1.3l-.47.42a29.43,29.43,0,0,1-6,.94L73.6,13A6.35,6.35,0,0,1,73,10.74a16.36,16.36,0,0,1-.23-2.16V7.77l.47-.42a17.66,17.66,0,0,1,5.58-.94h.57Z"/><path class="cls-1" d="M105.89,18.1a7.63,7.63,0,0,1,6,2.42c1.42,1.62,2.14,4,2.14,7v6.62A22.44,22.44,0,0,0,115.64,43v1.14h-9.18V43a21.7,21.7,0,0,0,.89-7V29.42a10.23,10.23,0,0,0-.73-4.46c-.49-1-1.53-1.44-3.13-1.44s-3.63.73-6.1,2.19v8.56A20.83,20.83,0,0,0,98.9,43v1.14H89.77V43a24.47,24.47,0,0,0,.89-7.41v-7q0-6.21-3.13-7.77V19.66L96,18l.57,1a14.31,14.31,0,0,1,.58,3.33,33,33,0,0,1,4.61-3.2A8.47,8.47,0,0,1,105.89,18.1Z"/><path class="cls-1" d="M131.34,38.07c0,1.26.33,1.88,1,1.88a17.24,17.24,0,0,0,5.27-1.62l1.57,2.35a40.62,40.62,0,0,1-5,2.69,12.33,12.33,0,0,1-5,1.33q-4.59,0-4.59-5.27V22.84c-.52,0-2.24.13-5.16.37l1.88-4.7a28.1,28.1,0,0,0,3.33.26c-.07-1.59-.17-3.07-.31-4.43l7-1.77v6.15q2.08,0,8.19-.68l-2,5.38a42.36,42.36,0,0,0-6.16-.58Z"/><path class="cls-1" d="M155,40.73c2,0,3-.95,3-2.87,0-1.77-1.68-3.11-5.06-4-1.39-.38-2.78-.82-4.17-1.31a8.43,8.43,0,0,1-3.55-2.34,5.93,5.93,0,0,1-1.46-4.12,6.28,6.28,0,0,1,3.24-5.61,14.61,14.61,0,0,1,7.87-2,24,24,0,0,1,9.7,2.24q-.25,2.31-2.81,5.53a16.35,16.35,0,0,0-4.33-3.18A9.19,9.19,0,0,0,153.46,22a7.07,7.07,0,0,0-2.56.36,2.8,2.8,0,0,0-.78,2.22,2.59,2.59,0,0,0,1.48,2.37,13.71,13.71,0,0,0,3.63,1.33,43,43,0,0,1,4.28,1.23,8.11,8.11,0,0,1,3.62,2.47,6.83,6.83,0,0,1,1.49,4.57,6.84,6.84,0,0,1-3.16,6.13,15.12,15.12,0,0,1-8.37,2.06,18.4,18.4,0,0,1-10-3,10.13,10.13,0,0,1,2.35-5.78Q150.64,40.73,155,40.73Z"/><path class="cls-2" d="M15.73,5.53l8.71-.11q7.36,0,11.19,2.3t3.84,8A10.32,10.32,0,0,1,35,24.54a19.06,19.06,0,0,1-11.37,3.21,19,19,0,0,1-3.7-.37v6.83a18.28,18.28,0,0,0,1,6.58v1.14H11.46V40.79a22.45,22.45,0,0,0,1-7.31V14.76a29.85,29.85,0,0,0-.89-8.19V5.42C14,5.49,15.35,5.53,15.73,5.53ZM31.64,16.22q0-4-1.72-5.69c-1.15-1.14-3-1.72-5.5-1.72s-4,0-4.41,0c-.07,1.05-.1,3.93-.1,8.66V24.2a13.55,13.55,0,0,0,3.65.47,7.78,7.78,0,0,0,6-2.24A8.82,8.82,0,0,0,31.64,16.22Z"/><path class="cls-2" d="M55.19,42.92q-6.07,0-9.54-3.54A12.77,12.77,0,0,1,42.18,30,13.94,13.94,0,0,1,56.44,16q6.24,0,9.55,3.47t3.31,9.31a14,14,0,0,1-4,10A13.45,13.45,0,0,1,55.19,42.92ZM61.79,30a17.58,17.58,0,0,0-1.46-7.9,5.24,5.24,0,0,0-5.11-2.84,5.36,5.36,0,0,0-3.65,1.14A10.22,10.22,0,0,0,50.21,24a21.73,21.73,0,0,0-.52,4.65q0,10.89,6.94,10.9A5.1,5.1,0,0,0,60,38.49a9,9,0,0,0,1.33-3.68A27.58,27.58,0,0,0,61.79,30Z"/><path class="cls-2" d="M83.91,21.44V32.6a19.36,19.36,0,0,0,1.51,8.19v1.14H76.29V40.79a22.92,22.92,0,0,0,.89-7V26a11.33,11.33,0,0,0-.89-4.78,5.47,5.47,0,0,0-2.24-2.63V17.47l9.54-1.77.63,1A22.52,22.52,0,0,0,83.91,21.44Zm-1-16.9a3,3,0,0,1,.65,1.77,17,17,0,0,1,.18,2.09,8.38,8.38,0,0,1-.1,1.3l-.47.42a29.55,29.55,0,0,1-6,.94l-.58-.27A6.35,6.35,0,0,1,76,8.55a18.36,18.36,0,0,1-.23-2.16V5.58l.47-.42a17.66,17.66,0,0,1,5.58-.94h.57Z"/><path class="cls-2" d="M108.89,15.91a7.63,7.63,0,0,1,6,2.42q2.15,2.43,2.14,7V32a22.44,22.44,0,0,0,1.56,8.82v1.14h-9.18V40.79a21.76,21.76,0,0,0,.89-7V27.22a10.21,10.21,0,0,0-.73-4.45c-.49-1-1.53-1.44-3.13-1.44s-3.63.73-6.1,2.19v8.56a20.83,20.83,0,0,0,1.51,8.71v1.14H92.77V40.79a24.47,24.47,0,0,0,.89-7.41v-7q0-6.21-3.13-7.77V17.47L99,15.85l.57,1a14.31,14.31,0,0,1,.58,3.33,33,33,0,0,1,4.61-3.2A8.47,8.47,0,0,1,108.89,15.91Z"/><path class="cls-2" d="M134.34,35.88c0,1.25.33,1.88,1,1.88a17.24,17.24,0,0,0,5.27-1.62l1.57,2.35a40.62,40.62,0,0,1-5,2.69,12.33,12.33,0,0,1-5,1.33q-4.59,0-4.59-5.27V20.65c-.52,0-2.24.12-5.16.37l1.88-4.7a28.1,28.1,0,0,0,3.33.26c-.07-1.59-.17-3.07-.31-4.43l7-1.77v6.15q2.08,0,8.19-.68l-2,5.38a42.36,42.36,0,0,0-6.16-.58Z"/><path class="cls-2" d="M158,38.54c2,0,3-.95,3-2.87s-1.68-3.11-5.06-4c-1.39-.38-2.78-.82-4.17-1.31A8.43,8.43,0,0,1,148.16,28a5.93,5.93,0,0,1-1.46-4.12,6.28,6.28,0,0,1,3.24-5.61,14.61,14.61,0,0,1,7.87-2,24,24,0,0,1,9.7,2.24c-.17,1.53-1.11,3.38-2.81,5.53a16.35,16.35,0,0,0-4.33-3.18,9.19,9.19,0,0,0-3.91-1.09,7.07,7.07,0,0,0-2.56.36,2.8,2.8,0,0,0-.78,2.22,2.6,2.6,0,0,0,1.49,2.37,13.5,13.5,0,0,0,3.62,1.33,43,43,0,0,1,4.28,1.23,8.11,8.11,0,0,1,3.62,2.47,6.83,6.83,0,0,1,1.49,4.57,6.84,6.84,0,0,1-3.16,6.13,15.12,15.12,0,0,1-8.37,2.06,18.4,18.4,0,0,1-10-3,10.19,10.19,0,0,1,2.35-5.79Q153.64,38.54,158,38.54Z"/><path class="cls-1" d="M54.51,121.93a92.89,92.89,0,0,0,1.05,14.44v1.92H42.18v-1.92a84.71,84.71,0,0,0,1-13.56v-.88q-19.17,0-25.72.09l-2.45-4.81q10.07-17,26.16-40.07l13.55-1.31q-.44,9.36-.43,38.49l10-.52-1.83,8.13ZM43.4,114.5q.09-10.25.09-16.84V87q-12.42,17.85-18.2,27.73Q34.83,114.76,43.4,114.5Z"/><path class="cls-2" d="M59.16,119.92a92.75,92.75,0,0,0,1.05,14.43v1.93H46.83v-1.93a84.53,84.53,0,0,0,1.05-13.56v-.87q-19.17,0-25.72.09l-2.45-4.82q10.07-17,26.16-40.07l13.55-1.31Q59,83.19,59,112.31l10-.53-1.83,8.14Zm-11.11-7.44q.09-10.23.09-16.84V85q-12.42,17.85-18.2,27.73Q39.48,112.74,48.05,112.48Z"/></g></svg>