<svg xmlns="http://www.w3.org/2000/svg" width="175.3" height="156.92" viewBox="0 0 175.3 156.92"><defs><style>.cls-1{fill:#0d0811;}.cls-2{fill:#7e5289;}</style></defs><g id="points_and_time" data-name="points and time"><path class="cls-1" d="M94.89,79.22l10.85-2.08v2q-3.7,7-11.79,26.93t-11,27.7Q80,141.5,76.73,151.25l-11.84,3.07v-2q2.89-5.25,11-24.4T87,100.73Z"/><path class="cls-1" d="M140.26,124.23q0-10.76-15.36-11.75l-12-.81-2.26-2.44q1.53-11.48,5-28.83l32-.45,2.26,13.19h-1.72a20.86,20.86,0,0,0-8.27-4,42.67,42.67,0,0,0-11.52-1.49h-4.7a112.9,112.9,0,0,0-3.62,17q10.12.45,14,.95a40.25,40.25,0,0,1,7.55,1.72,18,18,0,0,1,6,3.11q5.32,4.34,5.33,13.06a19.18,19.18,0,0,1-6.91,14.87q-6.91,6.15-18.21,6.14t-23.59-6.05a17.18,17.18,0,0,1,2.08-4.93,17.56,17.56,0,0,1,3.34-4.47q11.56,8.31,20.43,8.31a17.45,17.45,0,0,0,6.87-1.17,13.55,13.55,0,0,0,2.53-5.38A26.19,26.19,0,0,0,140.26,124.23Z"/><path class="cls-2" d="M99.64,75.7l10.84-2.08v2q-3.7,7-11.79,26.93t-11,27.7q-2.93,7.72-6.19,17.49L69.64,150.8v-2q2.88-5.24,11-24.4t11.17-27.2Z"/><path class="cls-2" d="M145,120.71Q145,110,129.64,109l-12-.82-2.26-2.44q1.55-11.48,5-28.83l32-.45,2.26,13.2h-1.72a20.93,20.93,0,0,0-8.27-4,42.79,42.79,0,0,0-11.53-1.5h-4.7a113.31,113.31,0,0,0-3.61,17q10.12.45,14,.94a40.86,40.86,0,0,1,7.55,1.72,17.82,17.82,0,0,1,6,3.12q5.32,4.34,5.33,13.06a19.17,19.17,0,0,1-6.92,14.86Q143.73,141,132.44,141t-23.58-6.06a17.18,17.18,0,0,1,2.07-4.92,17.56,17.56,0,0,1,3.35-4.47q11.56,8.31,20.42,8.31a17.45,17.45,0,0,0,6.87-1.17,13.42,13.42,0,0,0,2.53-5.38A26.25,26.25,0,0,0,145,120.71Z"/><path class="cls-1" d="M52.4,122.47q0-10.75-15.36-11.75l-12-.82-2.26-2.44q1.53-11.47,5-28.82l32-.46L62,91.38H60.26a20.86,20.86,0,0,0-8.27-4,42.67,42.67,0,0,0-11.52-1.49h-4.7a111.88,111.88,0,0,0-3.61,17q10.11.45,14,1a41,41,0,0,1,7.55,1.71,17.94,17.94,0,0,1,6,3.12Q65,113,65,121.7a19.2,19.2,0,0,1-6.91,14.87q-6.91,6.13-18.21,6.14t-23.59-6.05a17.18,17.18,0,0,1,2.08-4.93,17.56,17.56,0,0,1,3.34-4.47q11.58,8.31,20.43,8.31A17.45,17.45,0,0,0,49,134.4,13.55,13.55,0,0,0,51.5,129,26.19,26.19,0,0,0,52.4,122.47Z"/><path class="cls-2" d="M57.14,118.94q0-10.75-15.36-11.74l-12-.82-2.25-2.44q1.53-11.47,5-28.83l32-.45,2.26,13.19H65a21.2,21.2,0,0,0-8.27-4,43.17,43.17,0,0,0-11.52-1.49h-4.7a111.93,111.93,0,0,0-3.62,17q10.13.45,14,1A40.07,40.07,0,0,1,58.41,102a17.82,17.82,0,0,1,6,3.12q5.33,4.34,5.33,13.06A19.17,19.17,0,0,1,62.79,133q-6.9,6.15-18.21,6.15T21,133.13a17.48,17.48,0,0,1,2.07-4.92,18.07,18.07,0,0,1,3.35-4.48q11.56,8.33,20.42,8.32a17.26,17.26,0,0,0,6.87-1.18,13.31,13.31,0,0,0,2.53-5.37A26.27,26.27,0,0,0,57.14,118.94Z"/><path class="cls-1" d="M11.88,9.34l8.71-.1q7.35,0,11.19,2.29c2.56,1.53,3.83,4.18,3.83,8a10.3,10.3,0,0,1-4.48,8.87,19.06,19.06,0,0,1-11.37,3.21,18.38,18.38,0,0,1-3.71-.37V38A18.25,18.25,0,0,0,17.1,44.6v1.15H7.6V44.6a22.1,22.1,0,0,0,1.05-7.3V18.57a30,30,0,0,0-.89-8.19V9.24C10.12,9.31,11.5,9.34,11.88,9.34ZM27.79,20c0-2.64-.57-4.54-1.72-5.68s-3-1.72-5.5-1.72-4,0-4.41,0q-.11,1.56-.11,8.66V28a13.22,13.22,0,0,0,3.65.47,7.8,7.8,0,0,0,6-2.24A8.85,8.85,0,0,0,27.79,20Z"/><path class="cls-1" d="M51.34,46.74q-6.08,0-9.55-3.55a12.79,12.79,0,0,1-3.46-9.34A13.94,13.94,0,0,1,52.59,19.77q6.24,0,9.55,3.47a13,13,0,0,1,3.31,9.31,13.94,13.94,0,0,1-4,10A13.43,13.43,0,0,1,51.34,46.74Zm6.6-12.89A17.61,17.61,0,0,0,56.48,26a5.27,5.27,0,0,0-5.11-2.84,5.34,5.34,0,0,0-3.66,1.15,10.23,10.23,0,0,0-1.35,3.6,21.64,21.64,0,0,0-.52,4.64q0,10.91,6.93,10.9a5.1,5.1,0,0,0,3.39-1.1,8.84,8.84,0,0,0,1.33-3.67A26.77,26.77,0,0,0,57.94,33.85Z"/><path class="cls-1" d="M80.05,25.25V36.41a19.35,19.35,0,0,0,1.52,8.19v1.15H72.44V44.6a22.89,22.89,0,0,0,.88-7V29.84a11.32,11.32,0,0,0-.88-4.77,5.46,5.46,0,0,0-2.25-2.64V21.28l9.55-1.77.63,1A22.3,22.3,0,0,0,80.05,25.25Zm-1-16.9a2.91,2.91,0,0,1,.65,1.77,15.69,15.69,0,0,1,.19,2.09,7.17,7.17,0,0,1-.11,1.3l-.47.42a28.86,28.86,0,0,1-6,.94l-.57-.26a6.35,6.35,0,0,1-.65-2.24,17.22,17.22,0,0,1-.24-2.17V9.39L72.33,9A17.74,17.74,0,0,1,77.91,8h.58Z"/><path class="cls-1" d="M105,19.72a7.65,7.65,0,0,1,6,2.43c1.42,1.61,2.14,4,2.14,7v6.62a22.37,22.37,0,0,0,1.56,8.82v1.15h-9.18V44.6a21.7,21.7,0,0,0,.89-7V31a10.38,10.38,0,0,0-.73-4.46c-.49-1-1.53-1.44-3.13-1.44s-3.64.73-6.11,2.2v8.55a20.82,20.82,0,0,0,1.52,8.71v1.15H88.92V44.6a24.38,24.38,0,0,0,.89-7.41v-7c0-4.13-1-6.72-3.13-7.77V21.28l8.45-1.61.57,1A14,14,0,0,1,96.27,24a32.92,32.92,0,0,1,4.62-3.21A8.55,8.55,0,0,1,105,19.72Z"/><path class="cls-1" d="M130.49,39.7c0,1.25.33,1.87,1,1.87A17.2,17.2,0,0,0,136.75,40l1.56,2.34A39.7,39.7,0,0,1,133.36,45a12.25,12.25,0,0,1-5,1.33q-4.59,0-4.59-5.27V24.47q-.78,0-5.16.36l1.87-4.69c.63.1,1.74.19,3.34.26-.07-1.6-.17-3.08-.31-4.44l7-1.77v6.16q2.08-.06,8.19-.68l-2,5.37a43.62,43.62,0,0,0-6.15-.57Z"/><path class="cls-1" d="M154.12,42.36c2,0,3-1,3-2.87s-1.69-3.11-5.06-4c-1.39-.38-2.78-.82-4.17-1.3a8.48,8.48,0,0,1-3.55-2.35,5.93,5.93,0,0,1-1.46-4.12,6.29,6.29,0,0,1,3.23-5.61,14.65,14.65,0,0,1,7.88-2,23.86,23.86,0,0,1,9.7,2.25q-.25,2.3-2.82,5.53a16.59,16.59,0,0,0-4.32-3.19,9.19,9.19,0,0,0-3.92-1.09,7,7,0,0,0-2.55.36,2.82,2.82,0,0,0-.78,2.22,2.58,2.58,0,0,0,1.48,2.37,13.57,13.57,0,0,0,3.63,1.33c1.42.34,2.85.74,4.27,1.23a8.11,8.11,0,0,1,3.63,2.48,6.78,6.78,0,0,1,1.49,4.56,6.85,6.85,0,0,1-3.16,6.13,15.14,15.14,0,0,1-8.37,2.06,18.47,18.47,0,0,1-10-3,10.12,10.12,0,0,1,2.34-5.79Q149.79,42.36,154.12,42.36Z"/><path class="cls-2" d="M14.88,7.15l8.71-.1q7.35,0,11.19,2.29c2.56,1.53,3.83,4.18,3.83,8a10.3,10.3,0,0,1-4.48,8.87,19.06,19.06,0,0,1-11.37,3.21A18.45,18.45,0,0,1,19.05,29v6.84a18.25,18.25,0,0,0,1.05,6.57v1.15H10.6V42.41a22.1,22.1,0,0,0,1.05-7.3V16.38a29.9,29.9,0,0,0-.89-8.19V7.05C13.13,7.12,14.5,7.15,14.88,7.15ZM30.79,17.84c0-2.64-.57-4.54-1.72-5.68s-3-1.72-5.5-1.72-4,0-4.41.05q-.11,1.56-.11,8.66v6.67a13.24,13.24,0,0,0,3.66.47,7.78,7.78,0,0,0,6-2.24A8.85,8.85,0,0,0,30.79,17.84Z"/><path class="cls-2" d="M54.34,44.55q-6.08,0-9.55-3.55a12.79,12.79,0,0,1-3.46-9.34A13.94,13.94,0,0,1,55.59,17.58q6.24,0,9.55,3.47a13,13,0,0,1,3.31,9.31,13.92,13.92,0,0,1-4,10A13.4,13.4,0,0,1,54.34,44.55Zm6.6-12.89a17.61,17.61,0,0,0-1.46-7.9,5.27,5.27,0,0,0-5.11-2.84,5.34,5.34,0,0,0-3.66,1.15,10.43,10.43,0,0,0-1.35,3.6,21.64,21.64,0,0,0-.52,4.64q0,10.9,6.93,10.9a5.1,5.1,0,0,0,3.39-1.1,8.84,8.84,0,0,0,1.33-3.67A26.77,26.77,0,0,0,60.94,31.66Z"/><path class="cls-2" d="M83.05,23.06V34.22a19.35,19.35,0,0,0,1.52,8.19v1.15H75.44V42.41a22.89,22.89,0,0,0,.88-7V27.65a11.29,11.29,0,0,0-.88-4.77,5.46,5.46,0,0,0-2.25-2.64V19.09l9.55-1.77.63,1A22.3,22.3,0,0,0,83.05,23.06Zm-1-16.9a2.91,2.91,0,0,1,.65,1.77A15.69,15.69,0,0,1,82.9,10a7.17,7.17,0,0,1-.11,1.3l-.47.42a29.55,29.55,0,0,1-6,.94l-.57-.26a6.35,6.35,0,0,1-.65-2.24A17.22,17.22,0,0,1,74.86,8V7.2l.47-.42a17.74,17.74,0,0,1,5.58-.93h.58Z"/><path class="cls-2" d="M108,17.53a7.68,7.68,0,0,1,6,2.42c1.42,1.62,2.14,4,2.14,7v6.62a22.37,22.37,0,0,0,1.56,8.82v1.15h-9.18V42.41a21.7,21.7,0,0,0,.89-7V28.85a10.38,10.38,0,0,0-.73-4.46c-.49-1-1.53-1.44-3.13-1.44s-3.64.73-6.11,2.19V33.7a20.82,20.82,0,0,0,1.52,8.71v1.15H91.92V42.41A24.38,24.38,0,0,0,92.81,35V28c0-4.13-1-6.73-3.13-7.77V19.09l8.45-1.61.57,1a14,14,0,0,1,.57,3.34,32.92,32.92,0,0,1,4.62-3.21A8.55,8.55,0,0,1,108,17.53Z"/><path class="cls-2" d="M133.49,37.51c0,1.25.33,1.87,1,1.87a17.5,17.5,0,0,0,5.27-1.61l1.56,2.34a39.7,39.7,0,0,1-4.95,2.69,12.21,12.21,0,0,1-5,1.33q-4.59,0-4.59-5.27V22.28q-.78,0-5.16.36L123.47,18c.63.1,1.74.19,3.34.26-.07-1.6-.17-3.08-.31-4.44l7-1.77v6.16q2.08-.06,8.19-.68l-2,5.37a43.62,43.62,0,0,0-6.15-.57Z"/><path class="cls-2" d="M157.12,40.17c2,0,3-1,3-2.87s-1.69-3.11-5.06-4c-1.39-.38-2.78-.82-4.17-1.3a8.48,8.48,0,0,1-3.55-2.35,5.93,5.93,0,0,1-1.46-4.12,6.29,6.29,0,0,1,3.23-5.61,14.65,14.65,0,0,1,7.88-2,23.86,23.86,0,0,1,9.7,2.25q-.25,2.3-2.82,5.53a16.36,16.36,0,0,0-4.32-3.19,9.19,9.19,0,0,0-3.92-1.09,7,7,0,0,0-2.55.36,2.82,2.82,0,0,0-.78,2.22,2.58,2.58,0,0,0,1.48,2.37,13.57,13.57,0,0,0,3.63,1.33,42.84,42.84,0,0,1,4.27,1.23,8.11,8.11,0,0,1,3.63,2.48,6.78,6.78,0,0,1,1.49,4.56,6.85,6.85,0,0,1-3.16,6.13,15.14,15.14,0,0,1-8.37,2.06,18.47,18.47,0,0,1-10-3,10.12,10.12,0,0,1,2.34-5.79Q152.79,40.17,157.12,40.17Z"/></g></svg>