<svg xmlns="http://www.w3.org/2000/svg" width="374.09" height="604.01" viewBox="0 0 374.09 604.01"><defs><style>.cls-1{fill:#82491a;}.cls-2{fill:#e5b380;}.cls-3{fill:#161306;}.cls-4{fill:#605852;}.cls-5{fill:#38302a;}.cls-6{fill:#f4d240;}.cls-7{fill:#070605;}.cls-8{fill:#4f4b48;}.cls-9{fill:#038258;}.cls-10{fill:#10bf80;}</style></defs><g id="Layer_3" data-name="Layer 3"><path d="M207.7,101.5l56.9,47-8.38,52.35L193.5,243.65a24.11,24.11,0,0,1-13.59,4.19h-39.5a7.48,7.48,0,0,1-1.57-.17l-29.33-6.61A22.83,22.83,0,0,1,95,230.53l-46.9-78.17L85.61,95.23l70.71-5.47C166,89.93,188.92,95.23,207.7,101.5Z"/><path d="M129.49,99.38,85.61,95.23l18.94-28.39a30.36,30.36,0,0,1,3.15-4l28.09-30.16L158.6,65.07A27.26,27.26,0,0,1,162,71.61l11.37,31.92Z"/><path d="M228.3,126.74,194.8,97.49l39.56-19.87a29.92,29.92,0,0,1,8.18-2.71l36.72-6.53L281.65,106a24.67,24.67,0,0,1-2.22,11.91L261.79,156Z"/><polygon class="cls-1" points="185.88 264.12 92.29 256.36 100.03 235.65 187.47 247.07 185.88 264.12"/><line class="cls-2" x1="218.72" y1="331.31" x2="197.44" y2="450.73"/><path d="M193.1,468.21c-.09.47.4.88,1,.84,4.62-.26,19.06,1.55,66.48,12,.8.18-9.9-21.93-10.25-22.5-8.81-14.33-13.92-57.17-31.27-129.27Z"/><path class="cls-3" d="M234.3,451a52.34,52.34,0,1,1-18.47-3.36A52.33,52.33,0,0,1,234.3,451"/><rect class="cls-3" x="36.38" y="536.03" width="85.7" height="27.39" rx="12" transform="translate(-332.47 176.93) rotate(-39.64)"/><path class="cls-3" d="M196.44,456.34c-20.06,2.84-41,5.7-44,5.74l-.53,93.59h0c10,6.71-84.27-.2-84.42-5.27-4.61-1.13-21-1.57-24-7.77a23.73,23.73,0,0,1-1.75-6.2,17.06,17.06,0,0,1-.17-4l1.82-26a17.36,17.36,0,0,1,.65-3.65c2.25-7.81,11.09-38.61,11-39.43l4.9-62.1a17.8,17.8,0,0,0-.18-4.25l-9.87-60.36c-.92-5.63-.42-14.47,3.48-18.83a18.38,18.38,0,0,0,2.26-2.94l34.78-58.48h0c5.85-4.48,46.47,3.33,55.29,5.1a18.28,18.28,0,0,0,3.46.34l26.09,2.32,10.74-.83,28,64.38c.74,1.54.51,3.86.78,5.54"/><path class="cls-3" d="M219.35,552.24,135,587.52a12.05,12.05,0,0,1-16.84-2.16l-2.07-2.69a12,12,0,0,1,2.16-16.83L176,521.21a12.05,12.05,0,0,1,16.84,2.16l2.07,2.69C199,531.28,224.57,548.21,219.35,552.24Z"/><path d="M123.63,259.07l62.82,4.25,32.63,66-64.5,48.48c-23.12-9.19-34.86-3.58-48,3.36L78,396.16,49.47,321.33s30.38-56.48,42.82-69.06Z"/><path d="M87.51,582.22H74.27c-6.6,0-14.48-6.12-14.48-12.72l12.13-30.14L48.53,336c0-6.6,22.14.52,28.74.52h19.3c6.6,0,12.75-3.27,12.75,3.33l-7.25,133.41-4.89,93.86C97.18,573.74,94.11,582.22,87.51,582.22Z"/><path d="M197.51,450.73,178.15,558.39,189.54,574c0,6.77-4.24,12.32-9.42,12.32H165c-5.18,0-9.42-5.55-9.42-12.32L150,545.23l5.6-217.76c0-6.78,4.24-12.32,9.42-12.32h15.15a58.57,58.57,0,0,1,39.23,14.14l-.37,2"/><polygon class="cls-4" points="66 572.82 70.11 574.24 66.42 578.29 62.72 582.34 62.3 576.87 61.89 571.4 66 572.82"/><polygon class="cls-4" points="44.77 566.32 46.03 569.24 41.53 569.46 37.02 569.69 40.26 566.55 43.5 563.41 44.77 566.32"/><polygon class="cls-4" points="47.8 573.09 49.95 575.98 45.36 577.14 40.78 578.31 43.22 574.26 45.66 570.21 47.8 573.09"/><polygon class="cls-4" points="53.46 579.53 56.18 582.07 51.99 583.83 47.81 585.59 49.27 581.29 50.74 576.99 53.46 579.53"/><polygon class="cls-4" points="74.81 577.42 78.93 578.84 75.14 583.16 71.35 587.48 71.03 581.74 70.7 576 74.81 577.42"/><polygon class="cls-4" points="85 578.11 89.34 578.43 86.71 584.42 84.08 590.41 82.37 584.1 80.67 577.78 85 578.11"/><polygon class="cls-4" points="184.57 576.56 188.7 575.17 188.77 582.22 188.84 589.27 184.65 583.61 180.45 577.95 184.57 576.56"/><polygon class="cls-4" points="175.99 581.85 180.12 580.46 180.02 587 179.92 593.54 175.9 588.39 171.87 583.23 175.99 581.85"/><polygon class="cls-4" points="164.96 582.03 169.3 581.66 167.64 587.99 165.99 594.32 163.31 588.36 160.63 582.39 164.96 582.03"/><polygon class="cls-4" points="117.23 571.81 119.43 575.06 114.49 576.03 109.56 576.99 112.29 572.77 115.03 568.55 117.23 571.81"/><polygon class="cls-4" points="119.9 579.34 122.07 582.55 116.95 583.67 111.83 584.79 114.78 580.46 117.73 576.13 119.9 579.34"/><polygon class="cls-4" points="126.02 585.48 128.84 588.28 123.8 590.53 118.76 592.78 120.98 587.73 123.2 582.67 126.02 585.48"/><path d="M260.6,527s42.58,2.34,67.41-29.95c.92-.94,33.57-46.53,33.57-46.53s18.39-19-6.44-66.95c1.31,0-18.53-23.27-47.05-29.7-3-.68-10.44-11.32-11.82-14.21-4.81-10,14-49.22,14-49.22-.46,1.8-21,2.91-31.08,36.62.51.46-7.94,24.53,11.3,43.26a7.93,7.93,0,0,0,5.68,2.3c8.37-.13,25.29.31,40.11,24.72.46,1.9,23.22,25-.23,60.24.92.54-14,23.81-28.28,33.78-2.3.23-27.71,19.47-40.52,19C266.49,511.05,260.6,527,260.6,527Z"/><path class="cls-5" d="M146.58,173.49c0,6.67.28,14,5.24,19,1.36,1.38,3.48-.74,2.12-2.12-4.36-4.44-4.37-11.1-4.36-16.91a1.5,1.5,0,0,0-3,0Z"/><path class="cls-5" d="M146,173c-1.42,3.33-4.6,6-7.52,8a16.94,16.94,0,0,1-10.21,3.41c-1.93-.07-1.93,2.93,0,3A19.66,19.66,0,0,0,140,183.57c3.31-2.27,7-5.29,8.59-9.06a1.57,1.57,0,0,0-.54-2.06A1.51,1.51,0,0,0,146,173Z"/><path class="cls-6" d="M123.59,124.11a44.72,44.72,0,0,1,5.28,1.75l12.7,5.11a2.15,2.15,0,0,1,1.71,2.23s-.28,1.63-.71,4.08c-2.08,11.89-15,19.56-28.88,17.14h0c-13.22-2.31-22.33-13.39-20.35-24.73.52-3,.89-5.07.89-5.07a2.13,2.13,0,0,1,2.27-1.53l14.48-.43a44.57,44.57,0,0,1,7.21.38"/><path class="cls-6" d="M200.13,170.53h0c-13.23-2.31-22.34-13.39-20.36-24.72.53-3,.89-5.08.89-5.08a2.13,2.13,0,0,1,2.27-1.53l14.48-.43A44.67,44.67,0,0,1,215.3,142l12.7,5.11a2.17,2.17,0,0,1,1.72,2.23s-.29,1.64-.71,4.08C226.92,165.28,214,173,200.13,170.53Z"/><path class="cls-7" d="M118.19,123c-.3,1.51-.57,3.48-.84,5.1-1.85,11.44-2.13,20.91-.6,21.16s4.26-8.82,6.12-20.26c.24-1.44.54-3.56.72-4.93A26.29,26.29,0,0,0,118.19,123Z"/><path class="cls-7" d="M213,141.2c-.33,1.64-.64,3.36-.93,5.14-1.82,11.17-2.06,20.43-.53,20.68s4.23-8.61,6-19.78c.25-1.51.46-3,.65-4.4A52.67,52.67,0,0,0,213,141.2Z"/><path class="cls-5" d="M149.83,163.67l7.21,1.75a.79.79,0,0,1,.31,1.38l-4.5,3.58-5,3.94a.78.78,0,0,1-1.2-.29l-2.6-5.78L141.72,163a.78.78,0,0,1,.9-1.08Z"/><polygon class="cls-8" points="119.39 90.93 107.78 96.67 115.17 80.76 134.02 62.17 141.65 76.84 141.65 87.02 119.39 90.93"/><polygon class="cls-8" points="249.08 119.5 258.96 128.89 260.92 113.23 260.92 96.67 244.26 105.84 237.24 114.21 249.08 119.5"/><path class="cls-5" d="M78,132.63a184.85,184.85,0,0,0-49.5-16.06c-1.89-.33-2.7,2.56-.8,2.89a182.13,182.13,0,0,1,48.79,15.76c1.72.85,3.25-1.74,1.51-2.59Z"/><path class="cls-5" d="M73.65,151.43c-9.64-2.62-19.68-2.89-29.6-3.15-9.19-.24-18.62-.22-27.12,3.73-1.75.81-.23,3.4,1.51,2.59,8.11-3.76,17.31-3.54,26.05-3.31,9.52.25,19.11.52,28.36,3a1.5,1.5,0,0,0,.8-2.89Z"/><path class="cls-5" d="M76.76,168.13c-4.59,1.11-8.88,3.12-13.22,5a137.17,137.17,0,0,1-13.94,4.78c-8.59,2.59-17.33,5.47-24.11,11.61-1.43,1.3.7,3.42,2.12,2.12,6.62-6,15.34-8.59,23.7-11.11a131.86,131.86,0,0,0,13.32-4.63c4.25-1.8,8.43-3.75,12.93-4.84,1.88-.46,1.08-3.35-.8-2.89Z"/><path class="cls-5" d="M226.33,177.29c4.43-.67,8.87-1.35,13.35-1.58a67.86,67.86,0,0,1,13.73.78,168.53,168.53,0,0,1,24.37,5.1,51,51,0,0,1,12.42,5.59c1.63,1,3.13-1.56,1.51-2.59-7-4.5-15.18-6.75-23.3-8.41-8.85-1.8-18-3.78-27-3.54a127.91,127.91,0,0,0-15.84,1.76c-1.9.29-1.09,3.18.8,2.89Z"/><path class="cls-5" d="M217.89,194.8a194.59,194.59,0,0,1,22.88,9.52,22.57,22.57,0,0,1,8.49,6.85,55.78,55.78,0,0,1,5.08,9.33c.82,1.75,3.4.22,2.59-1.52a53.5,53.5,0,0,0-5.57-10,24.7,24.7,0,0,0-8.69-7.08,192,192,0,0,0-24-10c-1.82-.64-2.61,2.26-.8,2.89Z"/><path class="cls-5" d="M201.1,208.4c8.52,9.62,17.86,20.3,18.56,33.79.1,1.92,3.1,1.93,3,0-.74-14.37-10.34-25.64-19.44-35.91-1.28-1.44-3.4.68-2.12,2.12Z"/><polygon class="cls-8" points="70.71 315.79 99.66 313.63 70.7 336.4 59.01 339.8 49.52 344.56 48.05 328.08 49.47 321.33 70.71 315.79"/><polygon class="cls-8" points="183.28 318.01 154.33 315.85 182.31 337.84 193.74 341.37 204.49 346.78 205.94 330.29 204.52 323.54 183.28 318.01"/><polygon class="cls-8" points="74.03 346.72 95.4 348.02 74.02 367.33 63.18 369.8 52.84 375.49 51.37 359 50.47 352.86 74.03 346.72"/><polygon class="cls-8" points="181.61 348.88 160.25 350.18 181.62 369.49 192.46 371.96 202.8 377.65 204.27 361.17 205.17 355.02 181.61 348.88"/><polygon class="cls-8" points="179.5 105.29 180.2 116.02 189.08 106.12 191.53 101.23 193.35 96.67 185.11 94.47 183.43 94.33 179.5 105.29"/><polygon class="cls-8" points="166.73 103.07 167.42 113.8 176.3 103.9 178.09 98.36 178.66 93.4 172.33 92.25 169.47 91.55 166.73 103.07"/><polygon class="cls-8" points="179.03 379.99 157.67 381.28 179.05 400.59 189.05 402.54 200.22 408.75 201.69 392.27 202.6 386.12 179.03 379.99"/><polygon class="cls-8" points="219.94 424.98 203.87 430.84 225.56 441.12 233.78 440.38 244.07 442.71 240.71 429.46 239.72 424.44 219.94 424.98"/><polygon class="cls-8" points="215.89 405.54 199.82 411.41 221.52 421.69 229.74 420.94 240.03 423.27 236.66 410.02 235.68 405 215.89 405.54"/><polygon class="cls-8" points="77.35 377.65 98.71 378.94 77.34 398.25 67.09 400.97 56.16 406.41 54.69 389.93 53.95 384.85 77.35 377.65"/><path class="cls-9" d="M144,280.11c-.67,7.22-5.71,12.64-11.25,12.13s-9.5-6.78-8.83-14S135.77,260,135.77,260,144.7,272.9,144,280.11Z"/><path class="cls-10" d="M126.18,279.61c0,13.08,8.74,10.79,8.74,10.79l-2.83-2a16.73,16.73,0,0,1-3.24-3.16Z"/></g></svg>