<svg xmlns="http://www.w3.org/2000/svg" width="173.74" height="147.18" viewBox="0 0 173.74 147.18"><defs><style>.cls-1{fill:#fff;}.cls-2{fill:#605146;}.cls-3{fill:#bc967d;}.cls-4{fill:#665449;}.cls-5{fill:#4f4641;}</style></defs><g id="Ui_and_character" data-name="Ui and character"><path class="cls-1" d="M18,88.26c-1.05-.42-1.14-2.66-.2-5s2.57-3.87,3.62-3.44-1.79,2-2.74,4.32S19,88.69,18,88.26Z"/><path class="cls-2" d="M156.42,42.87l-.63-.25a3.52,3.52,0,0,1-2.19-3.35l0-.71A17.73,17.73,0,0,0,143,21.76l-.13-.06a32.69,32.69,0,0,0-4.55-1,1.52,1.52,0,0,0-.21,0l-4.26-.31c-1.41.17,0,0-1.15.13a14.31,14.31,0,0,0-6.06,2.46,36.47,36.47,0,0,0-6.09,6,3,3,0,0,0-.46.95l-2.53,8.88a3.18,3.18,0,0,1-.52,1,5.66,5.66,0,0,1-1.76,1.51L81.08,59.82,46.52,77.74a5.52,5.52,0,0,1-2.24.62,3.2,3.2,0,0,1-1.15-.16l-8.77-2.88a3.15,3.15,0,0,0-1-.16A36.59,36.59,0,0,0,25,76.86a14.37,14.37,0,0,0-5.44,3.64l-.76.87-2.12,3.71-.11.19a33.37,33.37,0,0,0-1.68,4.35l0,.14a17.75,17.75,0,0,0,8,18.19l.6.38a3.52,3.52,0,0,1,1.55,3.7l-.15.65a14.82,14.82,0,0,0,3.7,13.41,20.71,20.71,0,0,0,3.73,3.09,17.83,17.83,0,0,0,9.07,3l2.91.12a3,3,0,0,0,.6,0c6.06-.92,13.4-4.78,14.62-9.86a2,2,0,0,0,.07-.43l.58-5.33a3.06,3.06,0,0,1,1.59-2.41L99.2,94,137,74.24a3.11,3.11,0,0,1,2.89,0l4.74,2.51a2.93,2.93,0,0,0,.4.19c4.88,1.83,12.19-2.07,16.35-6.58a2.74,2.74,0,0,0,.36-.48l1.53-2.48a17.83,17.83,0,0,0,2.64-9.17,21.21,21.21,0,0,0-.46-4.82A14.85,14.85,0,0,0,156.42,42.87Z"/><path class="cls-3" d="M155.29,41l-.63-.25a3.52,3.52,0,0,1-2.19-3.35l0-.71a17.75,17.75,0,0,0-10.59-16.8l-.14-.06a32.87,32.87,0,0,0-4.54-1l-.22,0-4.26-.31c-1.41.17,0,0-1.15.13A14.31,14.31,0,0,0,125.54,21a36.47,36.47,0,0,0-6.09,6,3.1,3.1,0,0,0-.46,1l-2.53,8.88a3.08,3.08,0,0,1-.52,1,5.45,5.45,0,0,1-1.76,1.51L80,57.93,45.39,75.86a5.63,5.63,0,0,1-2.24.61A3.2,3.2,0,0,1,42,76.31l-8.77-2.88a3.11,3.11,0,0,0-1-.16A36.59,36.59,0,0,0,23.83,75a14.37,14.37,0,0,0-5.44,3.64l-.76.88-2.12,3.7a1.14,1.14,0,0,0-.1.19,35,35,0,0,0-1.69,4.35l0,.14a17.75,17.75,0,0,0,8,18.19l.6.38a3.5,3.5,0,0,1,1.55,3.7l-.15.66a14.84,14.84,0,0,0,3.7,13.41,21.48,21.48,0,0,0,3.73,3.08,17.83,17.83,0,0,0,9.07,3l2.91.13a3.89,3.89,0,0,0,.6,0c6.07-.92,13.4-4.78,14.62-9.86a2,2,0,0,0,.07-.43l.58-5.33a3.06,3.06,0,0,1,1.59-2.41L98.07,92.1l37.8-19.74a3.08,3.08,0,0,1,2.89,0l4.74,2.51c.13.06.26.13.4.18,4.88,1.84,12.2-2.07,16.35-6.58a2.92,2.92,0,0,0,.37-.48l1.52-2.48a17.8,17.8,0,0,0,2.64-9.17,21.27,21.27,0,0,0-.46-4.82A14.83,14.83,0,0,0,155.29,41Z"/><circle class="cls-4" cx="56.93" cy="91.91" r="3.25"/><circle class="cls-5" cx="57.23" cy="92.33" r="3.25"/><circle class="cls-4" cx="123.08" cy="55.97" r="3.25"/><circle class="cls-5" cx="123.38" cy="56.45" r="3.25"/><path class="cls-4" d="M68,80.59c2.2.61,3.1,1.93,2,4,2.28,0,3.72,1.58,3.22,3.75s-2.37,2.45-4,3.58c-2-3.46-4.13-6.81-6.07-10.31C64.66,81,66.51,80.18,68,80.59Zm1,3.2c.09-2.77-2.59-2.23-4.54-1.57.59,1.06,1.15,2.14,1.83,3.15C67,85.08,69,84.63,69,83.79Zm-2.13,2.62c.82,1.38,1.61,2.79,2.4,4.19C73.36,87.62,71.28,85.13,66.85,86.41Z"/><path class="cls-4" d="M78.27,85l.63-.33.59,1.18-2.58,1.34c-.19-.4-.38-.79-.56-1.18.2-.12.41-.23.62-.34a29.5,29.5,0,0,0-4.65-7.6l-.53.45-.86-1c.76-.65,1.53-1.28,2.31-1.91.29.34.59.67.87,1-.21.15-.41.29-.61.45A36.42,36.42,0,0,1,78.27,85Z"/><path class="cls-4" d="M84,76.91c4.21,5.35-2.85,8.66-6.55,3.27.58-.06,1.15-.14,1.73-.25,2.73,4,9.18,1.3.15-3-3-4.53,2.11-7.06,5.35-3.33L83.17,74C79.58,70.92,76.36,74.06,84,76.91Z"/><path class="cls-4" d="M94.81,78.6c-6.6,3.68-8.57-2.6-7.56-8.14,2.58-2.22,4.58-1.11,6,1.48-.46.18-.87.3-1.35.5-2.84-4.34-4.18.25-3.28,3C89.8,79,93.85,80.18,93,75.36c.54-.23,1-.4,1.54-.61A5.73,5.73,0,0,1,94.81,78.6Z"/><path class="cls-4" d="M93.05,67.71c.45-.16.89-.35,1.35-.5a50.93,50.93,0,0,0,3.42,7.26c.78,1.22,1.52,1.15,2.61.48s1.35-1.36.67-2.62c-1.27-2.32-2.92-5-4.24-7.45.4-.27.84-.5,1.26-.75,2.33,3.85,6.48,7.6,3,12.05C95.38,77.2,94.69,71.87,93.05,67.71Z"/><path class="cls-4" d="M108.4,70.42l.63-.36.62,1.16c-.85.49-1.71,1-2.56,1.47-.2-.39-.41-.78-.62-1.17l.62-.36c-1.45-2.71-3-5.41-4.44-8.1l-.6.37c-.21-.38-.43-.76-.64-1.15.82-.5,1.62-1,2.43-1.54.21.38.44.77.66,1.15l-.6.38C105.44,65,106.93,67.69,108.4,70.42Z"/><path class="cls-4" d="M114,67.59c-1.87-2.94-4-5.71-5.83-8.63-.69.47-1.36,1-2,1.47-.19-.32-.38-.65-.58-1,1.82-1.28,3.68-2.49,5.56-3.68l.58.94c-.76.46-1.5,1-2.26,1.42,1.88,2.92,3.94,5.73,5.83,8.64Z"/><path class="cls-5" d="M68,81c2.2.61,3.1,1.93,2,4,2.28,0,3.71,1.57,3.21,3.75s-2.36,2.45-4,3.58c-2-3.46-4.12-6.82-6.06-10.31C64.68,81.45,66.52,80.61,68,81Zm1,3.2c.09-2.78-2.59-2.23-4.54-1.57.59,1.06,1.14,2.13,1.83,3.15C67,85.51,69,85.06,69,84.22Zm-2.13,2.61c.82,1.39,1.61,2.79,2.4,4.2C73.38,88,71.3,85.55,66.87,86.83Z"/><path class="cls-5" d="M78.28,85.44l.63-.32.6,1.17-2.58,1.34-.57-1.18.62-.33a29,29,0,0,0-4.64-7.6L71.8,79c-.28-.34-.56-.67-.85-1,.76-.64,1.53-1.27,2.3-1.9.3.33.59.67.87,1-.2.15-.41.29-.6.45A36.16,36.16,0,0,1,78.28,85.44Z"/><path class="cls-5" d="M84,77.34c4.21,5.35-2.85,8.66-6.55,3.27.58-.07,1.15-.14,1.72-.25,2.73,4,9.19,1.3.16-3-3-4.53,2.1-7.06,5.35-3.33l-1.5.42C79.59,71.35,76.37,74.49,84,77.34Z"/><path class="cls-5" d="M94.82,79c-6.59,3.67-8.56-2.6-7.55-8.14,2.58-2.23,4.57-1.11,6,1.48-.45.18-.87.3-1.35.49-2.84-4.33-4.17.26-3.28,3,1.15,3.55,5.2,4.7,4.37-.12.53-.22,1-.39,1.53-.61A5.7,5.7,0,0,1,94.82,79Z"/><path class="cls-5" d="M93.07,68.14c.45-.16.89-.36,1.34-.5a50.91,50.91,0,0,0,3.43,7.26c.78,1.22,1.52,1.14,2.6.47s1.36-1.35.67-2.61c-1.26-2.32-2.91-5-4.23-7.45.4-.28.84-.5,1.26-.75,2.33,3.85,6.47,7.6,3,12C95.4,77.62,94.7,72.3,93.07,68.14Z"/><path class="cls-5" d="M108.42,70.84l.63-.35c.2.39.41.77.62,1.16-.86.48-1.71,1-2.56,1.46-.21-.38-.42-.77-.62-1.16l.62-.36c-1.46-2.71-3-5.41-4.44-8.1l-.6.37-.65-1.15c.82-.5,1.63-1,2.43-1.54l.66,1.14-.59.39C105.46,65.39,107,68.11,108.42,70.84Z"/><path class="cls-5" d="M114,68c-1.87-2.93-4-5.7-5.83-8.62-.7.47-1.36,1-2,1.47-.19-.33-.39-.65-.58-1,1.81-1.29,3.67-2.49,5.56-3.68.19.31.39.62.58.94-.76.46-1.51.94-2.26,1.41,1.88,2.93,3.93,5.73,5.83,8.65Z"/><path class="cls-1" d="M129,22.15c.05-1.14,2.12-2,4.64-1.86s4.5,1.12,4.45,2.26-2.47-1-5-1.14S129,23.28,129,22.15Z"/></g></svg>