<svg xmlns="http://www.w3.org/2000/svg" width="173.74" height="147.18" viewBox="0 0 173.74 147.18"><defs><style>.cls-1{fill:#47403e;}.cls-2{fill:#eae0d3;}.cls-3{fill:#bf7f45;}.cls-4{fill:#fff;}</style></defs><g id="Ui_and_character" data-name="Ui and character"><polygon class="cls-1" points="110.8 68.45 96.82 54.65 118.41 30.23 132.39 44.03 110.8 68.45"/><path class="cls-1" d="M108.46,104C105,124.12,82.85,141,59.47,141S19.16,118.27,19.16,97.88s51.54-42.14,74.89-43C119.39,53.87,112.31,81.74,108.46,104Z"/><polygon class="cls-1" points="102.1 83.25 80.49 61.65 88.33 50.98 100.61 41.53 111.21 37.68 105.65 45.79 120.89 44.56 120.68 53.67 125.55 51.56 117.44 71.62 102.1 83.25"/><path class="cls-1" d="M144.33,23.23c-2.83,8.26-16.43,17.5-23.16,15.19s-5.13-9-2.29-17.31S130.39,6.71,137.12,9,147.17,15,144.33,23.23Z"/><path class="cls-1" d="M152,23.65c-8.7-.81-25,5.86-25.65,13s1.68,9,10.38,9.86,23.73,1.47,24.39-5.62S160.67,24.47,152,23.65Z"/><path class="cls-1" d="M77.61,129c.53,3.76-5.78,7.76-14.09,8.92s-15.47-.94-16-4.7,8.75,1.86,17.06.69S77.08,125.19,77.61,129Z"/><path class="cls-1" d="M159.4,40.33c.37,1.62-2.23,3.6-5.81,4.43s-6.78.18-7.15-1.44,3.88.47,7.46-.35S159,38.71,159.4,40.33Z"/><polygon class="cls-2" points="110.8 66.16 96.82 52.36 118.41 27.94 132.39 41.74 110.8 66.16"/><path class="cls-3" d="M108.46,101.74c-3.47,20.09-25.61,36.91-49,36.91S19.16,116,19.16,95.59s51.54-42.15,74.89-43C119.39,51.58,112.31,79.45,108.46,101.74Z"/><polygon class="cls-3" points="102.1 80.96 80.49 59.36 88.33 48.69 100.61 39.24 111.21 35.39 105.65 43.5 120.89 42.27 120.68 51.38 125.55 49.26 117.44 69.33 102.1 80.96"/><path class="cls-2" d="M144.33,20.94c-2.83,8.26-16.43,17.5-23.16,15.18s-5.13-9-2.29-17.3,11.51-14.41,18.24-12.1S147.17,12.68,144.33,20.94Z"/><path class="cls-2" d="M152,21.36c-8.7-.82-25,5.86-25.65,13s1.68,9,10.38,9.86,23.73,1.46,24.39-5.62S160.67,22.17,152,21.36Z"/><path class="cls-4" d="M77.61,126.66c.53,3.76-5.78,7.76-14.09,8.92s-15.47-.94-16-4.7,8.75,1.85,17.06.69S77.08,122.9,77.61,126.66Z"/><path class="cls-4" d="M159.4,38c.37,1.62-2.23,3.6-5.81,4.43s-6.78.18-7.15-1.45,3.88.48,7.46-.34S159,36.42,159.4,38Z"/></g></svg>