<svg xmlns="http://www.w3.org/2000/svg" xmlns:xlink="http://www.w3.org/1999/xlink" viewBox="0 0 342.78 372.91"><defs><style>.cls-1{fill:#bd9568;}.cls-2{fill:#af8a60;}.cls-3{fill:#5c3c11;}.cls-4{fill:#422505;}.cls-5{fill:#775430;}.cls-6{fill:#c69c6d;}.cls-7{fill:url(#linear-gradient);}.cls-8{fill:#4f2e0c;}.cls-9{fill:url(#linear-gradient-2);}.cls-10{fill:url(#linear-gradient-3);}.cls-11{fill:#e0a39a;}.cls-12,.cls-19{fill:none;}.cls-12{stroke:#d2948b;stroke-linecap:round;stroke-linejoin:round;}.cls-13{fill:url(#linear-gradient-4);}.cls-14{fill:#603813;}.cls-15{fill:#fff;}.cls-16{fill:#8c6239;}.cls-17{fill:#b0471b;}.cls-18{fill:#42210b;}.cls-19{stroke:#42210b;stroke-miterlimit:10;stroke-width:3px;}.cls-20{fill:#83370f;}</style><linearGradient id="linear-gradient" x1="68.76" y1="338.02" x2="65.63" y2="222.71" gradientUnits="userSpaceOnUse"><stop offset="0.12" stop-color="#775430"/><stop offset="0.23" stop-color="#8b653f"/><stop offset="0.35" stop-color="#9a724a"/><stop offset="0.49" stop-color="#a37a50"/><stop offset="0.71" stop-color="#a67c52"/></linearGradient><linearGradient id="linear-gradient-2" x1="154.33" y1="350.91" x2="147.55" y2="220.48" gradientUnits="userSpaceOnUse"><stop offset="0.12" stop-color="#775430"/><stop offset="0.16" stop-color="#805d37"/><stop offset="0.3" stop-color="#9f784f"/><stop offset="0.45" stop-color="#b48c5f"/><stop offset="0.58" stop-color="#c2986a"/><stop offset="0.71" stop-color="#c69c6d"/></linearGradient><linearGradient id="linear-gradient-3" x1="248.82" y1="362.78" x2="236.82" y2="259.48" gradientUnits="userSpaceOnUse"><stop offset="0" stop-color="#775430"/><stop offset="0.22" stop-color="#89643e"/><stop offset="1" stop-color="#c69c6d"/></linearGradient><linearGradient id="linear-gradient-4" x1="117.61" y1="182" x2="118.13" y2="137.39" gradientUnits="userSpaceOnUse"><stop offset="0" stop-color="#42210b"/><stop offset="0.14" stop-color="#4c2910"/><stop offset="0.38" stop-color="#66401d"/><stop offset="0.49" stop-color="#754c24"/><stop offset="0.64" stop-color="#7f562e"/><stop offset="0.9" stop-color="#9b7147"/><stop offset="0.99" stop-color="#a67c52"/></linearGradient></defs><g id="Layer_3" data-name="Layer 3"><circle class="cls-1" cx="315.79" cy="296.22" r="21.13"/><circle class="cls-2" cx="315.79" cy="292.02" r="12.23"/><path class="cls-3" d="M50.9,240.65c0,9,9,9.78-2,9.78s-27.37-13.31-27.37-22.36,8.68-13.78,19.7-13.78S50.9,231.61,50.9,240.65Z"/><ellipse class="cls-4" cx="267.02" cy="175.35" rx="8.95" ry="11.49"/><path class="cls-5" d="M186.26,344.6c.23,14.92-25.3,11.92-34.61,12.22s-28.48,9-28.83-5.33,26.06-14.55,37.88-12.88C174.67,340.58,186,329.68,186.26,344.6Z"/><path class="cls-6" d="M152.77,195.19c-28,2.28-55.54,1.79-81.39,1.56-23.09-.21-26.32-13.89-32.95-29.47a32.87,32.87,0,0,1-2.62-11.85C35.39,142.87,33,141,33.69,121.58c.75-22.22,33.42-70,59.93-69.7s35.24-1.49,60.87-.22,53.53,33,53.84,55.64,3.49,19.19,0,38.54S174,193.16,152.77,195.19Z"/><path class="cls-7" d="M68.59,360.51c-4.78.76-11.77.79-15.4-1.59-6.57-4.3,3.08-11.59,3.85-17.64C61.29,307.92,42.79,272.81,47.3,233c.82-7.22,7.31-12.35,14.77-12.74a43.93,43.93,0,0,1,12.93,1c7.31,1.91,11.11,9.39,10.49,15.66-3.42,34.6,6.53,65.87-.32,99.26C83.93,342.23,77.24,359.13,68.59,360.51Z"/><path class="cls-6" d="M315.15,290.26C309.1,359.6,193.33,347,146.2,335.9S39.33,305,46.2,226.62s93.61-84.5,165.56-72.23S321.21,220.91,315.15,290.26Z"/><path class="cls-8" d="M31.88,133.69c-8.09,5.16-14.9,7.11-19.7,1.86-3.91-1.63,5.14-6.13,6.38-10a72.52,72.52,0,0,0-.69-24.6c-1.52-7.88-.31-16.4,6.24-21.53,8.35-3.43,21.5-7.09,29.45-5.93s9.11.27,12.54,6.17c-.47,10-3.25,24.76-9.34,32S35.91,131.13,31.88,133.69Z"/><path class="cls-8" d="M211,121c7.6,3,14.41,4.24,17.37-1.58,3.1-1.85-5.74-6.41-7.2-9.88-2.51-9-.4-18.73-3.49-27.82s-9.8-19.2-20-20.53c-9.07,1-22.5,4.3-28.08,10.15s-6.11,5.46-5.64,12.14c6.43,7.43,18.95,18.37,25.6,23.7S207.25,119.47,211,121Z"/><path class="cls-9" d="M168.52,361c-4.28,4.09-12.13,3.55-15.75,3.2-6.54-.62-5.45-16.9-6-25.27-2.75-46.2-17.95-45-25-91.86-1.29-8.49,7.25-24.9,14-26.87,3.72-1.08,16.14-.24,20.09,0,7.14.44,12.84,3.67,14.39,13.06,8.57,51.73,10.72,51.2,5,104.2C174.23,347,173.48,356.22,168.52,361Z"/><path class="cls-10" d="M296.55,336.56c-13.51,8.07-29.59,12-46,13.63a162.05,162.05,0,0,1-34.29,4.75c-9.42.31-35.46,11.46-36-3.56-.32-8.78,10.47-13.82,21.9-16.6-1-10.21,3.75-23.86,3.1-37.37C204,272,216.77,242.53,247.82,234.62S302.5,253.84,307,284.75C309.31,300.2,307.75,329.88,296.55,336.56Z"/><path class="cls-8" d="M99.34,165.85c-.47,9.44-.86,18.21,16.07,19.05s22.16-3.2,22.63-12.64-.56-16.69-17.49-17.53S99.81,156.41,99.34,165.85Z"/><path class="cls-11" d="M126.07,170c0,6.8-3.37,12.3-7.44,12.28s-7.34-5.56-7.3-12.37,2.35-5.4,6.42-5.38S126.1,163.16,126.07,170Z"/><line class="cls-12" x1="118.62" y1="166.26" x2="118.69" y2="174.81"/><path class="cls-13" d="M162.77,169.59c-4,8.55-9.67,18.71-25,11.5A61.92,61.92,0,0,1,118.49,167c-4.83,5.94-12.59,11.78-20.83,15.54-15.42,7-21-3.19-24.88-11.79s3.88-14.17,19.3-21.21c10.23-4.67,18.71-5.59,24.41-3.16,5.54-4.23,15.19-3.84,27.23,1.82C159.06,155.37,166.8,161,162.77,169.59Z"/><path class="cls-14" d="M117.5,139.77c2.52,0,7.4.18,9.55,1.94s.89,3.86.39,6.06a19.58,19.58,0,0,1-9.71,3.94c-2.68.19-6.7-2.35-8.8-4-.82-2.13-1.49-5,.92-6.46S114.94,139.83,117.5,139.77Z"/><circle class="cls-15" cx="84.54" cy="130.09" r="18.43"/><circle cx="80.03" cy="130.15" r="11.78"/><circle class="cls-15" cx="154.18" cy="130.09" r="18.43"/><circle cx="150.05" cy="130.09" r="11.76"/><circle cx="80.93" cy="174.32" r="0.85"/><circle cx="92.33" cy="179.9" r="0.52"/><circle cx="89.98" cy="173.01" r="1.02"/><circle cx="140.41" cy="173.86" r="0.85"/><circle cx="150.38" cy="177.55" r="0.52"/><circle cx="155.19" cy="171.19" r="0.65"/><path class="cls-16" d="M158.23,99.64c-4.51-3.18-9.34-5.78-14.78-6.71a8.06,8.06,0,0,0-3.28-.06A3.18,3.18,0,0,0,137.8,95c-.57,2,1.57,3.72,3.43,4.73,4.32,2.34,9.19,4.56,14,3.52,1.74-.38,3.7-1.92,3-3.56a3.62,3.62,0,0,0-2-1.58l-9.18-4.14"/><path class="cls-16" d="M91.9,93a51.59,51.59,0,0,0-7,1.71c-3.68,1.17-7.58,3.1-8.9,6.73a1.49,1.49,0,0,0-.11,1c.16.5.73.73,1.24.85,4.18,1,8.5-.6,12.5-2.2,2.67-1.07,5.48-2.25,7.19-4.56.84-1.15,1.17-3.12-.12-3.73a2.76,2.76,0,0,0-1.4-.14,29.87,29.87,0,0,0-9.36,2.29"/></g><g id="Layer_4" data-name="Layer 4"><path class="cls-8" d="M99.19,217.34c0,18.29-18.52,33.09-38.92,33.09-12,0-37.25-8.13-38.88-23.47-1.14-10.8,16.64-16.4,20.87-22.65,13-19.3,12.47-7.55,32.87-7.55S99.19,199.06,99.19,217.34Z"/><path class="cls-8" d="M274.43,169.79c4.48,19.64-48.35,70.3-93.71,80.64-27.19,6.21-54.15,5.78-72.55-7.43-12.28-8.82-10.66-23.42-9-31.3,3.53-16.53,13.84-7.84,42.07-14.94,9.61-2.42,28.84-1,37.17-8.93,11.23-10.75,23.55-24.32,28.23-36.11,1.89-4.78,9.22.27,15.6,0C241.52,150.91,272.12,159.64,274.43,169.79Z"/><path class="cls-17" d="M82.12,202.7c5.66.89,9.73,3.69,12.62,5.56,2.18,1.42,1.56.46,1.13,3.18-.54,3.42-2.1,4.19-5.18,6-2.93,1.73-14.1,9.42-18.64,8.71-9.93-1.57-8.6-8.26-7.61-14.57S72.18,201.13,82.12,202.7Z"/><path class="cls-17" d="M114.07,204.61c-5.29,0-9.4,2-12.3,3.25-2.18,1-1.48.2-1.48,2.73,0,3.19,1.31,4.12,3.85,6.22s11.48,10.61,15.72,10.61c9.27,0,9-6.29,9-12.17S123.34,204.61,114.07,204.61Z"/><path class="cls-14" d="M146.72,56.13c0,8-4.38,10.74-10.76,11.53s-14.88-.45-22.9-.45c-7.7,0-14.69,1.14-19.87.53-5.58-.65-9-3.32-9-11.61,0-16,15.3-33.91,31.29-33.91S146.72,40.14,146.72,56.13Z"/><path class="cls-18" d="M136,67.92c0,6.92-9.58,12.52-21.39,12.52s-21.4-5.6-21.4-12.52a1.09,1.09,0,0,1,0-.18c.52.06,1.06.11,1.62.13,5,.26,11.33-.66,18.25-.66,8,0,16.47,1.24,22.9.45A2.17,2.17,0,0,1,136,67.92Z"/><path class="cls-19" d="M113.67,13.09A17.63,17.63,0,0,1,116,20.45c.2,1.44.38.83-.92,1.64-1.64,1-2.54.66-4.44,0a6.78,6.78,0,0,1-4.41-3.25c-3-4.76-5.77-8.07-2.74-10S110.69,8.33,113.67,13.09Z"/><path class="cls-19" d="M120.32,15.8a10.48,10.48,0,0,0-3.75,4.41c-.69,1.28-.64.64.3,1.86,1.18,1.53.78,1.46,2.78,1.52s3.58,1.18,5.61-.39c4.45-3.43,11.3-5.1,9.12-7.93S124.77,12.37,120.32,15.8Z"/><path class="cls-18" d="M97.61,58.41c0,3.32.91,7.92,0,9.5-.22.41-.81,0-1.28,0-1.94.17-.75,0-2.49-.12a16.94,16.94,0,0,1-4-.85c-2.86-.84-.2-.27-.2-13.83S109,22.73,111.93,22.73c2.15,0-9,11.07-12,22.34C98.75,49.36,97.61,54.67,97.61,58.41Z"/><path class="cls-18" d="M131.57,58.41c0,4.19-1,9.31,1.23,9.51,1.94.17.76,0,2.5-.12a16.84,16.84,0,0,0,4-.85c2.87-.84.2-.27.2-13.83s-19.65-31-22.61-31c-2.15,0,9.4,11.73,12.42,23C130.44,49.36,131.57,54.67,131.57,58.41Z"/><path class="cls-18" d="M119.43,61.41c.28,4.18,2.28,6.64,0,6.85-1.93.17-8.61-.06-10.35-.21-1.89-.16-3.41,1-4.46.71-2.87-.84-.17-1.24-.17-14.8s8.65-31.73,11.61-31.73c2.15,0,1.38,13.32,1.5,25C117.67,53.48,119.13,57,119.43,61.41Z"/><path class="cls-18" d="M140,36.78c.79,1.2,1.75,2.15,1,3-1.23,1.45-6,2.6-9.51,3.79a49.07,49.07,0,0,1-15.25,2.25c-7.46,0-14.14-1.41-18.61-3.62-3.61-1.79-7.25-4.57-5.79-6.62,3-4.21,2.37-3.87,7.64.33,3.54,2.82,11.16,4.2,16.21,4.2,5.26,0,8-1.16,13.27-2.77,4.45-1.38,7.5-2.93,9.21-2.4C138.83,35.14,139.42,36,140,36.78Z"/><path class="cls-18" d="M98.76,29.16c-.83-.43.23-.8.88-1.29,1.39-1.06,2.13-1.71,2.67-1.25a18.66,18.66,0,0,1,3.19,2.68c1.87,2,7.1,2.21,10.15,1.93s7.38-.52,9.72-1.48c1.63-.66,3.69-1.08,4.89-1.95.59-.43,1.44.18,2.35,1.09s1.45,1,1,1.59c-1,1.28-4.33,2.59-6.23,3.42a46.91,46.91,0,0,1-11,2.52c-4.08.3-9.76-1.15-12.53-3-1.47-1-3.57-2.35-4.28-3.63"/><path class="cls-18" d="M146,49.9a8.15,8.15,0,0,1,.47,3c-.11,1.32-5.85,3.15-10.87,4.85a62.44,62.44,0,0,1-19.44,2.86c-9.51,0-18-1.79-23.72-4.61-4.36-2.16-8-2.88-7.56-6.05,0-.17.78-2.19.83-2.36,1.67-6.36,2.37-5,9.09.4,4.51,3.6,14.22,5.07,20.66,5.07,6.71,0,10.27-1.19,16.92-3.25,5.92-1.84,11.84-5.19,12.82-2.87A19,19,0,0,1,146,49.9Z"/><circle class="cls-20" cx="98.04" cy="212.78" r="6.85"/></g></svg>