<svg xmlns="http://www.w3.org/2000/svg" width="173.74" height="147.18" viewBox="0 0 173.74 147.18"><defs><style>.cls-1{fill:#c49158;}.cls-2{fill:#e5ac67;}.cls-3{fill:#ff83c1;}.cls-4{fill:#fff;}.cls-5{fill:#d9e021;}.cls-6{fill:#3fa9f5;}.cls-7{fill:#7ac943;}.cls-8{fill:#bdccd4;}.cls-9{fill:#a6dd4e;}</style></defs><g id="Ui_and_character" data-name="Ui and character"><path class="cls-1" d="M151.23,66.47A50.26,50.26,0,0,1,146.9,98c-5.72,16.23-15.5,25.12-32,28.86a69.8,69.8,0,0,1-26,5c-30,0-55.06-18.5-61.57-43.32,4.95,26.6,31,46.88,62.36,46.88,34.92,0,63.22-25.11,63.22-56.09A50.15,50.15,0,0,0,151.23,66.47Z"/><path class="cls-1" d="M114.87,126.83c16.53-3.74,26.31-12.63,32-28.86C140.64,110.77,129.18,121.09,114.87,126.83Z"/><path class="cls-2" d="M32,56.15A31.26,31.26,0,0,1,44,40.46c11.51-10.66,27.71-17.3,45.66-17.3a70.91,70.91,0,0,1,15.22,1.64,18,18,0,0,1,3.71.58,23.23,23.23,0,0,1,4.86,1.89c18.8,6.78,33.1,21.35,37.78,39.2-4.95-26.59-31-46.88-62.36-46.88C54,19.59,25.65,44.71,25.65,75.68A50.09,50.09,0,0,0,27.3,88.46a50.09,50.09,0,0,1-.86-9.21A50.63,50.63,0,0,1,32,56.15Z"/><path class="cls-2" d="M88.87,131.78a69.8,69.8,0,0,0,26-5,78.79,78.79,0,0,1-8.05,1.37c-8.1,1-11,.38-18.52-1.19-20.13-4.23-36.71-15.19-50.81-31-4.49-5-7-9.48-7.79-14.92-1.57-5-1.35-10.72.46-18.6A51.1,51.1,0,0,1,32,56.15a50.63,50.63,0,0,0-5.59,23.1,50.09,50.09,0,0,0,.86,9.21C33.81,113.28,58.91,131.78,88.87,131.78Z"/><path class="cls-2" d="M104.88,24.8a70.91,70.91,0,0,0-15.22-1.64c-18,0-34.15,6.64-45.66,17.3,10.59-7.13,25.39-7.89,40.79-11.19C91.78,27.78,98.13,24.45,104.88,24.8Z"/><path class="cls-2" d="M113.45,27.27c13.22,7.07,7.62,24,24.41,29.47,8.31,2.69,12,6.37,12.69,12.79,1.39,3.82,1.12,8.84-.24,15.69A94.27,94.27,0,0,1,146.9,98a50.26,50.26,0,0,0,4.33-31.5C146.55,48.62,132.25,34.05,113.45,27.27Z"/><path class="cls-2" d="M150.55,69.53c.35,3.26-.07,7.22-1,12.12-5.48,27.55-17.57,39.9-43.48,43-8.1,1-11,.39-18.52-1.19-20.13-4.22-36.72-15.19-50.82-31-3.47-3.9-5.77-7.44-7-11.36.77,5.44,3.3,9.88,7.79,14.92,14.1,15.85,30.68,26.81,50.81,31,7.5,1.57,10.42,2.15,18.52,1.19a78.79,78.79,0,0,0,8.05-1.37c14.31-5.74,25.77-16.06,32-28.86a94.27,94.27,0,0,0,3.41-12.75C151.67,78.37,151.94,73.35,150.55,69.53Z"/><path class="cls-3" d="M108.59,25.38a18,18,0,0,0-3.71-.58,67.07,67.07,0,0,1,8.57,2.47A23.23,23.23,0,0,0,108.59,25.38Z"/><path class="cls-3" d="M44,40.46A31.26,31.26,0,0,0,32,56.15,56.37,56.37,0,0,1,44,40.46Z"/><path class="cls-3" d="M31,66c6.71-29.15,29.89-27.88,54.63-33.18,8.25-1.77,15.61-6.1,23.8-3.89,19.51,5.26,10.71,25.33,29.26,31.35,6.64,2.15,10.32,4.93,11.9,9.23-.7-6.42-4.38-10.1-12.69-12.79-16.79-5.45-11.19-22.4-24.41-29.47a67.07,67.07,0,0,0-8.57-2.47c-6.75-.35-13.1,3-20.09,4.47-15.4,3.3-30.2,4.06-40.79,11.19A56.37,56.37,0,0,0,32,56.15a51.1,51.1,0,0,0-1.87,6.3c-1.81,7.88-2,13.55-.46,18.6C29.11,76.87,29.56,72.1,31,66Z"/><path class="cls-3" d="M87.51,123.44C95,125,97.93,125.6,106,124.63c25.91-3.08,38-15.43,43.48-43,1-4.9,1.39-8.86,1-12.12-1.58-4.3-5.26-7.08-11.9-9.23-18.55-6-9.75-26.09-29.26-31.35-8.19-2.21-15.55,2.12-23.8,3.89C60.85,38.14,37.67,36.87,31,66c-1.4,6.08-1.85,10.85-1.26,15,1.22,3.92,3.52,7.46,7,11.36C50.79,108.25,67.38,119.22,87.51,123.44ZM85.17,103.3l-1,.61a.9.9,0,0,1-1.23-.33l-3.75-6.49a.9.9,0,0,1,.33-1.23l1-.61a.91.91,0,0,1,1.23.33l3.75,6.49A.9.9,0,0,1,85.17,103.3Zm34.61-32.45L126,64.66a.91.91,0,0,1,1.28,0l.86.86a.9.9,0,0,1,0,1.27l-6.2,6.2a.9.9,0,0,1-1.27,0l-.86-.86A.91.91,0,0,1,119.78,70.85ZM108,101.06l6.19-6.19a.91.91,0,0,1,1.28,0l.86.86a.9.9,0,0,1,0,1.27l-6.2,6.2a.9.9,0,0,1-1.27,0l-.86-.86A.91.91,0,0,1,108,101.06ZM117.46,117c7.87-2.81,10.44-11,11.71-7.42s-4.07,8.73-11.93,11.55-15.28,2.21-16.55-1.36S109.6,119.77,117.46,117ZM95.18,48.2l.87-.87a.9.9,0,0,1,1.27,0l6.19,6.2a.9.9,0,0,1,0,1.27l-.86.86a.9.9,0,0,1-1.27,0l-6.2-6.19A.9.9,0,0,1,95.18,48.2ZM88.87,66.65c6,0,10.93,4,10.93,9,0,.06,0,.12,0,.17a7.63,7.63,0,0,1,.81,3.4c0,5-4.9,9-10.94,9s-10.93-4-10.93-9c0-.06,0-.11,0-.17a7.6,7.6,0,0,1-.81-3.4C77.93,70.7,82.83,66.65,88.87,66.65Zm-37.53-.8,4.74-7.37a.91.91,0,0,1,1.25-.27l1,.66a.89.89,0,0,1,.27,1.24l-4.74,7.38a.91.91,0,0,1-1.24.27l-1-.66A.92.92,0,0,1,51.34,65.85Zm0,23.38,4.74-7.37a.9.9,0,0,1,1.25-.27l1,.66a.89.89,0,0,1,.27,1.24l-4.74,7.37a.89.89,0,0,1-1.24.27l-1-.66A.91.91,0,0,1,51.34,89.23Z"/><path class="cls-3" d="M88.87,84.72c-4.59,0-8.5-2.34-10.13-5.64,0,.06,0,.11,0,.17,0,5,4.89,9,10.93,9s10.94-4,10.94-9a7.63,7.63,0,0,0-.81-3.4C99.68,80.76,94.84,84.72,88.87,84.72Z"/><path class="cls-3" d="M100.69,119.72c1.27,3.57,8.68,4.17,16.55,1.36s13.21-8,11.93-11.55-3.84,4.61-11.71,7.42S99.41,116.16,100.69,119.72Z"/><rect class="cls-3" x="49.7" y="84.85" width="10.56" height="3.02" rx="0.9" transform="translate(-47.39 85.9) rotate(-57.26)"/><rect class="cls-3" x="49.7" y="61.48" width="10.56" height="3.02" rx="0.9" transform="translate(-27.73 75.17) rotate(-57.26)"/><rect class="cls-3" x="97.84" y="46.22" width="3.02" height="10.56" rx="0.9" transform="translate(-7.32 85.34) rotate(-45)"/><rect class="cls-3" x="118.66" y="67.31" width="10.56" height="3.02" rx="0.9" transform="translate(-12.36 107.8) rotate(-45)"/><rect class="cls-3" x="80.81" y="94.94" width="3.02" height="9.29" rx="0.9" transform="translate(-38.76 54.5) rotate(-30)"/><rect class="cls-3" x="106.83" y="97.52" width="10.56" height="3.02" rx="0.9" transform="translate(-37.19 108.28) rotate(-45)"/><path class="cls-4" d="M39.89,58.48c-2.58-2.78.3-9.63,6.43-15.31s13.18-8,15.75-5.26-8.21,3.46-14.33,9.14S42.46,61.25,39.89,58.48Z"/><rect class="cls-5" x="52.68" y="77.51" width="3.02" height="10.56" rx="1.27" transform="translate(53.38 -16.15) rotate(32.74)"/><rect class="cls-6" x="52.68" y="54.14" width="3.02" height="10.56" rx="1.27" transform="translate(40.74 -19.87) rotate(32.74)"/><rect class="cls-7" x="97.04" y="42.65" width="3.02" height="10.56" rx="1.27" transform="translate(-5.03 83.73) rotate(-45)"/><rect class="cls-8" x="121.64" y="59.98" width="3.02" height="10.56" rx="1.27" transform="translate(82.21 -67.97) rotate(45)"/><rect class="cls-8" x="80.02" y="91.37" width="3.02" height="9.29" rx="1.27" transform="translate(-37.09 53.63) rotate(-30)"/><rect class="cls-9" x="109.81" y="90.19" width="3.02" height="10.56" rx="1.27" transform="translate(100.11 -50.75) rotate(45)"/></g></svg>