<svg id="Layer_2" data-name="Layer 2" xmlns="http://www.w3.org/2000/svg" viewBox="0 0 331 304"><defs><style>.cls-1{fill:#5b4c4c;}.cls-2{fill:#b7aeae;}</style></defs><path class="cls-1" d="M317.12,112.42c-4.22-23.17-14.83-49.65-31.78-64.2-32.6-31.51-93.46-29.95-123.24,5.54C98.85-12.38-1,45.24,7.37,132.54c16,77.53,85.52,132.79,154.45,166.07,38.29-21.21,80.27-41,108.27-77.52C293,190.51,322.94,150.89,317.12,112.42Z"/><path class="cls-2" d="M325.55,112.42c-4.22-23.17-14.83-49.65-31.79-64.2-32.59-31.51-93.46-29.95-123.23,5.54C107.27-12.38,7.45,45.24,15.8,132.54c16,77.53,85.52,132.79,154.44,166.07,38.3-21.21,80.28-41,108.27-77.52C301.4,190.51,331.37,150.89,325.55,112.42Z"/></svg>