<svg xmlns="http://www.w3.org/2000/svg" width="173.74" height="147.18" viewBox="0 0 173.74 147.18"><g id="Ui_and_character" data-name="Ui and character"><path d="M74.79,73.91a68.6,68.6,0,0,0-6-7.32c-.49-5.49-1.7-9.82-6.65-12.78-7.06-4.23-13.31,2.42-17.42,9.13S44,78.88,51.14,82.34c1.94,1.92,7.61,4.12,10.07,6.25,1.54.85,2.82,1.32,4.22-.19,3-3.25,6.73-6.84,9.56-10.28C76.31,76.52,76.19,75.9,74.79,73.91Z"/><path d="M71.23,96.7a25.2,25.2,0,0,1-3.37-3.55A3.06,3.06,0,0,1,68,88.61c2.07-2.24,5-5.06,7.23-7.18,1.51-1.45,3-1.17,4.44,0,1,.81,2.4,2.78,3.31,3.49,1.22,1,.4,4.42.39,4.69-.15,2.1-1.27,2.59-1.87,4s-4.64,3.83-4.89,3.86C74.3,97.66,72.53,97.75,71.23,96.7Z"/><path d="M105.16,57.49v0c.59-7.17-5.36-14.8-13.23-13.58s-15,4-15.16,12c-.07,5.64,3.25,8.47,7.76,11.07,1.09,2.5,2.7,6.26,3.52,8.16.88,2.08,1.36,2.41,3.15,1.89,3.85-1.13,8.06-3,11.85-4.39,1.75-.64,2-2,2.07-3.69C104.73,65.9,105.74,60,105.16,57.49Z"/><path d="M106.35,81.11a24.19,24.19,0,0,0-1-4.43c-.53-1.74-1.58-2.36-3.34-1.71-2.59,1-5.94,2.43-8.51,3.56-1.76.77-2.21,2.21-2.06,3.94.12,1.23.91,3.28,1,4.34.11,1.44,3,2.14,3.19,2.24,1.7.71,2.41-.06,3.75-.08s4.89-2.61,5-2.81C105.6,84.26,106.51,82.7,106.35,81.11Z"/><path d="M43.91,27.89c-.69-1.37-2-4-2.91-5.85.48-3.92.38-7.43-2.78-9.95-4.55-3.63-9,.1-12.59,4.27S23,27.73,27.43,30.8c1,1.48,4.7,3.56,6.19,5.18.93.7,1.76,1.16,2.82.33,2.29-1.79,5-3.63,7.19-5.58C44.64,29.83,44.66,29.38,43.91,27.89Z"/><path d="M39.63,42.22a18.09,18.09,0,0,1-2-2.62,1.91,1.91,0,0,1,.45-2.89c1.57-1.22,3.72-2.69,5.38-3.82a2.1,2.1,0,0,1,3,.46c.61.62,1.38,2,1.92,2.57.73.72-.08,2.86-.12,3-.25,1.33-1.06,1.55-1.55,2.33s-3.39,2-3.56,1.95C41.59,43.16,40.41,43,39.63,42.22Z"/><path d="M64.79,19.79c1-4.73-2.53-10.17-7.76-10.13s-10.24,1.11-10.92,6.39c-.47,3.7,1.55,5.87,4.33,8,.54,1.74,1.32,4.33,1.72,5.65s.73,1.7,2,1.53c2.64-.37,5.56-1.19,8.17-1.74,1.21-.25,1.47-1.12,1.65-2.21,0-2,1.07-5.78.86-7.46Z"/><path d="M63.84,35.34a15.71,15.71,0,0,0-.33-3,1.54,1.54,0,0,0-2.09-1.43c-1.78.37-4.11,1-5.9,1.52a2.2,2.2,0,0,0-1.65,2.37c0,.82.36,2.23.33,2.93,0,.95,1.82,1.69,1.95,1.77,1,.62,1.64.19,2.48.3s3.44-1.24,3.54-1.36C63.12,37.32,63.83,36.39,63.84,35.34Z"/><path d="M108.11,120.55c-1-1.39-2.92-4.12-4.22-6-.18-4.38-.9-8.18-4.79-10.45-5.6-3.25-9.86,1.36-13.16,6.56s-.84,12.88,4.52,15.53c1.41,1.45,5.79,3.17,7.71,4.71,1.13.62,2.14,1,3.17-.06,2.22-2.3,4.89-4.71,7-7.17C109.26,122.55,109.2,122.06,108.11,120.55Z"/><path d="M105.89,136.85a20.51,20.51,0,0,1-2.61-2.56,2.11,2.11,0,0,1,0-3.23c1.53-1.58,3.64-3.5,5.28-5,1.13-1,2.24-.75,3.33.07.77.58,1.88,2,2.56,2.52.93.67.41,3.14.41,3.33-.06,1.49-.9,1.85-1.31,2.78s-3.41,2.65-3.59,2.67C108.22,137.59,106.89,137.61,105.89,136.85Z"/><path d="M129.75,108.55c.24-5.38-4.63-10.71-10.32-9.89s-11.1,2.71-10.94,8.62c.11,4.13,2.74,6.21,6.16,8.08.9,1.82,2.22,4.53,2.89,5.92s1.09,1.75,2.41,1.37c2.85-.8,5.93-2.13,8.72-3.12,1.29-.46,1.42-1.45,1.43-2.67C129.71,114.67,130.28,110.34,129.75,108.55Z"/><path d="M131.41,125.71a17.62,17.62,0,0,0-.89-3.22,1.76,1.76,0,0,0-2.55-1.25c-1.91.68-4.36,1.73-6.25,2.54a2.39,2.39,0,0,0-1.41,2.85c.12.89.79,2.38.88,3.15.12,1.05,2.3,1.57,2.46,1.63,1.24.53,1.84,0,2.78,0s3.58-1.87,3.67-2C131,128,131.58,126.85,131.41,125.71Z"/></g></svg>