<svg xmlns="http://www.w3.org/2000/svg" width="107.22" height="280.27" viewBox="0 0 107.22 280.27"><defs><style>.cls-1{fill:#0d0811;}.cls-2{fill:#ed4059;}.cls-3{fill:#fff;}</style></defs><g id="Ui_and_character" data-name="Ui and character"><path class="cls-1" d="M95.05,36.53c-1.18-6.51-4.17-14-8.93-18C77,9.63,59.85,10.07,51.48,20,33.7,1.45,5.64,17.65,8,42.19,12.49,64,32,79.51,51.4,88.87c10.76-6,22.56-11.53,30.43-21.79C88.26,58.48,96.69,47.35,95.05,36.53Z"/><path class="cls-2" d="M99.16,34.84C98,28.32,95,20.88,90.23,16.79,81.07,7.93,64,8.37,55.59,18.35,37.81-.24,9.75,16,12.1,40.49c4.5,21.8,24,37.33,43.41,46.68,10.76-6,22.56-11.53,30.43-21.79C92.38,56.79,100.8,45.65,99.16,34.84Z"/><path class="cls-3" d="M23.67,26.73c-1.32-1.64.53-5.32,4.13-8.24s7.59-4,8.91-2.33S32,17.78,28.44,20.69,25,28.36,23.67,26.73Z"/><path class="cls-1" d="M95.05,124.37c-1.18-6.52-4.17-14-8.93-18.05C77,97.46,59.85,97.9,51.48,107.88,33.7,89.29,5.64,105.48,8,130c4.5,21.8,24,37.33,43.41,46.68,10.76-6,22.56-11.53,30.43-21.79C88.26,146.32,96.69,135.18,95.05,124.37Z"/><path class="cls-2" d="M99.16,122.67c-1.18-6.51-4.17-14-8.93-18-9.16-8.85-26.27-8.41-34.64,1.56C37.81,87.59,9.75,103.79,12.1,128.33c4.5,21.79,24,37.32,43.41,46.68,10.76-6,22.56-11.53,30.43-21.79C92.38,144.62,100.8,133.49,99.16,122.67Z"/><path class="cls-3" d="M23.67,114.56c-1.32-1.63.53-5.32,4.13-8.23s7.59-4,8.91-2.33-4.67,1.61-8.27,4.53S25,116.19,23.67,114.56Z"/><path class="cls-1" d="M95.05,218.09c-1.18-6.51-4.17-14-8.93-18.05-9.17-8.85-26.27-8.42-34.64,1.56C33.7,183,5.64,199.21,8,223.74c4.5,21.8,24,37.33,43.41,46.69,10.76-6,22.56-11.53,30.43-21.79C88.26,240,96.69,228.9,95.05,218.09Z"/><path class="cls-2" d="M99.16,216.39c-1.18-6.51-4.17-13.95-8.93-18-9.16-8.86-26.27-8.42-34.64,1.55-17.78-18.59-45.84-2.39-43.49,22.15,4.5,21.79,24,37.33,43.41,46.68,10.76-6,22.56-11.53,30.43-21.79C92.38,238.34,100.8,227.21,99.16,216.39Z"/><path class="cls-3" d="M23.67,208.28c-1.32-1.63.53-5.32,4.13-8.23s7.59-4,8.91-2.33-4.67,1.61-8.27,4.53S25,209.91,23.67,208.28Z"/></g></svg>