<svg id="Layer_2" data-name="Layer 2" xmlns="http://www.w3.org/2000/svg" viewBox="0 0 331 304"><defs><style>.cls-1{fill:#c46060;}.cls-2{fill:#f27575;}.cls-3{fill:#fff;}</style></defs><path class="cls-1" d="M316.42,108.05c-4.22-23.17-14.83-49.65-31.79-64.2C252,12.34,191.17,13.9,161.4,49.39,98.14-16.76-1.68,40.87,6.67,128.17,22.69,205.7,92.19,261,161.11,294.24c38.3-21.21,80.28-41,108.27-77.52C292.27,186.14,322.24,146.52,316.42,108.05Z"/><path class="cls-2" d="M324.09,108.05c-4.23-23.17-14.84-49.65-31.79-64.2-32.6-31.51-93.46-29.95-123.23,5.54C105.81-16.76,6,40.87,14.34,128.17,30.35,205.7,99.85,261,168.78,294.24c38.29-21.21,80.28-41,108.27-77.52C299.94,186.14,329.9,146.52,324.09,108.05Z"/><path class="cls-3" d="M55.51,79.19c-4.7-5.8,1.88-18.91,14.69-29.29s27-14.08,31.72-8.28S85.3,47.35,72.48,57.73,60.2,85,55.51,79.19Z"/></svg>