<svg id="Layer_1" data-name="Layer 1" xmlns="http://www.w3.org/2000/svg" xmlns:xlink="http://www.w3.org/1999/xlink" width="1920" height="1080" viewBox="0 0 1920 1080"><defs><style>.cls-1{fill:#7e5289;}.cls-2{fill:#463756;}.cls-3{fill:#29163a;}.cls-4{fill:#391e4c;}.cls-5{fill:#46205e;}.cls-6{fill:#20112d;}.cls-7{fill:#d1bde0;}.cls-8{fill:url(#linear-gradient);}.cls-10,.cls-12,.cls-17,.cls-22,.cls-24,.cls-25,.cls-26,.cls-9{isolation:isolate;}.cls-26,.cls-9{opacity:0.47;}.cls-9{fill:url(#linear-gradient-2);}.cls-10{opacity:0.33;fill:url(#linear-gradient-3);}.cls-11{fill:#fbb03b;}.cls-12{fill:#f2f2f2;opacity:0.22;}.cls-13{fill:#452363;}.cls-14,.cls-30,.cls-45,.cls-52{fill:none;}.cls-14,.cls-30{stroke:#000;}.cls-14,.cls-30,.cls-52{stroke-miterlimit:10;}.cls-15{fill:#63347c;}.cls-16{fill:#662d91;}.cls-17{fill:#f7931e;opacity:0.54;}.cls-18{fill:#301c30;}.cls-19{fill:#412a44;}.cls-20{fill:#3b243d;}.cls-21{fill:#5b327f;}.cls-22,.cls-24,.cls-25,.cls-26,.cls-48{fill:#fff;}.cls-22{opacity:0.72;}.cls-23{fill:#89afe5;}.cls-24{opacity:0.58;}.cls-25{opacity:0.31;}.cls-27{fill:#cd6a14;}.cls-28{fill:#ea9d2d;}.cls-29{fill:#c66d0c;}.cls-30,.cls-45{stroke-linecap:round;}.cls-30,.cls-52{stroke-width:3px;}.cls-31{fill:#c8be2a;}.cls-32{fill:#fcee21;}.cls-33{fill:#372249;}.cls-34{fill:#bd9568;}.cls-35{fill:#af8a60;}.cls-36{fill:#5c3c11;}.cls-37{fill:#422505;}.cls-38{fill:#775430;}.cls-39{fill:#c69c6d;}.cls-40{fill:url(#linear-gradient-4);}.cls-41{fill:#4f2e0c;}.cls-42{fill:url(#linear-gradient-5);}.cls-43{fill:url(#linear-gradient-6);}.cls-44{fill:#e0a39a;}.cls-45{stroke:#d2948b;stroke-linejoin:round;}.cls-46{fill:url(#linear-gradient-7);}.cls-47{fill:#603813;}.cls-49{fill:#8c6239;}.cls-50{fill:#b0471b;}.cls-51{fill:#42210b;}.cls-52{stroke:#42210b;}.cls-53{fill:#83370f;}.cls-54{fill:#60386d;}.cls-55{fill:#db79ba;}.cls-56{fill:#c6b44b;}.cls-57{fill:#0d0811;}.cls-58{fill:#ed4059;}.cls-59{fill:#5a2f7c;}</style><linearGradient id="linear-gradient" x1="1219.84" y1="850.95" x2="1219.73" y2="823.64" gradientTransform="matrix(1, 0, 0, -1, 0, 1080)" gradientUnits="userSpaceOnUse"><stop offset="0" stop-color="#ffd7b3"/><stop offset="0.18" stop-color="#fddbbd" stop-opacity="0.83"/><stop offset="0.6" stop-color="#f7e7d7" stop-opacity="0.42"/><stop offset="1" stop-color="#f2f2f2" stop-opacity="0"/></linearGradient><linearGradient id="linear-gradient-2" x1="1219.85" y1="853.48" x2="1219.69" y2="817.24" xlink:href="#linear-gradient"/><linearGradient id="linear-gradient-3" x1="1220.59" y1="855.93" x2="1220.4" y2="812.95" xlink:href="#linear-gradient"/><linearGradient id="linear-gradient-4" x1="1317.07" y1="63.23" x2="1313.62" y2="190.45" gradientTransform="matrix(1, 0, 0, -1, 0, 1080)" gradientUnits="userSpaceOnUse"><stop offset="0.12" stop-color="#775430"/><stop offset="0.23" stop-color="#8b653f"/><stop offset="0.35" stop-color="#9a724a"/><stop offset="0.49" stop-color="#a37a50"/><stop offset="0.71" stop-color="#a67c52"/></linearGradient><linearGradient id="linear-gradient-5" x1="1411.5" y1="49.01" x2="1404.01" y2="192.92" gradientTransform="matrix(1, 0, 0, -1, 0, 1080)" gradientUnits="userSpaceOnUse"><stop offset="0.12" stop-color="#775430"/><stop offset="0.16" stop-color="#805d37"/><stop offset="0.3" stop-color="#9f784f"/><stop offset="0.45" stop-color="#b48c5f"/><stop offset="0.58" stop-color="#c2986a"/><stop offset="0.71" stop-color="#c69c6d"/></linearGradient><linearGradient id="linear-gradient-6" x1="1515.76" y1="35.91" x2="1502.52" y2="149.89" gradientTransform="matrix(1, 0, 0, -1, 0, 1080)" gradientUnits="userSpaceOnUse"><stop offset="0" stop-color="#775430"/><stop offset="0.22" stop-color="#89643e"/><stop offset="1" stop-color="#c69c6d"/></linearGradient><linearGradient id="linear-gradient-7" x1="1370.99" y1="235.37" x2="1371.57" y2="284.59" gradientTransform="matrix(1, 0, 0, -1, 0, 1080)" gradientUnits="userSpaceOnUse"><stop offset="0" stop-color="#42210b"/><stop offset="0.14" stop-color="#4c2910"/><stop offset="0.38" stop-color="#66401d"/><stop offset="0.49" stop-color="#754c24"/><stop offset="0.64" stop-color="#7f562e"/><stop offset="0.9" stop-color="#9b7147"/><stop offset="0.99" stop-color="#a67c52"/></linearGradient></defs><g id="wall"><rect class="cls-1" x="-12.22" width="1958.09" height="1080"/></g><g id="sofa_and_floor" data-name="sofa and floor"><rect class="cls-2" x="5.15" y="579.22" width="1722.32" height="503.37"/><path class="cls-3" d="M393.56,627.24c-90-.85-207-1.88-298.19,2.87-56.89,3-89.92-22.24-94-77.86-1.94-26.6,12.73-52.68,2.19-95.46s31.57-81.31,85.8-70.12c52.21-7.79,102.37-18,156.4-17.95S357.4,380.05,411.1,389.29c56.75-4,99.79,23.06,77.38,82.76-7.76,23.73-2.58,55.83-4.72,78.47C479.27,597.85,449.71,627.77,393.56,627.24Z"/><path class="cls-4" d="M477.54,621.36c-159.28,16.15-290.74,10.32-448.77,6.3-11.58-.3-12.87-4.88-13.67-15.44-1.38-18.15-.55-45.89,1.22-64.68,1-10.93,8.23-13.09,16.71-13.9,35.83-19.28,90.1-15.7,131.54-15.13,18,5.19,68.08,14.86,82.6,15.15,29.66.59,97.51-18.19,101.87-18.37,37.93-1.55,105.12.88,121.54,22.58,3.88,4,13.88,4.68,14.73,13.91,1.46,15.87,5.45,37.57,5.33,53.58C490.56,614.67,489.22,620.17,477.54,621.36Z"/><path class="cls-5" d="M64.74,568.17c-5.64,39.59-20,72.38-44.78,72.38S-21.48,608-24.83,568.17c-4.55-54.12-5.41-74.58,33.35-72.32C37.43,497.54,71.88,518.11,64.74,568.17Z"/><path class="cls-5" d="M435.52,571.08c5.64,39.59,20.05,72.39,44.78,72.39s41.43-32.55,44.78-72.39c4.56-54.11,9-74.81-29.8-72.55C466.36,500.22,428.38,521,435.52,571.08Z"/></g><g id="windows_and_plant" data-name="windows and plant"><rect class="cls-6" x="821.6" y="121.64" width="166.45" height="293.86"/><rect class="cls-6" x="1100.93" y="121.64" width="166.45" height="293.86"/><path class="cls-3" d="M1468.3,445.05c.86,2-1.18.57-1.63,2.08a4.16,4.16,0,0,0-2.56-2.43l1-.52c-15,.39-34.53-3.08-42.4-17.85,10.37-4.27,17.65,7,28.16,7.74-6.31-11.81-16-20.54-24.75-29.8,8.92-2.23,14.64,6.11,20.74,10.44-.07-2.5-.59-3.48-1.5-5.75a61.88,61.88,0,0,0-7.81-14.1c-1.44-1.86-2.22-3.09,0-4.05,4.54-1.93,3.83-1.18,6.45.27s-.69,5.19,3.8,3.41c20,.2,15.36,34.26,20.35,49.76C1468.25,444.82,1468.3,445.06,1468.3,445.05Z"/><path class="cls-3" d="M1468,428c-.38,2.15-1.29-.17-2.5.84a4.11,4.11,0,0,0-.81-3.43l1.11.1c-12.74-7.87-27.2-21.5-25.69-38.17,11,2.11,10.92,15.55,19.31,21.91,1.2-13.34-2.14-26-4.38-38.49,8.69,3,8.9,13.13,11.64,20.1,1.31-2.13,1.41-3.24,1.89-5.64a61.47,61.47,0,0,0,1.19-16.07c-.18-2.35-.16-3.8,2.27-3.36,4.85.87,3.84,1.11,5.25,3.76s-3.43,4,1.3,4.94c16.58,11.09-5.93,37.07-10.24,52.77A3.61,3.61,0,0,1,1468,428Z"/><path class="cls-3" d="M1463.75,441.47c-.74,2,1.21.49,1.76,2a4.07,4.07,0,0,1,2.41-2.57l-1-.47c15-.48,34.28-5.09,41.28-20.3-10.6-3.65-17.21,8-27.65,9.38,5.6-12.16,14.78-21.45,23-31.19-9-1.71-14.26,6.94-20.1,11.63-.08-2.5.39-3.51,1.17-5.83a61.1,61.1,0,0,1,7-14.54c1.33-1.94,2-3.21-.29-4-4.65-1.66-3.89-.95-6.43.64s1,5.15-3.59,3.63c-19.9,1.36-13.32,35.1-17.4,50.87A6.69,6.69,0,0,1,1463.75,441.47Z"/><rect class="cls-5" x="1110.84" y="122.02" width="159.65" height="281.76"/><rect class="cls-5" x="819.23" y="121.92" width="159.65" height="281.86"/></g><g id="city"><rect class="cls-7" x="1111.16" y="318.46" width="79.83" height="82.18"/><rect class="cls-7" x="1213.11" y="293.58" width="57.7" height="107.07"/><rect class="cls-7" x="1191.01" y="339.78" width="22.71" height="60.87"/><rect class="cls-7" x="818.98" y="328.53" width="84.63" height="72.28"/><rect class="cls-7" x="865.01" y="293.79" width="59.85" height="107.07"/><rect class="cls-7" x="924.85" y="339.94" width="53.8" height="60.87"/><circle class="cls-8" cx="1219.8" cy="237.73" r="18.77"/><circle class="cls-9" cx="1219.8" cy="238.03" r="24.92"/><circle class="cls-10" cx="1220.53" cy="237.73" r="29.55"/><rect x="1110.82" y="321.47" width="79.83" height="82.18"/><rect class="cls-11" x="1116.64" y="329.36" width="6.65" height="13.1"/><rect x="1129.25" y="329.36" width="6.65" height="13.1"/><rect x="1141.68" y="329.36" width="6.65" height="13.1"/><rect class="cls-11" x="1152.76" y="329.36" width="6.65" height="13.1"/><rect class="cls-11" x="1116.64" y="347.33" width="6.65" height="13.1"/><rect class="cls-11" x="1129.25" y="347.33" width="6.65" height="13.1"/><rect class="cls-11" x="1141.68" y="347.33" width="6.65" height="13.1"/><rect class="cls-11" x="1152.76" y="347.33" width="6.65" height="13.1"/><rect class="cls-11" x="1116.64" y="365.3" width="6.65" height="13.1"/><rect x="1129.25" y="365.3" width="6.65" height="13.1"/><rect class="cls-11" x="1141.68" y="365.3" width="6.65" height="13.1"/><rect class="cls-11" x="1152.76" y="365.3" width="6.65" height="13.1"/><rect class="cls-11" x="1116.64" y="383.09" width="6.65" height="13.1"/><rect class="cls-11" x="1129.25" y="383.09" width="6.65" height="13.1"/><rect class="cls-11" x="1141.68" y="383.09" width="6.65" height="13.1"/><rect x="1152.76" y="383.09" width="6.65" height="13.1"/><rect class="cls-11" x="1162.74" y="329.15" width="6.65" height="13.1"/><rect class="cls-11" x="1173.83" y="329.15" width="6.65" height="13.1"/><rect class="cls-11" x="1162.74" y="347.12" width="6.65" height="13.1"/><rect x="1173.83" y="347.12" width="6.65" height="13.1"/><rect class="cls-11" x="1162.74" y="365.09" width="6.65" height="13.1"/><rect x="1173.83" y="365.09" width="6.65" height="13.1"/><rect class="cls-11" x="1162.74" y="382.88" width="6.65" height="13.1"/><rect class="cls-11" x="1173.83" y="382.88" width="6.65" height="13.1"/><rect x="1190.67" y="342.79" width="22.71" height="60.87"/><rect class="cls-11" x="1193.2" y="348.89" width="14.82" height="16.21"/><rect x="1193.61" y="370.21" width="14.82" height="16.21"/><rect class="cls-11" x="1193.2" y="392.08" width="14.82" height="11.7"/><rect x="1212.77" y="296.59" width="57.7" height="107.07"/><rect class="cls-11" x="1220.53" y="304.84" width="6.65" height="13.1"/><rect x="1233.14" y="304.84" width="6.65" height="13.1"/><rect class="cls-11" x="1245.57" y="304.84" width="6.65" height="13.1"/><rect class="cls-11" x="1220.53" y="322.81" width="6.65" height="13.1"/><rect class="cls-11" x="1233.14" y="322.81" width="6.65" height="13.1"/><rect class="cls-11" x="1245.57" y="322.81" width="6.65" height="13.1"/><rect class="cls-11" x="1219.93" y="340.78" width="6.65" height="13.1"/><rect x="1232.54" y="340.78" width="6.65" height="13.1"/><rect x="1244.97" y="340.78" width="6.65" height="13.1"/><rect class="cls-11" x="1220.53" y="358.56" width="6.65" height="13.1"/><rect class="cls-11" x="1233.14" y="358.56" width="6.65" height="13.1"/><rect class="cls-11" x="1245.57" y="358.56" width="6.65" height="13.1"/><rect class="cls-11" x="1220.53" y="376.53" width="6.65" height="13.1"/><rect class="cls-11" x="1233.14" y="376.53" width="6.65" height="13.1"/><rect x="1245.57" y="376.53" width="6.65" height="13.1"/><rect x="1219.93" y="394.51" width="6.65" height="9.15"/><rect class="cls-11" x="1232.54" y="394.51" width="6.65" height="9.15"/><rect class="cls-11" x="1244.97" y="394.51" width="6.65" height="9.15"/><rect x="819.21" y="331.38" width="46.03" height="72.28"/><rect class="cls-11" x="842.36" y="338.79" width="7.99" height="15.72"/><rect class="cls-11" x="855.66" y="338.79" width="7.99" height="15.72"/><rect class="cls-11" x="842.36" y="360.14" width="7.99" height="15.72"/><rect x="855.66" y="360.14" width="7.99" height="15.72"/><rect x="865.24" y="296.64" width="59.85" height="107.07"/><rect class="cls-11" x="874.38" y="304.84" width="6.65" height="13.1"/><rect x="886.98" y="304.84" width="6.65" height="13.1"/><rect x="899.41" y="304.84" width="6.65" height="13.1"/><rect class="cls-11" x="910.5" y="304.84" width="6.65" height="13.1"/><rect class="cls-11" x="874.38" y="322.81" width="6.65" height="13.1"/><rect class="cls-11" x="886.98" y="322.81" width="6.65" height="13.1"/><rect class="cls-11" x="899.41" y="322.81" width="6.65" height="13.1"/><rect class="cls-11" x="910.5" y="322.81" width="6.65" height="13.1"/><rect class="cls-11" x="873.78" y="340.78" width="6.65" height="13.1"/><rect class="cls-11" x="886.38" y="340.78" width="6.65" height="13.1"/><rect class="cls-11" x="898.82" y="340.78" width="6.65" height="13.1"/><rect class="cls-11" x="909.9" y="340.78" width="6.65" height="13.1"/><rect class="cls-11" x="873.78" y="358.75" width="6.65" height="13.1"/><rect class="cls-11" x="886.38" y="358.75" width="6.65" height="13.1"/><rect x="898.82" y="358.75" width="6.65" height="13.1"/><rect class="cls-11" x="909.9" y="358.75" width="6.65" height="13.1"/><rect x="873.78" y="376.53" width="6.65" height="13.1"/><rect x="886.38" y="376.53" width="6.65" height="13.1"/><rect class="cls-11" x="898.82" y="376.53" width="6.65" height="13.1"/><rect class="cls-11" x="909.9" y="376.53" width="6.65" height="13.1"/><rect class="cls-11" x="873.78" y="394.51" width="6.65" height="9.28"/><rect class="cls-11" x="886.38" y="394.51" width="6.65" height="9.28"/><rect class="cls-11" x="898.82" y="394.51" width="6.65" height="9.28"/><rect x="909.9" y="394.51" width="6.65" height="9.28"/><rect x="925.09" y="342.79" width="53.8" height="60.87"/><rect class="cls-11" x="926.65" y="350.18" width="7.58" height="15.03"/><rect x="941.01" y="350.18" width="7.58" height="15.03"/><rect class="cls-11" x="955.18" y="350.18" width="7.58" height="15.03"/><rect class="cls-11" x="967.81" y="350.18" width="7.58" height="15.03"/><rect class="cls-11" x="926.65" y="370.79" width="7.58" height="15.03"/><rect class="cls-11" x="941.01" y="370.79" width="7.58" height="15.03"/><rect class="cls-11" x="955.18" y="370.79" width="7.58" height="15.03"/><rect x="967.81" y="370.79" width="7.58" height="15.03"/></g><g id="background_furniture" data-name="background furniture"><polyline class="cls-12" points="959.97 678.7 781.41 937.35 941.06 937.35 1119.62 678.7"/><polyline class="cls-12" points="614.85 673.41 393.11 937.35 552.77 937.35 765.91 676.92"/><rect class="cls-13" x="865.09" y="501.75" width="370.96" height="61.04" rx="3.34"/><path d="M966,536.39c0,2.27-5.34,4.12-7.62,4.12s-7.77-1.85-7.77-4.12,5.5-4.12,7.77-4.12S966,534.12,966,536.39Z"/><line class="cls-14" x1="1050.57" y1="501.75" x2="1050.57" y2="562.79"/><path d="M868.29,562.47c-2.92,50.82,1.41,79.78,1.41,79.78l26.2-.32Z"/><path d="M1233.86,562.79c2.91,50.82-1.42,79.78-1.42,79.78l-26.19-.32Z"/><rect class="cls-13" x="1425.09" y="482.75" width="92.19" height="30.44"/><path d="M1516.8,513.19c1.42,74.94-.69,117.65-.69,117.65l-12.74-.47Z"/><path d="M1425.56,513.19c-1.35,74.94.67,117.65.67,117.65l12.2-.47Z"/><polygon class="cls-15" points="1486.52 482.75 1457.7 482.75 1446.93 443.1 1489.43 435.82 1486.52 482.75"/><rect class="cls-3" x="1439.81" y="245.04" width="70.43" height="84.52"/><rect class="cls-15" x="1446.2" y="252.71" width="57.65" height="69.18" rx="3.2"/><path class="cls-16" d="M629.85,406.5c-1.05,9-1.13,18.69-3.74,27.32-18.57,61.4-19,125.93-16.29,190.11a5.34,5.34,0,0,0,.53,2.55c1,1.74,3.5,1.67,5.48,1.39,1.73-.24,3.71-.65,4.57-2.21a5.83,5.83,0,0,0,.54-2c10.49-71.81-1.14-146.78,19.13-216.38l-8.1-.72"/><path class="cls-17" d="M673.08,383.36l-67-7.6-123.5,60.95,4.17,33.74,2.78,30.7,33.58,17.16c2.79,5,.87,52.64,6.28,54.56l106.52,32.57a21.53,21.53,0,0,0,6.7,1.25l61.13,1.65-27.34-186Z"/><path class="cls-5" d="M693.68,412.16c-9.34,11.41-129.91-9.53-131.65-16.28s59-57.36,65.62-57.36S682,341,685.91,344.91,703,400.76,693.68,412.16Z"/><path class="cls-5" d="M653,621.39a8.42,8.42,0,0,0-7.76-4.87l-54.41.71a10.93,10.93,0,0,0-9.75,6l-4.28,8.48h81Z"/><rect class="cls-18" x="819.23" y="121.99" width="159.65" height="72.43"/><rect class="cls-19" x="819.23" y="169.37" width="159.65" height="25.04"/><rect class="cls-20" x="819.23" y="144.85" width="159.65" height="24.17"/><path class="cls-21" d="M767.44,104.27c25.37-.17,39.22-3,60.63-3.48s40.82.66,52.39-.27c16.28-1.31,43.07-1.08,59.42-.76,23.92.46,35-1.85,58.87-.91,2.75.11,6.24.79,6.74,3.29.59,3-3.71,4.55-7,4.87-34.91,3.43-70.16,1.47-105.28.87q-59.79-1-119.47,3.29a17,17,0,0,1-6.32-.34c-2-.64-3.81-2.29-3.82-4.25s2.46-3.74,4.33-2.8"/><circle class="cls-15" cx="764.59" cy="108.66" r="7.31"/><circle class="cls-15" cx="1007.47" cy="103.68" r="7.31"/><path class="cls-13" d="M746.9,627.53c-.42,1.45,4.55-8.61,9.62-13.49,5.07-6.36,10.25-15.41,10.25-13.49,0-2.77.46,3.78,1.19-11.46.74-12.49,1.75-16.76,2.86-27.34l7.46-71.44,1.19-106.21-.67-185.79-.64-14.89-1.42-32.76c-.52-15.71-1-27.64-1.42-32.77a139.7,139.7,0,0,1-.64-14.89c0-6.81,1.19-1.73,4.38-3.06,0,1,6.91-.12,13.83-1.66,6.91,8.86,13.82-5.11,13.82-1.66,0,.17,6.85,4.33,13.7.72,6.85-2.47,13.69-6.39,13.69.72.84,4.58,9.39-7.48,9.4,1.27,0-.76-.35,2.48-.82,11-.46,9.4-1,12.06-1.5,20.51-.47,2.71-.82,11-.82,11l-3.13,230,19.27,191.7-4.8,46.13c0,.34-3.86,2.86-9,6.06-5.18,2-11.68,14.44-17,10.18-5.28,3.84-9.32,7.91-9.61,5.38"/><rect class="cls-18" x="1110.84" y="121.99" width="159.65" height="72.43"/><rect class="cls-19" x="1110.84" y="168.76" width="159.65" height="25.04"/><rect class="cls-20" x="1110.84" y="144.85" width="159.65" height="23.55"/><path class="cls-21" d="M1332.54,98.08c-25.36.6-39.29-1.83-60.71-1.62s-40.78,1.91-52.36,1.33c-16.31-.81-43.09.24-59.42,1.06-23.9,1.19-35-.77-58.87.9-2.75.19-6.22,1-6.64,3.49-.5,3,3.85,4.44,7.15,4.66,35,2.35,70.17-.69,105.26-2.36q59.73-2.83,119.51-.38a17,17,0,0,0,6.3-.53c2-.7,3.75-2.4,3.7-4.37s-2.58-3.66-4.42-2.66"/><circle class="cls-15" cx="1335.52" cy="100.87" r="7.31"/><circle class="cls-15" cx="1092.65" cy="103.68" r="7.31"/><path class="cls-13" d="M1296.1,642.94c0,2.07,5.19-2.7,12.12-2.1a203.87,203.87,0,0,1,22.5-3.9c6.92-3.62,12.12,5.48,12.12-2.11.63.7,12-2.16,11.39-4.84-4.66,5.2-7.51-10.78-9.19-13.67-1.69-6.11-2.2-7.14-2.2-11.51,0-.68-.64-.52-1.67-10.48-1-2.35-2.43-15.31-4-25l-10.37-65.27-8.38-118.78,5.25-191.64-.39-82.71c0-9.19-.07-15.34-.07-15.32,0-1.69-1.19-7.27-4.38-3.15,0-2.94-6,1.57-12.06-2.44s-12.06-.61-12.06-2.43c0-.55-7.73-1.06-15.46,1.46-7.73-2.09-15.47.32-15.47,1.47-.41-.75-8.94,8.72-17.37,2-8.42-4.34-16.74,7.9-16.75,2.77,0-1.86.88.54,2.06,13.32,1.17,11,2.64,15.78,3.81,24.75l2,13.32,14.09,234.87L1265,493.89l4.91,113.53.57,13.17c1.9-.35,3.66,11.84,7.26,11.31C1281.36,641.7,1286.82,630.91,1296.1,642.94Z"/><path d="M1148.26,536.39c0,2.27-5.35,4.12-7.62,4.12s-7.77-1.85-7.77-4.12,5.5-4.12,7.77-4.12S1148.26,534.12,1148.26,536.39Z"/><path d="M1479.34,499.3c0,1.88-4.42,3.4-6.3,3.4s-6.42-1.52-6.42-3.4,4.54-3.4,6.42-3.4S1479.34,497.42,1479.34,499.3Z"/></g><g id="shadow_from_windows" data-name="shadow from windows"><path class="cls-22" d="M1118,678.7H959.37c-1.67,0-1,.65-2.24,2.42L810.77,896.79c-1.26,1.77-.94,3.21.72,3.21H931.11c6.69-15.22,12.76-17.48,25.31-31.61,6.16-6.94,16-29.29,24.1-32.86,20.33-9,37.4-22.16,56.12-32.08l82-123.22C1120.16,678.26,1119.93,678.53,1118,678.7Z"/><path class="cls-22" d="M657.7,674.39c-23.67,16.1-2,1.76-24,20-20.51,16.92-29.45,60.68-49.18,78.48s-139.65,128.7-139.65,128.7c4.69.43,131.32,5.67,134.68,3.14,0,0,186.4-226.09,186.4-227.75C765.91,676,657.7,674.39,657.7,674.39Z"/></g><g id="small_objects" data-name="small objects"><circle class="cls-17" cx="1004.89" cy="457.63" r="32.08" transform="translate(392.2 1376.24) rotate(-80.78)"/><circle class="cls-17" cx="1005.17" cy="459.38" r="17.44"/><circle class="cls-17" cx="1005.17" cy="458.91" r="24.75" transform="translate(391.18 1377.59) rotate(-80.78)"/><rect class="cls-15" x="874.35" y="451.61" width="30.81" height="50.14" rx="2.23"/><rect class="cls-4" x="905.16" y="458.91" width="17.45" height="42.84" rx="2.23"/><rect class="cls-15" x="922.61" y="446.01" width="16.7" height="55.74" rx="2.23"/><rect class="cls-15" x="984.83" y="497" width="40.7" height="4.75" rx="1.96"/><path class="cls-16" d="M1016,497H994.32s-1.28-30.85,0-31.83,5.06,3.64,6.16,5.09c2.74,3.62,2.74-2.48,10.17-2.28,1.16,0,1.4-5.81,2.87-5S1016,497,1016,497Z"/><path class="cls-4" d="M1193,485a7.08,7.08,0,0,0-7,6.49,5.79,5.79,0,1,1,0,1.18,7.08,7.08,0,1,0,7-7.67Z"/><path class="cls-4" d="M1176.6,481h14.71a3.13,3.13,0,0,1,3.13,3.13h0V498.6a3.13,3.13,0,0,1-3.13,3.13h-12.78a3.13,3.13,0,0,1-3.13-3.13h0V482.23a1.21,1.21,0,0,1,1.19-1.23Z"/><rect class="cls-15" x="1072.38" y="445.16" width="28.17" height="57.45" rx="5.28"/><rect class="cls-4" x="1103.3" y="464.37" width="19.4" height="36.81" rx="4.91" transform="translate(-90.39 328.84) rotate(-16.16)"/></g><g id="WATER"><path class="cls-23" d="M850.31,758.67c-54,4.7-75.13-2.69-70.44,23.7s-27.57,25.84-25.13,64.2,72.09,43.55,95.57,37.69,36-24.63,27.39-33.24-43.31-9.39-16.57-25.83,47.87-17.57,67.44-19,26.16-21.58,4.86-26.35-31.47,23.55-41.64,0,1.56-25.12-14.09-26.69A48.45,48.45,0,0,0,850.31,758.67Z"/></g><g id="FISHBOWL"><path class="cls-24" d="M826.83,762.77c-2.9-6.39-8.11-13.29-14-19.13-11.18-11-24.82-18.28-30-11.11a58.1,58.1,0,0,0-19.32-2.84c-50.77.1-78.66,41.43-78.33,82l-.78.61c-16.81,13,18.44,81,31.78,63l.69-.9c.51.35,1,.72,1.54,1.06a80.54,80.54,0,0,0,22.75,10.14c2.34,5.59,6.61.7,11.45.26,2.42-4,5-5.4,7.52-3.6,2.53,2.18,5,0,7.36.88,4.63-.36,8.48-4,10.19-4.88,1.56-1.71,2.32-8.85,2.65-5.08a36.84,36.84,0,0,0,.07-7.35c-.32-5.55,3.18-2.5,5.24-4.41,1-5.25,4.34-10.69,6.25-5.61,1.92.1,13.06-6.91,14.12-5.79,1.06-10.45,4.53-22.7,7-25.08,2.47-5.51,5.26-6.51,7.52-9.56,4.52-7.14,6.91-8.24.33-7.59-3.92,0-6.65,1.16-8.5-1.86-1.85-2.24-2.81-6.07-3.2-8.86V796a4.29,4.29,0,0,0,1.18-.57c1.73,1.34,2.45-2.3,3.21-.91.77-.68,1.57-.65,3.47-4.66,1.9-.14,4.89-6.18,10-11a11.49,11.49,0,0,0,2.25-7.7C829.16,767.78,828.29,764.26,826.83,762.77Z"/><polygon class="cls-25" points="786.58 866.19 782.91 874.22 795.43 874.22 786.58 866.19"/><path class="cls-25" d="M834.32,775.88s-4.18,18.26-2.61,19.3,24.52-9.65,24.52-9.65V768.05H840.58Z"/><polygon class="cls-25" points="872.13 781.35 890.57 765.17 884.92 775.93 895.9 775.93 898.22 788.87 890.57 792.38 876.79 786.38 872.13 781.35"/><path class="cls-25" d="M822,884.7a32.36,32.36,0,0,1,3.8-.49c3.42-.25,8,0,8.64,2.76,1,4.55-3.11,11.69-3.11,11.69l-15,2.17-6.12-8.35Z"/><path class="cls-26" d="M836.29,872.59c2,3,38.11.62,38.11.62l18.91-25.77-26.8-34.71-3.86,35.47L839.9,829.26l2.69,18.06s1.82,17-.45,14-9.59-.68-9.59-.68Z"/></g><g id="fish_" data-name="fish "><path class="cls-27" d="M1064.92,775.5h0a3.67,3.67,0,0,1-4.62-2.32l-4.76-14.37a3.67,3.67,0,0,1,2.32-4.62h0c1.91-.63,5.2-.36,5.83,1.55l3.55,15.14A3.67,3.67,0,0,1,1064.92,775.5Z"/><path class="cls-27" d="M1060.34,778.83h0a3.68,3.68,0,0,1-4.92-1.58l-6.93-13.47a3.68,3.68,0,0,1,1.58-4.92h0c1.79-.92,5.09-1.16,6,.63l5.85,14.41A3.67,3.67,0,0,1,1060.34,778.83Z"/><path class="cls-27" d="M1054.68,780.8h0a3.68,3.68,0,0,1-5-1.25l-7.79-13a3.67,3.67,0,0,1,1.25-5h0c1.72-1,5-1.49,6,.24l6.78,14A3.67,3.67,0,0,1,1054.68,780.8Z"/><path class="cls-27" d="M1050.93,785.05h0a3.65,3.65,0,0,1-5.14-.47L1036.08,773a3.66,3.66,0,0,1,.47-5.15h0c1.54-1.29,4.7-2.24,6-.7l8.86,12.79A3.66,3.66,0,0,1,1050.93,785.05Z"/><path class="cls-27" d="M1070.14,778.29h0a3.65,3.65,0,0,1-2.84-4.31l3-14.84a3.65,3.65,0,0,1,4.31-2.84h0c2,.4,4.69,2.28,4.28,4.25l-4.47,14.89A3.66,3.66,0,0,1,1070.14,778.29Z"/><path class="cls-27" d="M1068,776.74h0a3.67,3.67,0,0,1-3.76-3.54l-.46-15.14a3.67,3.67,0,0,1,3.54-3.76h0c2-.06,5.08,1.14,5.14,3.15l-.91,15.53A3.67,3.67,0,0,1,1068,776.74Z"/><path class="cls-27" d="M1046,790.65h0a3.67,3.67,0,0,1-4.75,2.05l-14.08-5.57a3.67,3.67,0,0,1-2-4.74h0c.74-1.87,3.06-4.22,4.93-3.48l13.89,7A3.67,3.67,0,0,1,1046,790.65Z"/><path class="cls-27" d="M1045.56,796.29h0a3.67,3.67,0,0,1-4.37,2.77l-14.78-3.33a3.67,3.67,0,0,1-2.76-4.37h0c.44-2,2.38-4.64,4.34-4.2l14.8,4.77A3.66,3.66,0,0,1,1045.56,796.29Z"/><path class="cls-27" d="M1043.44,801.9h0a3.67,3.67,0,0,1-4.18,3.05l-15-2.35a3.67,3.67,0,0,1-3-4.18h0c.31-2,2.06-4.79,4-4.47l15.08,3.78a3.66,3.66,0,0,1,3.1,4.14Z"/><path class="cls-27" d="M1044.29,807.5h0a3.67,3.67,0,0,1-3.66,3.65h-15.14a3.67,3.67,0,0,1-3.65-3.66h0c0-2,1.3-5,3.31-5l15.49,1.41A3.67,3.67,0,0,1,1044.29,807.5Z"/><path class="cls-27" d="M1051.44,788.43h0a3.67,3.67,0,0,1-5.14-.58L1036.87,776a3.67,3.67,0,0,1,.59-5.14h0c1.57-1.25,4.75-2.13,6-.55l8.55,13A3.66,3.66,0,0,1,1051.44,788.43Z"/><path class="cls-27" d="M1048.87,789.08h0a3.66,3.66,0,0,1-5.13.61l-11.9-9.35a3.67,3.67,0,0,1-.62-5.13h0c1.24-1.59,4.14-3.17,5.72-1.93L1048.26,784A3.66,3.66,0,0,1,1048.87,789.08Z"/><path class="cls-27" d="M1059.22,834.6l-1.84,1.46a4.24,4.24,0,0,1-2.19.62.3.3,0,0,1-.22-.12l-1.18-1.49.88-8.08c.06-.63,1.63-1.26,2.17-.94l2.43,2.32,2.79.68c.6.35,1.76,2.06,1.14,2.38Z"/><path class="cls-28" d="M1116.47,775.52c-8.72-8.26-10.23-11.95-24.24-12.3-8.2-.21-24.62-1.77-33.39,2.07-7.82,3.43-16.13,6.93-19.7,13.48C1028.84,797.69,1018,808,1023,819.23c4.14,9.44,10.32,11.43,22.3,12.83,9.35,1.09,22.85,1,33.26-3.52,12.28-5.38,25.51-11.33,30.79-20.61a110.19,110.19,0,0,0,6.31-12.92c.5-1.26,4.19-8.42,2-7.9-6.46,1.57-9.79,1.28,1-3.55C1121.77,782.2,1118.4,777.35,1116.47,775.52Z"/><path class="cls-29" d="M1029.07,809.16a50.19,50.19,0,0,1,8.58-.2c1.85.09,6.51,3.87,6.64,5.71.2,2.83,2.21,3.8,2.39,5,.17,1-1.06,5.33-1,6.33.08,3.42-1.85,5.1-3.62,7.92-3.87,6.16-8.63,15.33-13.59,19.83-4.22,3.83-8.52-1.21-11.7-4.18a3.75,3.75,0,0,1-1.1-3.5c.72-3.53,1.26-7,1.85-10.52a3.69,3.69,0,0,0-2.13-4,116.22,116.22,0,0,1-16.68-9.12,3.73,3.73,0,0,1-1.38-1.66c-2.79-6.36-.26-9.69,7-10.49h.44c8,.07,15.86-1.88,23.82-1.07A2.61,2.61,0,0,0,1029.07,809.16Z"/><path class="cls-27" d="M1074.68,824.82l-3.71,4.4a10.18,10.18,0,0,1-5,2.49.75.75,0,0,1-.59-.18l-3.59-3.11,1.78-18.7c-.15-1.57,5.13-5.2,6.61-4.68l4.39.05,5.49,3.79c1.62.57,4,5.37,2.62,6.41Z"/><line class="cls-30" x1="1088.11" y1="775.9" x2="1103.37" y2="780.27"/><line class="cls-30" x1="1100.95" y1="772.1" x2="1090.53" y2="784.07"/><path class="cls-31" d="M1059.21,872.66l-5.77-1.65a6.92,6.92,0,0,1-4.74-8.55l7.3-17.54c1-3.65,5.64-4.59,9.29-3.54l2.47,1.42a6.93,6.93,0,0,1,4.74,8.55l-4.74,16.57A6.93,6.93,0,0,1,1059.21,872.66Z"/><rect class="cls-32" x="1055.64" y="841.38" width="23.48" height="36.78" rx="6.91"/><polygon points="1065.48 857.96 1067.38 854.37 1069.28 854.37 1068.98 865.17 1067.84 864.93 1067.84 857.96 1067.84 856.7 1066.61 857.96 1066.07 858.37 1065.48 857.96"/><path class="cls-31" d="M830.16,744.7,824.4,743a6.94,6.94,0,0,1-4.75-8.55L827,717c1-3.65,5.64-4.59,9.29-3.54l2.47,1.42a6.93,6.93,0,0,1,4.74,8.55L838.71,740A6.94,6.94,0,0,1,830.16,744.7Z"/><rect class="cls-32" x="826.6" y="713.41" width="23.48" height="36.78" rx="6.91"/><path d="M837,730.38a3.94,3.94,0,0,1,1.53-3.56c1.84-1.26,3.86.52,3.86.52l.24,3.8L838.79,735h2.71l2.22.3-.16,1.22-4.92.69h-2.17l-.2-2.5,3.26-3s2-1.53,1.21-2.22-2.65.56-2.65.56Z"/></g><g id="Layer_14" data-name="Layer 14"><path d="M16.91,811.68c-7.09,123.39,3.44,193.71,3.44,193.71l63.6-.78Z"/><path d="M250.47,830.91c-3.05,60.2,1.49,94.5,1.49,94.5l27.4-.38Z"/><path d="M503.75,811.68c7.09,123.39-3.44,193.71-3.44,193.71l-63.6-.78Z"/><path class="cls-3" d="M563.71,764.74v24c0,24.09-138.36,43.62-309.06,43.62S-54.43,812.84-54.43,788.75v-23h.11a4.79,4.79,0,0,1-.11-1c0-24.09,138.39-43.62,309.08-43.62S563.71,740.65,563.71,764.74Z"/></g><g id="side_bar" data-name="side bar"><rect class="cls-33" x="1663.74" width="256.26" height="1082.6"/></g><g id="Ui_and_character" data-name="Ui and character"><circle class="cls-34" cx="1589.64" cy="970.65" r="23.31"/><circle class="cls-35" cx="1589.64" cy="966.01" r="13.49"/><path class="cls-36" d="M1297.38,909.34c0,10,10,10.79-2.2,10.79S1265,905.44,1265,895.46s9.57-15.21,21.72-15.21S1297.38,899.36,1297.38,909.34Z"/><ellipse class="cls-37" cx="1535.83" cy="837.29" rx="9.88" ry="12.68"/><path class="cls-38" d="M1446.73,1024c.25,16.46-27.92,13.15-38.19,13.48s-31.42,9.91-31.81-5.88,28.75-16,41.79-14.21C1433.94,1019.59,1446.47,1007.57,1446.73,1024Z"/><path class="cls-39" d="M1409.78,859.18c-30.87,2.51-61.28,2-89.81,1.72-25.48-.23-29-15.32-36.35-32.52a36.09,36.09,0,0,1-2.89-13.07c-.46-13.86-3.06-15.91-2.34-37.35.83-24.51,36.88-77.27,66.12-76.9s38.88-1.64,67.17-.25,59,36.37,59.4,61.4,3.85,21.17,0,42.51S1433.23,856.94,1409.78,859.18Z"/><path class="cls-40" d="M1316.89,1041.58c-5.27.84-13,.88-17-1.75-7.24-4.75,3.4-12.79,4.25-19.47,4.68-36.8-15.72-75.54-10.74-119.46.9-8,8.06-13.63,16.29-14.06a48.57,48.57,0,0,1,14.27,1.09c8.06,2.11,12.25,10.36,11.57,17.28-3.77,38.18,7.2,72.67-.35,109.52C1333.82,1021.41,1326.43,1040.06,1316.89,1041.58Z"/><path class="cls-39" d="M1588.94,964.07c-6.69,76.51-134.41,62.55-186.42,50.36s-117.91-34.15-110.33-120.58,103.29-93.22,182.67-79.69S1595.62,887.56,1588.94,964.07Z"/><path class="cls-41" d="M1276.39,791.33c-8.93,5.69-16.44,7.84-21.73,2-4.32-1.8,5.67-6.77,7-11a80,80,0,0,0-.77-27.13c-1.67-8.71-.34-18.1,6.89-23.76,9.21-3.78,23.72-7.83,32.49-6.54s10,.3,13.84,6.8c-.52,11.08-3.58,27.32-10.31,35.27S1280.83,788.5,1276.39,791.33Z"/><path class="cls-41" d="M1474.05,777.29c8.39,3.32,15.91,4.68,19.17-1.74,3.42-2-6.33-7.08-8-10.91-2.76-10-.44-20.67-3.84-30.69s-10.82-21.19-22.06-22.65c-10,1.06-24.83,4.75-31,11.2s-6.74,6-6.22,13.39c7.1,8.2,20.91,20.27,28.25,26.15S1469.88,775.64,1474.05,777.29Z"/><path class="cls-42" d="M1427.15,1042.09c-4.72,4.51-13.38,3.92-17.37,3.53-7.22-.69-6-18.64-6.57-27.89-3-51-19.8-49.69-27.64-101.34-1.43-9.37,8-27.48,15.42-29.65,4.11-1.2,17.82-.27,22.17,0,7.87.49,14.16,4,15.88,14.4,9.46,57.08,11.83,56.5,5.55,115C1433.45,1026.72,1432.63,1036.85,1427.15,1042.09Z"/><path class="cls-43" d="M1568.41,1015.16c-14.91,8.9-32.64,13.19-50.79,15a178.37,178.37,0,0,1-37.84,5.25c-10.4.34-39.13,12.64-39.71-3.93-.35-9.69,11.55-15.25,24.16-18.32-1.15-11.26,4.14-26.32,3.42-41.23-1.34-28,12.73-60.55,47-69.28S1575,923.89,1580,958C1582.49,975,1580.77,1007.79,1568.41,1015.16Z"/><path class="cls-41" d="M1350.83,826.81c-.52,10.41-1,20.09,17.72,21s24.45-3.53,25-14-.62-18.42-19.3-19.35S1351.35,816.39,1350.83,826.81Z"/><path class="cls-44" d="M1380.31,831.35c0,7.51-3.72,13.57-8.21,13.55s-8.1-6.14-8-13.65,2.59-6,7.08-5.93S1380.35,823.84,1380.31,831.35Z"/><line class="cls-45" x1="1372.09" y1="827.26" x2="1372.17" y2="836.69"/><path class="cls-46" d="M1420.8,830.93c-4.43,9.44-10.67,20.65-27.59,12.69A68.15,68.15,0,0,1,1372,828c-5.33,6.55-13.89,13-23,17.15-17,7.76-23.12-3.52-27.46-13s4.29-15.64,21.3-23.4c11.29-5.16,20.64-6.17,26.93-3.49,6.11-4.67,16.76-4.24,30,2C1416.71,815.24,1425.25,821.49,1420.8,830.93Z"/><path class="cls-47" d="M1370.86,798c2.78,0,8.17.19,10.53,2.13s1,4.26.43,6.68a21.58,21.58,0,0,1-10.71,4.36c-2.95.21-7.39-2.6-9.71-4.44-.91-2.36-1.64-5.51,1-7.13S1368,798.1,1370.86,798Z"/><circle class="cls-48" cx="1334.5" cy="787.35" r="20.34"/><circle cx="1329.51" cy="787.42" r="13"/><circle class="cls-48" cx="1411.33" cy="787.35" r="20.34"/><circle cx="1406.78" cy="787.35" r="12.97"/><circle cx="1330.51" cy="836.15" r="0.93"/><circle cx="1343.08" cy="842.31" r="0.57"/><circle cx="1340.49" cy="834.71" r="1.13"/><circle cx="1396.14" cy="835.64" r="0.93"/><circle cx="1407.14" cy="839.72" r="0.57"/><circle cx="1412.44" cy="832.69" r="0.72"/><path class="cls-49" d="M1415.79,753.76c-5-3.51-10.3-6.39-16.3-7.41a8.83,8.83,0,0,0-3.62-.06,3.53,3.53,0,0,0-2.62,2.28c-.62,2.25,1.74,4.12,3.79,5.23,4.77,2.58,10.14,5,15.44,3.88,1.92-.42,4.08-2.12,3.31-3.92a3.87,3.87,0,0,0-2.2-1.75l-10.12-4.57"/><path class="cls-49" d="M1342.62,746.38a58,58,0,0,0-7.78,1.89c-4,1.29-8.36,3.43-9.82,7.42a1.36,1.36,0,0,0,1.25,2c4.61,1.13,9.38-.67,13.79-2.43,3-1.18,6-2.48,7.93-5,.94-1.27,1.29-3.44-.13-4.12a3.1,3.1,0,0,0-1.54-.16A33.14,33.14,0,0,0,1336,748.5"/><path class="cls-41" d="M1350.66,883.62c0,20.18-20.44,36.51-43,36.51-13.21,0-41.1-9-42.89-25.9-1.27-11.91,18.36-18.09,23-25,14.4-21.29,13.76-8.33,36.27-8.33S1350.66,863.44,1350.66,883.62Z"/><path class="cls-41" d="M1544,831.16c4.94,21.66-53.35,77.56-103.4,89-30,6.84-59.74,6.37-80-8.2-13.56-9.73-11.76-25.84-9.91-34.54,3.89-18.23,15.27-8.65,46.41-16.48,10.61-2.67,31.83-1.07,41-9.86,12.39-11.85,26-26.82,31.14-39.83,2.09-5.28,10.18.29,17.22,0C1507.7,810.33,1541.46,820,1544,831.16Z"/><path class="cls-50" d="M1331.82,867.46c6.25,1,10.74,4.08,13.93,6.14,2.4,1.56,1.71.51,1.24,3.5-.6,3.78-2.32,4.63-5.71,6.64-3.23,1.91-15.55,10.39-20.57,9.6-11-1.73-9.49-9.11-8.39-16.07S1320.86,865.73,1331.82,867.46Z"/><path class="cls-50" d="M1367.07,869.57c-5.83,0-10.37,2.17-13.56,3.59-2.42,1.07-1.64.22-1.64,3,0,3.52,1.45,4.55,4.25,6.86s12.66,11.7,17.34,11.7c10.23,0,10-6.93,10-13.42S1377.3,869.57,1367.07,869.57Z"/><path class="cls-47" d="M1403.1,705.75c0,8.79-4.84,11.85-11.88,12.72s-16.41-.5-25.26-.5c-8.5,0-16.21,1.26-21.93.59-6.15-.72-10-3.67-10-12.81,0-17.65,16.88-37.42,34.52-37.42S1403.1,688.1,1403.1,705.75Z"/><path class="cls-51" d="M1391.24,718.76c0,7.63-10.57,13.81-23.61,13.81S1344,726.39,1344,718.76a.67.67,0,0,1,0-.2q.87.09,1.8.15c5.49.28,12.49-.74,20.13-.74,8.85,0,18.17,1.37,25.26.5A1.35,1.35,0,0,1,1391.24,718.76Z"/><path class="cls-52" d="M1366.64,658.26a19.42,19.42,0,0,1,2.52,8.12c.22,1.59.41.91-1,1.81-1.81,1.14-2.8.72-4.89,0a7.44,7.44,0,0,1-4.87-3.58c-3.29-5.26-6.36-8.91-3-11S1363.35,653,1366.64,658.26Z"/><path class="cls-52" d="M1374,661.25a11.59,11.59,0,0,0-4.14,4.87c-.76,1.41-.7.71.33,2,1.31,1.69.86,1.6,3.07,1.68s4,1.3,6.19-.43c4.91-3.79,12.47-5.64,10.07-8.75S1378.88,657.46,1374,661.25Z"/><path class="cls-51" d="M1348.92,708.26c0,3.67,1,8.75,0,10.48-.24.46-.9,0-1.41,0-2.14.19-.83,0-2.75-.12a18.86,18.86,0,0,1-4.4-.94c-3.16-.93-.22-.31-.22-15.27s21.25-33.52,24.52-33.52c2.37,0-10,12.21-13.28,24.65C1350.17,698.27,1348.92,704.14,1348.92,708.26Z"/><path class="cls-51" d="M1386.39,708.26c0,4.62-1.12,10.27,1.35,10.49,2.14.19.84,0,2.76-.12a18.78,18.78,0,0,0,4.39-.94c3.16-.93.22-.31.22-15.27s-21.68-34.25-24.95-34.25c-2.37,0,10.38,12.94,13.71,25.38C1385.14,698.27,1386.39,704.14,1386.39,708.26Z"/><path class="cls-51" d="M1373,711.57c.3,4.61,2.52,7.33,0,7.56-2.14.19-9.51-.06-11.43-.23-2.09-.18-3.76,1.13-4.92.79-3.16-.93-.19-1.38-.19-16.34s9.54-35,12.81-35c2.37,0,1.53,14.7,1.66,27.57C1371,702.83,1372.66,706.71,1373,711.57Z"/><path class="cls-51" d="M1395.63,684.4c.87,1.32,1.93,2.36,1.14,3.3-1.35,1.59-6.61,2.87-10.49,4.18a53.92,53.92,0,0,1-16.83,2.48c-8.22,0-15.59-1.55-20.52-4-4-2-8-5-6.39-7.3,3.3-4.64,2.61-4.27,8.43.37,3.91,3.11,12.3,4.63,17.88,4.63,5.81,0,8.89-1.28,14.64-3.06,4.91-1.52,8.28-3.23,10.17-2.64C1394.4,682.59,1395,683.5,1395.63,684.4Z"/><path class="cls-51" d="M1350.18,676c-.92-.47.25-.88,1-1.42,1.54-1.17,2.35-1.89,3-1.39a21.48,21.48,0,0,1,3.52,3c2.07,2.17,7.83,2.44,11.2,2.13s8.15-.58,10.73-1.63c1.79-.74,4.07-1.2,5.39-2.16.65-.47,1.58.2,2.59,1.2s1.6,1.06,1.08,1.76c-1.07,1.41-4.78,2.86-6.87,3.77a51.57,51.57,0,0,1-12.19,2.78c-4.5.33-10.76-1.27-13.81-3.26-1.63-1.06-3.94-2.58-4.73-4"/><path class="cls-51" d="M1402.27,698.87a9.08,9.08,0,0,1,.52,3.35c-.12,1.45-6.45,3.48-12,5.34a68.46,68.46,0,0,1-21.45,3.17c-10.48,0-19.87-2-26.17-5.09-4.81-2.38-8.85-3.18-8.34-6.68,0-.19.87-2.41.92-2.61,1.84-7,2.62-5.46,10,.45,5,4,15.69,5.6,22.79,5.6,7.4,0,11.33-1.32,18.67-3.6,6.54-2,13.07-5.72,14.15-3.15A21.1,21.1,0,0,1,1402.27,698.87Z"/><circle class="cls-53" cx="1349.39" cy="878.59" r="7.56"/></g><g id="homesweethomesign"><path class="cls-54" d="M230.19,159.1a58,58,0,0,0,21.89-11.72,53.64,53.64,0,0,0,4.56-4.36c1.23-1.32,2.95-2.93,2.41-4.93a2.42,2.42,0,0,0-2.89-1.83,2.33,2.33,0,0,0-1.11.58,2.23,2.23,0,0,0-.44,2.51c.53,1.08,1.73,1,2.77,1.14a1.52,1.52,0,0,0,1.5-1.5l-.08-1.52a1.5,1.5,0,1,0-3,0c-.07,2.32,2.08,4,3.52,5.58q2.44,2.63,4.93,5.18,5.17,5.29,10.59,10.32c1.41,1.32,3.54-.8,2.12-2.12q-4.89-4.55-9.58-9.3c-1.56-1.58-3.11-3.19-4.63-4.81-.77-.81-1.52-1.62-2.28-2.44-.59-.64-1.7-1.47-1.67-2.41h-3l.08,1.52,1.5-1.5-1.34-.18,1.29.74c-.23-.38-1.75,1.7-2,1.94q-.68.76-1.38,1.5c-.94,1-1.92,1.92-2.93,2.83a53.6,53.6,0,0,1-6.64,5.09,54.91,54.91,0,0,1-15,6.8,1.5,1.5,0,0,0,.8,2.89Z"/><rect class="cls-3" x="140.54" y="157.65" width="241.7" height="132.12" rx="5.46"/><rect class="cls-54" x="149.1" y="167.93" width="224.58" height="112.15" rx="5.46"/><path d="M161.22,176.15h5v8h8v-8h4.95V196.5h-4.95v-8h-8v8h-5Zm3.73,19.4v-8h10.48v8h2.45V177.1h-2.45v8H165v-8h-2.48v18.45Zm-2.14-18.15h1.8v.17h-1.8Zm0,.68h1.8v.17h-1.8Zm0,.68h1.8v.17h-1.8Zm0,.68h1.8v.17h-1.8Zm0,.68h1.8v.17h-1.8Zm0,.68h1.8v.2h-1.8Zm0,.67h1.8v.17h-1.8Zm0,.68h1.8v.17h-1.8Zm0,.68h1.8V183h-1.8Zm0,.68h1.8v.17h-1.8Zm0,.68h1.8v.17h-1.8Zm0,.68h1.8V185h-1.8Zm0,.68h14.73v.17H162.81Zm0,.67h14.73v.17H162.81Zm0,.68h14.73v.17H162.81Zm12.93-9.5h1.8v.17h-1.8Zm0,.68h1.8v.17h-1.8Zm0,.68h1.8v.17h-1.8Zm0,.68h1.8v.17h-1.8Zm0,.68h1.8v.17h-1.8Zm0,.68h1.8v.2h-1.8Zm0,.67h1.8v.17h-1.8Zm0,.68h1.8v.17h-1.8Zm0,.68h1.8V183h-1.8Zm0,.68h1.8v.17h-1.8Zm0,.68h1.8v.17h-1.8Zm0,.68h1.8V185h-1.8Z"/><path d="M192.7,181.3A8.67,8.67,0,1,1,184,190a8.5,8.5,0,0,1,8.3-8.7Zm0,16.52a7.88,7.88,0,1,0-7.7-8.06V190a7.62,7.62,0,0,0,7.42,7.82Zm-7.44-8.45h1.46v.14h-1.46Zm0,.54h1.46v.14h-1.46Zm0,.54h1.46v.14h-1.46Zm.08-1.62h1.49l-.05.13h-1.46Zm0,2.16h1.46l0,.14h-1.49Zm.1-2.7H187v.13h-1.49Zm0,3.25h1.49v.13h-1.49Zm.16-3.79h1.54v.13H185.5Zm.16-.55h1.63l-.08.14h-1.57Zm.22-.54h1.7l-.1.14h-1.66Zm.27-.54H188l-.11.14H186.1Zm.35-.54h2l-.17.14h-2ZM187,185h2.28l-.19.13h-2.2Zm5.79-.73a5.49,5.49,0,0,1,5.74,5.23V190A5.76,5.76,0,0,1,187,190a5.47,5.47,0,0,1,5.24-5.69h.53Zm-5.27.19h2.84l-.35.13h-2.63Zm.62-.54h9.34l.13.13h-3.73L192.7,184l-1,.08h-3.87Zm4.65,10.91a4.9,4.9,0,1,0-4.77-5V190a4.63,4.63,0,0,0,4.4,4.86h.37Zm-3.87-11.46h7.75l.16.14h-8.12Zm1.11-.54h5.53l.35.14h-6.23Zm2.76-.51,1.44.11h-2.76ZM198,184.5h0l.16.16h-2.63l-.29-.13Zm.46.54.14.13h-2.17l-.19-.13Zm.41.54.11.14h-2l-.17-.14Zm.33.54.08.14H197.5l-.14-.14Zm-1.41.54h1.68l.05.14h-1.65Zm.3.54h1.59l.06.14h-1.57Zm.24.55h1.54l.06.13h-1.52Zm.16.54H200v.13h-1.51Zm.06,3.25H200v.13h-1.52Zm.08-2.71h1.49V189h-1.49Zm0,2.16h1.49l-.05.14h-1.46Zm.06-.54h1.46v.14h-1.49Zm0-1.08h1.46v.14h-1.46Zm0,.54h1.46v.14h-1.46Z"/><path d="M206.51,182h3.42l3.82,8.09L217.6,182H221v15h-3.65v-6.66l-3.27,7.16h-.6l-3.27-7.21V197h-3.67Zm2.75,14.28v-9.11h.42l4.07,8.79,4.15-8.79h.35v9.11H220V182.7h-1.82l-4.12,8.76h-.7l-4.09-8.76h-1.88v13.58ZM207.81,183h1.32l.05.13h-1.3Zm.25.5h1.3v.13h-1.28Zm.25.5h1.3v.13h-1.28Zm.25.5h1.27v.13h-1.25Zm.25.5h1.27v.13h-1.25Zm.27.5h1.22v.13h-1.19Zm.25.5h1.2l.05.13h-1.17Zm.25.5h1.17l.05.12h-1.14Zm.25.5H211l.07.12h-1.14Zm.25.5h1.15l.05.12h-1.12Zm.25.5h1.12l.08.12H210.4Zm.22.5h1.15l.05.12h-1.12Zm.23.5h1.15v.12H210.8Zm.22.5h1.15v.12H211Zm.25.5h1.15v.12h-1.12Zm.23.49h1.15l.05.13h-1.13Zm.22.5h1.18l.05.13h-1.15Zm.25.5h1.13l.07.13H212Zm.23.5h1.15l.07.13h-1.15Zm.22.5h1.18l.07.13h-1.17Zm1.43.5.07.13h-1.2l-.07-.13Zm.25.5.07.13h-1.22l-.08-.13Zm.22.5.08.08v.07h-1.15l-.08-.15Zm-.12.5-.08.12h-.7l-.07-.12Zm-.23.5-.07.12h-.25l-.08-.12Zm-.1.45-.1.12-.1-.12ZM218.5,183h1.29v.13H218.5Zm0,.5h1.29v.13H218.5Zm0,.5h1.29v.13H218.5Zm0,.5h1.29v.13H218.5Zm0,.5h1.29v.13H218.5Zm0,.5h1.29v.13H218.5Zm0,.5h1.29v.13H218.5Zm0,.5h1.29v.12H218.5Zm0,.5h1.29v.12H218.5Zm0,.5h1.29v.12H218.5Zm0,.5h1.29v.12H218.5Zm0,.5h1.29v.12H218.5Zm0,.5h1.29v.12H218.5Zm0,.5h1.29v.12H218.5Zm0,.5h1.29v.12H218.5Zm0,.49h1.29v.13H218.5Zm0,.5h1.29v.13H218.5Zm0,.5h1.29v.13H218.5Zm0,.5h1.29v.13H218.5Zm0,.5h1.29v.13H218.5Zm0,.5h1.29v.13H218.5Zm0,.5h1.29v.13H218.5Zm0,.5h1.29v.13H218.5Zm0,.5h1.29v.12H218.5Zm0,.5h1.29v.12H218.5Zm0,.5h1.29v.12H218.5Zm0,.5h1.29v.1H218.5Z"/><path d="M228.24,181h10.07v3.3H232V187h5.85v3.24H232V193h6.62v3.2H228.24Zm9.41,14.51v-1.78H231v-4.16h5.86v-1.82H231v-4.16h6.34v-1.88h-8.19v13.8Zm-8-.44h7.75v.13h-7.88Zm-.11-13h7.58v.13h-7.45Zm.51.51h7.07v.12h-6.94Zm.13,12h7.22v.12H230Zm.38-11.49h6.56v.13h-6.43Zm.15,11h6.69v.13h-6.84Zm.33-6h5.6v.12H231Zm0,.5h5.6v.13H231Zm0,.51h5.6v.13H231Z"/><path d="M352.06,254.19h10.06v3.29h-6.33v2.74h5.85v3.25h-5.85v2.74h6.61v3.19H352.06Zm9.41,14.5v-1.77h-6.62v-4.16h5.85v-1.83h-5.85v-4.16h6.34V254.9H353v13.79Zm-8-.43h7.76v.13h-7.88Zm-.1-13H361v.13H353.5Zm.51.51H361v.13H354Zm.13,12h7.22v.13h-7.35Zm.38-11.48H361v.12h-6.44Zm.15,11h6.69v.13h-6.84Zm.33-6h5.6v.13h-5.6Zm0,.51h5.6v.13h-5.6Zm0,.51h5.6v.12h-5.6Z"/><path class="cls-55" d="M223.35,225.29a2.12,2.12,0,0,0,2.1,2.14h0a1.8,1.8,0,0,0,2-1.57,1.21,1.21,0,0,0,0-.19c0-1.53-2-2-3.67-2.55-3.42-1.22-5.32-2.81-5.32-6.31a6.78,6.78,0,0,1,6.92-6.58c4.51,0,6.65,2.88,6.92,6.65h-4.68a2.13,2.13,0,0,0-4.25-.14c0,1.53,1.87,1.8,3.6,2.31,3.63,1.09,5.33,3.12,5.33,6.31a6.74,6.74,0,0,1-6.89,6.58c-4.44,0-6.95-3-6.95-6.65Zm2.1,5.7a5.7,5.7,0,0,0,5.73-5.63c0-3.43-2-4.68-5.15-5.56-2-.58-3.74-1.05-3.74-3.06a2.9,2.9,0,0,1,2.88-2.92h.28a3,3,0,0,1,3.12,2.1h2.55a5.27,5.27,0,0,0-5.67-4.75,5.76,5.76,0,0,0-5.8,5.63c0,2.51.95,4.11,4.68,5.43,1.93.71,4.28,1.22,4.28,3.43,0,1.8-1.57,2.71-3.16,2.71a3.09,3.09,0,0,1-3.12-2.14h-2.65c.07,2.55,2.55,4.76,5.77,4.76ZM220,216.44h2v.17h-2Zm0,.68h2v.17h-2Zm.13-1.39h2l-.07.2h-2Zm-.06,2.1h2l.07.17h-2.07Zm.17.68h2.27l.21.21h-2.41Zm.06-3.46h2.07l-.1.17h-2Zm.34-.71H223l-.23.2h-2.21Zm-.07,4.88h2.75l.27.17h-2.91Zm.51-5.56h3l-.37.17H221Zm0,6.24H225l.64.17h-4.37Zm.61-6.92h3.73v.17h-3.94Zm.17,7.6h5.32l.51.2h-5.46Zm.85-8.31h2.71v.17h-3Zm5.93,9,.21.17h-5.4l-.27-.17Zm-3.93-9.7h.71v.17h-1.53ZM229.59,222l.17.2h-4.65l-.51-.2ZM225.45,229h3.87l-.17.17h-3.7Zm0,.68h3.05l-.23.17h-2.82Zm0,.72h1.73l-.64.16h-1.09Zm4.72-7.64.06.17h-3.29l-.37-.17Zm-2.65,5.53h2.41l-.1.14v.06h-2.68Zm2.95-4.85.07.17h-2.48l-.2-.17Zm-2.17,4.17h2l-.1.17h-2.07Zm.17-3.46h2.24l.07.17h-2.21Zm.27,2.75h1.87l-.07.2h-1.9Zm.07-2.07h2V225h-2Zm.1,1.39h1.87v.17h-1.86Zm0-.68h1.9v.17h-1.87Z"/><path class="cls-55" d="M237.88,217h3.63l2.85,6.67,1.72-4.43-.9-2.24h3.59l2.82,6.65,2.6-6.65h3.6l-5.89,14.61h-.47l-3.49-8.15-3.37,8.15h-.45Zm9.9,4.71h.33l3.53,8.3,5-12.35h-1.79l-3,7.66h-.38l-3.32-7.66h-1.77l.61,1.56-2.3,6h-.48l-3.32-7.61h-1.81L244.34,230Zm-8.37-3.79h1.3V218h-1.27Zm.19.47h1.32v.12h-1.29Zm.21.47h1.32l.05.12h-1.3Zm.19.47h1.34v.12H240Zm.21.48h1.32l.05.11h-1.3Zm.19.47h1.34v.12h-1.32Zm.21.47H242v.12h-1.32Zm.21.47h1.32l.05.12h-1.3Zm.22.47h1.32v.12h-1.29Zm.18.47h1.35v.12h-1.32Zm.22.47h1.32v.12h-1.29Zm.18.48H243l.05.11H241.7Zm.22.47h1.32v.11h-1.29Zm.19.47h1.34v.12H242.1Zm.21.47h1.34v.12h-1.32Zm.19.47h1.34v.12H242.5Zm.21.47H244l.05.12h-1.32Zm.21.47h1.34l.05.12h-1.32Zm.19.48h1.34l.05.11h-1.32Zm.21.47h1.34V227h-1.32Zm.19.47h1.37v.12h-1.34Zm1.51.47v.12h-1.18l-.07-.12Zm-.19.47v.12H244l-.07-.12Zm-.19.47v.12h-.4l-.07-.12Zm-.19.47v.14l-.08-.14Zm2.34-11.31H248V218h-1.22Zm.18.47h1.28v.12H247Zm.22.47h1.27l.05.12h-1.25Zm.18.47h1.3l.05.12h-1.27Zm.22.48h1.27l.05.11h-1.25Zm.21.47H249l.05.12H247.8Zm.19.47h1.27l.05.12H248Zm.19.47h1.29v.12h-1.27Zm.21.47h1.29v.12h-1.27Zm.21.47h1.3v.12H248.6Zm.19.47H250v.12h-1.27Zm.21.48h1.3v.11H249Zm.19.47h1.32l.05.11h-1.3Zm1.53.47v.12h-1.3l-.07-.12Zm.19.47v.12h-1.3l-.07-.12Zm.21.47v.12h-1.3l-.07-.12Zm.21.47.05.12H250l-.08-.12Zm.19.47.05.12h-1.27l-.07-.12Zm.22.48v.11h-1.29l-.07-.11Zm.21.47V227h-1.29l-.07-.11Zm.19.47v.12h-1.29l-.07-.12Zm.21.47-.05.12H251l-.07-.12Zm-.19.47-.07.12h-.8l-.07-.12Zm-.19.47-.07.12h-.4l-.07-.12Zm-.19.47-.07.14-.07-.14Z"/><path class="cls-55" d="M262.72,217.25h8.64v2.83h-5.44v2.35h5v2.78h-5v2.35h5.67v2.74h-8.87Zm8.07,12.44v-1.52h-5.68v-3.56h5V223h-5v-3.57h5.44v-1.61h-7v11.83Zm-6.87-.36h6.65v.1h-6.76Zm-.09-11.16h6.5v.11h-6.39Zm.43.43h6.07v.11h-6Zm.11,10.29h6.2V229h-6.31Zm.33-9.85h5.63v.11h-5.52Zm.13,9.42h5.74v.1H264.7Zm.28-5.14h4.81v.11h-4.81Zm0,.44h4.81v.11h-4.81Zm0,.43h4.81v.11h-4.81Z"/><path class="cls-55" d="M278.77,217.14h8.54v2.8h-5.38v2.32h5V225h-5v2.32h5.62V230h-8.78Zm8,12.31v-1.51h-5.62v-3.53h5v-1.54h-5v-3.53h5.38v-1.6h-6.95v11.71Zm-6.8-.37h6.58v.11h-6.69Zm-.09-11h6.43v.11H280Zm.43.44h6v.1h-5.89Zm.11,10.17h6.13v.11H280.3Zm.32-9.74h5.57v.1h-5.46Zm.13,9.31h5.68v.11h-5.81Zm.28-5.08h4.75v.11h-4.75Zm0,.44h4.75v.1h-4.75Zm0,.43h4.75v.1h-4.75Z"/><path class="cls-55" d="M295.78,220h-3v-2.93h9.41V220h-3.06v10.58h-3.31Zm2.47,10V219.41h3.07v-1.67h-7.75v1.67h3V230Zm-4.45-11.91h7.29v.11H293.8Zm0,.45h7.29v.11H293.8Zm0,.45h7.29v.11H293.8Z"/><path d="M287.55,249.83h5v8h8v-8h4.95v20.35h-4.95v-8h-8v8h-5Zm3.73,19.4v-8h10.49v8h2.44V250.78h-2.44v8H291.28v-8h-2.47v18.45Zm-2.13-18.15h1.79v.17h-1.79Zm0,.68h1.79v.17h-1.79Zm0,.68h1.79v.17h-1.79Zm0,.68h1.79v.17h-1.79Zm0,.67h1.79V254h-1.79Zm0,.68h1.79v.17h-1.79Zm0,.68h1.79v.17h-1.79Zm0,.68h1.79V256h-1.79Zm0,.68h1.79v.17h-1.79Zm0,.68h1.79v.17h-1.79Zm0,.68h1.79V258h-1.79Zm0,.67h1.79v.17h-1.79Zm0,.68h14.72v.17H289.15Zm0,.68h14.72v.17H289.15Zm0,.68h14.72v.17H289.15Zm12.92-9.5h1.8v.17h-1.8Zm0,.68h1.8v.17h-1.8Zm0,.68h1.8v.17h-1.8Zm0,.68h1.8v.17h-1.8Zm0,.67h1.8V254h-1.8Zm0,.68h1.8v.17h-1.8Zm0,.68h1.8v.17h-1.8Zm0,.68h1.8V256h-1.8Zm0,.68h1.8v.17h-1.8Zm0,.68h1.8v.17h-1.8Zm0,.68h1.8V258h-1.8Zm0,.67h1.8v.17h-1.8Z"/><path d="M319.26,255.61a8,8,0,1,1-8.12,8,7.88,7.88,0,0,1,7.76-8Zm0,15.32a7.31,7.31,0,1,0-7.19-7.43v.15a7.06,7.06,0,0,0,6.84,7.28Zm-6.91-7.83h1.35v.12h-1.36Zm0,.5h1.36v.12h-1.36Zm0,.5h1.36v.13h-1.35Zm.08-1.51h1.38v.13h-1.36Zm0,2h1.36v.13H312.4Zm.1-2.51h1.41l-.05.13h-1.38Zm0,3h1.38l0,.12H312.5Zm.15-3.52H314v.12h-1.41Zm.15-.5h1.51l-.08.12H312.8Zm.2-.51h1.58l-.1.13H312.9Zm.25-.5H315l-.1.13H313.2Zm.33-.5h1.86l-.15.12h-1.81Zm.35-.5h2l-.18.12h-2Zm5.38-.68a5.11,5.11,0,0,1,5.32,4.87v.38a5.33,5.33,0,1,1-10.65.46,3.53,3.53,0,0,1,0-.46A5.08,5.08,0,0,1,319,258.4h.31Zm-4.9.17H317l-.32.13h-2.44Zm.57-.5h8.67l.13.13h-3.47l-1-.08-.93.08h-3.6Zm4.33,10.13a4.55,4.55,0,1,0-4.38-4.72v.17a4.3,4.3,0,0,0,4,4.57h.29Zm-3.6-10.63h7.19l.15.12h-7.54Zm1-.5h5.13l.32.12h-5.77Zm2.57-.48,1.33.1H318Zm4.89,2h0l.15.15h-2.44l-.27-.13Zm.43.51.13.12h-2l-.18-.12Zm.38.5.1.12h-1.79l-.15-.12Zm.3.5.08.13H323.7l-.12-.13Zm-1.31.5h1.56l.05.13H324Zm.28.51h1.48l.05.12h-1.45Zm.23.5h1.43l.05.12h-1.41Zm.15.5H326l.05.13h-1.4Zm0,3H326v.12h-1.4Zm.07-2.52h1.38v.13h-1.38Zm0,2h1.38l-.05.13h-1.36Zm.05-.5h1.35v.13H324.8Zm0-1h1.35v.12h-1.35Zm0,.5h1.36v.12h-1.36Z"/><path d="M332.82,255.58H336l3.51,7.43,3.53-7.43h3.09v13.76h-3.34v-6.12l-3,6.57h-.55l-3-6.62v6.17h-3.37Zm2.52,13.11v-8.36h.39l3.74,8.07,3.8-8.07h.32v8.36h1.65V256.22h-1.67l-3.78,8h-.64l-3.76-8h-1.72v12.47ZM334,256.48h1.22v.11H334Zm.23.45h1.19l.05.12H334.3Zm.23.46h1.19v.12h-1.17Zm.23.46h1.17V258h-1.14Zm.23.46h1.17v.11H335Zm.25.46h1.12l0,.11h-1.1Zm.23.46h1.1l.05.11h-1.08Zm.23.45h1.08v.12h-1Zm.23.46h1.05l.07.12h-1.05Zm.23.46h1l.05.12h-1Zm.23.46h1l.07.11h-1Zm.2.46h1.06v.11h-1Zm.21.46h1v.11h-1Zm.21.46H338l.05.11h-1Zm.22.45h1.06V263h-1Zm.21.46h1.06v.12h-1Zm.21.46h1.08v.12h-1Zm.23.46h1l.07.11h-1Zm.2.46h1.06l.07.11h-1.06Zm.21.46h1.08l.07.11H338.3Zm1.31.46.07.11h-1.1l-.06-.11Zm.23.45.06.12H338.7l-.07-.12Zm.2.46.07.07,0,.07h-1.05l-.07-.14Zm-.11.46-.07.12h-.64l-.07-.12Zm-.21.46-.07.11h-.23l-.07-.11Zm-.09.41-.09.12-.09-.12Zm4.26-11.41H345v.11h-1.2Zm0,.45H345v.12h-1.2Zm0,.46H345v.12h-1.2Zm0,.46H345V258h-1.2Zm0,.46H345v.11h-1.2Zm0,.46H345v.11h-1.2Zm0,.46H345v.11h-1.2Zm0,.45H345v.12h-1.2Zm0,.46H345v.12h-1.2Zm0,.46H345v.12h-1.2Zm0,.46H345v.11h-1.2Zm0,.46H345v.11h-1.2Zm0,.46H345v.11h-1.2Zm0,.46H345v.11h-1.2Zm0,.45H345V263h-1.2Zm0,.46H345v.12h-1.2Zm0,.46H345v.12h-1.2Zm0,.46H345v.11h-1.2Zm0,.46H345v.11h-1.2Zm0,.46H345v.11h-1.2Zm0,.46H345v.11h-1.2Zm0,.45H345v.12h-1.2Zm0,.46H345v.12h-1.2Zm0,.46H345v.12h-1.2Zm0,.46H345v.11h-1.2Zm0,.46H345v.11h-1.2Zm0,.46H345v.09h-1.2Z"/></g><g id="Layer_19" data-name="Layer 19"><path class="cls-56" d="M-49.18,599.94s72.89,181.35,150,209.19c65.78,23.76,127,5.91,144.32-.53a9,9,0,0,1,8.63,1.29c17.33,13.24,87.63,62.27,95.67,66.23,9.23,4.54,184.27,56.78,184.27,56.78s105.09,84.65,105.68,92.1,109.28,53.6,109.28,53.6l47.87,94-131.39-63-78.25-59.81L527.32,986,372.65,935,237.84,862.77s-41.32,15.73-124.13-3.58S4.28,798.56,4.54,794-49.18,599.94-49.18,599.94Z"/><path d="M12.85,764.64q-3.61,5.88-4,10.07c-.29,2.8.35,4.67,1.9,5.62,1.16.72,3.43.7,6.8,0l-.58,2.8c-2,.71-3.29,1.15-4,1.32a10.67,10.67,0,0,1-2.76.24,5.86,5.86,0,0,1-3-.8q-3.25-2-3-7.53t4.51-12.47q4.26-6.95,9.56-9.68t9.19-.34a8.8,8.8,0,0,1,3.7,5.31,23.71,23.71,0,0,1-4.49,4.46,13.66,13.66,0,0,0-1-4.72,4.93,4.93,0,0,0-1.78-2.23,7.78,7.78,0,0,0-1.94-.9,15,15,0,0,0-4.47,3A27.29,27.29,0,0,0,12.85,764.64Z"/><path d="M36.08,768.81l3,2.23A6.91,6.91,0,0,1,42,775.8q.26,2.69-2.59,6.32a15.61,15.61,0,0,1-5.74,4.93,5.67,5.67,0,0,1-5.15.11l-1.73,7.08a50,50,0,0,0-1.26,6.43,6.67,6.67,0,0,0,.19,2.81l-.74.95-3.63-2.83q.36-1.05,1.37-4.7l3-11.54a1.57,1.57,0,0,1-.32-.31l-4.27,5.48a49.41,49.41,0,0,0-4.28,6.16l-.68.87-3.69-2.87.68-.87a36.27,36.27,0,0,0,4.72-5.19l11-14.15A53.18,53.18,0,0,0,33.44,768l.68-.87A20.92,20.92,0,0,0,36.08,768.81Zm-.23,11.61a10.14,10.14,0,0,0,2.34-4.29A2.72,2.72,0,0,0,37,773.55c-.89-.69-1.42-1.09-1.61-1.2q-1,1.15-8,10.22a6.41,6.41,0,0,0,1.08,1,3.08,3.08,0,0,0,3.45.43A12.35,12.35,0,0,0,35.85,780.42Z"/><path d="M44.09,792.21l-7.15,9.57a88,88,0,0,0-5.89,8.58l-.66.88-3.65-2.74.65-.88A85.15,85.15,0,0,0,34,799.55l7.45-10A79.56,79.56,0,0,0,47,781.36l.66-.88,3.66,2.74-.66.88c-.55.54-1.6,1.77-3.13,3.68S44.87,791.17,44.09,792.21Z"/><path d="M34.08,814q6.91-9,15-21.76c1.43-2.25,2.55-4.09,3.36-5.5l.59-.93,4,1.77q-1.06,2.16-3,6.89T46.3,814.36q7.89-8.45,12.61-13.79T65,793.48l4.27,1.64-.59.93c-.39.58-1.15,1.77-2.28,3.55s-3.11,5.11-6,10-5.72,10-8.67,15.6l-.59.92-3.66-2.31.59-.93c1.09-1.64,2.3-3.49,3.62-5.58q5-7.84,9-15Q48.7,815,43.42,821.06l-3-1.2q1.26-2,9.94-24.47-5,7.29-8.07,12.2c-2.07,3.28-3.8,6-5.16,8.3l-.59.93-3-1.93Z"/><path d="M75.52,806.17a11.16,11.16,0,0,0-1.61-.51q-.89,2.12-4.15,10.45l6.37,2.23-2.37,3.52-.46-.18a8.3,8.3,0,0,0-2.58-1.44,15.21,15.21,0,0,0-2.27-.78l-1,2.46q-3.06,7.82-3.59,9.38a13.68,13.68,0,0,0,1.83.83,15.69,15.69,0,0,0,3.31.81,7.71,7.71,0,0,0,3.1,0l.47.18-2.4,4.75-11.71-4.59.4-1A86.66,86.66,0,0,0,63,823.05l4.61-11.77a89,89,0,0,0,3.27-9.56l.4-1L82.68,805l-2.33,3.81-.47-.18A11.94,11.94,0,0,0,75.52,806.17Z"/><path d="M92,822a7.92,7.92,0,0,0,1,2.17c.42.6.79,1.13,1.12,1.58l.64.9.67,1c.36.54.58.82.67,1s.29.49.59,1a6.42,6.42,0,0,1,.57,1.32c.09.33.2.81.36,1.45a7.53,7.53,0,0,1,.22,1.77,21.07,21.07,0,0,1-.58,4.54c-.8,3.34-2,5.71-3.7,7.13a6.18,6.18,0,0,1-5.75,1.34c-2.17-.52-3.87-2.13-5.12-4.83a17.85,17.85,0,0,1,3-6.22A17.43,17.43,0,0,0,87.41,841a4.22,4.22,0,0,0,2.39,2.32,3,3,0,0,0,2.5-.53,11.51,11.51,0,0,0,1.39-3.67,7.15,7.15,0,0,0,.16-3.25c-.14-.48-.25-.88-.35-1.19a4.85,4.85,0,0,0-.61-1.2c-.31-.52-1-1.46-2-2.81a20.51,20.51,0,0,1-2-3.13,12,12,0,0,1-.37-7.83q1.11-4.59,3.47-6.39a5.83,5.83,0,0,1,5.07-1.14,9.46,9.46,0,0,1,5.11,3.8,32.28,32.28,0,0,1-2.87,6.2,17.45,17.45,0,0,0-1.86-4.38,4.15,4.15,0,0,0-2.29-2.07,2.51,2.51,0,0,0-2,.28,7.65,7.65,0,0,0-1.09,2.77A6.28,6.28,0,0,0,92,822Z"/><path d="M106.31,832q-1.62,6.71-.73,10.83c.59,2.75,1.77,4.33,3.54,4.76,1.33.32,3.49-.4,6.46-2.15l.31,2.85c-1.66,1.28-2.78,2.11-3.36,2.48a11.59,11.59,0,0,1-2.53,1,5.75,5.75,0,0,1-3.13.17c-2.47-.59-4.19-2.66-5.17-6.23s-.84-8,.43-13.26,3.31-9.33,6.1-12.15,5.67-3.88,8.63-3.17a8.82,8.82,0,0,1,5.16,3.91,23.79,23.79,0,0,1-2.89,5.63,13.91,13.91,0,0,0-2.37-4.19,5,5,0,0,0-2.39-1.58,7.91,7.91,0,0,0-2.11-.25,14.62,14.62,0,0,0-3.33,4.24A27.18,27.18,0,0,0,106.31,832Z"/><path d="M132.61,825.36a10.29,10.29,0,0,0-1.66-.29q-.58,2.22-2.68,10.92l6.62,1.33L133,841.14l-.49-.12a8.33,8.33,0,0,0-2.75-1.07,14.48,14.48,0,0,0-2.36-.46l-.62,2.57q-2,8.16-2.27,9.79a12.91,12.91,0,0,0,1.93.56,16.06,16.06,0,0,0,3.39.36,7.64,7.64,0,0,0,3.07-.45l.49.12-1.73,5-12.22-2.94.25-1.06a90.44,90.44,0,0,0,2.79-9.67l3-12.29a88.18,88.18,0,0,0,1.93-9.92l.25-1.07,11.91,2.71-1.79,4.09-.49-.12A11.8,11.8,0,0,0,132.61,825.36Z"/><path d="M141,858.45l-3.58-.38.12-1.09a99.12,99.12,0,0,0,1.63-11.24l1.09-10.09q.8-7.39.86-11.21l.12-1.1,4.18-.1L152,848.78l1.41-13.07q.27-2.54.41-5.61a39.27,39.27,0,0,0,0-4.34l.12-1.1,3.68.4-.12,1.09c-.19.82-.46,2.42-.81,4.81s-.62,4.54-.82,6.43l-1.27,11.82c-.21,1.92-.39,4-.52,6.33s-.21,3.7-.19,4.2l-3.49.28-7.12-27.66-1.62,15.11a74.25,74.25,0,0,0-.56,9.89Z"/><path d="M169,830a9.54,9.54,0,0,0-1.69,0q-.18,2.29-.67,11.22l6.75.12-1.14,4.09h-.5a8.26,8.26,0,0,0-2.9-.56,16.16,16.16,0,0,0-2.41,0l-.14,2.65q-.47,8.38-.48,10a13.43,13.43,0,0,0,2,.21,14.91,14.91,0,0,0,3.4-.26,7.66,7.66,0,0,0,2.94-1h.5l-.79,5.26L161.31,861l.06-1.1a86,86,0,0,0,1-10l.7-12.62a85.08,85.08,0,0,0,.11-10.1l.06-1.1,12.2.52-1,4.35h-.5A11.83,11.83,0,0,0,169,830Z"/><path d="M430.13,926.16q-3.61,5.88-4,10.07c-.26,2.79.37,4.67,1.9,5.62,1.16.72,3.43.7,6.81,0l-.59,2.8c-2,.71-3.33,1.15-4,1.32a10.74,10.74,0,0,1-2.77.24,5.86,5.86,0,0,1-3-.8c-2.17-1.33-3.16-3.84-3-7.53s1.68-7.84,4.52-12.47,6-7.86,9.55-9.68,6.59-1.94,9.19-.34a8.73,8.73,0,0,1,3.7,5.31,23.71,23.71,0,0,1-4.49,4.46,13.66,13.66,0,0,0-1-4.72,4.93,4.93,0,0,0-1.78-2.23,7.71,7.71,0,0,0-1.93-.9,14.87,14.87,0,0,0-4.48,3A27.56,27.56,0,0,0,430.13,926.16Z"/><path d="M457.53,919l3.47,1.6a6.92,6.92,0,0,1,3.85,4q.79,2.56-1.23,6.72a15.75,15.75,0,0,1-4.6,6,5.69,5.69,0,0,1-5,1.17l-.23,7.28a51.14,51.14,0,0,0,.09,6.55,6.44,6.44,0,0,0,.76,2.71l-.53,1.08-4.12-2c.08-.73.21-2.36.37-4.88l.56-11.91a1.36,1.36,0,0,1-.38-.24l-3.05,6.24a49.45,49.45,0,0,0-2.92,6.92l-.48,1-4.2-2,.48-1a36.4,36.4,0,0,0,3.55-6.06l7.88-16.12a53.09,53.09,0,0,0,3-7.24l.48-1A21.91,21.91,0,0,0,457.53,919Zm2.17,11.41q1.53-3.15,1.4-4.69a2.74,2.74,0,0,0-1.66-2.28q-1.53-.75-1.83-.84-.71,1.32-5.76,11.65a6.21,6.21,0,0,0,1.28.79,3.05,3.05,0,0,0,3.46-.28,12.22,12.22,0,0,0,3.11-4.31Z"/><path d="M472.71,936l-4.41,11.1a87.17,87.17,0,0,0-3.44,9.82l-.41,1-4.24-1.68.4-1a86.82,86.82,0,0,0,4.23-9.51l4.59-11.57a81.67,81.67,0,0,0,3.28-9.4l.41-1,4.24,1.69-.4,1a47,47,0,0,0-2.06,4.37C473.92,933,473.19,934.74,472.71,936Z"/><path d="M469.76,960.6q4.23-10.58,8.56-25c.76-2.55,1.35-4.62,1.75-6.2l.32-1.06,4.33.63c-.29,1.58-.65,4.07-1.07,7.45s-1.12,10.47-2.09,21.24Q486.89,947.43,490,941t3.95-8.47l4.56.43-.32,1.06c-.22.66-.63,2-1.24,4s-1.63,5.76-3.05,11.19-2.81,11.22-4.16,17.36l-.32,1-4.15-1.25.32-1q.93-2.8,2-6.34,2.67-8.91,4.58-16.89-8,15.54-11.48,22.8l-3.22-.34q.67-2.25,3-26.24-2.81,8.34-4.48,13.91t-2.74,9.38l-.32,1-3.44-1Z"/><path d="M511.13,941a13,13,0,0,0-1.6-.52q-.88,2.13-4.15,10.46l6.37,2.22-2.37,3.53-.46-.18a8.5,8.5,0,0,0-2.58-1.44,18.06,18.06,0,0,0-2.28-.79l-1,2.47c-2.05,5.21-3.24,8.34-3.6,9.38a13.81,13.81,0,0,0,1.84.83,15.6,15.6,0,0,0,3.3.81,7.41,7.41,0,0,0,3.11,0l.46.19-2.39,4.75-11.71-4.59.4-1a85.62,85.62,0,0,0,4.08-9.19l4.62-11.77a89,89,0,0,0,3.27-9.56l.4-1,11.42,4.32L516,943.61l-.46-.18A11.84,11.84,0,0,0,511.13,941Z"/><path d="M534,958.09a7.89,7.89,0,0,0,.45,2.35c.26.68.49,1.28.7,1.81l.4,1c.06.14.19.53.42,1.1s.36.93.41,1.09.16.55.32,1.15a6.19,6.19,0,0,1,.23,1.42v1.49a7.11,7.11,0,0,1-.22,1.78,21.06,21.06,0,0,1-1.67,4.26c-1.59,3-3.36,5-5.33,6a6.18,6.18,0,0,1-5.9-.11c-2-1-3.24-3-3.78-5.93a17.91,17.91,0,0,1,4.41-5.31,17.31,17.31,0,0,0,.49,5.17,4.23,4.23,0,0,0,1.76,2.84,3,3,0,0,0,2.54.09,11.12,11.12,0,0,0,2.25-3.22,7.17,7.17,0,0,0,1-3.11v-1.24a5.8,5.8,0,0,0-.3-1.31c-.18-.58-.58-1.65-1.22-3.21a20.9,20.9,0,0,1-1.18-3.53,11.9,11.9,0,0,1,1.56-7.67q2.2-4.18,4.93-5.35a5.78,5.78,0,0,1,5.19.13,9.52,9.52,0,0,1,4,4.94,31.82,31.82,0,0,1-4.3,5.31,17.47,17.47,0,0,0-.74-4.71,4.09,4.09,0,0,0-1.71-2.56,2.55,2.55,0,0,0-2-.23A7.86,7.86,0,0,0,535,955,6.14,6.14,0,0,0,534,958.09Z"/><path d="M544.12,973.86q-4.25,5.45-5.14,9.56t1.26,5.79q1.62,1.26,6.77.71l-.89,2.73c-2,.48-3.4.77-4.09.87a11.17,11.17,0,0,1-2.77-.07,5.92,5.92,0,0,1-2.93-1.14q-3-2.34-2.13-7.81t5.87-11.9q5-6.42,10.57-8.55c3.71-1.41,6.77-1.19,9.17.69a8.73,8.73,0,0,1,3.09,5.69,23.76,23.76,0,0,1-5,3.93,13.81,13.81,0,0,0-.42-4.79,5,5,0,0,0-1.53-2.43,7.68,7.68,0,0,0-1.82-1.1,14.93,14.93,0,0,0-4.78,2.48A27.28,27.28,0,0,0,544.12,973.86Z"/><path d="M571.5,979.15a11.16,11.16,0,0,0-1.37-1q-1.49,1.76-7.11,8.71l5.41,4-3.32,2.65-.39-.32a8.36,8.36,0,0,0-2-2.15,16.89,16.89,0,0,0-1.93-1.43l-1.66,2.06q-5.28,6.54-6.25,7.87a14.65,14.65,0,0,0,1.5,1.34,16.18,16.18,0,0,0,2.9,1.77,7.94,7.94,0,0,0,3,.92l.39.31-3.71,3.81-9.79-7.9.69-.86a85.06,85.06,0,0,0,6.66-7.54l7.94-9.83a85.29,85.29,0,0,0,6-8.14l.69-.85,9.59,7.55-3.37,2.93-.39-.32A11.82,11.82,0,0,0,571.5,979.15Z"/><path d="M565.12,1015l-2.85-2.2.67-.87a97.65,97.65,0,0,0,7.26-8.73l6.2-8q4.54-5.9,6.6-9.11l.67-.87,3.62,2.1-7.76,25.19,8-10.41c1-1.34,2.13-2.86,3.29-4.56a39.78,39.78,0,0,0,2.3-3.68l.68-.87,2.93,2.26-.67.87c-.6.6-1.66,1.82-3.21,3.68s-2.9,3.54-4.06,5.05l-7.26,9.41q-1.77,2.29-3.75,5.13c-1.33,1.88-2.11,3-2.36,3.48l-3.12-1.59L580.72,994l-9.28,12a73.79,73.79,0,0,0-5.65,8.14Z"/><path d="M604.81,1007.71a10.33,10.33,0,0,0-1.29-1.09q-1.72,1.74-8.33,8.62l5.06,4.48-3.73,2.56-.36-.35a7.66,7.66,0,0,0-1.82-2.33,15.15,15.15,0,0,0-1.81-1.59l-1.95,2q-6.2,6.46-7.36,7.79a12,12,0,0,0,1.38,1.47,14.79,14.79,0,0,0,2.77,2,7.58,7.58,0,0,0,2.93,1.11l.36.35-4.27,3.73-9.08-8.7.81-.85a96.92,96.92,0,0,0,7.74-7.43l9.33-9.73a99.46,99.46,0,0,0,7.13-8.08l.81-.85,8.92,8.34-3.81,2.84-.36-.35C607.6,1010.73,606.58,1009.4,604.81,1007.71Z"/><path d="M195.73,825.38l5.2-.56a8.45,8.45,0,0,1,8,3.39q2.83,3.81,3.49,12.11a39.57,39.57,0,0,1-.23,9.29,16.24,16.24,0,0,1-2.32,6.64,7.63,7.63,0,0,1-6.07,3.44h-.5l-4.82.33-2,.16-.09-1.09a77.78,77.78,0,0,0-.34-9.89l-1-12.84a77.89,77.89,0,0,0-1.23-9.86l-.09-1.1A13.13,13.13,0,0,0,195.73,825.38Zm3.33,15,.23,2.88q.84,10.69,1.06,12.34a25,25,0,0,0,3,0c2.18-.18,3.65-.76,4.42-1.76q1.47-3.62.78-12.42-.59-7.32-2.39-10.25a5.41,5.41,0,0,0-5.44-2.65l-2.53.25q.13,2.41.87,11.62Z"/><path d="M228,857.11q-4.19.36-7.12-4.46a28.6,28.6,0,0,1-3.59-12.5A28,28,0,0,1,219,826.86q2.34-5.6,6.68-6t7.13,4.4a28.77,28.77,0,0,1,3.41,12q.7,8.21-1.64,13.81T228,857.11ZM232.33,839a45.74,45.74,0,0,0-1.14-7.17,13.28,13.28,0,0,0-2.31-5,4.11,4.11,0,0,0-3.69-1.77,5.17,5.17,0,0,0-1.92.59,4.11,4.11,0,0,0-1.36,1.05,17,17,0,0,0-.89,4.84,42.14,42.14,0,0,0,.07,6.74,46.59,46.59,0,0,0,.85,6,24.66,24.66,0,0,0,1.42,4.54,8.16,8.16,0,0,0,2.21,3.17,4.15,4.15,0,0,0,5.85-.5l.15-.19Q233.09,847.88,232.33,839Z"/><path d="M628.11,1026.79l4.22,3.08a8.48,8.48,0,0,1,3.66,7.9q-.47,4.73-5.56,11.31a40.43,40.43,0,0,1-6.42,6.72,16.43,16.43,0,0,1-6.18,3.36,7.6,7.6,0,0,1-6.81-1.54l-.39-.31-3.79-3-1.62-1.25.67-.87a78,78,0,0,0,6.39-7.55l7.88-10.19a80.81,80.81,0,0,0,5.72-8.13l.67-.87A16.68,16.68,0,0,0,628.11,1026.79Zm-7.63,13.35-1.77,2.29q-6.56,8.49-7.5,9.84a20.89,20.89,0,0,0,2.21,2c1.73,1.34,3.22,1.89,4.45,1.67q3.52-1.68,8.93-8.68,4.49-5.8,5.13-9.19a5.42,5.42,0,0,0-2.25-5.61l-2-1.52Q626.14,1032.83,620.48,1040.14Z"/><path d="M630.66,1072q-3.35-2.55-2.28-8.08t5.75-11.68a28.12,28.12,0,0,1,10.17-8.71q5.49-2.58,9,.07t2.31,8a28.69,28.69,0,0,1-5.57,11.21q-5,6.56-10.5,9.12T630.66,1072ZM646,1061.49a44.49,44.49,0,0,0,4-6.07,13.22,13.22,0,0,0,1.65-5.26,4.06,4.06,0,0,0-1.55-3.78,4.75,4.75,0,0,0-1.82-.85,4,4,0,0,0-1.71-.14,17,17,0,0,0-3.91,3,43.34,43.34,0,0,0-4.48,5,49.53,49.53,0,0,0-3.41,5,25.63,25.63,0,0,0-2,4.32,8.19,8.19,0,0,0-.49,3.83,4.14,4.14,0,0,0,4.65,3.56l.26,0Q640.64,1068.57,646,1061.49Z"/><path d="M248,857.25l-3.18-1.69.52-1a99.06,99.06,0,0,0,5.68-9.83l4.75-9q3.48-6.59,5-10.1l.51-1,3.92,1.45-3.38,26.15L268,840.61c.79-1.5,1.62-3.18,2.47-5.05a41,41,0,0,0,1.65-4l.52-1,3.27,1.73-.52,1c-.48.69-1.33,2.08-2.53,4.17s-2.26,4-3.15,5.66l-5.57,10.51c-.9,1.71-1.84,3.6-2.83,5.69s-1.56,3.36-1.73,3.83l-3.34-1,3.65-28.32-7.11,13.43a74.33,74.33,0,0,0-4.2,9Z"/><path d="M271.84,871.58c-2.48-1.29-3.69-3.82-3.63-7.57a28.62,28.62,0,0,1,3.67-12.49,27.87,27.87,0,0,1,8.52-10.32q5-3.48,8.84-1.47t3.66,7.54a28.34,28.34,0,0,1-3.57,12q-3.79,7.32-8.78,10.78T271.84,871.58Zm13.35-12.94a44.79,44.79,0,0,0,2.89-6.67,13.17,13.17,0,0,0,.72-5.46,4.07,4.07,0,0,0-2.17-3.46,4.84,4.84,0,0,0-1.94-.53,4.13,4.13,0,0,0-1.71.16,16.85,16.85,0,0,0-3.34,3.61,41.79,41.79,0,0,0-3.56,5.73,46.35,46.35,0,0,0-2.49,5.52,25.91,25.91,0,0,0-1.23,4.59,8.18,8.18,0,0,0,.16,3.87,4.15,4.15,0,0,0,5.19,2.71l.25-.09Q281.1,866.54,285.19,858.64Z"/><path d="M299.12,852.33c.67-1.33,1.42-2.82,2.27-4.47,2.95,1.71,5.18,3,6.67,3.78s3.77,2,6.81,3.52q-1.44,2.4-2.5,4.34l-.44-.23a16,16,0,0,0-3.8-3.68c-.84,1.4-2,3.55-3.6,6.42l-6.12,11.32A75.33,75.33,0,0,0,294.2,882l-.52,1-4-2.15.52-1a85.73,85.73,0,0,0,4.83-8.16l6.1-11.27c1.61-3,2.78-5.2,3.51-6.7a17.24,17.24,0,0,0-5.11-1.15Z"/><path d="M659,1088.54l-3.18-1.68.51-1A97.78,97.78,0,0,0,662,1076l4.75-9q3.5-6.58,5-10.1l.52-1,3.92,1.46-3.39,26.14L679,1072q1.18-2.25,2.47-5a41,41,0,0,0,1.65-4l.51-1,3.27,1.73-.51,1q-.72,1-2.54,4.17c-1.2,2.09-2.25,4-3.14,5.65l-5.6,10.45c-.9,1.7-1.85,3.6-2.83,5.68s-1.56,3.36-1.73,3.83l-3.35-1,3.65-28.33-7.11,13.43a76.56,76.56,0,0,0-4.19,9Z"/><path d="M683.48,1104.35q-3.72-1.93-3.62-7.57t3.66-12.49a27.89,27.89,0,0,1,8.53-10.32q5-3.48,8.83-1.47c2.58,1.34,3.8,3.86,3.66,7.54a28.34,28.34,0,0,1-3.57,12q-3.79,7.32-8.78,10.78T683.48,1104.35Zm13.35-12.94a44.79,44.79,0,0,0,2.89-6.67,13.29,13.29,0,0,0,.72-5.45,4.09,4.09,0,0,0-2.17-3.47,4.84,4.84,0,0,0-1.94-.53,4.13,4.13,0,0,0-1.71.16,16.85,16.85,0,0,0-3.34,3.61,42.72,42.72,0,0,0-3.55,5.73,46.41,46.41,0,0,0-2.5,5.52,25.91,25.91,0,0,0-1.23,4.59,8.05,8.05,0,0,0,.17,3.87,4.12,4.12,0,0,0,5.15,2.72l.29-.1q3.12-2.09,7.22-10Z"/><path d="M318.26,877.92Q315,884,314.8,888.2c-.13,2.81.6,4.64,2.21,5.5,1.2.67,3.46.52,6.79-.43l-.43,2.84c-1.93.82-3.22,1.33-3.88,1.54a10.68,10.68,0,0,1-2.75.39,5.75,5.75,0,0,1-3.07-.63c-2.24-1.2-3.37-3.65-3.41-7.34s1.23-7.93,3.8-12.71,5.58-8.18,9-10.2,6.47-2.3,9.16-.86a8.82,8.82,0,0,1,4,5.1,24.34,24.34,0,0,1-4.24,4.71,14,14,0,0,0-1.21-4.66,5,5,0,0,0-1.91-2.14,8.39,8.39,0,0,0-2-.78,14.71,14.71,0,0,0-4.3,3.25A27.57,27.57,0,0,0,318.26,877.92Z"/><path d="M342.53,874.87l3.36,1.68a6.86,6.86,0,0,1,3.71,4.18c.48,1.73,0,4-1.45,6.67a15.79,15.79,0,0,1-4.81,5.85,5.65,5.65,0,0,1-5,1l-.47,7.28a49.4,49.4,0,0,0-.14,6.55,6.62,6.62,0,0,0,.67,2.73l-.56,1.06-4.06-2.16q.17-1.1.54-4.86l1-11.89a1.34,1.34,0,0,1-.37-.25l-3.26,6.13a51.37,51.37,0,0,0-3.15,6.82l-.52,1-4.12-2.19.51-1a35.59,35.59,0,0,0,3.75-5.94l8.43-15.84a53.48,53.48,0,0,0,3.29-7.13l.52-1A19.3,19.3,0,0,0,342.53,874.87Zm1.78,11.48a10.37,10.37,0,0,0,1.56-4.64,2.73,2.73,0,0,0-1.58-2.34q-1.5-.79-1.8-.9-.75,1.31-6.15,11.45a6.22,6.22,0,0,0,1.25.84,3.1,3.1,0,0,0,3.47-.17A12.37,12.37,0,0,0,344.31,886.35Z"/><path d="M349.23,921c-2.62-1-4.12-3.35-4.5-7.08s.34-8,2.15-12.84a28,28,0,0,1,7.25-11.26q4.51-4,8.6-2.5t4.53,7a28.65,28.65,0,0,1-2.12,12.34q-2.91,7.73-7.44,11.75T349.23,921ZM361,906.56a44.69,44.69,0,0,0,2.08-7,13.41,13.41,0,0,0,.06-5.5,4.1,4.1,0,0,0-2.56-3.18,4.87,4.87,0,0,0-2-.3,4.06,4.06,0,0,0-1.68.36,16.52,16.52,0,0,0-2.89,4,42.94,42.94,0,0,0-2.85,6.11,46.53,46.53,0,0,0-1.82,5.77,24.88,24.88,0,0,0-.68,4.71,8.21,8.21,0,0,0,.62,3.82,4.14,4.14,0,0,0,5.47,2.12l.25-.12Q357.81,914.89,361,906.56Z"/><path d="M377.86,904.23a7.88,7.88,0,0,0,.49,2.35c.26.67.5,1.27.72,1.79s.36.86.41,1,.21.52.44,1.09.38.93.44,1.09.16.54.33,1.15a6.13,6.13,0,0,1,.25,1.41v1.49a7.09,7.09,0,0,1-.19,1.78,20.43,20.43,0,0,1-1.6,4.28c-1.55,3.07-3.29,5.1-5.24,6.09a6.2,6.2,0,0,1-5.91,0q-3-1.51-3.87-5.88a17.74,17.74,0,0,1,4.33-5.37,17.59,17.59,0,0,0,.57,5.16,4.27,4.27,0,0,0,1.8,2.81,3.07,3.07,0,0,0,2.55.06,11.09,11.09,0,0,0,2.2-3.26,7.14,7.14,0,0,0,.91-3.12c0-.5-.05-.91-.07-1.24a5.34,5.34,0,0,0-.32-1.31c-.18-.58-.6-1.64-1.26-3.19a19.78,19.78,0,0,1-1.24-3.51,11.86,11.86,0,0,1,1.44-7.69c1.42-2.81,3-4.62,4.84-5.43a5.8,5.8,0,0,1,5.2.06,9.43,9.43,0,0,1,4.1,4.87,32.56,32.56,0,0,1-4.21,5.37,17.81,17.81,0,0,0-.81-4.69,4.16,4.16,0,0,0-1.75-2.54,2.53,2.53,0,0,0-2.05-.19,7.56,7.56,0,0,0-1.7,2.44A6,6,0,0,0,377.86,904.23Z"/><path d="M396.25,910.11a7.81,7.81,0,0,0,.83,2.25c.36.63.68,1.18,1,1.67a5.81,5.81,0,0,1,.55,1c.08.2.28.48.59,1l.59,1c.08.14.24.52.49,1.09a5.53,5.53,0,0,1,.46,1.37c.06.33.13.82.23,1.47a7.15,7.15,0,0,1,.07,1.79,20.8,20.8,0,0,1-1,4.47c-1.09,3.25-2.52,5.52-4.3,6.78a6.18,6.18,0,0,1-5.84.84q-3.18-1-4.69-5.25a17.69,17.69,0,0,1,3.51-5.94,17.66,17.66,0,0,0,1.31,5,4.3,4.3,0,0,0,2.19,2.52,3,3,0,0,0,2.53-.31,11.16,11.16,0,0,0,1.71-3.54,7.25,7.25,0,0,0,.44-3.23c-.1-.48-.18-.89-.25-1.21a5.47,5.47,0,0,0-.51-1.25q-.39-.81-1.71-3a21,21,0,0,1-1.73-3.29,12,12,0,0,1,.31-7.83c1-3,2.33-5,4-6.06a5.79,5.79,0,0,1,5.15-.71A9.51,9.51,0,0,1,407,905a32.16,32.16,0,0,1-3.39,5.92,18,18,0,0,0-1.48-4.52,4.22,4.22,0,0,0-2.1-2.26,2.51,2.51,0,0,0-2.06.11,7.83,7.83,0,0,0-1.33,2.66A6.24,6.24,0,0,0,396.25,910.11Z"/></g><path class="cls-57" d="M1836.3,255.05c-1.18-6.51-4.17-14-8.93-18.05-9.16-8.85-26.27-8.41-34.64,1.56-17.78-18.59-45.84-2.39-43.49,22.15,4.5,21.79,24,37.32,43.41,46.68,10.76-6,22.56-11.53,30.43-21.79C1829.51,277,1837.94,265.87,1836.3,255.05Z"/><path class="cls-58" d="M1840.41,253.36c-1.18-6.52-4.16-14-8.93-18.05-9.16-8.86-26.27-8.42-34.64,1.56-17.78-18.6-45.84-2.4-43.49,22.14,4.5,21.79,24,37.33,43.41,46.68,10.76-6,22.56-11.53,30.43-21.79C1833.63,275.31,1842.05,264.17,1840.41,253.36Z"/><path class="cls-48" d="M1764.92,245.24c-1.32-1.63.53-5.31,4.13-8.23s7.59-4,8.91-2.33-4.67,1.61-8.27,4.53S1766.24,246.88,1764.92,245.24Z"/><path class="cls-57" d="M1836.3,342.89c-1.18-6.52-4.17-14-8.93-18.05-9.16-8.86-26.27-8.42-34.64,1.56-17.78-18.6-45.84-2.4-43.49,22.14,4.5,21.79,24,37.33,43.41,46.68,10.76-6,22.56-11.53,30.43-21.79C1829.51,364.84,1837.94,353.7,1836.3,342.89Z"/><path class="cls-58" d="M1840.41,341.19c-1.18-6.51-4.16-14-8.93-18.05-9.16-8.85-26.27-8.41-34.64,1.56-17.78-18.59-45.84-2.39-43.49,22.14,4.5,21.8,24,37.33,43.41,46.69,10.76-6,22.56-11.53,30.43-21.79C1833.63,363.14,1842.05,352,1840.41,341.19Z"/><path class="cls-48" d="M1764.92,333.08c-1.32-1.63.53-5.32,4.13-8.24s7.59-3.95,8.91-2.32-4.67,1.61-8.27,4.52S1766.24,334.71,1764.92,333.08Z"/><path class="cls-57" d="M1836.3,436.61c-1.18-6.51-4.17-14-8.93-18.05-9.16-8.86-26.27-8.42-34.64,1.56-17.78-18.59-45.84-2.4-43.49,22.14,4.5,21.8,24,37.33,43.41,46.68,10.76-6,22.56-11.53,30.43-21.79C1829.51,458.56,1837.94,447.42,1836.3,436.61Z"/><path class="cls-58" d="M1840.41,434.91c-1.18-6.51-4.16-14-8.93-18-9.16-8.86-26.27-8.42-34.64,1.55-17.78-18.59-45.84-2.39-43.49,22.15,4.5,21.79,24,37.32,43.41,46.68,10.76-6,22.56-11.53,30.43-21.79C1833.63,456.86,1842.05,445.73,1840.41,434.91Z"/><path class="cls-48" d="M1764.92,426.8c-1.32-1.63.53-5.32,4.13-8.23s7.59-4,8.91-2.33-4.67,1.61-8.27,4.53S1766.24,428.43,1764.92,426.8Z"/><rect class="cls-57" x="1746.59" y="989.02" width="54.46" height="50.97" rx="9"/><polygon class="cls-57" points="1801.92 1058.73 1772.95 1040 1773.82 989.02 1802.79 970.29 1801.92 1058.73"/><path class="cls-57" d="M1814,980.72v8.54c15.35,0,27.8,11.31,27.8,25.25s-12.45,25.25-27.8,25.25v8.54c20.55,0,37.2-15.13,37.2-33.79S1834.5,980.72,1814,980.72Z"/><path class="cls-57" d="M1814,996.1v5.73a13.83,13.83,0,1,1,0,27.65v5.72a19.55,19.55,0,1,0,0-39.1Z"/><rect class="cls-59" x="1747.59" y="984.45" width="54.46" height="50.97" rx="9"/><polygon class="cls-59" points="1802.92 1054.15 1773.95 1035.42 1774.82 984.45 1803.79 965.71 1802.92 1054.15"/><path class="cls-1" d="M1815,976.14v8.55c15.35,0,27.79,11.3,27.79,25.24s-12.44,25.25-27.79,25.25v8.55c20.54,0,37.19-15.13,37.19-33.8S1835.5,976.14,1815,976.14Z"/><path class="cls-1" d="M1815,991.53v5.72a13.83,13.83,0,0,1,0,27.65v5.73a19.55,19.55,0,0,0,0-39.1Z"/><rect class="cls-48" x="1791.22" y="972.24" width="1.27" height="18.44" rx="0.64" transform="translate(1594.33 -1052.01) rotate(55.74)"/><circle class="cls-57" cx="1796.21" cy="880.06" r="45.86"/><circle class="cls-59" cx="1799.37" cy="877.88" r="44.1"/><path d="M1782.61,874.06c3.65-7.52,9-13.77,19.43-12.7a24.82,24.82,0,0,1,11.1,4.37,22.54,22.54,0,0,1,3.06,2.59,20.18,20.18,0,0,1,1.26,2c1.89,3.66,2,4.64,2.32,6.23a21.14,21.14,0,0,1,.35,6.44,28.14,28.14,0,0,1-.73,5.56c-1.73,6.84-7,11.86-13.29,14.28a27.63,27.63,0,0,1-5.5,1.34,21.79,21.79,0,0,1-18.12-7.64,22.55,22.55,0,0,0,17.07,8,26.24,26.24,0,0,0,4.76-.35,32.65,32.65,0,0,0,16.9-11.29,16.71,16.71,0,0,0,2.32-4.36,27.33,27.33,0,0,0,1.62-9c.84-25.48-38.57-34.18-49.1-10.14"/><path d="M1780.17,869.59l8.6,4.12c.77.37.91,1.3.26,1.67l-7.33,4.27-7.33,4.27a1.21,1.21,0,0,1-1.72-.83l-1.27-8.38-1.27-8.39c-.12-.74.69-1.21,1.46-.85Z"/><path class="cls-1" d="M1783.66,871.25c3.71-7.66,9.15-14,19.77-12.92a25.33,25.33,0,0,1,11.3,4.44,22.06,22.06,0,0,1,3.11,2.64,20.57,20.57,0,0,1,1.29,2c1.92,3.72,2.07,4.71,2.36,6.33a21.51,21.51,0,0,1,.36,6.56,30,30,0,0,1-.74,5.67c-1.77,6.95-7.11,12.07-13.54,14.53a28.29,28.29,0,0,1-5.6,1.36,22.15,22.15,0,0,1-18.43-7.78,23,23,0,0,0,17.37,8.15,26.41,26.41,0,0,0,4.85-.36,33.31,33.31,0,0,0,17.2-11.49,17.31,17.31,0,0,0,2.36-4.44,27.78,27.78,0,0,0,1.65-9.17c.86-25.93-39.26-34.79-50-10.33"/><path class="cls-1" d="M1781.17,866.7l8.76,4.2a1,1,0,0,1,.26,1.7l-7.46,4.34-7.47,4.34a1.22,1.22,0,0,1-1.74-.83l-1.3-8.54-1.29-8.53c-.12-.76.71-1.24,1.48-.87Z"/><path class="cls-48" d="M1821.63,864.21c-1.28-4-7.36-8.42-11.83-8.31-.55,0-1.2-.76-.52-.85,2.21-.11,5.41,1.27,8.15,3a12.88,12.88,0,0,1,5.23,6.37C1822.48,864.66,1822.07,864.66,1821.63,864.21Z"/><circle class="cls-57" cx="1793.31" cy="753.59" r="48.15"/><circle class="cls-59" cx="1796.63" cy="751.3" r="46.31"/><rect class="cls-57" x="1776.21" y="739.27" width="13.61" height="32.96" rx="2.09"/><rect class="cls-57" x="1801.43" y="743.86" width="14.18" height="28.58" rx="1.87"/><rect class="cls-57" x="1776.21" y="739.27" width="39.39" height="18.05"/><polygon class="cls-57" points="1795.91 739.27 1773.6 739.27 1784.75 732.62 1795.91 725.98 1807.07 732.62 1818.22 739.27 1795.91 739.27"/><path class="cls-1" d="M1808.5,732.05l-11.16-6.65-11.16,6.65L1775,738.7h2.61v30.87a2.1,2.1,0,0,0,2.09,2.09h9.44a2.1,2.1,0,0,0,2.09-2.09V756.74h11.6V770a1.87,1.87,0,0,0,1.87,1.87h10.43A1.87,1.87,0,0,0,1817,770V738.7h2.62Z"/><rect class="cls-48" x="1797.71" y="732.58" width="15.81" height="1.92" rx="0.64" transform="translate(608.68 -804.53) rotate(30)"/><path class="cls-57" d="M1728.07,160.4q-7.27-9.09-7.28-24t8-23.68q7.95-8.72,20.74-8.72t19.25,8.85q6.46,8.86,6.46,23.19t-7.32,23.9q-7.32,9.58-19,9.58Q1735.35,169.48,1728.07,160.4Zm32.85-9.67a61.58,61.58,0,0,0,1.27-12.29,72.76,72.76,0,0,0-.68-10.62,33.35,33.35,0,0,0-2.31-8.32q-3.33-7.86-12.1-7.86a17.92,17.92,0,0,0-5,.72,9.24,9.24,0,0,0-3.57,1.72c-1.33,1.75-2.44,4.56-3.34,8.45a47.41,47.41,0,0,0-1.36,10.75,76.05,76.05,0,0,0,.45,8.77,44.33,44.33,0,0,0,1.58,7.59,22.64,22.64,0,0,0,2.94,6.37,13.07,13.07,0,0,0,11.39,5.88,13.43,13.43,0,0,0,3.84-.72,7.3,7.3,0,0,0,3.39-2C1758.9,157.67,1760.08,154.85,1760.92,150.73Z"/><path class="cls-57" d="M1807.37,104.23l10.85-2.08v2q-3.71,7-11.79,26.93t-11,27.7q-2.94,7.72-6.19,17.49l-11.84,3.07v-2q2.89-5.24,11-24.4t11.16-27.2Z"/><path class="cls-57" d="M1852.74,149.24q0-10.76-15.36-11.75l-12-.82-2.26-2.44q1.53-11.47,5-28.83l32-.45,2.26,13.2h-1.72a20.86,20.86,0,0,0-8.27-4,42.66,42.66,0,0,0-11.52-1.5h-4.7a113.09,113.09,0,0,0-3.62,17q10.13.45,14,.94a41.88,41.88,0,0,1,7.55,1.72,17.86,17.86,0,0,1,6,3.12q5.33,4.34,5.33,13.06a19.16,19.16,0,0,1-6.91,14.86q-6.92,6.15-18.21,6.15t-23.59-6.06a17.26,17.26,0,0,1,2.08-4.92A17.56,17.56,0,0,1,1822,154q11.58,8.31,20.43,8.31a17.45,17.45,0,0,0,6.87-1.17,13.55,13.55,0,0,0,2.53-5.38A26.25,26.25,0,0,0,1852.74,149.24Z"/><path class="cls-1" d="M1732.82,156.87q-7.27-9.08-7.28-24t8-23.67q8-8.73,20.74-8.73t19.26,8.86q6.45,8.86,6.46,23.18t-7.32,23.91q-7.32,9.57-19,9.58Q1740.09,166,1732.82,156.87Zm32.85-9.67a61.41,61.41,0,0,0,1.26-12.29,73.07,73.07,0,0,0-.67-10.62A33.83,33.83,0,0,0,1764,116q-3.35-7.86-12.11-7.86a17.85,17.85,0,0,0-5,.72,9.09,9.09,0,0,0-3.58,1.72q-2,2.61-3.34,8.45a47.91,47.91,0,0,0-1.36,10.75,75.88,75.88,0,0,0,.46,8.77,43.4,43.4,0,0,0,1.58,7.59,22.49,22.49,0,0,0,2.94,6.37,13,13,0,0,0,11.39,5.87,13.31,13.31,0,0,0,3.83-.72,7.09,7.09,0,0,0,3.39-2C1763.65,154.15,1764.82,151.33,1765.67,147.2Z"/><path class="cls-1" d="M1812.12,100.71,1823,98.63v2q-3.7,6.94-11.79,26.93t-11,27.7q-2.92,7.73-6.19,17.48l-11.83,3.08v-2q2.88-5.25,11-24.4t11.17-27.21Z"/><path class="cls-1" d="M1857.48,145.71q0-10.76-15.36-11.75l-12-.81-2.26-2.44q1.54-11.48,5-28.83l32-.45,2.26,13.19h-1.72a21.2,21.2,0,0,0-8.27-4,43.19,43.19,0,0,0-11.53-1.49h-4.7a113.41,113.41,0,0,0-3.61,17q10.13.45,14,1a40.07,40.07,0,0,1,7.55,1.72,18,18,0,0,1,6,3.11q5.33,4.35,5.33,13.06a19.19,19.19,0,0,1-6.92,14.87q-6.92,6.15-18.21,6.15t-23.58-6.06a17,17,0,0,1,2.07-4.92,17.83,17.83,0,0,1,3.35-4.48q11.57,8.33,20.42,8.32a17.26,17.26,0,0,0,6.87-1.18,13.35,13.35,0,0,0,2.53-5.38A26.13,26.13,0,0,0,1857.48,145.71Z"/><path class="cls-57" d="M1724.36,34.35l8.71-.11q7.35,0,11.19,2.3c2.56,1.53,3.83,4.18,3.83,8a10.31,10.31,0,0,1-4.48,8.87,21,21,0,0,1-15.08,2.84V63a18.17,18.17,0,0,0,1,6.57v1.15h-9.5V69.6a22.06,22.06,0,0,0,1.05-7.3V43.58a29.85,29.85,0,0,0-.89-8.19V34.24C1722.6,34.31,1724,34.35,1724.36,34.35ZM1740.27,45q0-4-1.72-5.69c-1.15-1.14-3-1.72-5.5-1.72s-4,0-4.41,0c-.07,1-.11,3.93-.11,8.66V53a13.61,13.61,0,0,0,3.65.47,7.8,7.8,0,0,0,6-2.24A8.87,8.87,0,0,0,1740.27,45Z"/><path class="cls-57" d="M1763.82,71.74q-6.08,0-9.55-3.54a12.8,12.8,0,0,1-3.46-9.34,13.92,13.92,0,0,1,14.26-14.08q6.24,0,9.55,3.47t3.31,9.31a13.92,13.92,0,0,1-4,10A13.43,13.43,0,0,1,1763.82,71.74Zm6.6-12.88A17.58,17.58,0,0,0,1769,51a5.25,5.25,0,0,0-5.11-2.84,5.38,5.38,0,0,0-3.66,1.14,10.23,10.23,0,0,0-1.35,3.6,21.71,21.71,0,0,0-.52,4.64q0,10.91,6.93,10.91a5.1,5.1,0,0,0,3.39-1.1,8.89,8.89,0,0,0,1.33-3.68A26.66,26.66,0,0,0,1770.42,58.86Z"/><path class="cls-57" d="M1792.53,50.25V61.42a19.27,19.27,0,0,0,1.52,8.18v1.15h-9.13V69.6a22.89,22.89,0,0,0,.88-7V54.84a11.32,11.32,0,0,0-.88-4.77,5.38,5.38,0,0,0-2.25-2.63V46.29l9.55-1.77.63,1A22.18,22.18,0,0,0,1792.53,50.25Zm-1-16.89a2.86,2.86,0,0,1,.65,1.77,15.57,15.57,0,0,1,.19,2.08,7.29,7.29,0,0,1-.11,1.31l-.47.42a29.55,29.55,0,0,1-6,.94l-.57-.27a6.35,6.35,0,0,1-.65-2.24,16.93,16.93,0,0,1-.24-2.16V34.4l.47-.42a17.76,17.76,0,0,1,5.58-.94h.58Z"/><path class="cls-57" d="M1817.52,44.73a7.64,7.64,0,0,1,6,2.42c1.42,1.62,2.14,4,2.14,7v6.62a22.36,22.36,0,0,0,1.56,8.81v1.15h-9.18V69.6a21.66,21.66,0,0,0,.89-7V56a10.44,10.44,0,0,0-.73-4.46c-.49-.95-1.53-1.43-3.13-1.43s-3.64.73-6.11,2.19v8.55a20.75,20.75,0,0,0,1.52,8.71v1.15h-9.13V69.6a24.35,24.35,0,0,0,.89-7.4v-7c0-4.14-1-6.73-3.13-7.77V46.29l8.45-1.62.57,1a14,14,0,0,1,.57,3.34,34.72,34.72,0,0,1,4.62-3.21A8.54,8.54,0,0,1,1817.52,44.73Z"/><path class="cls-57" d="M1843,64.7c0,1.25.33,1.88,1,1.88a17.32,17.32,0,0,0,5.27-1.62l1.56,2.35a39.7,39.7,0,0,1-5,2.69,12.41,12.41,0,0,1-5,1.33q-4.59,0-4.59-5.27V49.47c-.52,0-2.24.12-5.16.37l1.87-4.7a31,31,0,0,0,3.34.26c-.07-1.6-.17-3.07-.31-4.43l7-1.77v6.15q2.08,0,8.19-.68l-2,5.38a42.07,42.07,0,0,0-6.15-.58Z"/><path class="cls-57" d="M1866.6,67.36c2,0,3-1,3-2.87q0-2.65-5.06-4c-1.39-.39-2.78-.82-4.17-1.31a8.46,8.46,0,0,1-3.55-2.34,6,6,0,0,1-1.46-4.12,6.29,6.29,0,0,1,3.23-5.61,14.65,14.65,0,0,1,7.88-2,24,24,0,0,1,9.7,2.24c-.17,1.53-1.11,3.38-2.82,5.53a16.32,16.32,0,0,0-4.32-3.18,9.19,9.19,0,0,0-3.92-1.09,7,7,0,0,0-2.55.36,2.8,2.8,0,0,0-.78,2.22,2.6,2.6,0,0,0,1.48,2.37,13.57,13.57,0,0,0,3.63,1.33,42.84,42.84,0,0,1,4.27,1.23,8.09,8.09,0,0,1,3.63,2.47,6.83,6.83,0,0,1,1.49,4.57,6.86,6.86,0,0,1-3.16,6.13,15.14,15.14,0,0,1-8.37,2.06,18.4,18.4,0,0,1-10-3,10.18,10.18,0,0,1,2.34-5.79Q1862.28,67.36,1866.6,67.36Z"/><path class="cls-1" d="M1727.36,32.16l8.71-.11c4.91,0,8.63.77,11.19,2.3s3.83,4.18,3.83,7.95a10.31,10.31,0,0,1-4.48,8.87A21.16,21.16,0,0,1,1731.53,54v6.83a18.17,18.17,0,0,0,1,6.57v1.15h-9.49V67.41a22.34,22.34,0,0,0,1-7.3V41.39a29.85,29.85,0,0,0-.89-8.19V32.05C1725.61,32.12,1727,32.16,1727.36,32.16Zm15.91,10.69q0-4-1.72-5.69c-1.15-1.14-3-1.72-5.5-1.72s-4,0-4.41.05c-.07,1-.11,3.93-.11,8.66v6.68a13.63,13.63,0,0,0,3.66.47,7.75,7.75,0,0,0,6-2.25A8.82,8.82,0,0,0,1743.27,42.85Z"/><path class="cls-1" d="M1766.82,69.55q-6.08,0-9.55-3.54a12.8,12.8,0,0,1-3.46-9.34,13.92,13.92,0,0,1,14.26-14.08q6.24,0,9.55,3.47t3.31,9.31a13.92,13.92,0,0,1-4,10A13.43,13.43,0,0,1,1766.82,69.55Zm6.6-12.88a17.58,17.58,0,0,0-1.46-7.9,5.25,5.25,0,0,0-5.11-2.84,5.38,5.38,0,0,0-3.66,1.14,10.43,10.43,0,0,0-1.35,3.6,21.71,21.71,0,0,0-.52,4.64q0,10.91,6.93,10.91a5.1,5.1,0,0,0,3.39-1.1,8.75,8.75,0,0,0,1.33-3.68A26.66,26.66,0,0,0,1773.42,56.67Z"/><path class="cls-1" d="M1795.53,48.06V59.23a19.27,19.27,0,0,0,1.52,8.18v1.15h-9.13V67.41a22.89,22.89,0,0,0,.88-7V52.65a11.32,11.32,0,0,0-.88-4.77,5.38,5.38,0,0,0-2.25-2.63V44.1l9.55-1.77.63,1A22.18,22.18,0,0,0,1795.53,48.06Zm-1-16.9a2.92,2.92,0,0,1,.65,1.78,15.57,15.57,0,0,1,.19,2.08,7.29,7.29,0,0,1-.11,1.31l-.47.42a28.94,28.94,0,0,1-6,.93l-.57-.26a6.35,6.35,0,0,1-.65-2.24,16.93,16.93,0,0,1-.24-2.16v-.81l.47-.42a17.48,17.48,0,0,1,5.58-.94h.58Z"/><path class="cls-1" d="M1820.52,42.54a7.64,7.64,0,0,1,6,2.42c1.42,1.62,2.14,4,2.14,7V58.6a22.36,22.36,0,0,0,1.56,8.81v1.15h-9.18V67.41a21.66,21.66,0,0,0,.89-7V53.85a10.44,10.44,0,0,0-.73-4.46c-.49-1-1.53-1.43-3.13-1.43s-3.64.73-6.11,2.19V58.7a20.75,20.75,0,0,0,1.52,8.71v1.15h-9.13V67.41a24.35,24.35,0,0,0,.89-7.4V53c0-4.14-1-6.73-3.13-7.77V44.1l8.45-1.62.57,1a14,14,0,0,1,.57,3.34,34.72,34.72,0,0,1,4.62-3.21A8.54,8.54,0,0,1,1820.52,42.54Z"/><path class="cls-1" d="M1846,62.51c0,1.25.33,1.88,1,1.88a17.32,17.32,0,0,0,5.27-1.62l1.56,2.35a39.7,39.7,0,0,1-5,2.69,12.33,12.33,0,0,1-5,1.33q-4.59,0-4.59-5.27V47.28c-.52,0-2.24.12-5.16.37L1836,43a31,31,0,0,0,3.34.26c-.07-1.6-.17-3.07-.31-4.43l7-1.77v6.15q2.08,0,8.19-.68l-2,5.38a42.07,42.07,0,0,0-6.15-.58Z"/><path class="cls-1" d="M1869.6,65.17c2,0,3-1,3-2.87q0-2.65-5.06-4c-1.39-.39-2.78-.82-4.17-1.31a8.46,8.46,0,0,1-3.55-2.34,6,6,0,0,1-1.46-4.12,6.29,6.29,0,0,1,3.23-5.61,14.67,14.67,0,0,1,7.88-2,24,24,0,0,1,9.7,2.24c-.17,1.53-1.11,3.38-2.82,5.53a16.32,16.32,0,0,0-4.32-3.18,9.22,9.22,0,0,0-3.92-1.1,7,7,0,0,0-2.55.37,2.8,2.8,0,0,0-.78,2.22,2.6,2.6,0,0,0,1.48,2.37,13.57,13.57,0,0,0,3.63,1.33,42.84,42.84,0,0,1,4.27,1.23,8.09,8.09,0,0,1,3.63,2.47,6.83,6.83,0,0,1,1.49,4.57,6.86,6.86,0,0,1-3.16,6.13,15.12,15.12,0,0,1-8.37,2.06,18.4,18.4,0,0,1-10-3,10.24,10.24,0,0,1,2.34-5.79Q1865.28,65.17,1869.6,65.17Z"/><path class="cls-57" d="M1722,535.5q0-2.87-.31-6.5,12.42.19,18.59.19t18.61-.19c-.22,2.42-.32,4.59-.32,6.5h-1.21a67.41,67.41,0,0,0-12.36-1.85c-.17,2.12-.26,5.31-.26,9.55v16.69q0,8.67,1,12.49v1.4h-11v-1.4a60.43,60.43,0,0,0,.89-12.3V543.46c0-4.37-.09-7.65-.26-9.81a71.88,71.88,0,0,0-12.23,1.85Z"/><path class="cls-57" d="M1772,548.75v13.63a23.66,23.66,0,0,0,1.84,10v1.4h-11.14v-1.4a28,28,0,0,0,1.08-8.6v-9.43a13.86,13.86,0,0,0-1.08-5.83,6.69,6.69,0,0,0-2.74-3.21V543.9l11.65-2.16.77,1.27A27.21,27.21,0,0,0,1772,548.75Zm-1.21-20.64a3.63,3.63,0,0,1,.79,2.16,20.79,20.79,0,0,1,.23,2.55,9.29,9.29,0,0,1-.13,1.59l-.57.51a34.81,34.81,0,0,1-7.33,1.15l-.7-.32a7.63,7.63,0,0,1-.8-2.74,20.93,20.93,0,0,1-.28-2.64v-1l.57-.51a21.52,21.52,0,0,1,6.81-1.14h.71Z"/><path class="cls-57" d="M1802.22,542q6.06,0,8,5.35c1.4-1.14,2.53-2,3.41-2.67a17.28,17.28,0,0,1,3.28-1.82,9.45,9.45,0,0,1,3.75-.86,9.31,9.31,0,0,1,7.39,3c1.75,2,2.62,4.83,2.62,8.56v8.73a25.38,25.38,0,0,0,1.91,10.13v1.4H1821.4v-1.4a24.82,24.82,0,0,0,1.08-8.16v-8.4a12.72,12.72,0,0,0-.89-5.42c-.6-1.19-1.84-1.78-3.73-1.78a14.35,14.35,0,0,0-6.78,2.23q.12,1.65.12,2.67v8.73a25.56,25.56,0,0,0,1.91,10.13v1.4h-10.57v-1.4a24.82,24.82,0,0,0,1.08-8.16v-8.4a13.37,13.37,0,0,0-.83-5.42c-.55-1.19-1.7-1.78-3.47-1.78s-4.1.89-7,2.67v11.09a23.66,23.66,0,0,0,1.84,10v1.4H1783v-1.4a28,28,0,0,0,1.08-8.6v-9.43q0-7.12-3.82-9V543.9l10.32-2,.63,1.21a15.71,15.71,0,0,1,.77,4.08,30.83,30.83,0,0,1,5.25-4A10,10,0,0,1,1802.22,542Z"/><path class="cls-57" d="M1853.24,575a14.11,14.11,0,0,1-9.93-4.14q-4.39-4.14-4.4-11.18a18.22,18.22,0,0,1,4.65-12.36,15.26,15.26,0,0,1,12-5.32q6.24,0,9.3,4t3.06,11.08l-2.42,2.48h-17.46c.05,3.06.86,5.42,2.46,7.07a7.65,7.65,0,0,0,5.73,2.49q3.35,0,10.1-3.5l1.59,2.42c-.81.76-1.72,1.55-2.74,2.35a27.53,27.53,0,0,1-5.13,2.9A16.08,16.08,0,0,1,1853.24,575Zm.9-28.92a6.52,6.52,0,0,0-3.76,1,12.89,12.89,0,0,0-1.59,4.2,24.84,24.84,0,0,0-.64,4.65l11.15-.64Q1859.3,546.08,1854.14,546.07Z"/><path class="cls-1" d="M1726.46,533q0-2.87-.31-6.49,12.42.18,18.59.19t18.6-.19q-.31,3.63-.31,6.49h-1.21a67.29,67.29,0,0,0-12.36-1.84c-.17,2.12-.26,5.31-.26,9.55v16.69q0,8.67,1,12.48v1.41h-11v-1.41a60.25,60.25,0,0,0,.89-12.29V540.94q0-6.57-.26-9.81a71.7,71.7,0,0,0-12.23,1.84Z"/><path class="cls-1" d="M1776.47,546.22v13.63a23.63,23.63,0,0,0,1.84,10v1.41h-11.14v-1.41a27.92,27.92,0,0,0,1.08-8.59v-9.43a13.83,13.83,0,0,0-1.08-5.83,6.76,6.76,0,0,0-2.74-3.22v-1.4l11.65-2.16.77,1.27A27.16,27.16,0,0,0,1776.47,546.22Zm-1.21-20.64a3.67,3.67,0,0,1,.79,2.17,20.62,20.62,0,0,1,.23,2.55,9.47,9.47,0,0,1-.13,1.59l-.58.51a36.06,36.06,0,0,1-7.32,1.15l-.7-.32a7.69,7.69,0,0,1-.8-2.74,21.11,21.11,0,0,1-.28-2.64v-1l.57-.51a21.26,21.26,0,0,1,6.81-1.15h.71Z"/><path class="cls-1" d="M1806.72,539.47q6.06,0,8,5.35c1.4-1.14,2.53-2,3.41-2.67a16.74,16.74,0,0,1,3.28-1.82,9.45,9.45,0,0,1,3.75-.86,9.34,9.34,0,0,1,7.39,3c1.74,2,2.61,4.83,2.61,8.57v8.73a25.33,25.33,0,0,0,1.92,10.12v1.41H1825.9v-1.41a24.72,24.72,0,0,0,1.08-8.15v-8.41a12.67,12.67,0,0,0-.89-5.41c-.6-1.19-1.84-1.78-3.73-1.78a14.35,14.35,0,0,0-6.78,2.23q.12,1.65.12,2.67v8.73a25.51,25.51,0,0,0,1.91,10.12v1.41H1807v-1.41a24.72,24.72,0,0,0,1.08-8.15v-8.41a13.31,13.31,0,0,0-.83-5.41c-.55-1.19-1.71-1.78-3.47-1.78s-4.1.89-7,2.67v11.08a23.63,23.63,0,0,0,1.84,10v1.41h-11.14v-1.41a27.92,27.92,0,0,0,1.08-8.59v-9.43q0-7.14-3.82-9.05v-1.4l10.31-2,.64,1.21a15.7,15.7,0,0,1,.77,4.07,31.94,31.94,0,0,1,5.25-4A10.13,10.13,0,0,1,1806.72,539.47Z"/><path class="cls-1" d="M1857.74,572.47a14.11,14.11,0,0,1-9.93-4.14q-4.39-4.14-4.4-11.18a18.22,18.22,0,0,1,4.65-12.36,15.23,15.23,0,0,1,12-5.32q6.24,0,9.3,4t3.06,11.09l-2.42,2.48h-17.46c.05,3.06.86,5.42,2.46,7.07a7.65,7.65,0,0,0,5.73,2.49q3.35,0,10.1-3.51l1.59,2.42c-.81.77-1.72,1.55-2.74,2.36a28.12,28.12,0,0,1-5.13,2.9A16.22,16.22,0,0,1,1857.74,572.47Zm.9-28.92a6.6,6.6,0,0,0-3.76,1,13.18,13.18,0,0,0-1.6,4.21,25.61,25.61,0,0,0-.63,4.65l11.15-.64Q1863.8,543.56,1858.64,543.55Z"/><path class="cls-57" d="M1785.8,659.8q-6.54,5.9-18,5.89a45.25,45.25,0,0,1-21.15-5v-.55a12.13,12.13,0,0,1,3.75-8.5q10.32,7.21,17.45,7.22h.46a15,15,0,0,0,7.31-1.46q4-3.75,4-12.07,0-6.3-2.79-8.91t-9.09-2.6a71.12,71.12,0,0,0-8.87.37h-1.82l-2.1-6.95h10a9.3,9.3,0,0,0,7.5-3.52,12.26,12.26,0,0,0,2.92-8.08q0-9.42-6.85-9.41-6.12,0-15,6.94a22.24,22.24,0,0,1-4.29-10.42,73.79,73.79,0,0,1,20.19-3q18.19,0,18.19,13.7a16,16,0,0,1-2.79,9.46,17.9,17.9,0,0,1-6.63,5.9q14.17,3,14.17,16.08A19.26,19.26,0,0,1,1785.8,659.8Z"/><path class="cls-57" d="M1810.19,656.6q-7.35-9.18-7.35-24.31t8-23.94q8-8.82,21-8.82t19.47,9q6.53,9,6.53,23.44t-7.4,24.17q-7.41,9.67-19.19,9.68Q1817.55,665.78,1810.19,656.6Zm33.22-9.78a62.09,62.09,0,0,0,1.28-12.43,74.27,74.27,0,0,0-.68-10.73,34.52,34.52,0,0,0-2.33-8.41q-3.39-7.95-12.25-8a17.92,17.92,0,0,0-5.07.73,9.23,9.23,0,0,0-3.61,1.74c-1.34,1.77-2.47,4.61-3.38,8.54a48,48,0,0,0-1.37,10.88,77.71,77.71,0,0,0,.45,8.86,45.08,45.08,0,0,0,1.6,7.67,22.92,22.92,0,0,0,3,6.45,13.23,13.23,0,0,0,11.52,5.94,13.73,13.73,0,0,0,3.88-.73,7.33,7.33,0,0,0,3.43-2Q1842.13,653.09,1843.41,646.82Z"/><path class="cls-1" d="M1786.39,655.86q-6.54,5.89-18,5.89a45.15,45.15,0,0,1-21.16-5v-.54a12.13,12.13,0,0,1,3.75-8.5q10.32,7.22,17.45,7.22h.46a15,15,0,0,0,7.31-1.46q4-3.75,4-12.07,0-6.3-2.79-8.91t-9.09-2.6a73.46,73.46,0,0,0-8.86.36h-1.83l-2.1-6.94h10a9.3,9.3,0,0,0,7.49-3.52,12.28,12.28,0,0,0,2.93-8.09q0-9.4-6.86-9.41-6.12,0-15,7a22.26,22.26,0,0,1-4.3-10.42,73.85,73.85,0,0,1,20.2-3q18.18,0,18.18,13.7a16,16,0,0,1-2.79,9.46,17.84,17.84,0,0,1-6.62,5.89q14.16,3,14.16,16.09A19.26,19.26,0,0,1,1786.39,655.86Z"/><path class="cls-1" d="M1810.79,652.66q-7.36-9.18-7.36-24.31t8-23.94q8-8.82,21-8.82t19.46,9q6.52,9,6.53,23.44t-7.4,24.16q-7.39,9.69-19.19,9.69Q1818.14,661.84,1810.79,652.66Zm33.21-9.78a61.44,61.44,0,0,0,1.28-12.43,73.1,73.1,0,0,0-.68-10.74,34.12,34.12,0,0,0-2.33-8.4q-3.39-7.95-12.25-7.95a18,18,0,0,0-5.07.73,9.23,9.23,0,0,0-3.61,1.74c-1.34,1.76-2.46,4.61-3.38,8.54a48.51,48.51,0,0,0-1.37,10.87,75.37,75.37,0,0,0,.46,8.87,43.22,43.22,0,0,0,1.6,7.67,22.92,22.92,0,0,0,3,6.45,13.21,13.21,0,0,0,11.51,5.94,13.73,13.73,0,0,0,3.88-.73,7.21,7.21,0,0,0,3.43-2Q1842.72,649.14,1844,642.88Z"/></svg>