<?xml version="1.0" encoding="utf-8"?>
<!-- Generator: Adobe Illustrator 26.0.1, SVG Export Plug-In . SVG Version: 6.00 Build 0)  -->
<svg version="1.1" id="Layer_1" xmlns="http://www.w3.org/2000/svg" xmlns:xlink="http://www.w3.org/1999/xlink" x="0px" y="0px"
	 viewBox="0 0 967.3 514" style="enable-background:new 0 0 967.3 514;" xml:space="preserve">
<style type="text/css">
	.st0{fill:#FFFFFF;}
	.st1{fill:#5B4532;}
	.st2{fill:#9B6F48;}
	.st3{fill:#82491A;}
	.st4{fill:#E5B380;}
	.st5{fill:#161306;}
	.st6{fill:#605852;}
	.st7{fill:#38302A;}
	.st8{fill:#F4D240;}
	.st9{fill:#070605;}
	.st10{fill:#4F4B48;}
	.st11{fill:#038258;}
	.st12{fill:#10BF80;}
	.st13{fill:#BD9568;}
	.st14{fill:#AF8A60;}
	.st15{fill:#5C3C11;}
	.st16{fill:#422505;}
	.st17{fill:#775430;}
	.st18{fill:#C69C6D;}
	.st19{fill:url(#SVGID_1_);}
	.st20{fill:#4F2E0C;}
	.st21{fill:url(#SVGID_00000142858240246813138600000010924779140076558519_);}
	.st22{fill:url(#SVGID_00000139265760041375921010000010835522605030947745_);}
	.st23{fill:#E0A39A;}
	.st24{fill:none;stroke:#D2948B;stroke-linecap:round;stroke-linejoin:round;}
	.st25{fill:url(#SVGID_00000108293595568715571390000004352517349748856714_);}
	.st26{fill:#603813;}
	.st27{fill:#8C6239;}
	.st28{fill:#B0471B;}
	.st29{fill:#42210B;}
	.st30{fill:none;stroke:#42210B;stroke-width:3;stroke-miterlimit:10;}
	.st31{fill:#83370F;}
</style>
<g>
	<g id="Layer_1_00000168114528343727940230000014718649693054678920_">
		<rect x="276.5" y="56.7" transform="matrix(0.9907 -0.1364 0.1364 0.9907 -13.893 63.06)" width="353.5" height="152.3"/>
		<rect x="451.9" y="-35.9" transform="matrix(8.552009e-03 -1 1 8.552009e-03 203.0535 845.8033)" width="152.3" height="712.7"/>
		<path class="st0" d="M340.2,109.5l21.4-5.8c14.3-3.7,25.6-3.5,34,0.6s14.1,12,17.1,24.1c1.9,6.8,2.3,14,1.1,21
			c-1,6.3-3.8,12.2-8.1,16.9c-5.2,5.9-13.4,10.2-24.4,13l-2.1,0.5l-19.9,5l-8.4,2.2l-0.6-2.4c0-4.9-1.2-12.2-3.6-21.9l-7.1-27.9
			c-2.5-9.7-4.9-16.7-7.3-21l-0.6-2.4C334.9,110.8,337.7,110.1,340.2,109.5z M357.3,140.2l1.6,6.3c4,15.5,6.4,24.4,7.2,26.7
			c4.8-0.8,8.9-1.7,12.4-2.6c9-2.3,15-4.9,17.9-7.8c3.5-6.3,3.7-15.8,0.4-28.5c-2.7-10.6-6.8-17.5-12.2-20.9
			c-5.4-3.3-13.1-3.7-23.1-1.2l-10.4,2.8C351.9,118.5,353.9,126.9,357.3,140.2z"/>
		<path class="st0" d="M457.3,165.5c-8.5,1.7-15.6,0.6-21.5-3.3c-5.9-4-9.6-10-11.3-18.1c-1.7-7.8-0.2-15.9,4.2-22.5
			c4.4-6.9,11-11.3,19.7-13.1s15.9-0.7,21.5,3.2c5.6,3.9,9.3,9.9,10.9,18.1c1.7,7.8,0.3,16-4.1,22.7
			C472.2,159.4,465.7,163.8,457.3,165.5z M465.6,135.7c-1.4-7.1-3.6-12.4-6.5-15.9c-2.9-3.6-6.8-4.8-11.9-3.8c-3.3,0.7-5.7,2-7.1,4
			c-0.9,2.6-1.4,5.3-1.3,8.1c0,3.3,0.3,6.6,0.9,9.9c3.1,15.2,9.5,21.8,19.2,19.9c2.6-0.4,4.9-1.7,6.6-3.8c0.9-1.9,1.3-4.7,1.2-8.3
			C466.6,142.4,466.2,139,465.6,135.7z"/>
		<path class="st0" d="M487.4,123.5c-1.7-5.6-0.4-11.6,3.5-16c3.8-4.6,9.4-7.8,16.8-9.7c4.7-1.3,9.6-1.5,14.4-0.6
			c4.9-1.3,9.8-2.9,14.5-4.9L542,99l-10.9,2.8c2.6,2.5,4.4,5.6,5.3,9.1c1.6,5.5,0.5,11.4-3,15.9c-3.5,4.7-8.8,7.9-15.7,9.7
			c-2.2,0.6-4.5,0.9-6.8,1c-1.4,2-2,3.3-1.8,4.1c0.2,0.7,0.7,1.3,1.5,1.5c1.3,0.3,2.7,0.4,4.1,0.3c2-0.1,4.3-0.2,7-0.3
			c11.9-0.8,19.7-0.8,23.3,0.1c3.6,0.9,6,3.3,7,7.4c1,4,0.3,8.3-1.9,11.7c-4.3,7.1-12.4,12.2-24.4,15.3c-5.9,1.5-11.9,2.1-18,1.7
			c-2.9-0.2-5.7-1.1-8.1-2.8c-2.2-1.5-3.8-3.8-4.5-6.4c-1.5-5.8,1-11.1,7.5-15.9c-4.7-0.8-7.3-2.5-8-5c-0.4-1.2-0.3-2.4,0.2-3.5
			c1.4-2.5,3.2-4.6,5.5-6.2l1.3-1.1c0.4-0.4,0.8-0.7,1.2-1C494.6,135.7,489.4,131.1,487.4,123.5z M508.2,164
			c0.7,3.5,3.4,6.2,6.9,6.9c3.5,0.9,7.2,1,10.8,0.1c3.1-0.7,6.1-2.2,8.5-4.3c2.1-1.8,2.9-4.7,2.1-7.4c-0.4-1.7-1-2.7-1.8-3.1
			s-1.3-0.6-1.5-0.8c-0.4-0.2-0.9-0.3-1.4-0.4c-0.6-0.1-1.1-0.2-1.5-0.2l-1.7-0.1h-1.9c-0.4,0-1.1,0-2.1,0s-2.5,0-4.6,0
			c-1-0.1-4.3,0.1-9.8,0.4C507.9,157.4,507.2,160.4,508.2,164z M505.3,126.8c2.5,3.4,6.9,4.8,10.9,3.5c3.1-0.8,5.1-1.8,6-3.1
			c1.3-2.9,1.2-7.3-0.3-13.2c-2.1-8.3-6.7-11.5-13.9-9.7c-2.3,0.5-4.5,1.6-6.3,3.2c-1.2,3.5-1.4,7.2-0.4,10.7
			C502.4,122.2,503.7,125,505.3,126.8L505.3,126.8z"/>
		<path class="st1" d="M414.1,32.2C313.4,58.5,248.9,132,269.9,196.5c21,64.5,119.6,95.4,220.3,69.1s165.2-99.8,144.2-164.2
			S514.7,5.9,414.1,32.2z M482.3,241.6c-88.3,23-174.2-2.4-192-56.9c-17.8-54.5,42.7-110,130.9-133s170.9-4.9,188.7,49.6
			S570.6,218.6,482.3,241.6L482.3,241.6z"/>
		<path class="st2" d="M416.6,32.7c-100.4,25.7-165.9,93.5-146.2,151.5s117,84.1,217.5,58.4S653.7,149,634,91S517,6.9,416.6,32.7z
			 M480.6,221c-88,22.6-172.9,1.1-189.6-47.9c-16.6-49,41.2-107,129.3-129.5s172.9-1.1,189.5,47.9S568.6,198.4,480.6,221L480.6,221z
			"/>
		<path class="st2" d="M840.9,260.9l-218.8-78.5c-19.2-6.6-40.8,2.5-47.8,20.2s2.9,37.6,22.1,44.2l208,72.9
			C825.3,319.5,856.2,266.2,840.9,260.9z"/>
		
			<ellipse transform="matrix(0.424 -0.9056 0.9056 0.424 211.1944 916.6081)" class="st1" cx="826.2" cy="292.3" rx="34.7" ry="24.4"/>
		<path class="st2" d="M595.3,236.8l-34.6-13.8c-4.6-1.8-26.2-5-22.8-8.4l53-33.1c3.4-3.4,9.9-4.7,14.5-2.9l43.3,17.2"/>
		<path class="st0" d="M219,262.7l27.9-0.2c18.5,0.2,32.3,4,41.2,11.5c8.9,7.5,13.3,19,13.2,34.5c0.1,8.8-1.8,17.6-5.4,25.6
			c-3.3,7.3-8.6,13.4-15.3,17.8c-8.3,5.4-19.6,8-33.9,7.9H244l-25.8-0.4l-11-0.1v-3c1.6-5.9,2.5-15.1,2.6-27.5l0.4-35.8
			c0.1-12.5-0.6-21.7-2.2-27.6v-3C212.1,262.5,215.8,262.7,219,262.7z M230,305.1l-0.1,8c-0.2,19.9-0.1,31.4,0.1,34.4
			c6.1,0.5,11.4,0.8,16,0.8c11.7,0.1,19.8-1.1,24.3-3.7c6.3-6.4,11.9-18.7,12-35.1c0.1-13.6-4.9-22.4-10.4-28.2
			c-5.5-5.7-14.8-8.7-27.8-8.8h-13.6C230.3,277.2,230.1,288,230,305.1L230,305.1z"/>
		<path class="st0" d="M345.5,363.3c-8.1-0.1-15.4-3.1-21.8-9.2c-6.4-6.1-9.6-14.2-9.5-24.5c0-9.9,3.7-19.5,10.5-26.8
			c6.9-7.7,15.8-11.5,26.6-11.4c9.2,0.1,16,3.1,20.4,8.9s6.6,13.9,6.5,24.2l-5.4,5.4l-38.5-0.3c0,6.7,1.8,11.8,5.3,15.5
			c3.2,3.5,7.8,5.5,12.6,5.5c4.9,0,12.4-2.4,22.3-7.5l3.5,5.3c-1.8,1.6-3.8,3.4-6.1,5.1c-3.6,2.5-7.4,4.6-11.4,6.2
			C355.9,362.1,350.7,363.3,345.5,363.3z M348,300.3c-2.9-0.2-5.8,0.5-8.3,2c-1.7,2.8-2.9,5.9-3.6,9.1c-0.8,3.3-1.3,6.7-1.5,10.1
			l24.6-1.2C359.3,307.1,355.6,300.4,348,300.3L348,300.3z"/>
		<path class="st0" d="M418.2,345.2c0,3.3,0.9,5,2.6,5c2.5,0,7.3-1.4,14.2-4.2l4.2,6.3c-4.3,2.6-8.8,5-13.4,7
			c-5.2,2.3-9.7,3.5-13.5,3.4c-8.2-0.1-12.3-4.8-12.2-14.1l0.4-44.1c-1.4,0-6,0.3-13.9,0.9l5.1-12.4c3,0.4,6,0.7,9,0.8
			c-0.2-4.3-0.4-8.2-0.7-11.8l18.9-4.6l-0.1,16.4c3.7-0.1,11.1-0.6,22.1-1.6l-5.6,14.2c-5.5-0.9-11-1.5-16.6-1.7L418.2,345.2z"/>
		<path class="st0" d="M480.7,364.5c-8.1-0.1-15.4-3.1-21.8-9.2c-6.4-6.1-9.6-14.2-9.5-24.4c0-9.9,3.7-19.5,10.5-26.8
			c6.9-7.7,15.8-11.5,26.6-11.4c9.2,0.1,16,3.1,20.4,8.9c4.4,5.9,6.6,13.9,6.5,24.2l-5.4,5.4l-38.5-0.3c0,6.7,1.8,11.8,5.3,15.5
			c3.2,3.5,7.8,5.5,12.6,5.5c4.9,0,12.4-2.4,22.3-7.4l3.5,5.3c-1.8,1.6-3.8,3.3-6.1,5.1c-3.6,2.5-7.4,4.5-11.4,6.2
			C491.1,363.2,485.9,364.4,480.7,364.5z M483.2,301.5c-2.9-0.2-5.8,0.5-8.3,2c-1.7,2.8-2.9,5.9-3.6,9.1c-0.8,3.3-1.3,6.7-1.5,10.1
			l24.6-1.2C494.5,308.2,490.8,301.5,483.2,301.5L483.2,301.5z"/>
		<path class="st0" d="M545.5,328.2c-0.1,16.2,4.6,24.3,14.1,24.4c6.7,0.1,15.6-2.7,26.6-8.2l3.6,5.7c-4.6,3.9-9.6,7.3-14.9,10
			c-6.1,3.3-11.4,4.9-15.7,4.8c-10.6-0.1-18.9-3.4-25-9.9s-9.1-15-9-25.5c-0.1-10,4.2-19.6,11.9-26.1c7.3-6.7,16.9-10.4,26.8-10.3
			c10,0.1,18.6,2.5,25.8,7.3c-2.6,4.4-5.6,8.5-9.1,12.3c-7.5-5.8-14.8-8.7-21.7-8.8c-1.6,0-3.2,0.1-4.8,0.4c-2.8,2.7-4.9,6-6.1,9.7
			C546.3,318.6,545.4,323.4,545.5,328.2z"/>
		<path class="st0" d="M629.6,347c0,3.3,0.9,5,2.6,5c2.5,0,7.3-1.4,14.2-4.2l4.2,6.3c-4.3,2.6-8.8,5-13.4,7
			c-5.2,2.3-9.7,3.5-13.5,3.4c-8.2-0.1-12.3-4.8-12.2-14.1l0.4-44.1c-1.4,0-6,0.3-13.9,0.9l5.2-12.5c3,0.4,6,0.7,9,0.8
			c-0.1-4.2-0.4-8.2-0.7-11.8l18.9-4.6l-0.1,16.4c3.7-0.1,11.1-0.6,22.1-1.6l-5.6,14.2c-5.5-0.9-11-1.5-16.5-1.7L629.6,347z"/>
		<path class="st0" d="M687.9,309.1l-0.2,29.7c-0.1,8.8,1.2,16.1,3.9,21.8v3l-24.6-0.2v-3c1.6-4.7,2.5-10.9,2.5-18.7l0.2-20.5
			c0.2-4.4-0.6-8.7-2.3-12.7c-1.6-3.4-3.6-5.8-6-7.1v-3l25.7-4.5l1.7,2.8C688.3,298.7,687.9,302.9,687.9,309.1z M685.6,264.1
			c0.8,0.8,1.4,2.3,1.7,4.7c0.3,1.8,0.4,3.7,0.4,5.6c0,1.2-0.1,2.3-0.3,3.5l-1.3,1.1c-5.3,1.3-10.7,2.1-16.2,2.4l-1.5-0.7
			c-0.9-1.9-1.5-3.9-1.7-6c-0.3-1.9-0.5-3.8-0.6-5.8v-2.1l1.3-1.1c4.9-1.6,9.9-2.4,15-2.4h1.5L685.6,264.1z"/>
		<path class="st0" d="M722.3,297c0,2.2,1.9,9.2,5.6,20.9l8.4,24.5l9.8-29.8c1.7-4.6,2.6-9.4,2.7-14.3v-1.7l20.1,0.2v3.1
			c-2.7,1.7-5.4,6.2-8.1,13.5l-16.4,44.4l-2,7.2l-17.1,0.4l-2.5-8.1l-16.3-45c-1-2.8-2.4-5.5-4-8c-1.7-2.5-3.1-4-4.2-4.5v-3
			l24.2-1.6L722.3,297z"/>
		<path class="st0" d="M804.1,365.4c-8.2-0.1-15.4-3.1-21.8-9.2c-6.4-6.1-9.6-14.2-9.5-24.5c0-9.9,3.7-19.5,10.5-26.8
			c6.9-7.7,15.8-11.5,26.6-11.4c9.2,0.1,16,3.1,20.4,8.9c4.4,5.9,6.6,13.9,6.5,24.2l-5.4,5.4l-38.5-0.3c0,6.7,1.8,11.8,5.3,15.5
			c3.2,3.5,7.8,5.5,12.6,5.5c4.9,0,12.4-2.4,22.3-7.5l3.5,5.3c-1.8,1.6-3.8,3.3-6.1,5.1c-3.6,2.5-7.4,4.6-11.4,6.2
			C814.6,364.1,809.4,365.3,804.1,365.4z M806.7,302.4c-2.9-0.2-5.8,0.5-8.3,2c-1.9,2.7-3.1,5.9-3.6,9.1c-2.1,16.8-1.4,7.2-1.5,10.1
			l24.6-1.2C818,309.1,814.3,302.4,806.7,302.4L806.7,302.4z"/>
		<path class="st1" d="M586.8,232.7c1.4-22.2,50-45,50-45.1c-2.2-6.5-6.9-8.5-16-12.1c-23.2-9.2-51.7,17.8-56.9,42.2
			c-4.4,20.7,10.1,25.4,26.5,27.3c0.1,0,0.2-0.1,0.2-0.1c0,0,0-0.1,0-0.1C588.5,241.7,586.4,237.8,586.8,232.7z"/>
	</g>
	<g>
		<g>
			<path d="M881,60l25.4,21l-3.7,23.4l-28,19.1c-1.8,1.2-3.9,1.9-6.1,1.9h-17.7c-0.2,0-0.5,0-0.7-0.1l-13.1-3
				c-2.7-0.6-5.1-2.3-6.5-4.7l-21-34.9l16.8-25.5l31.6-2.4C862.4,54.8,872.6,57.2,881,60z"/>
			<path d="M846.1,59.1l-19.6-1.9l8.5-12.7c0.4-0.6,0.9-1.2,1.4-1.8l12.6-13.5l10.2,14.5c0.6,0.9,1.1,1.9,1.5,2.9l5.1,14.3
				L846.1,59.1z"/>
			<path d="M890.2,71.3l-15-13.1l17.7-8.9c1.2-0.6,2.4-1,3.7-1.2l16.4-2.9l1.1,16.8c0.1,1.8-0.2,3.7-1,5.3l-7.9,17L890.2,71.3z"/>
		</g>
		<polygon class="st3" points="871.3,132.7 829.4,129.2 832.9,120 872,125.1 		"/>
		<line class="st4" x1="885.9" y1="162.7" x2="876.4" y2="216.1"/>
		<path d="M874.5,223.9c0,0.2,0.2,0.4,0.5,0.4c2.1-0.1,8.5,0.7,29.7,5.4c0.4,0.1-4.4-9.8-4.6-10.1c-3.9-6.4-6.2-25.5-14-57.8
			L874.5,223.9z"/>
		<path class="st5" d="M892.9,216.2c8.8,3.3,15.1,11.9,15.1,21.9c0,12.9-10.5,23.4-23.4,23.4s-23.4-10.5-23.4-23.4
			s10.5-23.4,23.4-23.4C887.6,214.7,890.3,215.2,892.9,216.2"/>
		<path class="st5" d="M838,256.4l-21,17.4c-2.3,1.9-5.9,1.6-7.8-0.7l-0.7-0.9c-1.9-2.3-1.6-5.9,0.7-7.8l21-17.4
			c2.3-1.9,5.9-1.6,7.8,0.7l0.7,0.9C840.7,250.9,840.3,254.4,838,256.4z"/>
		<path class="st5" d="M876,218.6c-9,1.3-18.3,2.5-19.7,2.6l-0.2,41.8l0,0c4.5,3-37.7-0.1-37.7-2.4c-2.1-0.5-9.4-0.7-10.7-3.5
			c-0.4-0.8-0.6-1.7-0.8-2.8c-0.1-0.6-0.1-1.2-0.1-1.8l0.8-11.6c0-0.6,0.1-1.1,0.3-1.6c1-3.5,5-17.3,4.9-17.6L815,194
			c0-0.6,0-1.3-0.1-1.9l-4.4-27c-0.4-2.5-0.2-6.5,1.6-8.4c0.4-0.4,0.7-0.8,1-1.3l15.5-26.1l0,0c2.6-2,20.8,1.5,24.7,2.3
			c0.5,0.1,1,0.2,1.5,0.2l11.7,1l4.8-0.4l12.5,28.8c0.3,0.7,0.2,1.7,0.3,2.5"/>
		<path class="st5" d="M886.2,261.4l-37.7,15.8c-2.3,1.8-5.7,1.4-7.5-1l-0.9-1.2c-1.8-2.3-1.4-5.7,1-7.5l25.8-19.9
			c2.3-1.8,5.7-1.4,7.5,1l0.9,1.2C877.1,252.1,888.6,259.6,886.2,261.4z"/>
		<path d="M843.4,130.4l28.1,1.9l14.6,29.5l-28.8,21.7c-10.3-4.1-15.6-1.6-21.5,1.5l-12.7,6.7l-12.8-33.4c0,0,13.6-25.2,19.1-30.9
			L843.4,130.4z"/>
		<path d="M827.3,274.8h-5.9c-2.9,0-6.5-2.7-6.5-5.7l5.4-13.5l-10.5-90.9c0-2.9,9.9,0.2,12.8,0.2h8.6c2.9,0,5.7-1.5,5.7,1.5
			l-3.2,59.6l-2.2,42C831.6,271.1,830.3,274.8,827.3,274.8z"/>
		<path d="M876.5,216.1l-8.7,48.1l5.1,7c0,3-1.9,5.5-4.2,5.5h-6.8c-2.3,0-4.2-2.5-4.2-5.5l-2.5-12.9l2.5-97.3c0-3,1.9-5.5,4.2-5.5
			h6.8c2.3,0,10.2,0,17.5,6.3l-0.2,0.9"/>
		<polygon class="st6" points="817.7,270.6 819.5,271.3 817.9,273.1 816.2,274.9 816,272.5 815.9,270 		"/>
		<polygon class="st6" points="808.2,267.7 808.8,269 806.8,269.1 804.7,269.2 806.2,267.8 807.6,266.4 		"/>
		<polygon class="st6" points="809.6,270.8 810.5,272.1 808.5,272.6 806.4,273.1 807.5,271.3 808.6,269.5 		"/>
		<polygon class="st6" points="812.1,273.6 813.3,274.8 811.4,275.6 809.6,276.3 810.2,274.4 810.9,272.5 		"/>
		<polygon class="st6" points="821.6,272.7 823.5,273.3 821.8,275.3 820.1,277.2 819.9,274.6 819.8,272.1 		"/>
		<polygon class="st6" points="826.2,273 828.1,273.2 826.9,275.8 825.8,278.5 825,275.7 824.2,272.9 		"/>
		<polygon class="st6" points="870.7,272.3 872.5,271.7 872.6,274.8 872.6,278 870.7,275.5 868.8,272.9 		"/>
		<polygon class="st6" points="866.8,274.7 868.7,274.1 868.6,277 868.6,279.9 866.8,277.6 865,275.3 		"/>
		<polygon class="st6" points="861.9,274.8 863.9,274.6 863.1,277.4 862.4,280.3 861.2,277.6 860,274.9 		"/>
		<polygon class="st6" points="840.6,270.2 841.6,271.6 839.4,272.1 837.2,272.5 838.4,270.6 839.6,268.7 		"/>
		<polygon class="st6" points="841.8,273.6 842.7,275 840.5,275.5 838.2,276 839.5,274.1 840.8,272.1 		"/>
		<polygon class="st6" points="844.5,276.3 845.8,277.6 843.5,278.6 841.3,279.6 842.3,277.3 843.3,275 		"/>
		<path d="M904.7,250.2c0,0,19,1,30.1-13.4c0.4-0.4,15-20.8,15-20.8s8.2-8.5-2.9-29.9c0.6,0-8.3-10.4-21-13.3
			c-1.4-0.3-4.7-5.1-5.3-6.4c-2.1-4.5,6.3-22,6.3-22c-0.2,0.8-9.4,1.3-13.9,16.4c0.2,0.2-3.5,11,5.1,19.3c0.7,0.7,1.6,1,2.5,1
			c3.7-0.1,11.3,0.1,17.9,11c0.2,0.8,10.4,11.2-0.1,26.9c0.4,0.2-6.3,10.6-12.6,15.1c-1,0.1-12.4,8.7-18.1,8.5
			C907.3,243,904.7,250.2,904.7,250.2z"/>
		<g>
			<g>
				<g>
					<path class="st7" d="M852.9,92.2c0,3.2,0.2,6.7,2.6,9.1c0.6,0.6,1.6,0.6,2.1,0c0.6-0.6,0.6-1.5,0-2.1c-0.1-0.1-0.2-0.3-0.3-0.4
						c-0.1-0.1-0.1-0.1,0,0c0-0.1-0.1-0.1-0.1-0.2c-0.2-0.3-0.3-0.5-0.5-0.8c0,0-0.2-0.4-0.1-0.1c-0.1-0.2-0.1-0.3-0.2-0.5
						c-0.1-0.3-0.2-0.6-0.2-0.9c0-0.2-0.1-0.3-0.1-0.5c0-0.1-0.1-0.5,0-0.3c0-0.4-0.1-0.7-0.1-1.1c0-0.8,0-1.5,0-2.3
						c0-0.8-0.7-1.5-1.5-1.5C853.6,90.7,852.9,91.3,852.9,92.2L852.9,92.2z"/>
				</g>
			</g>
			<g>
				<g>
					<path class="st7" d="M852.7,91.5c-0.2,0.4-0.4,0.7-0.6,1.1c0.1-0.1,0-0.1,0,0c-0.1,0.1-0.2,0.2-0.2,0.3
						c-0.1,0.2-0.3,0.3-0.4,0.4c-0.3,0.3-0.6,0.6-0.9,0.8c-0.1,0.1-0.1,0.1-0.2,0.2c0,0-0.3,0.2-0.2,0.1c0.1-0.1-0.1,0.1-0.1,0.1
						c-0.1,0.1-0.2,0.1-0.3,0.2c-0.3,0.2-0.7,0.4-1,0.6c-0.2,0.1-0.4,0.2-0.6,0.3c-0.4,0.2,0.1,0-0.1,0c-0.1,0-0.2,0.1-0.3,0.1
						c-0.4,0.1-0.8,0.2-1.2,0.3c-0.1,0-0.4,0-0.1,0c-0.1,0-0.2,0-0.3,0c-0.2,0-0.5,0-0.7,0c-0.8,0-1.5,0.7-1.5,1.5
						c0,0.8,0.7,1.5,1.5,1.5c2,0.1,4-0.7,5.7-1.8c1.6-1.1,3.4-2.5,4.1-4.4c0.3-0.7,0.2-1.6-0.5-2.1
						C854.1,90.7,853.1,90.8,852.7,91.5L852.7,91.5z"/>
				</g>
			</g>
		</g>
		<path class="st8" d="M843.4,70.1c0.8,0.2,1.6,0.5,2.4,0.8l5.7,2.3c0.5,0.2,0.8,0.6,0.8,1c0,0-0.1,0.7-0.3,1.8
			c-0.9,5.3-6.7,8.7-12.9,7.7v0c-5.9-1-10-6-9.1-11c0.2-1.3,0.4-2.3,0.4-2.3c0.1-0.4,0.5-0.7,1-0.7l6.5-0.2c1.1,0,2.2,0,3.2,0.2"/>
		<path class="st8" d="M877.6,90.9L877.6,90.9c-5.9-1-10-6-9.1-11c0.2-1.3,0.4-2.3,0.4-2.3c0.1-0.4,0.5-0.7,1-0.7l6.5-0.2
			c2.7-0.1,5.5,0.4,8,1.4l5.7,2.3c0.5,0.2,0.8,0.6,0.8,1c0,0-0.1,0.7-0.3,1.8C889.6,88.5,883.8,91.9,877.6,90.9z"/>
		<path class="st9" d="M841,69.6c-0.1,0.7-0.3,1.6-0.4,2.3c-0.8,5.1-1,9.3-0.3,9.5c0.7,0.1,1.9-3.9,2.7-9.1c0.1-0.6,0.2-1.6,0.3-2.2
			C843.4,70.1,841.8,69.6,841,69.6z"/>
		<path class="st9" d="M883.4,77.7c-0.1,0.7-0.3,1.5-0.4,2.3c-0.8,5-0.9,9.1-0.2,9.2c0.7,0.1,1.9-3.8,2.7-8.8c0.1-0.7,0.2-1.3,0.3-2
			C884.9,78.2,884.2,77.9,883.4,77.7z"/>
		<path class="st7" d="M855.2,87.8l3.2,0.8c0.3,0.1,0.4,0.4,0.1,0.6l-2,1.6l-2.2,1.8c-0.2,0.1-0.4,0.1-0.5-0.1l-1.2-2.6l-1.1-2.3
			c-0.1-0.3,0.1-0.6,0.4-0.5L855.2,87.8z"/>
		<polygon class="st10" points="841.5,55.3 836.4,57.8 839.7,50.7 848.1,42.4 851.5,49 851.5,53.5 		"/>
		<polygon class="st10" points="899.5,68 903.9,72.2 904.8,65.2 904.8,57.8 897.4,61.9 894.2,65.7 		"/>
		<g>
			<g>
				<path class="st7" d="M823.5,73.2c-7.1-3.4-14.6-5.9-22.3-7.3c-1.9-0.3-2.7,2.6-0.8,2.9c7.5,1.3,14.8,3.6,21.6,7
					C823.7,76.6,825.2,74,823.5,73.2L823.5,73.2z"/>
			</g>
		</g>
		<g>
			<g>
				<path class="st7" d="M821.3,81.5c-4.4-1.2-8.9-1.3-13.4-1.4c-4.3-0.1-8.6,0-12.6,1.8c-1.8,0.8-0.2,3.4,1.5,2.6
					c3.6-1.6,7.7-1.5,11.5-1.4c4.1,0.1,8.2,0.3,12.1,1.3C822.4,84.9,823.2,82,821.3,81.5L821.3,81.5z"/>
			</g>
		</g>
		<g>
			<g>
				<path class="st7" d="M822.3,89c-2.1,0.5-4,1.4-6,2.2c-2,0.8-4.1,1.5-6.2,2.1c-4,1.2-8,2.6-11.1,5.4c-1.4,1.3,0.7,3.4,2.1,2.1
					c3-2.7,6.9-3.7,10.6-4.9c1.9-0.6,3.8-1.2,5.7-2c1.8-0.8,3.7-1.6,5.6-2.1C824.9,91.4,824.2,88.5,822.3,89L822.3,89z"/>
			</g>
		</g>
		<g>
			<g>
				<path class="st7" d="M889.6,94.7c2.5-0.4,5-0.8,7.6-0.7c2.5,0,5,0.5,7.4,0.9c4.5,0.8,9,1.7,12.9,4.1c1.6,1,3.1-1.6,1.5-2.6
					c-4.3-2.7-9.2-3.6-14.1-4.5c-2.6-0.5-5.3-0.9-8-1c-2.7,0-5.5,0.4-8.2,0.8C886.9,92.1,887.7,95,889.6,94.7L889.6,94.7z"/>
			</g>
		</g>
		<g>
			<g>
				<path class="st7" d="M885.4,102.5c3.4,1.2,6.8,2.5,10,4.2c1.4,0.7,2.6,1.5,3.5,2.8c0.9,1.3,1.6,2.7,2.3,4.2
					c0.3,0.7,1.4,0.9,2.1,0.5c0.8-0.4,0.9-1.3,0.5-2.1c-0.7-1.5-1.4-3-2.4-4.4c-1.1-1.5-2.5-2.6-4.1-3.5c-3.5-1.8-7.3-3.3-11-4.6
					C884.3,99,883.5,101.9,885.4,102.5L885.4,102.5z"/>
			</g>
		</g>
		<g>
			<g>
				<path class="st7" d="M877.5,108.4c3.7,4.1,7.7,8.7,8.1,14.5c0.1,1.9,3.1,1.9,3,0c-0.4-6.7-4.7-11.9-8.9-16.6
					C878.3,104.8,876.2,106.9,877.5,108.4L877.5,108.4z"/>
			</g>
		</g>
		<polygon class="st10" points="819.8,155.8 832.7,154.8 819.8,165 814.6,166.5 810.3,168.6 809.7,161.3 810.3,158.2 		"/>
		<polygon class="st10" points="870.1,156.8 857.2,155.8 869.7,165.6 874.8,167.2 879.6,169.6 880.2,162.3 879.6,159.2 		"/>
		<polygon class="st10" points="821.3,169.6 830.8,170.2 821.3,178.8 816.4,179.9 811.8,182.4 811.2,175.1 810.7,172.3 		"/>
		<polygon class="st10" points="869.4,170.6 859.8,171.1 869.4,179.8 874.2,180.9 878.8,183.4 879.5,176 879.9,173.3 		"/>
		<polygon class="st10" points="868.4,61.7 868.7,66.5 872.7,62.1 873.8,59.9 874.6,57.8 870.9,56.9 870.2,56.8 		"/>
		<polygon class="st10" points="862.7,60.7 863,65.5 867,61.1 867.8,58.6 868,56.4 865.2,55.9 863.9,55.6 		"/>
		<polygon class="st10" points="868.2,184.5 858.7,185 868.2,193.7 872.7,194.5 877.7,197.3 878.3,190 878.7,187.2 		"/>
		<polygon class="st10" points="886.5,204.6 879.3,207.2 889,211.8 892.7,211.5 897.3,212.5 895.8,206.6 895.3,204.3 		"/>
		<polygon class="st10" points="884.7,195.9 877.5,198.5 887.2,203.1 890.9,202.8 895.5,203.8 894,197.9 893.5,195.6 		"/>
		<polygon class="st10" points="822.8,183.4 832.3,184 822.8,192.6 818.2,193.8 813.3,196.3 812.6,188.9 812.3,186.6 		"/>
		<path class="st11" d="M852.6,139.8c-0.3,3.2-2.6,5.6-5,5.4c-2.5-0.2-4.2-3-3.9-6.3c0.3-3.2,5.3-8.1,5.3-8.1
			S852.9,136.6,852.6,139.8z"/>
		<path class="st12" d="M844.6,139.6c0,5.8,3.9,4.8,3.9,4.8l-1.3-0.9c-0.2-0.1-0.3-0.2-0.5-0.4c-0.4-0.3-0.7-0.6-1-1L844.6,139.6z"
			/>
	</g>
	<g>
		<g id="Layer_3">
			<circle class="st13" cx="28.8" cy="449.7" r="13.8"/>
			<circle class="st14" cx="28.4" cy="447" r="8"/>
			<path class="st15" d="M196.9,368.4c7.1-1.1,13.2,1,14.1,6.8s-8.2,16.1-15.3,17.2s-1.4-0.3-2.3-6.1
				C192.5,380.6,189.9,369.6,196.9,368.4z"/>
			
				<ellipse transform="matrix(0.9872 -0.1595 0.1595 0.9872 -57.9074 12.2905)" class="st16" cx="47.6" cy="366.9" rx="5.8" ry="7.5"/>
			<path class="st17" d="M133,460.9c7.4-2.3,24.4-4.9,25.7,4.3s-12,5.7-18,6.4c-6,0.8-22.1,5.4-23.5-4.3
				C115.8,457.7,124.2,463.6,133,460.9z"/>
			<path class="st18" d="M82.3,341.8c-4.3-12.1-1.9-10.2-4-24.8c-2.2-14.6,12.5-37.9,28.9-41.4c16.4-3.5,22.2-3.2,39.2-6.2
				c17-2.9,43,24.4,45.8,38.6c2.5,12.4,1.1,13.9,2.2,22c0.3,2.6,0.2,5.3-0.5,7.9c-2.6,10.7-3.3,19.9-18.1,22.4
				c-16.6,2.8-34.3,6-52.5,7.5C109.3,368.6,86.6,353.9,82.3,341.8z"/>
			
				<linearGradient id="SVGID_1_" gradientUnits="userSpaceOnUse" x1="-38.4722" y1="-54.2237" x2="-40.5124" y2="20.9363" gradientTransform="matrix(-0.9872 0.1595 -0.1595 -0.9872 145.4631 403.5273)">
				<stop  offset="0.12" style="stop-color:#775430"/>
				<stop  offset="0.23" style="stop-color:#8B653F"/>
				<stop  offset="0.35" style="stop-color:#9A724A"/>
				<stop  offset="0.49" style="stop-color:#A37A50"/>
				<stop  offset="0.71" style="stop-color:#A67C52"/>
			</linearGradient>
			<path class="st19" d="M181.3,451.4c-7.9-20.8-4.7-41.9-10.5-63.8c-1.1-4,0.6-9.2,5.1-11.2c2.6-1.1,5.4-1.7,8.2-2
				c4.8-0.5,9.6,2.1,10.8,6.7c7,25.1-1.2,49.7,5,70.7c1.1,3.8,8.1,7.5,4.3,11c-2.1,1.9-6.6,2.6-9.7,2.6
				C188.8,465.4,182.8,455.2,181.3,451.4z"/>
			<path class="st18" d="M81,347.6c45-15.4,101.5-20.5,114,29.3s-23.8,68.7-53,80.7S39.7,489.8,28.6,445.8
				C17.5,401.8,36,363,81,347.6z"/>
			<path class="st20" d="M176.3,304c-4.7-4-8-13.2-9.3-19.6c1.6-4.2,2.4-3.7,7.4-5.3c5-1.6,13.8-0.6,19.6,0.8
				c4.7,2.6,6.4,8,6.3,13.2c-0.2,5.4,0.5,10.8,2.1,15.9c1.2,2.4,7.5,4.3,5.1,5.8c-2.5,3.9-7.1,3.3-12.9,0.9
				C191.7,314.4,181,308,176.3,304z"/>
			<path class="st20" d="M90.4,314.9c3.7-4.1,10.6-12.5,14-17.9c-0.4-4.3-0.7-4-4.9-7.2s-13.2-3.9-19.1-3.6
				c-6.4,1.9-9.7,9.1-10.7,15.3c-1,6.2,1.3,12.2,0.6,18.3c-0.6,2.4-5.8,6.2-3.6,7.1c2.5,3.4,6.8,1.9,11.3-0.8
				C80.3,324.7,86.6,319.1,90.4,314.9z"/>
			
				<linearGradient id="SVGID_00000029033166300048218140000004701641254174810517_" gradientUnits="userSpaceOnUse" x1="17.3083" y1="-62.6253" x2="12.8891" y2="22.3901" gradientTransform="matrix(-0.9872 0.1595 -0.1595 -0.9872 145.4631 403.5273)">
				<stop  offset="0.12" style="stop-color:#775430"/>
				<stop  offset="0.16" style="stop-color:#805D37"/>
				<stop  offset="0.3" style="stop-color:#9F784F"/>
				<stop  offset="0.45" style="stop-color:#B48C5F"/>
				<stop  offset="0.58" style="stop-color:#C2986A"/>
				<stop  offset="0.71" style="stop-color:#C69C6D"/>
			</linearGradient>
			<path style="fill:url(#SVGID_00000029033166300048218140000004701641254174810517_);" d="M123.5,461.6
				c-9.2-33.5-7.8-33.4-7.6-67.6c0-6.2,3.4-8.9,7.9-9.9c2.5-0.6,10.4-2.4,12.9-2.1c4.5,0.6,11.7,10.2,11.8,15.8
				c0.3,30.9-9.6,31.7-6.5,61.7c0.5,5.4,2.9,15.8-1.2,16.9c-2.3,0.6-7.3,1.8-10.5-0.4C126.6,473.5,125.2,467.7,123.5,461.6z"/>
			
				<linearGradient id="SVGID_00000183247095926098382460000000368794243333516222_" gradientUnits="userSpaceOnUse" x1="78.8947" y1="-70.3622" x2="71.073" y2="-3.0305" gradientTransform="matrix(-0.9872 0.1595 -0.1595 -0.9872 145.4631 403.5273)">
				<stop  offset="0" style="stop-color:#775430"/>
				<stop  offset="0.22" style="stop-color:#89643E"/>
				<stop  offset="1" style="stop-color:#C69C6D"/>
			</linearGradient>
			<path style="fill:url(#SVGID_00000183247095926098382460000000368794243333516222_);" d="M33.3,441.4
				c-0.3-20.4,12.1-40.3,32.9-38.4c20.8,1.9,32.1,19.5,33.9,36c1,8.8,5.5,17.1,5.9,23.7c7.6,0.6,15.1,2.7,15.8,8.4
				c1.2,9.7-16.7,5.3-22.8,6c-7.5,1-15,1.1-22.6,0.5c-10.7,0.7-21.5-0.2-31-4C37.5,470.5,33.4,451.6,33.3,441.4z"/>
			<path class="st20" d="M139.7,338.4c-10.8,2.3-10.7,7.1-9.4,13.1s5.1,8.1,15.9,5.8s9.6-7.9,8.4-13.9S150.5,336.1,139.7,338.4z"/>
			<path class="st23" d="M142.5,344.4c2.6-0.4,4-1.6,4.7,2.8c0.7,4.4-0.8,8.3-3.4,8.7c-2.6,0.4-5.4-2.8-6.1-7.1
				C137,344.4,139.9,344.8,142.5,344.4z"/>
			<line class="st24" x1="143" y1="351.1" x2="142.2" y2="345.6"/>
			
				<linearGradient id="SVGID_00000060027706170926595990000006424071281736601520_" gradientUnits="userSpaceOnUse" x1="-6.6235" y1="47.4713" x2="-6.2846" y2="76.5484" gradientTransform="matrix(-0.9872 0.1595 -0.1595 -0.9872 145.4631 403.5273)">
				<stop  offset="0" style="stop-color:#42210B"/>
				<stop  offset="0.14" style="stop-color:#4C2910"/>
				<stop  offset="0.38" style="stop-color:#66401D"/>
				<stop  offset="0.49" style="stop-color:#754C24"/>
				<stop  offset="0.64" style="stop-color:#7F562E"/>
				<stop  offset="0.9" style="stop-color:#9B7147"/>
				<stop  offset="0.99" style="stop-color:#A67C52"/>
			</linearGradient>
			<path style="fill:url(#SVGID_00000060027706170926595990000006424071281736601520_);" d="M124.1,336.6c7.2-4.9,13.3-6.1,17.3-4
				c3.4-2.2,9-2.4,16-0.5c10.7,2.9,16.2,5.7,14.6,11.6s-4.1,13.1-14.8,10.2c-5.7-1.6-11.3-4.5-15-7.8c-2.9,4.4-6.6,8.1-10.9,11.1
				c-9.1,6.2-13.8,0.3-17.3-4.8C110.6,347.2,115,342.8,124.1,336.6z"/>
			<path class="st26" d="M145.2,328.6c1.7,0.7,1.6,2.6,1.3,4.1c-1.2,1.3-3.5,3.3-5.2,3.5c-2.3,0.1-4.6-0.4-6.7-1.5
				c-0.6-1.4-1.6-2.6-0.4-3.9c1.2-1.4,4.3-2,5.9-2.2C141.8,328.2,143.5,327.9,145.2,328.6z"/>
			<circle class="st0" cx="160.3" cy="318.8" r="12"/>
			<circle cx="163.2" cy="318.3" r="7.7"/>
			<circle class="st0" cx="115.5" cy="326" r="12"/>
			<circle cx="118.2" cy="325.6" r="7.7"/>
			<circle cx="167.2" cy="346.9" r="0.6"/>
			<circle cx="160.5" cy="351.6" r="0.3"/>
			<circle cx="161.3" cy="346.9" r="0.7"/>
			<circle cx="128.9" cy="352.7" r="0.6"/>
			<circle cx="122.9" cy="356.1" r="0.3"/>
			<circle cx="119.1" cy="352.6" r="0.4"/>
			<path class="st27" d="M116.3,302l-5.5,3.6c-0.5,0.3-0.9,0.7-1.1,1.2c-0.3,1.1,1.1,1.9,2.3,2c3.2,0.2,6.1-1.8,8.6-3.7
				c1.1-0.8,2.3-2.2,1.7-3.4c-0.3-0.7-1-1.1-1.7-1.1c-0.7,0-1.4,0.1-2.1,0.4c-3.4,1.2-6.2,3.3-8.8,5.9"/>
			<path class="st27" d="M155.8,296.3c-2-0.5-4.2-0.7-6.3-0.5c-0.3,0-0.6,0.1-0.9,0.2c-0.8,0.5-0.3,1.8,0.3,2.4
				c1.3,1.3,3.3,1.8,5.1,2.2c2.7,0.6,5.7,1.2,8.3,0.1c0.3-0.1,0.7-0.3,0.7-0.7c0-0.2,0-0.4-0.2-0.6c-1.2-2.2-3.9-3-6.4-3.4
				c-1.6-0.2-3.1-0.4-4.7-0.4"/>
		</g>
		<g id="Layer_4">
			<path class="st20" d="M173.3,360.7c13.1-2.1,11.6-9.6,21.9,1.4c3.4,3.6,15.4,5.3,15.8,12.4c0.5,10-14.9,17.9-22.6,19.1
				c-13.1,2.1-26.6-5.5-28.5-17.2C158.1,364.7,160.2,362.8,173.3,360.7z"/>
			<path class="st20" d="M74,347c4.1-0.5,8.3-4.5,10-1.6c4.2,7.1,13.6,14.6,21.9,20.3c6.2,4.2,18.4,1.3,24.8,1.9
				c18.9,1.6,24.6-5,28.6,5.2c1.9,4.9,4.4,14.1-2.5,21.1c-10.5,10.4-27.8,13.5-45.9,12.3c-30.3-1.9-69.5-29-68.7-42.1
				C42.7,357.3,61.5,348.5,74,347z"/>
			<path class="st28" d="M181.7,369.1c1.3,4,2.8,8.1-3.4,10.2c-2.8,0.9-10.8-2.9-12.9-3.7c-2.2-0.8-3.3-1.2-4-3.3
				c-0.6-1.7-0.9-1,0.4-2.2c1.7-1.5,4-3.7,7.5-4.9C175.7,363.2,180.4,365.2,181.7,369.1z"/>
			<path class="st28" d="M140.7,378.2c0.6,3.8,1.1,7.9,7.1,6.9c2.7-0.4,7.6-6.8,9-8.5c1.4-1.6,2.2-2.3,1.8-4.4
				c-0.3-1.6,0.3-1.2-1.2-1.6c-2-0.5-4.8-1.4-8.3-0.8C143.1,370.8,140,374.4,140.7,378.2z"/>
			<path class="st26" d="M129.2,252.6c10.3-1.7,22,8.3,23.7,18.6c0.9,5.3-1.1,7.4-4.6,8.4c-3.3,0.9-7.9,0.9-12.8,1.7
				c-5.2,0.8-10.5,2.5-14.7,2.7c-4.2,0.2-7.3-1.2-8.1-6.3C111,267.4,118.9,254.2,129.2,252.6z"/>
			<path class="st29" d="M120.7,283.9c4.2-0.2,9.5-1.8,14.7-2.7c4.5-0.7,8.6-0.8,11.8-1.5c0.4-0.1,0.7-0.2,1-0.3c0,0,0,0.1,0,0.1
				c0.7,4.5-4.9,9.1-12.5,10.3c-7.6,1.2-14.3-1.4-15.1-5.8C120.7,284.1,120.7,284,120.7,283.9z"/>
			<path class="st30" d="M135.5,242.7c2.2,0.9,0.7,3.3-0.7,6.7c-0.4,1.2-1.3,2.1-2.5,2.5c-1.2,0.6-1.7,0.9-2.9,0.5
				c-0.9-0.4-0.7,0-0.8-1c-0.1-1.7,0.1-3.4,0.7-5C130.8,243.1,133.4,241.8,135.5,242.7z"/>
			<path class="st30" d="M116.3,250.1c-1.1,2,3.5,2.4,6.7,4.2c1.5,0.8,2.4-0.1,3.7-0.3c1.3-0.2,1-0.2,1.6-1.3c0.5-0.9,0.6-0.5,0-1.2
				c-0.7-1.1-1.7-1.9-2.9-2.4C122.2,247.2,117.4,248,116.3,250.1z"/>
			<path class="st29" d="M141.6,265.7c-3.1-6.9-11.4-12.9-10-13.1c1.9-0.3,16.1,8.5,17.5,17.2c1.4,8.7,3.1,8.1,1.3,8.9
				c-0.8,0.4-1.6,0.7-2.5,1c-1.1,0.3-0.3,0.2-1.6,0.3c-0.3,0-0.6,0.4-0.8,0.1c-0.7-0.9-0.6-4-1-6.1
				C144.1,271.6,142.8,268.3,141.6,265.7z"/>
			<path class="st29" d="M122.7,268.7c0.8-7.6,7-16.3,5.6-16.1c-1.9,0.3-12.7,13.6-11.3,22.3c1.4,8.7-0.4,8.6,1.6,8.9
				c0.9,0.2,1.8,0.2,2.7,0.1c1.1-0.1,0.4,0.1,1.6-0.2c1.4-0.4,0.2-3.6-0.2-6.2C122.2,275.1,122.4,271.6,122.7,268.7z"/>
			<path class="st29" d="M130.5,268.9c-1.1-7.5-3-16-1.6-16.2c1.9-0.3,9.4,10.5,10.8,19.2s3.2,8.7,1.4,9.5c-0.6,0.3-1.7-0.3-2.9,0
				c-1.1,0.3-5.4,1.1-6.6,1.2c-1.5,0.1-0.5-1.7-0.7-4.4C130.5,275.3,131,272.9,130.5,268.9z"/>
			<path class="st29" d="M115.9,263.1c1-0.5,3.2,0.2,6.2,0.6c3.6,0.5,5.4,0.9,8.8,0.4c3.2-0.5,8-2.2,10-4.4c3-3.3,2.5-3.4,4.9-1
				c1.2,1.2-0.9,3.3-3,4.9c-2.6,1.9-6.8,3.5-11.6,4.3c-3.3,0.6-6.7,0.6-10,0.1c-2.4-0.4-5.6-0.6-6.5-1.4c-0.6-0.5-0.1-1.2,0.3-2
				C115.2,263.9,115.5,263.3,115.9,263.1z"/>
			<path class="st29" d="M140.2,255.8c-0.3,0.9-1.5,2-2.4,2.8c-1.6,1.5-5.1,3-7.8,3.2c-2.5,0.1-4.9,0-7.3-0.5
				c-1.3-0.3-3.6-0.8-4.4-1.6c-0.4-0.3,0-0.4,0.5-1.1c0.5-0.7,1-1.2,1.4-0.9c0.9,0.4,2.2,0.5,3.3,0.7c1.6,0.4,4.4,0.1,6.4-0.1
				c2-0.1,5.3-0.8,6.3-2.3c0.5-0.7,1.1-1.4,1.8-2.1c0.3-0.4,0.8,0,1.8,0.5c0.5,0.2,1.2,0.4,0.7,0.7"/>
			<path class="st29" d="M112.6,271.6c0.4-1.6,4.5-0.1,8.5,0.5c4.5,0.6,6.9,1,11.2,0.3c4.1-0.7,10.2-2.6,12.8-5.4
				c3.8-4.2,4.1-5.1,5.8-1.2c0,0.1,0.8,1.3,0.8,1.4c0.6,2-1.7,2.8-4.2,4.7c-3.4,2.4-8.7,4.4-14.8,5.4c-4.2,0.7-8.6,0.8-12.8,0.2
				c-3.4-0.6-7.3-1.2-7.5-2c-0.1-0.7-0.1-1.3,0-2C112.5,272.9,112.5,272.2,112.6,271.6z"/>
			<circle class="st31" cx="160.2" cy="373.4" r="4.5"/>
		</g>
	</g>
</g>
</svg>
