<svg id="Layer_1" data-name="Layer 1" xmlns="http://www.w3.org/2000/svg" xmlns:xlink="http://www.w3.org/1999/xlink" width="967.3" height="514" viewBox="0 0 967.3 514"><defs><style>.cls-1{fill:#fff;}.cls-2{fill:#5b4532;}.cls-3{fill:#9b6f48;}.cls-4{fill:#82491a;}.cls-5{fill:#e5b380;}.cls-6{fill:#161306;}.cls-7{fill:#605852;}.cls-8{fill:#38302a;}.cls-9{fill:#f4d240;}.cls-10{fill:#070605;}.cls-11{fill:#4f4b48;}.cls-12{fill:#038258;}.cls-13{fill:#10bf80;}.cls-14{fill:#bd9568;}.cls-15{fill:#af8a60;}.cls-16{fill:#5c3c11;}.cls-17{fill:#422505;}.cls-18{fill:#775430;}.cls-19{fill:#c69c6d;}.cls-20{fill:url(#linear-gradient);}.cls-21{fill:#4f2e0c;}.cls-22{fill:url(#linear-gradient-2);}.cls-23{fill:url(#linear-gradient-3);}.cls-24{fill:#e0a39a;}.cls-25,.cls-31{fill:none;}.cls-25{stroke:#d2948b;stroke-linecap:round;stroke-linejoin:round;}.cls-26{fill:url(#linear-gradient-4);}.cls-27{fill:#603813;}.cls-28{fill:#8c6239;}.cls-29{fill:#b0471b;}.cls-30{fill:#42210b;}.cls-31{stroke:#42210b;stroke-miterlimit:10;stroke-width:3px;}.cls-32{fill:#83370f;}</style><linearGradient id="linear-gradient" x1="-38.47" y1="-54.22" x2="-40.51" y2="20.94" gradientTransform="matrix(-0.99, 0.16, -0.16, -0.99, 145.46, 403.53)" gradientUnits="userSpaceOnUse"><stop offset="0.12" stop-color="#775430"/><stop offset="0.23" stop-color="#8b653f"/><stop offset="0.35" stop-color="#9a724a"/><stop offset="0.49" stop-color="#a37a50"/><stop offset="0.71" stop-color="#a67c52"/></linearGradient><linearGradient id="linear-gradient-2" x1="17.31" y1="-62.63" x2="12.89" y2="22.39" gradientTransform="matrix(-0.99, 0.16, -0.16, -0.99, 145.46, 403.53)" gradientUnits="userSpaceOnUse"><stop offset="0.12" stop-color="#775430"/><stop offset="0.16" stop-color="#805d37"/><stop offset="0.3" stop-color="#9f784f"/><stop offset="0.45" stop-color="#b48c5f"/><stop offset="0.58" stop-color="#c2986a"/><stop offset="0.71" stop-color="#c69c6d"/></linearGradient><linearGradient id="linear-gradient-3" x1="78.89" y1="-70.36" x2="71.07" y2="-3.03" gradientTransform="matrix(-0.99, 0.16, -0.16, -0.99, 145.46, 403.53)" gradientUnits="userSpaceOnUse"><stop offset="0" stop-color="#775430"/><stop offset="0.22" stop-color="#89643e"/><stop offset="1" stop-color="#c69c6d"/></linearGradient><linearGradient id="linear-gradient-4" x1="-6.62" y1="47.47" x2="-6.28" y2="76.55" gradientTransform="matrix(-0.99, 0.16, -0.16, -0.99, 145.46, 403.53)" gradientUnits="userSpaceOnUse"><stop offset="0" stop-color="#42210b"/><stop offset="0.14" stop-color="#4c2910"/><stop offset="0.38" stop-color="#66401d"/><stop offset="0.49" stop-color="#754c24"/><stop offset="0.64" stop-color="#7f562e"/><stop offset="0.9" stop-color="#9b7147"/><stop offset="0.99" stop-color="#a67c52"/></linearGradient></defs><g id="Layer_1-2" data-name="Layer 1"><rect x="276.46" y="56.74" width="353.46" height="152.33" transform="translate(-13.89 63.06) rotate(-7.84)"/><rect x="451.9" y="-35.86" width="152.33" height="712.72" transform="translate(203.05 845.8) rotate(-89.51)"/><path class="cls-1" d="M340.17,109.5l21.4-5.83q21.38-5.48,34,.56t17.13,24.06a49.8,49.8,0,0,1,1.13,21,33.25,33.25,0,0,1-8.09,16.91q-7.87,8.81-24.39,13l-2.05.52-19.89,5L351,186.88l-.61-2.37q.06-7.38-3.64-21.85l-7.14-27.85q-3.75-14.58-7.34-21l-.61-2.38C334.87,110.78,337.71,110.13,340.17,109.5Zm17.18,30.69,1.6,6.26q6,23.2,7.19,26.69,7.16-1.26,12.44-2.62,13.5-3.45,17.9-7.81,5.28-9.41.4-28.52-4.06-15.85-12.19-20.86t-23.13-1.15L351.12,115Q352.23,120.22,357.35,140.19Z"/><path class="cls-1" d="M457.28,165.49q-12.72,2.61-21.5-3.33T424.52,144.1a29.39,29.39,0,0,1,4.18-22.52q6.63-10.39,19.68-13.07t21.46,3.17q8.43,5.83,10.93,18.06a29.75,29.75,0,0,1-4.12,22.69A28.81,28.81,0,0,1,457.28,165.49Zm8.29-29.8q-2.18-10.58-6.45-15.91T447.2,116c-3.27.67-5.66,2-7.15,4a21.76,21.76,0,0,0-1.29,8.11,45.61,45.61,0,0,0,.94,9.89q4.68,22.83,19.2,19.85a11,11,0,0,0,6.63-3.75c.89-1.93,1.29-4.68,1.2-8.27A59.54,59.54,0,0,0,465.57,135.69Z"/><path class="cls-1" d="M487.43,123.46a16.9,16.9,0,0,1,3.45-16q5.76-6.88,16.78-9.71A31,31,0,0,1,522,97.18a109.4,109.4,0,0,0,14.51-4.87L542,99l-10.9,2.8a19.8,19.8,0,0,1,5.32,9.1,17.91,17.91,0,0,1-3,15.9q-5.27,7-15.74,9.73a29.14,29.14,0,0,1-6.75,1c-1.42,2-2,3.33-1.83,4.09a2.07,2.07,0,0,0,1.48,1.52,14.19,14.19,0,0,0,4.06.34c2-.05,4.35-.16,7.05-.31q17.87-1.25,23.31.06t7,7.41a14.59,14.59,0,0,1-1.94,11.71Q543.62,173,525.7,177.62a57.17,57.17,0,0,1-18,1.73,16.63,16.63,0,0,1-8.12-2.75,10.82,10.82,0,0,1-4.47-6.45q-2.25-8.75,7.55-15.86-7-1.2-8-5a4.56,4.56,0,0,1,.25-3.51,19,19,0,0,1,5.53-6.25l1.32-1.15a15,15,0,0,1,1.24-1Q490.36,134.9,487.43,123.46ZM508.18,164a9,9,0,0,0,6.9,6.92,21.14,21.14,0,0,0,10.77.06,19.62,19.62,0,0,0,8.5-4.3,7,7,0,0,0,2.08-7.38c-.43-1.66-1-2.68-1.76-3.06s-1.26-.65-1.53-.82a4.2,4.2,0,0,0-1.37-.39c-.64-.11-1.14-.17-1.49-.2l-1.74-.07H520c-1,0-4.27.09-9.78.44Q506.77,158.55,508.18,164Zm-2.86-37.22a10,10,0,0,0,10.91,3.53c3.09-.8,5.09-1.84,6-3.15q2-4.3-.27-13.16-3.18-12.4-13.86-9.68a14,14,0,0,0-6.31,3.23,17.64,17.64,0,0,0-.36,10.73q1.47,5.84,3.89,8.54Z"/><path class="cls-2" d="M414.07,32.2C313.42,58.48,248.86,132,269.87,196.46s119.62,95.39,220.26,69.11,165.21-99.81,144.2-164.25S514.7,5.93,414.07,32.2Zm68.27,209.45c-88.26,23-174.21-2.45-192-56.94s42.66-110,130.91-133,170.94-4.89,188.7,49.6-39.36,117.3-127.61,140.34Z"/><path class="cls-3" d="M416.57,32.65C316.16,58.36,250.7,126.18,270.39,184.12s117,84.07,217.45,58.36S653.7,149,634,91,517,6.94,416.57,32.65Zm64,188.32c-88,22.55-172.92,1.11-189.56-47.88s41.25-107,129.31-129.53S593.2,42.45,609.84,91.44,568.59,198.43,480.53,221Z"/><path class="cls-3" d="M840.92,260.85,622.11,182.37c-19.23-6.61-40.75,2.46-47.81,20.17s2.88,37.6,22.11,44.21l208,72.89C825.34,319.55,856.18,266.24,840.92,260.85Z"/><ellipse class="cls-2" cx="826.24" cy="292.26" rx="34.66" ry="24.39" transform="translate(211.19 916.61) rotate(-64.91)"/><path class="cls-3" d="M595.3,236.82l-34.6-13.77c-4.58-1.83-26.19-5-22.75-8.39l53-33.13c3.44-3.41,9.94-4.69,14.52-2.87l43.27,17.23"/><path class="cls-1" d="M219,262.69l27.95-.18q27.78.24,41.19,11.49t13.19,34.48a61.41,61.41,0,0,1-5.42,25.64,41.42,41.42,0,0,1-15.32,17.77q-12.44,8.08-33.92,7.9H244l-25.84-.36-11-.1v-3.05q2.46-8.86,2.62-27.47l.38-35.81q.15-18.75-2.15-27.65V262.3Q214.19,262.65,219,262.69Zm11,42.44-.07,8.05q-.27,29.85.13,34.43,9.12.78,16,.83,17.55.15,24.33-3.68c6.32-6.42,11.89-18.68,12-35.06.12-13.6-4.92-22.42-10.44-28.16s-14.79-8.67-27.8-8.78H230.49q-.31,6.67-.52,32.37Z"/><path class="cls-1" d="M345.47,363.32q-12.21-.1-21.83-9.21t-9.48-24.45a39.38,39.38,0,0,1,10.48-26.84q10.35-11.51,26.65-11.37,13.74.12,20.42,8.93t6.54,24.21L372.86,330l-38.47-.33q0,10,5.27,15.45a17,17,0,0,0,12.59,5.53q7.38.06,22.33-7.45l3.46,5.31c-1.79,1.65-3.82,3.35-6.08,5.08a61.73,61.73,0,0,1-11.36,6.22A35.91,35.91,0,0,1,345.47,363.32Zm2.51-63a14.53,14.53,0,0,0-8.3,2,27.74,27.74,0,0,0-3.59,9.14,54.1,54.1,0,0,0-1.5,10.12l24.59-1.18q.18-20-11.2-20.09Z"/><path class="cls-1" d="M418.23,345.2c0,3.34.85,5,2.63,5q3.78,0,14.22-4.19l4.16,6.29a109.33,109.33,0,0,1-13.4,7q-7.75,3.48-13.52,3.43-12.36-.12-12.23-14.13l.38-44.15q-2.12,0-13.91.85l5.14-12.39a84.47,84.47,0,0,0,9,.78q-.24-6.39-.74-11.81l18.86-4.56-.12,16.38q5.61-.09,22.06-1.61l-5.6,14.25a116.59,116.59,0,0,0-16.56-1.67Z"/><path class="cls-1" d="M480.7,364.49q-12.21-.11-21.83-9.22t-9.48-24.44A39.37,39.37,0,0,1,459.88,304q10.35-11.5,26.64-11.36,13.75.12,20.42,8.92t6.54,24.21l-5.39,5.37-38.47-.33q0,10,5.27,15.46a17,17,0,0,0,12.59,5.52q7.38.06,22.33-7.44l3.46,5.3c-1.8,1.65-3.82,3.34-6.08,5.09A62.33,62.33,0,0,1,495.83,361,36.05,36.05,0,0,1,480.7,364.49Zm2.51-63a14.61,14.61,0,0,0-8.3,2,27.68,27.68,0,0,0-3.59,9.13,53.28,53.28,0,0,0-1.49,10.12l24.58-1.18q.18-20-11.2-20.08Z"/><path class="cls-1" d="M545.47,328.25q-.21,24.3,14.12,24.42,10.11.09,26.61-8.24l3.61,5.72a75.49,75.49,0,0,1-14.91,10q-9.21,4.94-15.7,4.85-15.87-.13-25-9.86t-9-25.49a33.78,33.78,0,0,1,11.88-26.13,38.81,38.81,0,0,1,26.77-10.26q15,.14,25.78,7.31a73.25,73.25,0,0,1-9.09,12.27q-11.31-8.7-21.7-8.79a24.57,24.57,0,0,0-4.77.38,24.42,24.42,0,0,0-6.13,9.66A40,40,0,0,0,545.47,328.25Z"/><path class="cls-1" d="M629.58,347q0,5,2.62,5,3.78,0,14.22-4.18l4.16,6.29a109.33,109.33,0,0,1-13.4,7q-7.75,3.48-13.52,3.42-12.35-.11-12.23-14.12l.38-44.15q-2.13,0-13.91.85l5.16-12.45a87.15,87.15,0,0,0,9,.77q-.22-6.37-.74-11.8l18.86-4.56L630,295.45q5.61-.09,22.06-1.61l-5.6,14.25A116.45,116.45,0,0,0,630,306.42Z"/><path class="cls-1" d="M687.9,309.07l-.2,29.71q-.12,13.19,3.88,21.83v3.05L667,363.45V360.4q2.43-7.06,2.55-18.72l.17-20.55a29.79,29.79,0,0,0-2.28-12.72q-2.34-5.09-6-7.07v-3l25.74-4.5,1.66,2.79Q688,299.77,687.9,309.07Zm-2.28-45c.84.75,1.41,2.32,1.72,4.73a47,47,0,0,1,.44,5.56,19.22,19.22,0,0,1-.31,3.47l-1.27,1.1A79,79,0,0,1,670,281.29l-1.53-.71a16.35,16.35,0,0,1-1.71-6,44.6,44.6,0,0,1-.58-5.76v-2.15l1.27-1.1a47.14,47.14,0,0,1,15-2.37h1.54Z"/><path class="cls-1" d="M722.28,297q0,3.33,5.57,20.87l8.36,24.51L746,312.61a45.36,45.36,0,0,0,2.68-14.26v-1.67l20.08.17v3.06q-4.11,2.59-8.12,13.53l-16.39,44.43-2,7.2-17.14.41-2.45-8.08-16.33-45a38,38,0,0,0-4-7.95c-1.68-2.51-3.07-4-4.18-4.48v-3.05l24.17-1.6Z"/><path class="cls-1" d="M804.15,365.37q-12.24-.11-21.83-9.21t-9.48-24.45a39.38,39.38,0,0,1,10.48-26.84q10.35-11.5,26.64-11.37,13.77.12,20.43,8.93t6.53,24.21L831.54,332l-38.48-.33q.06,10,5.28,15.45a17,17,0,0,0,12.59,5.53q7.37.06,22.32-7.45l3.47,5.31c-1.8,1.65-3.82,3.34-6.08,5.08a61.73,61.73,0,0,1-11.36,6.22A35.93,35.93,0,0,1,804.15,365.37Zm2.51-63a14.56,14.56,0,0,0-8.31,2,21,21,0,0,0-3.58,9.14c-2.12,16.75-1.38,7.16-1.5,10.12l24.59-1.18q.18-20-11.16-20.09Z"/><path class="cls-2" d="M586.78,232.67c1.41-22.25,50-45,50-45.12-2.19-6.53-6.86-8.46-16-12.07-23.21-9.17-51.72,17.77-56.93,42.18C559.43,238.35,574,243.07,590.31,245a.16.16,0,0,0,.17-.15.29.29,0,0,0,0-.09C588.46,241.71,586.45,237.77,586.78,232.67Z"/></g><path d="M881,60l25.43,21-3.75,23.4-28,19.11a10.79,10.79,0,0,1-6.07,1.87H850.94a3.33,3.33,0,0,1-.7-.07l-13.1-3a10.16,10.16,0,0,1-6.51-4.7l-21-34.94L826.45,57.2l31.61-2.45C862.39,54.83,872.62,57.2,881,60Z"/><path d="M846.06,59.05,826.45,57.2l8.47-12.69a14.22,14.22,0,0,1,1.41-1.79l12.55-13.47,10.19,14.47a11.93,11.93,0,0,1,1.52,2.92l5.08,14.27Z"/><path d="M890.22,71.28l-15-13.07,17.68-8.88a13.59,13.59,0,0,1,3.66-1.22L913,45.2,914.07,62a11.07,11.07,0,0,1-1,5.32l-7.88,17Z"/><polygon class="cls-4" points="871.27 132.68 829.44 129.21 832.9 119.95 871.98 125.06 871.27 132.68"/><line class="cls-5" x1="885.94" y1="162.71" x2="876.43" y2="216.08"/><path d="M874.49,223.89c0,.21.18.39.46.38,2.07-.12,8.52.69,29.71,5.36.36.08-4.42-9.8-4.58-10-3.94-6.41-6.22-25.55-14-57.78Z"/><path class="cls-6" d="M892.91,216.18a23.4,23.4,0,1,1-8.26-1.5,23.39,23.39,0,0,1,8.26,1.5"/><rect class="cls-6" x="804.45" y="254.2" width="38.3" height="12.24" rx="5.54" transform="translate(23.28 585.25) rotate(-39.64)"/><path class="cls-6" d="M876,218.59c-9,1.27-18.31,2.54-19.67,2.56L856.08,263h0c4.49,3-37.66-.09-37.73-2.36-2.06-.5-9.4-.7-10.72-3.47a11,11,0,0,1-.78-2.77,7.76,7.76,0,0,1-.08-1.8l.82-11.62a7.53,7.53,0,0,1,.29-1.63c1-3.49,5-17.26,4.9-17.63L815,194a8.07,8.07,0,0,0-.08-1.9l-4.41-27c-.42-2.52-.19-6.47,1.55-8.42a8.47,8.47,0,0,0,1-1.31l15.54-26.14h0c2.62-2,20.78,1.49,24.72,2.28a8,8,0,0,0,1.54.15l11.66,1,4.8-.37,12.52,28.77a10.1,10.1,0,0,1,.35,2.48"/><path class="cls-6" d="M886.22,261.45l-37.69,15.76a5.37,5.37,0,0,1-7.52-1l-.93-1.19a5.4,5.4,0,0,1,1-7.53l25.82-19.94a5.37,5.37,0,0,1,7.52,1l.93,1.2C877.12,252.08,888.56,259.64,886.22,261.45Z"/><path d="M843.44,130.42l28.08,1.9L886.1,161.8l-28.82,21.67c-10.33-4.11-15.58-1.6-21.47,1.5l-12.75,6.72L810.3,158.24s13.58-25.24,19.14-30.86Z"/><path d="M827.3,274.84h-5.92c-3,0-6.47-2.73-6.47-5.68l5.42-13.47-10.45-90.88c0-2.95,9.89.23,12.84.23h8.63c2.95,0,5.7-1.46,5.7,1.49l-3.24,59.62-2.19,42C831.62,271.06,830.25,274.84,827.3,274.84Z"/><path d="M876.46,216.08l-8.65,48.11,5.09,7c0,3-1.89,5.51-4.21,5.51h-6.77c-2.31,0-4.21-2.48-4.21-5.51l-2.5-12.86,2.5-97.32c0-3,1.9-5.51,4.21-5.51h6.77a26.15,26.15,0,0,1,17.53,6.32l-.16.91"/><polygon class="cls-7" points="817.69 270.64 819.53 271.28 817.88 273.08 816.22 274.89 816.04 272.45 815.85 270.01 817.69 270.64"/><polygon class="cls-7" points="808.2 267.74 808.77 269.04 806.75 269.14 804.74 269.24 806.19 267.84 807.63 266.44 808.2 267.74"/><polygon class="cls-7" points="809.56 270.76 810.51 272.05 808.47 272.57 806.42 273.09 807.51 271.29 808.6 269.48 809.56 270.76"/><polygon class="cls-7" points="812.08 273.64 813.3 274.78 811.43 275.56 809.56 276.35 810.21 274.43 810.87 272.51 812.08 273.64"/><polygon class="cls-7" points="821.63 272.7 823.47 273.33 821.77 275.26 820.08 277.19 819.93 274.63 819.79 272.06 821.63 272.7"/><polygon class="cls-7" points="826.18 273.01 828.12 273.15 826.95 275.83 825.77 278.5 825.01 275.68 824.24 272.86 826.18 273.01"/><polygon class="cls-7" points="870.68 272.31 872.52 271.69 872.56 274.84 872.59 277.99 870.72 275.46 868.84 272.93 870.68 272.31"/><polygon class="cls-7" points="866.85 274.68 868.69 274.06 868.65 276.98 868.6 279.9 866.8 277.6 865 275.3 866.85 274.68"/><polygon class="cls-7" points="861.92 274.76 863.85 274.6 863.12 277.42 862.38 280.25 861.18 277.58 859.98 274.92 861.92 274.76"/><polygon class="cls-7" points="840.58 270.19 841.57 271.64 839.36 272.08 837.15 272.51 838.38 270.62 839.6 268.73 840.58 270.19"/><polygon class="cls-7" points="841.78 273.56 842.75 274.99 840.46 275.49 838.17 275.99 839.49 274.06 840.81 272.12 841.78 273.56"/><polygon class="cls-7" points="844.51 276.3 845.77 277.55 843.52 278.56 841.27 279.56 842.26 277.3 843.25 275.05 844.51 276.3"/><path d="M904.66,250.17s19,1.05,30.13-13.38c.41-.43,15-20.8,15-20.8s8.22-8.49-2.88-29.92c.59,0-8.28-10.4-21-13.27-1.37-.31-4.67-5.07-5.29-6.36-2.15-4.48,6.26-22,6.26-22-.2.8-9.4,1.29-13.89,16.36.23.21-3.55,11,5,19.34a3.54,3.54,0,0,0,2.54,1c3.74-.06,11.3.14,17.93,11.05.2.85,10.37,11.19-.11,26.93.42.23-6.26,10.63-12.63,15.09-1,.11-12.39,8.7-18.12,8.49C907.29,243,904.66,250.17,904.66,250.17Z"/><path class="cls-8" d="M852.87,92.17c0,3.22.2,6.66,2.59,9.09a1.5,1.5,0,0,0,2.12,0,1.53,1.53,0,0,0,0-2.12c-.12-.12-.24-.25-.35-.38h0a.91.91,0,0,1-.11-.16,5.77,5.77,0,0,1-.49-.84s-.18-.42-.06-.11l-.18-.49c-.09-.29-.17-.58-.24-.88s-.07-.31-.1-.47-.08-.55,0-.28c0-.36-.07-.71-.09-1.07,0-.76,0-1.52,0-2.29a1.5,1.5,0,1,0-3,0Z"/><path class="cls-8" d="M852.73,91.53a5.81,5.81,0,0,1-.62,1.08c.09-.13,0-.06,0,0s-.15.17-.23.26l-.44.45q-.45.43-.93.84l-.22.18-.18.15-.13.09-.29.21a11.35,11.35,0,0,1-1,.62l-.56.28c-.39.19.14,0-.09,0l-.26.1a6.86,6.86,0,0,1-1.18.32c-.07,0-.38,0-.08,0l-.27,0c-.23,0-.46,0-.69,0a1.51,1.51,0,0,0-1.5,1.5,1.54,1.54,0,0,0,1.5,1.5,9.6,9.6,0,0,0,5.66-1.82,11.37,11.37,0,0,0,4.14-4.35,1.57,1.57,0,0,0-.54-2.06,1.51,1.51,0,0,0-2,.54Z"/><path class="cls-9" d="M843.43,70.11a19.75,19.75,0,0,1,2.36.78l5.67,2.28a1,1,0,0,1,.77,1L851.91,76C851,81.3,845.2,84.73,839,83.65h0c-5.91-1-10-6-9.09-11.05l.39-2.27a1,1,0,0,1,1-.68l6.47-.19a19.2,19.2,0,0,1,3.22.17"/><path class="cls-9" d="M877.63,90.85h0c-5.91-1-10-6-9.09-11l.39-2.27a1,1,0,0,1,1-.68l6.47-.19a19.9,19.9,0,0,1,8,1.43l5.67,2.28a1,1,0,0,1,.77,1l-.32,1.82C889.61,88.5,883.83,91.93,877.63,90.85Z"/><path class="cls-10" d="M841,69.63c-.13.67-.25,1.55-.37,2.28-.83,5.11-.95,9.34-.27,9.45s1.91-3.94,2.74-9c.1-.65.24-1.59.32-2.2A11.83,11.83,0,0,0,841,69.63Z"/><path class="cls-10" d="M883.38,77.74c-.15.74-.29,1.5-.42,2.3-.81,5-.92,9.13-.24,9.24s1.89-3.85,2.71-8.84c.11-.67.2-1.33.29-2A22.62,22.62,0,0,0,883.38,77.74Z"/><path class="cls-8" d="M855.16,87.78l3.22.79a.35.35,0,0,1,.13.61l-2,1.6-2.22,1.77a.35.35,0,0,1-.53-.13l-1.17-2.59-1.05-2.34a.35.35,0,0,1,.4-.49Z"/><polygon class="cls-11" points="841.55 55.28 836.36 57.84 839.66 50.73 848.09 42.42 851.5 48.98 851.5 53.53 841.55 55.28"/><polygon class="cls-11" points="899.51 68.04 903.93 72.24 904.8 65.24 904.8 57.84 897.36 61.94 894.22 65.68 899.51 68.04"/><path class="cls-8" d="M823.46,73.2a83.6,83.6,0,0,0-22.32-7.26c-1.89-.33-2.7,2.56-.8,2.89a81.36,81.36,0,0,1,21.61,7c1.73.84,3.25-1.75,1.51-2.59Z"/><path class="cls-8" d="M821.33,81.51A57.31,57.31,0,0,0,808,80.08c-4.32-.11-8.61,0-12.61,1.78-1.76.79-.23,3.38,1.51,2.59,3.6-1.63,7.69-1.46,11.55-1.36a52.07,52.07,0,0,1,12.13,1.32,1.51,1.51,0,0,0,.8-2.9Z"/><path class="cls-8" d="M822.28,89a41.1,41.1,0,0,0-6,2.23,60.84,60.84,0,0,1-6.18,2.12c-4,1.21-8,2.58-11.14,5.4-1.44,1.29.68,3.41,2.12,2.13,3-2.66,6.9-3.75,10.63-4.88a57.93,57.93,0,0,0,5.72-2,38.58,38.58,0,0,1,5.61-2.09c1.87-.47,1.08-3.36-.8-2.89Z"/><path class="cls-8" d="M889.56,94.67a46.09,46.09,0,0,1,7.59-.71,45.09,45.09,0,0,1,7.41.93c4.46.83,9,1.67,12.91,4.12,1.64,1,3.14-1.57,1.51-2.59-4.26-2.68-9.22-3.61-14.09-4.51a45.53,45.53,0,0,0-8-1,51.75,51.75,0,0,0-8.15.82c-1.91.29-1.1,3.18.79,2.89Z"/><path class="cls-8" d="M885.35,102.5a84.81,84.81,0,0,1,10,4.18,9.39,9.39,0,0,1,3.48,2.76,25.41,25.41,0,0,1,2.27,4.16,1.52,1.52,0,0,0,2.05.54,1.54,1.54,0,0,0,.54-2,25,25,0,0,0-2.43-4.38,11.93,11.93,0,0,0-4.14-3.49,84.35,84.35,0,0,0-11-4.61c-1.82-.65-2.61,2.25-.8,2.89Z"/><path class="cls-8" d="M877.48,108.36c3.66,4.13,7.74,8.73,8,14.52.11,1.92,3.11,1.93,3,0-.36-6.68-4.69-11.86-8.93-16.64-1.28-1.44-3.39.68-2.12,2.12Z"/><polygon class="cls-11" points="819.79 155.77 832.73 154.81 819.79 164.98 814.56 166.5 810.32 168.63 809.67 161.26 810.3 158.25 819.79 155.77"/><polygon class="cls-11" points="870.11 156.76 857.16 155.8 869.67 165.63 874.78 167.2 879.58 169.62 880.23 162.25 879.6 159.23 870.11 156.76"/><polygon class="cls-11" points="821.28 169.59 830.83 170.17 821.27 178.8 816.43 179.91 811.81 182.45 811.15 175.08 810.75 172.34 821.28 169.59"/><polygon class="cls-11" points="869.36 170.56 859.81 171.14 869.36 179.77 874.21 180.87 878.83 183.41 879.48 176.05 879.89 173.3 869.36 170.56"/><polygon class="cls-11" points="868.42 61.69 868.73 66.49 872.7 62.06 873.79 59.88 874.61 57.84 870.92 56.86 870.17 56.8 868.42 61.69"/><polygon class="cls-11" points="862.71 60.7 863.02 65.5 866.99 61.07 867.78 58.6 868.04 56.38 865.21 55.87 863.93 55.55 862.71 60.7"/><polygon class="cls-11" points="868.21 184.46 858.66 185.04 868.21 193.67 872.68 194.54 877.68 197.32 878.33 189.95 878.74 187.2 868.21 184.46"/><polygon class="cls-11" points="886.49 204.57 879.3 207.19 889 211.78 892.67 211.45 897.27 212.49 895.77 206.57 895.33 204.33 886.49 204.57"/><polygon class="cls-11" points="884.68 195.88 877.5 198.5 887.19 203.1 890.87 202.76 895.47 203.81 893.96 197.89 893.52 195.64 884.68 195.88"/><polygon class="cls-11" points="822.76 183.41 832.31 184 822.76 192.63 818.18 193.84 813.29 196.27 812.63 188.91 812.3 186.64 822.76 183.41"/><path class="cls-12" d="M852.56,139.83c-.3,3.22-2.55,5.64-5,5.41s-4.24-3-3.94-6.25,5.28-8.13,5.28-8.13S852.86,136.6,852.56,139.83Z"/><path class="cls-13" d="M844.58,139.6c0,5.85,3.91,4.82,3.91,4.82l-1.27-.9-.45-.37a4.49,4.49,0,0,1-1-1.05Z"/><g id="Layer_3" data-name="Layer 3"><circle class="cls-14" cx="28.79" cy="449.71" r="13.77"/><circle class="cls-15" cx="28.35" cy="447" r="7.97"/><path class="cls-16" d="M196.94,368.44c7.09-1.14,13.17,1,14.11,6.82s-8.21,16.09-15.29,17.23-1.36-.29-2.3-6.08S189.85,369.59,196.94,368.44Z"/><ellipse class="cls-17" cx="47.61" cy="366.86" rx="5.83" ry="7.49" transform="translate(-57.91 12.29) rotate(-9.18)"/><path class="cls-18" d="M133,460.86c7.43-2.3,24.45-4.91,25.72,4.35s-12,5.65-18,6.43-22.14,5.35-23.54-4.27S124.21,463.58,133,460.86Z"/><path class="cls-19" d="M82.3,341.77c-4.25-12.09-1.85-10.2-4-24.8s12.5-37.92,28.86-41.4,22.16-3.24,39.19-6.19,43,24.4,45.8,38.62c2.47,12.43,1.12,13.88,2.16,22a21.44,21.44,0,0,1-.45,7.9c-2.65,10.72-3.31,19.85-18.14,22.39-16.61,2.84-34.28,6-52.54,7.46C109.31,368.65,86.56,353.86,82.3,341.77Z"/><path class="cls-20" d="M181.34,451.44c-7.88-20.77-4.73-41.93-10.52-63.83-1.06-4,.61-9.18,5.12-11.17a28.34,28.34,0,0,1,8.21-2c4.84-.52,9.55,2.1,10.83,6.66,7,25.15-1.21,49.67,5,70.69,1.13,3.81,8.09,7.5,4.31,10.95-2.09,1.91-6.59,2.62-9.74,2.62C188.83,465.39,182.77,455.21,181.34,451.44Z"/><path class="cls-19" d="M81,347.63c45-15.38,101.48-20.46,114.05,29.26s-23.82,68.67-53,80.72S39.69,489.79,28.58,445.81,36,363,81,347.63Z"/><path class="cls-21" d="M176.28,304c-4.67-4-8-13.24-9.34-19.62,1.6-4.15,2.43-3.7,7.43-5.28s13.84-.58,19.57.76c4.74,2.62,6.41,8,6.25,13.2A47.28,47.28,0,0,0,202.3,309c1.2,2.37,7.49,4.32,5.15,5.78-2.54,3.87-7.13,3.33-12.87.85C191.72,314.38,181,308,176.28,304Z"/><path class="cls-21" d="M90.36,314.94c3.73-4.12,10.64-12.46,14-17.91-.39-4.35-.69-4-4.89-7.22s-13.19-3.92-19.13-3.62c-6.42,1.92-9.69,9.12-10.73,15.29s1.33,12.22.65,18.27c-.58,2.38-5.8,6.24-3.61,7.1,2.51,3.44,6.76,1.93,11.34-.79C80.26,324.69,86.64,319.06,90.36,314.94Z"/><path class="cls-22" d="M123.51,461.63c-9.19-33.51-7.75-33.39-7.62-67.57,0-6.2,3.36-8.87,7.91-9.9,2.51-.56,10.42-2.39,12.92-2.09,4.55.57,11.75,10.24,11.81,15.84.33,30.88-9.57,31.69-6.54,61.71.52,5.44,2.91,15.8-1.23,16.88-2.3.6-7.29,1.77-10.47-.42C126.6,473.52,125.16,467.66,123.51,461.63Z"/><path class="cls-23" d="M33.25,441.41c-.31-20.36,12.07-40.27,32.87-38.41S98.21,422.5,100,439c1,8.76,5.46,17,5.88,23.72,7.64.61,15.11,2.73,15.81,8.41,1.22,9.72-16.7,5.25-22.79,6a105,105,0,0,1-22.56.51c-10.73.66-21.48-.2-31-4C37.46,470.53,33.37,451.59,33.25,441.41Z"/><path class="cls-21" d="M139.71,338.36c-10.81,2.31-10.72,7.08-9.43,13.1s5.07,8.08,15.87,5.78,9.65-7.9,8.36-13.93S150.52,336.06,139.71,338.36Z"/><path class="cls-24" d="M142.53,344.38c2.62-.44,4-1.58,4.69,2.79s-.79,8.29-3.41,8.72-5.36-2.75-6.06-7.13S139.91,344.82,142.53,344.38Z"/><line class="cls-25" x1="142.99" y1="351.09" x2="142.15" y2="345.58"/><path class="cls-26" d="M124.12,336.57c7.16-4.89,13.33-6.15,17.33-4,3.42-2.16,9-2.45,16-.51,10.65,2.93,16.23,5.71,14.62,11.65s-4.13,13.07-14.78,10.17a39.17,39.17,0,0,1-15-7.83,40.44,40.44,0,0,1-10.94,11.07c-9.11,6.23-13.82.28-17.28-4.8S115,342.78,124.12,336.57Z"/><path class="cls-27" d="M145.19,328.58c1.71.69,1.57,2.6,1.27,4.06-1.18,1.28-3.51,3.33-5.25,3.49a12.77,12.77,0,0,1-6.66-1.53c-.55-1.36-1.58-2.58-.38-3.94s4.33-2,6-2.24A9.51,9.51,0,0,1,145.19,328.58Z"/><circle class="cls-1" cx="160.32" cy="318.77" r="12.01"/><circle cx="163.23" cy="318.34" r="7.68"/><circle class="cls-1" cx="115.51" cy="326.01" r="12.01"/><circle cx="118.17" cy="325.58" r="7.67"/><circle cx="167.24" cy="346.85" r="0.55"/><circle cx="160.49" cy="351.63" r="0.34"/><circle cx="161.28" cy="346.95" r="0.66"/><circle cx="128.92" cy="352.74" r="0.55"/><circle cx="122.89" cy="356.15" r="0.34"/><circle cx="119.13" cy="352.56" r="0.42"/><path class="cls-28" d="M116.34,302l-5.48,3.62a2.36,2.36,0,0,0-1.12,1.23c-.28,1.12,1.14,1.91,2.3,2,3.21.17,6.11-1.76,8.65-3.72,1.09-.84,2.29-2.17,1.71-3.4a2.06,2.06,0,0,0-1.75-1.12,5.21,5.21,0,0,0-2.1.38,23.84,23.84,0,0,0-8.81,5.85"/><path class="cls-28" d="M155.77,296.3a19.75,19.75,0,0,0-6.27-.5,1.71,1.71,0,0,0-.88.24c-.77.52-.35,1.76.31,2.41,1.34,1.31,3.27,1.77,5.1,2.18,2.74.62,5.69,1.2,8.27.12.32-.13.66-.34.71-.68a1,1,0,0,0-.17-.63c-1.23-2.2-3.94-3-6.43-3.4a33.43,33.43,0,0,0-4.68-.38"/></g><g id="Layer_4" data-name="Layer 4"><path class="cls-21" d="M173.31,360.69c13.12-2.12,11.56-9.63,21.93,1.44,3.37,3.58,15.4,5.33,15.79,12.4.54,10-14.86,17.9-22.58,19.15-13.13,2.12-26.58-5.48-28.49-17.25S160.18,362.81,173.31,360.69Z"/><path class="cls-21" d="M74,347c4.14-.49,8.33-4.5,10-1.62,4.24,7.1,13.58,14.55,21.92,20.3,6.19,4.24,18.41,1.32,24.85,1.88,18.9,1.63,24.63-5,28.62,5.24,1.89,4.9,4.45,14.12-2.54,21.08-10.46,10.41-27.77,13.49-45.91,12.32-30.26-1.94-69.52-29-68.68-42.15C42.69,357.28,61.47,348.48,74,347Z"/><path class="cls-29" d="M181.73,369.11c1.29,4,2.84,8.13-3.39,10.17-2.84.93-10.83-2.86-12.9-3.67s-3.25-1.18-3.95-3.32c-.56-1.71-.86-1,.39-2.16a20.48,20.48,0,0,1,7.55-4.89C175.66,363.19,180.43,365.15,181.73,369.11Z"/><path class="cls-29" d="M140.66,378.17c.61,3.78,1.09,7.86,7.05,6.9,2.73-.44,7.6-6.85,9-8.47s2.17-2.35,1.83-4.4c-.26-1.63.27-1.18-1.23-1.6a19.35,19.35,0,0,0-8.25-.81C143.1,370.75,140,374.39,140.66,378.17Z"/><path class="cls-27" d="M129.2,252.57c10.28-1.66,22,8.27,23.66,18.57.86,5.33-1.07,7.41-4.59,8.41-3.27.93-7.88.92-12.84,1.72-5.16.83-10.5,2.52-14.69,2.67s-7.29-1.15-8.12-6.3C111,267.35,118.91,254.23,129.2,252.57Z"/><path class="cls-30" d="M120.73,283.94c4.22-.16,9.54-1.84,14.69-2.67,4.45-.72,8.62-.78,11.81-1.47.36-.07.7-.16,1-.25,0,0,0,.07,0,.11.72,4.46-4.87,9.06-12.47,10.28s-14.35-1.38-15.07-5.83C120.74,284.06,120.73,284,120.73,283.94Z"/><path class="cls-31" d="M135.52,242.72c2.15.92.71,3.34-.72,6.72a4.48,4.48,0,0,1-2.5,2.55c-1.16.62-1.7.93-2.86.46-.92-.39-.74,0-.76-1a11.41,11.41,0,0,1,.73-5C130.83,243.14,133.37,241.79,135.52,242.72Z"/><path class="cls-31" d="M116.31,250.07c-1.11,2,3.47,2.41,6.69,4.15,1.47.8,2.37-.09,3.65-.33s1-.16,1.64-1.27c.47-.88.57-.48,0-1.23a6.85,6.85,0,0,0-2.88-2.45C122.19,247.2,117.42,248,116.31,250.07Z"/><path class="cls-30" d="M141.58,265.66c-3.1-6.94-11.43-12.91-10.05-13.13,1.89-.3,16.09,8.51,17.5,17.23s3.07,8.08,1.31,8.92a10.53,10.53,0,0,1-2.48,1c-1.11.26-.33.25-1.59.34-.3,0-.64.37-.83.13-.75-.92-.64-4-1-6.11A37.65,37.65,0,0,0,141.58,265.66Z"/><path class="cls-30" d="M122.68,268.75c.77-7.57,7-16.32,5.6-16.1-1.91.31-12.74,13.58-11.33,22.3s-.37,8.64,1.57,8.88a10.78,10.78,0,0,0,2.66.13c1.13-.1.39.13,1.62-.18,1.42-.36.24-3.55-.19-6.25A38.06,38.06,0,0,1,122.68,268.75Z"/><path class="cls-30" d="M130.46,268.88c-1.14-7.53-3-16-1.64-16.24,1.91-.31,9.36,10.48,10.77,19.21s3.19,8.7,1.43,9.54c-.64.3-1.74-.29-2.94,0s-5.38,1.12-6.64,1.21c-1.49.1-.46-1.69-.71-4.41S131,272.91,130.46,268.88Z"/><path class="cls-30" d="M115.92,263.12c1-.52,3.17.16,6.17.58,3.56.49,5.45.95,8.83.41s8-2.21,10-4.39c3-3.25,2.52-3.41,4.89-1,1.15,1.17-.9,3.34-3,4.86a28.6,28.6,0,0,1-11.6,4.27,32,32,0,0,1-10,.13c-2.38-.4-5.57-.64-6.51-1.45-.57-.46,0-1.18.33-2C115.22,263.93,115.51,263.31,115.92,263.12Z"/><path class="cls-30" d="M140.22,255.79a9.61,9.61,0,0,1-2.38,2.78,15.27,15.27,0,0,1-7.75,3.23,30.14,30.14,0,0,1-7.34-.48c-1.31-.33-3.58-.83-4.36-1.55-.35-.33,0-.44.48-1.13s1-1.16,1.4-.94a17.71,17.71,0,0,0,3.34.75c1.61.37,4.42.07,6.41-.06s5.34-.82,6.33-2.3a12.48,12.48,0,0,1,1.78-2.06c.3-.35.84,0,1.85.53.46.25,1.19.38.7.74"/><path class="cls-30" d="M112.64,271.57c.39-1.6,4.55-.06,8.55.51,4.49.64,6.91,1,11.22.33,4.15-.67,10.24-2.62,12.77-5.41,3.76-4.17,4.07-5.12,5.81-1.2,0,.11.76,1.32.78,1.43.61,2-1.66,2.84-4.24,4.68-3.38,2.41-8.66,4.45-14.78,5.44a41.07,41.07,0,0,1-12.81.18c-3.4-.58-7.29-1.16-7.5-2a5.27,5.27,0,0,1,0-2A12,12,0,0,1,112.64,271.57Z"/><circle class="cls-32" cx="160.23" cy="373.38" r="4.46"/></g></svg>