<svg xmlns="http://www.w3.org/2000/svg" width="107.22" height="280.27" viewBox="0 0 107.22 280.27"><defs><style>.cls-1{fill:#0d0811;}.cls-2{fill:#ed4059;}.cls-3{fill:#fff;}.cls-4{fill:#b7aeae;}</style></defs><g id="Ui_and_character" data-name="Ui and character"><path class="cls-1" d="M95.65,36.28c-1.18-6.51-4.16-14-8.93-18-9.16-8.86-26.27-8.42-34.64,1.55C34.3,1.2,6.24,17.4,8.59,41.94c4.5,21.79,24,37.32,43.41,46.68,10.76-6,22.56-11.53,30.43-21.79C88.87,58.23,97.29,47.1,95.65,36.28Z"/><path class="cls-2" d="M99.77,34.59c-1.19-6.52-4.17-14-8.94-18.05C81.67,7.68,64.56,8.12,56.19,18.1,38.41-.49,10.35,15.7,12.7,40.24c4.5,21.8,24,37.33,43.41,46.68,10.77-6,22.57-11.53,30.44-21.79C93,56.54,101.4,45.4,99.77,34.59Z"/><path class="cls-3" d="M24.27,26.48c-1.32-1.64.53-5.32,4.13-8.24s7.6-4,8.92-2.33S32.65,17.53,29,20.44,25.59,28.11,24.27,26.48Z"/><path class="cls-1" d="M95.65,124.12c-1.18-6.52-4.16-14-8.93-18.05-9.16-8.86-26.27-8.42-34.64,1.56C34.3,89,6.24,105.23,8.59,129.77c4.5,21.8,24,37.33,43.41,46.68,10.76-6,22.56-11.53,30.43-21.79C88.87,146.07,97.29,134.93,95.65,124.12Z"/><path class="cls-2" d="M99.77,122.42c-1.19-6.51-4.17-14-8.94-18-9.16-8.85-26.27-8.41-34.64,1.56-17.78-18.59-45.84-2.39-43.49,22.15,4.5,21.79,24,37.32,43.41,46.68,10.77-6,22.57-11.53,30.44-21.79C93,144.37,101.4,133.24,99.77,122.42Z"/><path class="cls-3" d="M24.27,114.31c-1.32-1.63.53-5.32,4.13-8.23s7.6-4,8.92-2.33-4.67,1.61-8.28,4.53S25.59,115.94,24.27,114.31Z"/><path class="cls-1" d="M98.33,213.4c-1.2-6.6-4.23-14.15-9.06-18.3-9.3-9-26.65-8.54-35.13,1.58-18-18.86-46.5-2.43-44.12,22.46,4.57,22.1,24.38,37.86,44,47.34,10.92-6,22.89-11.69,30.87-22.1C91.44,235.67,100,224.37,98.33,213.4Z"/><path class="cls-4" d="M100.73,213.4c-1.2-6.6-4.23-14.15-9.06-18.3-9.29-9-26.64-8.54-35.13,1.58-18-18.86-46.49-2.43-44.11,22.46,4.56,22.1,24.38,37.86,44,47.34,10.91-6,22.88-11.69,30.86-22.1C93.85,235.67,102.39,224.37,100.73,213.4Z"/></g></svg>