<svg id="Layer_1" data-name="Layer 1" xmlns="http://www.w3.org/2000/svg" xmlns:xlink="http://www.w3.org/1999/xlink" width="347.5" height="379.2" viewBox="0 0 347.5 379.2"><defs><style>.cls-1{fill:#bd9568;}.cls-2{fill:#af8a60;}.cls-3{fill:#5c3c11;}.cls-4{fill:#422505;}.cls-5{fill:#775430;}.cls-6{fill:#c69c6d;}.cls-7{fill:url(#linear-gradient);}.cls-8{fill:#4f2e0c;}.cls-9{fill:url(#linear-gradient-2);}.cls-10{fill:url(#linear-gradient-3);}.cls-11{fill:#e0a39a;}.cls-12,.cls-20{fill:none;}.cls-12{stroke:#d2948b;stroke-linecap:round;stroke-linejoin:round;}.cls-13{fill:url(#linear-gradient-4);}.cls-14{fill:#603813;}.cls-15{fill:#8c6239;}.cls-16{fill:#db9b0e;}.cls-17{fill:#f9d128;}.cls-18{fill:#b0471b;}.cls-19{fill:#42210b;}.cls-20{stroke:#42210b;stroke-miterlimit:10;stroke-width:3px;}.cls-21{fill:#83370f;}</style><linearGradient id="linear-gradient" x1="60.73" y1="341.98" x2="57.6" y2="226.68" gradientUnits="userSpaceOnUse"><stop offset="0.12" stop-color="#775430"/><stop offset="0.23" stop-color="#8b653f"/><stop offset="0.35" stop-color="#9a724a"/><stop offset="0.49" stop-color="#a37a50"/><stop offset="0.71" stop-color="#a67c52"/></linearGradient><linearGradient id="linear-gradient-2" x1="146.31" y1="354.88" x2="139.52" y2="224.44" gradientUnits="userSpaceOnUse"><stop offset="0.12" stop-color="#775430"/><stop offset="0.16" stop-color="#805d37"/><stop offset="0.3" stop-color="#9f784f"/><stop offset="0.45" stop-color="#b48c5f"/><stop offset="0.58" stop-color="#c2986a"/><stop offset="0.71" stop-color="#c69c6d"/></linearGradient><linearGradient id="linear-gradient-3" x1="240.8" y1="366.75" x2="228.8" y2="263.44" gradientUnits="userSpaceOnUse"><stop offset="0" stop-color="#775430"/><stop offset="0.22" stop-color="#89643e"/><stop offset="1" stop-color="#c69c6d"/></linearGradient><linearGradient id="linear-gradient-4" x1="109.58" y1="185.96" x2="110.11" y2="141.36" gradientUnits="userSpaceOnUse"><stop offset="0" stop-color="#42210b"/><stop offset="0.14" stop-color="#4c2910"/><stop offset="0.38" stop-color="#66401d"/><stop offset="0.49" stop-color="#754c24"/><stop offset="0.64" stop-color="#7f562e"/><stop offset="0.9" stop-color="#9b7147"/><stop offset="0.99" stop-color="#a67c52"/></linearGradient></defs><circle class="cls-1" cx="307.76" cy="300.18" r="21.13"/><circle class="cls-2" cx="307.76" cy="295.98" r="12.23"/><path class="cls-3" d="M42.87,244.62c0,9,9,9.78-2,9.78S13.52,241.08,13.52,232s8.68-13.79,19.69-13.79S42.87,235.57,42.87,244.62Z"/><ellipse class="cls-4" cx="258.99" cy="179.32" rx="8.95" ry="11.49"/><path class="cls-5" d="M178.23,348.57c.24,14.92-25.29,11.91-34.6,12.21s-28.49,9-28.83-5.32,26.05-14.56,37.87-12.89C166.64,344.55,178,333.64,178.23,348.57Z"/><path class="cls-6" d="M144.75,199.32c-28,2.29-55.54,1.8-81.4,1.57C40.26,200.68,37,187,30.4,171.41a33.29,33.29,0,0,1-2.62-11.84C27.37,147,25,145.14,25.67,125.72c.74-22.22,33.42-70,59.93-69.7s35.23-1.49,60.87-.23,53.52,33,53.84,55.65,3.49,19.19,0,38.53S166,197.3,144.75,199.32Z"/><path class="cls-7" d="M60.56,364.47c-4.78.76-11.77.8-15.4-1.58-6.56-4.31,3.08-11.6,3.85-17.65,4.25-33.36-14.25-68.46-9.73-108.28.81-7.22,7.3-12.34,14.77-12.74a44.27,44.27,0,0,1,12.93,1c7.3,1.92,11.1,9.39,10.48,15.67-3.42,34.6,6.53,65.86-.31,99.26C75.91,346.19,69.21,363.1,60.56,364.47Z"/><path class="cls-6" d="M307.13,294.22c-6.06,69.34-121.83,56.69-169,45.64s-106.86-30.95-100-109.28,93.62-84.49,165.57-72.22S313.18,224.88,307.13,294.22Z"/><path class="cls-8" d="M23.85,137.66c-8.09,5.15-14.9,7.1-19.69,1.85-3.92-1.62,5.14-6.13,6.38-9.95A72.47,72.47,0,0,0,9.84,105c-1.51-7.89-.3-16.4,6.24-21.53,8.35-3.43,21.5-7.1,29.45-5.93s9.11.27,12.54,6.16c-.46,10-3.24,24.76-9.33,32S27.88,135.09,23.85,137.66Z"/><path class="cls-8" d="M203,124.93c7.6,3,14.42,4.25,17.37-1.57,3.11-1.86-5.74-6.42-7.2-9.89-2.51-9-.4-18.73-3.49-27.81s-9.8-19.21-20-20.53c-9.06,1-22.5,4.3-28.08,10.14S155.5,80.73,156,87.41c6.43,7.44,18.95,18.38,25.61,23.7S199.22,123.44,203,124.93Z"/><path class="cls-9" d="M160.5,364.93c-4.28,4.09-12.13,3.55-15.75,3.21-6.55-.63-5.46-16.9-6-25.28-2.75-46.19-17.94-45-25-91.85-1.29-8.49,7.25-24.91,14-26.87,3.72-1.09,16.15-.25,20.1,0,7.13.44,12.83,3.67,14.38,13.05,8.58,51.73,10.73,51.21,5,104.2C166.2,351,165.46,360.18,160.5,364.93Z"/><path class="cls-10" d="M288.52,340.52c-13.51,8.07-29.58,12-46,13.63a162.21,162.21,0,0,1-34.3,4.75c-9.42.31-35.46,11.46-36-3.56-.32-8.78,10.47-13.82,21.9-16.6-1-10.21,3.75-23.86,3.1-37.37C196,276,208.74,246.49,239.79,238.58S294.47,257.8,299,288.71C301.28,304.16,299.72,333.84,288.52,340.52Z"/><path class="cls-8" d="M91.32,169.81c-.47,9.44-.87,18.21,16.06,19.06s22.16-3.2,22.63-12.64-.56-16.7-17.49-17.54S91.79,160.37,91.32,169.81Z"/><path class="cls-11" d="M118,173.93c0,6.81-3.37,12.31-7.44,12.28s-7.34-5.56-7.3-12.37,2.35-5.4,6.42-5.37S118.08,167.12,118,173.93Z"/><line class="cls-12" x1="110.59" y1="170.22" x2="110.66" y2="178.77"/><path class="cls-13" d="M154.74,173.55c-4,8.55-9.67,18.71-25,11.5a61.92,61.92,0,0,1-19.27-14.14c-4.83,5.94-12.59,11.78-20.83,15.54-15.42,7-20.95-3.19-24.88-11.79s3.88-14.17,19.3-21.21c10.23-4.67,18.71-5.59,24.41-3.16,5.54-4.23,15.19-3.84,27.23,1.82C151,159.33,158.77,165,154.74,173.55Z"/><path class="cls-14" d="M109.48,143.74c2.52,0,7.4.17,9.54,1.93s.89,3.87.39,6.06a19.58,19.58,0,0,1-9.71,3.94c-2.67.2-6.7-2.35-8.8-4-.82-2.13-1.49-5,.92-6.46S106.91,143.8,109.48,143.74Z"/><path d="M65.47,144.83c1.53-4.18,4.58-17.67,12.61-19.15s18.62,7.49,21.54,10.84c0,0,.4.07.22-.89-.94-5.09-12.77-16-22.63-14.21s-14,15.71-13.07,20.8A5.43,5.43,0,0,0,65.47,144.83Z"/><path d="M123.46,137.06c2.57-3.68,12.35-13.53,19.79-12.56s10.61,14,12.16,18.23a6.12,6.12,0,0,0,1.13-2.79c.7-5.33-3.37-18.69-12.51-19.88s-19.87,10.24-20.57,15.57A3.82,3.82,0,0,0,123.46,137.06Z"/><circle cx="72.91" cy="178.28" r="0.85"/><circle cx="84.3" cy="183.87" r="0.52"/><circle cx="81.95" cy="176.97" r="1.02"/><circle cx="132.39" cy="177.82" r="0.85"/><circle cx="142.36" cy="181.52" r="0.52"/><circle cx="147.16" cy="175.15" r="0.65"/><path class="cls-15" d="M150.22,103.39c-4.57-3.09-9.45-5.59-14.91-6.4A7.88,7.88,0,0,0,132,97a3.19,3.19,0,0,0-2.33,2.12c-.52,2,1.65,3.7,3.53,4.66,4.37,2.25,9.28,4.37,14.06,3.22,1.73-.41,3.66-2,2.93-3.61a3.52,3.52,0,0,0-2-1.54l-9.26-3.95"/><path class="cls-15" d="M86.77,95.26a52.74,52.74,0,0,0-7.2.83c-3.8.7-7.91,2.14-9.67,5.57a1.55,1.55,0,0,0-.22,1c.1.52.63.82,1.12,1,4,1.54,8.51.46,12.67-.63,2.78-.73,5.72-1.55,7.7-3.64,1-1,1.55-3,.35-3.71a2.7,2.7,0,0,0-1.38-.32,29.76,29.76,0,0,0-9.57,1.12"/><path class="cls-8" d="M91.17,221.31c0,18.28-18.53,33.09-38.93,33.09-12,0-37.25-8.14-38.88-23.48C12.22,220.13,30,214.53,34.23,208.27,47.28,189,46.7,200.72,67.1,200.72S91.17,203,91.17,221.31Z"/><path class="cls-8" d="M266.41,173.76c4.48,19.63-48.36,70.29-93.71,80.64-27.2,6.2-54.15,5.77-72.55-7.44-12.29-8.82-10.66-23.41-9-31.3,3.52-16.52,13.84-7.84,42.06-14.94,9.61-2.42,28.85-1,37.17-8.93,11.24-10.74,23.55-24.31,28.23-36.11,1.9-4.77,9.22.27,15.6,0C233.5,154.88,264.09,163.6,266.41,173.76Z"/><path class="cls-16" d="M158.75,228.93H127.5a2.73,2.73,0,0,0-2.73,2.73V244l.39,4.65c.21,1.45,1.26,4.25,2.59,5.23L140,266.12a4.08,4.08,0,0,0,5.64.11l12.63-11.65c1.17-1.07,1.79-3.83,2.09-5.39L161,244V231.15A2.22,2.22,0,0,0,158.75,228.93Z"/><polygon class="cls-17" points="147.8 240.15 157 245.02 147.94 250.14 143.07 259.35 137.95 250.28 128.74 245.41 137.81 240.29 142.67 231.09 147.8 240.15"/><path class="cls-18" d="M74.09,206.66c5.66.9,9.74,3.7,12.62,5.57,2.18,1.41,1.56.46,1.13,3.17-.54,3.42-2.1,4.2-5.18,6-2.93,1.73-14.09,9.42-18.64,8.7-9.93-1.57-8.6-8.26-7.6-14.57S64.16,205.1,74.09,206.66Z"/><path class="cls-18" d="M106,208.58c-5.29,0-9.4,2-12.29,3.25-2.19,1-1.49.19-1.49,2.72,0,3.2,1.31,4.13,3.85,6.22s11.48,10.61,15.72,10.61c9.28,0,9-6.28,9-12.17S115.31,208.58,106,208.58Z"/><path class="cls-14" d="M138.69,60.09c0,8-4.38,10.74-10.76,11.53s-14.88-.45-22.9-.45c-7.7,0-14.69,1.14-19.87.53-5.58-.65-9-3.32-9-11.61,0-16,15.3-33.91,31.29-33.91S138.69,44.1,138.69,60.09Z"/><path class="cls-19" d="M127.94,71.88c0,6.92-9.58,12.52-21.39,12.52s-21.4-5.6-21.4-12.52a1.09,1.09,0,0,1,0-.18c.53.06,1.07.11,1.63.14,5,.25,11.32-.67,18.24-.67,8,0,16.47,1.24,22.9.45A2.17,2.17,0,0,1,127.94,71.88Z"/><path class="cls-20" d="M105.65,17.06a17.55,17.55,0,0,1,2.28,7.36c.21,1.43.38.82-.92,1.64-1.64,1-2.54.65-4.43,0a6.79,6.79,0,0,1-4.42-3.25c-3-4.76-5.76-8.07-2.74-10S102.67,12.3,105.65,17.06Z"/><path class="cls-20" d="M112.3,19.77a10.33,10.33,0,0,0-3.76,4.41c-.69,1.27-.64.64.3,1.85,1.18,1.53.78,1.46,2.78,1.52s3.58,1.19,5.61-.38c4.45-3.44,11.31-5.11,9.13-7.93S116.74,16.33,112.3,19.77Z"/><path class="cls-19" d="M89.59,62.37c0,3.32.9,7.93,0,9.5-.23.42-.82,0-1.28,0-1.94.17-.76,0-2.5-.11a17.36,17.36,0,0,1-4-.85c-2.87-.85-.2-.28-.2-13.84S100.94,26.7,103.9,26.7c2.15,0-9,11.06-12,22.33C90.72,53.32,89.59,58.64,89.59,62.37Z"/><path class="cls-19" d="M123.55,62.37c0,4.19-1,9.31,1.23,9.51,1.93.17.75,0,2.49-.11a17.59,17.59,0,0,0,4-.85c2.86-.85.2-.28.2-13.84S111.8,26,108.84,26c-2.15,0,9.41,11.73,12.43,23C122.41,53.32,123.55,58.64,123.55,62.37Z"/><path class="cls-19" d="M111.4,65.37c.28,4.18,2.29,6.65,0,6.85-1.94.17-8.62,0-10.36-.2-1.89-.16-3.4,1-4.46.71-2.86-.84-.17-1.25-.17-14.8s8.65-31.73,11.61-31.73c2.15,0,1.38,13.32,1.5,25C109.64,57.45,111.11,61,111.4,65.37Z"/><path class="cls-19" d="M131.93,40.74c.79,1.2,1.75,2.15,1,3-1.23,1.45-6,2.61-9.51,3.79a48.78,48.78,0,0,1-15.25,2.25c-7.46,0-14.13-1.41-18.61-3.62-3.6-1.78-7.24-4.56-5.78-6.62,3-4.21,2.37-3.87,7.64.33,3.54,2.83,11.15,4.2,16.2,4.2,5.27,0,8.06-1.15,13.28-2.77,4.45-1.38,7.49-2.93,9.2-2.4C130.81,39.1,131.39,39.93,131.93,40.74Z"/><path class="cls-19" d="M90.74,33.12c-.84-.42.22-.8.87-1.29,1.4-1.06,2.13-1.7,2.68-1.25a20.09,20.09,0,0,1,3.19,2.68c1.87,2,7.09,2.22,10.15,1.94s7.38-.53,9.72-1.48c1.63-.67,3.69-1.09,4.88-1.95.59-.43,1.44.18,2.35,1.08s1.45,1,1,1.59c-1,1.29-4.33,2.6-6.23,3.43a47.17,47.17,0,0,1-11,2.52c-4.08.3-9.76-1.16-12.52-3-1.48-1-3.57-2.34-4.28-3.62"/><path class="cls-19" d="M137.94,53.86a8,8,0,0,1,.47,3c-.11,1.32-5.84,3.16-10.87,4.85a62.38,62.38,0,0,1-19.44,2.87c-9.51,0-18-1.79-23.72-4.62-4.36-2.15-8-2.88-7.56-6.05,0-.17.78-2.18.83-2.36,1.67-6.36,2.37-5,9.09.4,4.52,3.6,14.22,5.08,20.66,5.08,6.71,0,10.27-1.2,16.92-3.26,5.92-1.84,11.85-5.18,12.82-2.86A18.06,18.06,0,0,1,137.94,53.86Z"/><circle class="cls-21" cx="90.02" cy="216.75" r="6.85"/></svg>