<svg xmlns="http://www.w3.org/2000/svg" width="113.18" height="119.35" viewBox="0 0 113.18 119.35"><defs><style>.cls-1{fill:#0d0811;}.cls-2{fill:#5a2f7c;}.cls-3{fill:#7e5289;}.cls-4{fill:#fff;}</style></defs><g id="Ui_and_character" data-name="Ui and character"><circle class="cls-1" cx="55.85" cy="57.26" r="48.15"/><circle class="cls-2" cx="59.17" cy="54.97" r="46.31"/><rect class="cls-1" x="38.75" y="42.94" width="13.61" height="32.96" rx="2.09"/><rect class="cls-1" x="63.97" y="47.54" width="14.18" height="28.58" rx="1.87"/><rect class="cls-1" x="38.75" y="42.94" width="39.39" height="18.05"/><polygon class="cls-1" points="58.45 42.94 36.14 42.94 47.29 36.3 58.45 29.65 69.61 36.3 80.77 42.94 58.45 42.94"/><path class="cls-3" d="M71,35.73,59.88,29.08,48.73,35.73,37.57,42.37h2.62V73.25a2.08,2.08,0,0,0,2.08,2.08h9.44a2.08,2.08,0,0,0,2.09-2.08V60.42H65.4V73.67a1.87,1.87,0,0,0,1.87,1.87H77.71a1.87,1.87,0,0,0,1.87-1.87V42.37H82.2Z"/><rect class="cls-4" x="60.25" y="36.25" width="15.81" height="1.92" rx="0.64" transform="translate(27.74 -29.1) rotate(30)"/></g></svg>