<svg xmlns="http://www.w3.org/2000/svg" width="107.22" height="280.27" viewBox="0 0 107.22 280.27"><defs><style>.cls-1{fill:#0d0811;}.cls-2{fill:#ed4059;}.cls-3{fill:#fff;}.cls-4{fill:#b7aeae;}</style></defs><g id="Ui_and_character" data-name="Ui and character"><path class="cls-1" d="M95.54,32.64c-1.18-6.51-4.16-13.95-8.93-18C77.45,5.74,60.34,6.18,52,16.15,34.19-2.44,6.13,13.76,8.48,38.3,13,60.09,32.51,75.62,51.89,85c10.76-6,22.56-11.53,30.43-21.79C88.76,54.59,97.18,43.46,95.54,32.64Z"/><path class="cls-2" d="M99.66,31c-1.19-6.52-4.17-14-8.94-18C81.56,4,64.45,4.48,56.08,14.46,38.3-4.14,10.24,12.06,12.59,36.6c4.5,21.79,24,37.33,43.41,46.68,10.77-6,22.57-11.53,30.43-21.79C92.87,52.9,101.29,41.76,99.66,31Z"/><path class="cls-3" d="M24.16,22.83c-1.32-1.63.53-5.31,4.13-8.23s7.6-4,8.92-2.33-4.67,1.61-8.28,4.53S25.48,24.47,24.16,22.83Z"/><path class="cls-1" d="M99.07,125.71c-1.2-6.6-4.22-14.15-9.06-18.3-9.29-9-26.64-8.54-35.13,1.58-18-18.86-46.49-2.43-44.11,22.46,4.56,22.1,24.38,37.86,44,47.34,10.91-6,22.88-11.69,30.86-22.1C92.19,148,100.73,136.68,99.07,125.71Z"/><path class="cls-4" d="M100.9,122.52c-1.21-6.6-4.23-14.15-9.06-18.3-9.3-9-26.65-8.54-35.14,1.58-18-18.86-46.49-2.43-44.11,22.46,4.57,22.1,24.38,37.86,44,47.34,10.92-6,22.89-11.69,30.87-22.09C94,144.79,102.56,133.49,100.9,122.52Z"/><path class="cls-1" d="M97.87,213.15c-1.2-6.6-4.23-14.15-9.06-18.3-9.29-9-26.64-8.54-35.13,1.58-18-18.86-46.49-2.43-44.11,22.46,4.56,22.1,24.38,37.86,44,47.34,10.91-6,22.88-11.69,30.86-22.1C91,235.42,99.53,224.12,97.87,213.15Z"/><path class="cls-4" d="M100.28,213.15c-1.21-6.6-4.23-14.15-9.07-18.3-9.29-9-26.64-8.54-35.13,1.58C38.05,177.57,9.59,194,12,218.89c4.57,22.1,24.38,37.86,44,47.34,10.92-6,22.89-11.69,30.87-22.1C93.39,235.42,101.93,224.12,100.28,213.15Z"/></g></svg>