<svg xmlns="http://www.w3.org/2000/svg" width="173.74" height="147.18" viewBox="0 0 173.74 147.18"><defs><style>.cls-1{fill:#997555;}.cls-2{fill:#bd8f5e;}.cls-3{fill:#dcf2f5;}.cls-4{fill:#9e7a54;}.cls-5{fill:#fff;}</style></defs><g id="Ui_and_character" data-name="Ui and character"><ellipse class="cls-1" cx="67.89" cy="50.25" rx="45.64" ry="43.19"/><ellipse class="cls-1" cx="67.89" cy="50.25" rx="40.03" ry="36.52"/><rect class="cls-1" x="105.39" y="71.65" width="18.26" height="70.92" rx="3.74" transform="translate(-42.15 100.57) rotate(-40.69)"/><rect class="cls-1" x="85.29" y="81.87" width="24.7" height="11.24" rx="4.88" transform="translate(-33 76.47) rotate(-37.04)"/><rect class="cls-1" x="125.05" y="128.11" width="24.7" height="11.24" rx="4.88" transform="translate(-52.83 109.75) rotate(-37.04)"/><rect class="cls-1" x="71.11" y="35.1" width="2.11" height="37.25" rx="0.92" transform="translate(59.13 -35.29) rotate(45)"/><rect class="cls-1" x="67.81" y="36.91" width="1.76" height="26.68" rx="0.76" transform="translate(55.65 -33.85) rotate(45)"/><ellipse class="cls-2" cx="70.05" cy="48.93" rx="45.64" ry="43.19"/><ellipse class="cls-3" cx="70.05" cy="48.93" rx="40.03" ry="36.52"/><rect class="cls-2" x="107.55" y="70.33" width="18.26" height="70.92" rx="3.74" transform="translate(-40.77 101.66) rotate(-40.69)"/><rect class="cls-4" x="87.45" y="80.55" width="24.7" height="11.24" rx="4.88" transform="matrix(0.8, -0.6, 0.6, 0.8, -31.77, 77.5)"/><rect class="cls-4" x="127.21" y="126.78" width="24.7" height="11.24" rx="4.88" transform="translate(-51.59 110.78) rotate(-37.04)"/><rect class="cls-5" x="73.27" y="33.78" width="2.11" height="37.25" rx="0.92" transform="translate(58.83 -37.21) rotate(45)"/><rect class="cls-5" x="69.97" y="35.58" width="1.76" height="26.68" rx="0.76" transform="translate(55.35 -35.77) rotate(45)"/></g></svg>