<svg xmlns="http://www.w3.org/2000/svg" width="173.74" height="147.18" viewBox="0 0 173.74 147.18"><defs><style>.cls-1{fill:#c9c5b9;}.cls-2{fill:#e5e0cf;}.cls-3{fill:#47383a;}</style></defs><g id="Ui_and_character" data-name="Ui and character"><path class="cls-1" d="M136.48,123.36,126.06,120l-13.9-7.54a.43.43,0,0,0-.64.33l.21,20.11-9.19.92L87.2,119.69l.71,3.46-12.47,4.78-9.83,1.94-7.07-8.4-.31,13.87c-.09.48-3.49-2.24-3.49-2.24L49.32,135,36.62,31.16l12-1.65,22.26-3.05c4.67,1.84,18.86,6.83,18.86,6.83L92,26.16l18.35,8.55s-.94-9.73.28-10.64l6.32-1s3.22,6.41,3.54,6.37a25.73,25.73,0,0,1,2.82-2.32c.46,4.78,1.58,11.55,2.64,19.25Z"/><path class="cls-2" d="M137.74,121.68l-10.42-3.37-13.89-7.54a.44.44,0,0,0-.65.33l.22,20.11-9.19.92L88.46,118l.72,3.46L76.7,126.25l-9.82,1.94-7.08-8.4-.31,13.87c-.08.48-3.49-2.24-3.49-2.24l-5.42,1.88L37.88,29.48l12-1.65,22.26-3C76.81,26.62,91,31.61,91,31.61l2.22-7.13L111.57,33s-.93-9.73.29-10.64l6.31-1s3.23,6.41,3.54,6.37a26.72,26.72,0,0,1,2.82-2.32c.47,4.78,1.58,11.55,2.64,19.25Z"/><polygon class="cls-3" points="107.52 59.45 102.39 57.03 98.87 53.57 90.99 62.56 80.83 54.93 70.68 62.9 67.03 65.76 60.76 58.4 55.27 67.16 54.74 63.55 61.22 51.3 68.58 61.47 80.75 49.84 92.09 58.05 97.37 46.8 106.99 55.85 107.52 59.45"/><polygon class="cls-3" points="67.15 92.89 71.31 89.04 73.63 84.69 83.85 90.89 91.25 80.56 103.33 85.1 107.67 86.73 111.43 77.82 119.3 84.52 118.72 80.93 108.86 71.19 104.89 83.11 89.79 75.67 81.45 86.91 73.03 77.78 66.58 89.29 67.15 92.89"/></g></svg>