<svg xmlns="http://www.w3.org/2000/svg" width="143.61" height="132.65" viewBox="0 0 143.61 132.65"><defs><style>.cls-1{fill:#0d0811;}.cls-2{fill:#5a2f7c;}.cls-3{fill:#7e5289;}.cls-4{fill:#fff;}</style></defs><g id="Ui_and_character" data-name="Ui and character"><circle class="cls-1" cx="66.41" cy="72.99" r="48.15"/><circle class="cls-2" cx="69.72" cy="70.7" r="46.31"/><path class="cls-1" d="M52.76,69.74V49.21a3.1,3.1,0,0,1,4.65-2.69L75.19,56.79,93,67.05a3.1,3.1,0,0,1,0,5.37L75.19,82.69,57.41,93a3.1,3.1,0,0,1-4.65-2.68Z"/><path class="cls-3" d="M56.42,69.74V49A2.39,2.39,0,0,1,60,47L77.94,57.31,95.88,67.67a2.38,2.38,0,0,1,0,4.13L77.94,82.16,60,92.52a2.39,2.39,0,0,1-3.58-2.07Z"/><rect class="cls-4" x="64.3" y="57.79" width="21.23" height="3.15" rx="1.57" transform="matrix(0.87, 0.5, -0.5, 0.87, 39.72, -29.51)"/></g></svg>