<svg xmlns="http://www.w3.org/2000/svg" width="143.61" height="132.65" viewBox="0 0 143.61 132.65"><defs><style>.cls-1{fill:#0d0811;}.cls-2{fill:#5a2f7c;}.cls-3{fill:#7e5289;}.cls-4{fill:#fff;}</style></defs><g id="Ui_and_character" data-name="Ui and character"><circle class="cls-1" cx="70.4" cy="72.98" r="45.86"/><circle class="cls-2" cx="73.56" cy="70.8" r="44.1"/><path d="M56.8,67c3.64-7.51,9-13.76,19.43-12.69a24.82,24.82,0,0,1,11.1,4.37,22.54,22.54,0,0,1,3.06,2.59,20.18,20.18,0,0,1,1.26,2c1.89,3.66,2,4.63,2.32,6.23a21.47,21.47,0,0,1,.35,6.44,28.14,28.14,0,0,1-.73,5.56c-1.73,6.84-7,11.86-13.29,14.28a27.63,27.63,0,0,1-5.5,1.34,21.79,21.79,0,0,1-18.12-7.64,22.55,22.55,0,0,0,17.07,8,26.24,26.24,0,0,0,4.76-.35,32.65,32.65,0,0,0,16.9-11.29,16.71,16.71,0,0,0,2.32-4.36,27.33,27.33,0,0,0,1.62-9c.84-25.48-38.57-34.18-49.1-10.14"/><path d="M54.36,62.51,63,66.63c.77.37.91,1.3.26,1.67l-7.33,4.27-7.33,4.26A1.2,1.2,0,0,1,46.84,76l-1.27-8.38L44.3,59.24c-.12-.74.69-1.21,1.46-.85Z"/><path class="cls-3" d="M57.85,64.17c3.71-7.66,9.15-14,19.77-12.92a25.26,25.26,0,0,1,11.3,4.44A22.06,22.06,0,0,1,92,58.33a20.57,20.57,0,0,1,1.29,2c1.92,3.72,2.07,4.71,2.36,6.33A21.51,21.51,0,0,1,96,73.23a29.75,29.75,0,0,1-.74,5.66c-1.77,7-7.11,12.07-13.54,14.54a28.46,28.46,0,0,1-5.6,1.36A22.15,22.15,0,0,1,57.73,87,23,23,0,0,0,75.1,95.16,27.32,27.32,0,0,0,80,94.8a33.31,33.31,0,0,0,17.2-11.49,17.31,17.31,0,0,0,2.36-4.44,27.78,27.78,0,0,0,1.65-9.17c.86-25.93-39.26-34.79-50-10.33"/><path class="cls-3" d="M55.36,59.62l8.76,4.2a1,1,0,0,1,.26,1.7l-7.46,4.34L49.45,74.2a1.22,1.22,0,0,1-1.74-.83l-1.3-8.54L45.12,56.3c-.12-.76.71-1.24,1.48-.87Z"/><path class="cls-4" d="M95.82,57.13c-1.28-4-7.37-8.43-11.83-8.31-.55,0-1.2-.76-.52-.85,2.21-.11,5.41,1.27,8.15,3a12.88,12.88,0,0,1,5.23,6.37C96.67,57.58,96.26,57.57,95.82,57.13Z"/></g></svg>