<svg id="Layer_1" data-name="Layer 1" xmlns="http://www.w3.org/2000/svg" xmlns:xlink="http://www.w3.org/1999/xlink" width="347.5" height="379.2" viewBox="0 0 347.5 379.2"><defs><style>.cls-1{fill:#bd9568;}.cls-2{fill:#af8a60;}.cls-3{fill:#5c3c11;}.cls-4{fill:#422505;}.cls-5{fill:#775430;}.cls-6{fill:#c69c6d;}.cls-7{fill:url(#linear-gradient);}.cls-8{fill:#4f2e0c;}.cls-9{fill:url(#linear-gradient-2);}.cls-10{fill:url(#linear-gradient-3);}.cls-11{fill:#34a5ea;}.cls-12{fill:#fff;}.cls-13{fill:url(#linear-gradient-4);}.cls-14{fill:#603813;}.cls-15{fill:#8c6239;}.cls-16{fill:#b0471b;}.cls-17{fill:#42210b;}.cls-18{fill:none;stroke:#42210b;stroke-miterlimit:10;stroke-width:3px;}.cls-19{fill:#83370f;}</style><linearGradient id="linear-gradient" x1="66.69" y1="341.38" x2="63.56" y2="226.07" gradientUnits="userSpaceOnUse"><stop offset="0.12" stop-color="#775430"/><stop offset="0.23" stop-color="#8b653f"/><stop offset="0.35" stop-color="#9a724a"/><stop offset="0.49" stop-color="#a37a50"/><stop offset="0.71" stop-color="#a67c52"/></linearGradient><linearGradient id="linear-gradient-2" x1="152.26" y1="354.27" x2="145.48" y2="223.84" gradientUnits="userSpaceOnUse"><stop offset="0.12" stop-color="#775430"/><stop offset="0.16" stop-color="#805d37"/><stop offset="0.3" stop-color="#9f784f"/><stop offset="0.45" stop-color="#b48c5f"/><stop offset="0.58" stop-color="#c2986a"/><stop offset="0.71" stop-color="#c69c6d"/></linearGradient><linearGradient id="linear-gradient-3" x1="246.75" y1="366.14" x2="234.75" y2="262.84" gradientUnits="userSpaceOnUse"><stop offset="0" stop-color="#775430"/><stop offset="0.22" stop-color="#89643e"/><stop offset="1" stop-color="#c69c6d"/></linearGradient><linearGradient id="linear-gradient-4" x1="115.54" y1="185.36" x2="116.06" y2="140.75" gradientUnits="userSpaceOnUse"><stop offset="0" stop-color="#42210b"/><stop offset="0.14" stop-color="#4c2910"/><stop offset="0.38" stop-color="#66401d"/><stop offset="0.49" stop-color="#754c24"/><stop offset="0.64" stop-color="#7f562e"/><stop offset="0.9" stop-color="#9b7147"/><stop offset="0.99" stop-color="#a67c52"/></linearGradient></defs><circle class="cls-1" cx="313.71" cy="299.58" r="21.13"/><circle class="cls-2" cx="313.71" cy="295.38" r="12.23"/><path class="cls-3" d="M48.83,244c0,9.05,9,9.78-2,9.78s-27.37-13.31-27.37-22.36,8.68-13.79,19.69-13.79S48.83,235,48.83,244Z"/><ellipse class="cls-4" cx="264.94" cy="178.71" rx="8.95" ry="11.49"/><path class="cls-5" d="M184.19,348c.23,14.92-25.3,11.92-34.61,12.22s-28.48,9-28.83-5.33S146.8,340.3,158.62,342C172.6,343.94,184,333,184.19,348Z"/><path class="cls-6" d="M150.7,198.55c-28,2.28-55.54,1.79-81.4,1.56C46.21,199.9,43,186.22,36.36,170.63a32.86,32.86,0,0,1-2.62-11.84c-.42-12.56-2.77-14.42-2.12-33.85.75-22.22,33.42-70,59.93-69.7s35.23-1.49,60.87-.22,53.52,33,53.84,55.64,3.49,19.19,0,38.53S172,196.52,150.7,198.55Z"/><path class="cls-7" d="M66.52,363.86c-4.79.76-11.78.8-15.41-1.58C44.55,358,54.2,350.69,55,344.64c4.24-33.36-14.26-68.47-9.74-108.28.82-7.22,7.31-12.35,14.77-12.74a43.59,43.59,0,0,1,12.93,1c7.3,1.91,11.1,9.39,10.48,15.66-3.41,34.6,6.53,65.86-.31,99.26C81.86,345.59,75.16,362.49,66.52,363.86Z"/><path class="cls-6" d="M313.08,293.62C307,363,191.26,350.31,144.13,339.26S37.26,308.31,44.13,230s93.61-84.5,165.56-72.23S319.14,224.27,313.08,293.62Z"/><path class="cls-8" d="M29.81,137.05c-8.1,5.16-14.91,7.11-19.7,1.86-3.91-1.63,5.14-6.13,6.38-9.95a72.77,72.77,0,0,0-.69-24.6C14.28,96.47,15.49,88,22,82.83c8.34-3.43,21.5-7.09,29.44-5.93s9.11.27,12.55,6.16c-.47,10-3.25,24.76-9.34,32S33.83,134.49,29.81,137.05Z"/><path class="cls-8" d="M209,124.33c7.6,3,14.41,4.24,17.36-1.58,3.11-1.85-5.73-6.42-7.19-9.88-2.51-9-.41-18.74-3.49-27.82s-9.81-19.21-20-20.53c-9.06,1-22.5,4.3-28.08,10.15s-6.1,5.46-5.63,12.14c6.43,7.43,18.94,18.37,25.6,23.69S205.18,122.83,209,124.33Z"/><path class="cls-9" d="M166.45,364.33c-4.28,4.09-12.13,3.55-15.75,3.2-6.55-.62-5.45-16.9-5.95-25.28-2.75-46.19-18-45-25.06-91.85-1.29-8.49,7.25-24.9,14-26.87,3.73-1.09,16.15-.24,20.1,0,7.13.44,12.83,3.67,14.39,13.05,8.57,51.73,10.72,51.21,5,104.2C172.16,350.4,171.41,359.58,166.45,364.33Z"/><path class="cls-10" d="M294.47,339.92c-13.51,8.07-29.58,11.95-46,13.62a161.63,161.63,0,0,1-34.3,4.76c-9.42.31-35.46,11.46-36-3.56-.32-8.78,10.47-13.82,21.9-16.6-1-10.21,3.75-23.86,3.1-37.37-1.22-25.41,11.54-54.88,42.59-62.79S300.42,257.2,305,288.11C307.23,303.56,305.67,333.24,294.47,339.92Z"/><path class="cls-8" d="M97.48,169.55c-.47,9.44-.86,18.21,16.07,19s22.16-3.2,22.63-12.64-.56-16.69-17.5-17.53S98,160.11,97.48,169.55Z"/><path class="cls-11" d="M85.87,138.07a6.38,6.38,0,0,0-12.1-.5,6.24,6.24,0,0,0-1-.08h0a6.4,6.4,0,0,0-6.39,6.39v35.86a6.4,6.4,0,0,0,6.39,6.39h0c.21,0,.42,0,.62,0a6.39,6.39,0,0,0,12.69-.66,6.41,6.41,0,0,0,3.51-5.7V143.88A6.41,6.41,0,0,0,85.87,138.07Z"/><path class="cls-11" d="M146.58,140.33a6.37,6.37,0,0,1,12.09-.5,6.27,6.27,0,0,1,1-.08h0a6.41,6.41,0,0,1,6.39,6.39V182a6.42,6.42,0,0,1-6.39,6.4h0c-.22,0-.42,0-.63,0a6.39,6.39,0,0,1-12.69-.66,6.43,6.43,0,0,1-3.51-5.7V146.14A6.4,6.4,0,0,1,146.58,140.33Z"/><circle class="cls-12" cx="82.47" cy="133.45" r="18.43"/><circle class="cls-12" cx="152.1" cy="133.45" r="18.43"/><path class="cls-13" d="M160.69,173c-4,8.55-9.67,18.71-25,11.5a61.92,61.92,0,0,1-19.27-14.14c-4.83,5.94-12.59,11.78-20.83,15.54-15.42,7-21-3.19-24.88-11.79s3.88-14.17,19.3-21.21c10.23-4.67,18.71-5.59,24.41-3.16,5.54-4.23,15.19-3.84,27.23,1.82C157,158.73,164.72,164.39,160.69,173Z"/><path class="cls-14" d="M115.43,143.13c2.52.05,7.4.18,9.54,1.94s.9,3.86.39,6.05a19.5,19.5,0,0,1-9.7,3.95c-2.68.19-6.71-2.36-8.8-4-.83-2.14-1.5-5,.91-6.46S112.86,143.19,115.43,143.13Z"/><circle cx="84.62" cy="138.61" r="11.78"/><circle cx="148.83" cy="138.61" r="11.76"/><circle cx="78.86" cy="177.68" r="0.85"/><circle cx="90.25" cy="183.26" r="0.52"/><circle cx="87.9" cy="176.37" r="1.02"/><circle cx="138.34" cy="177.21" r="0.85"/><circle cx="148.31" cy="180.91" r="0.52"/><circle cx="153.12" cy="174.54" r="0.65"/><path class="cls-15" d="M154.35,105.33c-4.15-3.63-8.72-8.15-14-9.64-1.06-.3-1.73-1.3-2.82-1.15s-3.42-1-3.83,0c-.77,2,2,7.86,3.77,9,4.05,2.78,8.66,5.5,13.55,5,1.77-.19,3.88-1.52,3.36-3.22a3.59,3.59,0,0,0-1.82-1.78l-8.69-5.08"/><path class="cls-15" d="M89.89,97.21A51,51,0,0,0,83,99.33c-3.6,1.38-7.38,3.54-8.49,7.24a1.54,1.54,0,0,0,0,1,1.6,1.6,0,0,0,1.29.78c4.23.78,8.45-1.1,12.35-2.93,2.6-1.22,9.54-4.75,11.11-7.16.78-1.19-2.43-3.18-3.75-3.72-.44-.17.14-.55-1.89-.19C90.35,94.9,86.89,98,84,99.48"/><path class="cls-8" d="M97.12,220.7c0,18.29-18.53,33.09-38.93,33.09-12,0-37.24-8.13-38.87-23.48C18.17,219.52,36,213.92,40.19,207.67c13-19.3,12.47-7.56,32.87-7.56S97.12,202.42,97.12,220.7Z"/><path class="cls-8" d="M272.36,173.15c4.48,19.64-48.35,70.3-93.71,80.64-27.2,6.21-54.15,5.77-72.55-7.43-12.29-8.82-10.66-23.42-9-31.31,3.52-16.52,13.84-7.83,42.07-14.94,9.6-2.41,28.84-1,37.17-8.93,11.23-10.74,23.54-24.31,28.22-36.1,1.9-4.78,9.23.27,15.61,0C239.45,154.27,270,163,272.36,173.15Z"/><path class="cls-16" d="M80,206.06c5.67.89,9.74,3.69,12.63,5.56,2.17,1.41,1.55.46,1.12,3.17-.54,3.43-2.1,4.2-5.18,6-2.92,1.73-14.09,9.42-18.63,8.7-9.94-1.57-8.61-8.25-7.61-14.56S70.11,204.49,80,206.06Z"/><path class="cls-16" d="M112,208c-5.28,0-9.39,2-12.29,3.25-2.19,1-1.48.2-1.48,2.73,0,3.19,1.31,4.12,3.85,6.22s11.48,10.6,15.72,10.6c9.27,0,9-6.28,9-12.16S121.27,208,112,208Z"/><path class="cls-14" d="M144.64,59.49c0,8-4.38,10.74-10.76,11.53S119,70.57,111,70.57c-7.7,0-14.69,1.14-19.87.53-5.58-.65-9-3.32-9-11.61,0-16,15.3-33.91,31.29-33.91S144.64,43.5,144.64,59.49Z"/><path class="cls-17" d="M133.89,71.28c0,6.92-9.58,12.52-21.39,12.52S91.1,78.2,91.1,71.28a1.09,1.09,0,0,1,0-.18c.53.06,1.07.1,1.63.13,5,.26,11.32-.66,18.24-.66,8,0,16.47,1.24,22.9.45A2.17,2.17,0,0,1,133.89,71.28Z"/><path class="cls-18" d="M111.6,16.45a17.63,17.63,0,0,1,2.29,7.36c.2,1.44.37.83-.93,1.64-1.64,1-2.54.65-4.43,0a6.77,6.77,0,0,1-4.42-3.24c-3-4.77-5.76-8.07-2.74-10S108.62,11.69,111.6,16.45Z"/><path class="cls-18" d="M118.25,19.16a10.51,10.51,0,0,0-3.76,4.41c-.68,1.28-.63.64.3,1.86,1.19,1.53.79,1.45,2.78,1.52s3.58,1.18,5.62-.39c4.44-3.43,11.3-5.11,9.12-7.93S122.7,15.73,118.25,19.16Z"/><path class="cls-17" d="M95.54,61.77c0,3.32.9,7.92,0,9.5-.22.41-.82,0-1.28,0-1.94.18-.76,0-2.5-.11a17,17,0,0,1-4-.85c-2.87-.84-.2-.28-.2-13.84s19.26-30.38,22.23-30.38c2.14,0-9,11.07-12,22.34C96.67,52.71,95.54,58,95.54,61.77Z"/><path class="cls-17" d="M129.5,61.77c0,4.19-1,9.3,1.23,9.5,1.94.18.75,0,2.49-.11a16.94,16.94,0,0,0,4-.85c2.86-.84.2-.28.2-13.84s-19.65-31-22.62-31c-2.14,0,9.41,11.73,12.43,23C128.37,52.71,129.5,58,129.5,61.77Z"/><path class="cls-17" d="M117.35,64.76c.28,4.18,2.29,6.65.05,6.85-1.94.18-8.61,0-10.35-.2-1.9-.16-3.41,1-4.47.71-2.86-.84-.17-1.24-.17-14.8S111.06,25.59,114,25.59c2.14,0,1.38,13.32,1.5,25C115.59,56.84,117.06,60.36,117.35,64.76Z"/><path class="cls-17" d="M137.88,40.14c.79,1.2,1.75,2.14,1,3-1.23,1.45-6,2.6-9.51,3.79a49,49,0,0,1-15.25,2.24c-7.45,0-14.13-1.4-18.6-3.61-3.61-1.79-7.25-4.57-5.79-6.63,3-4.2,2.37-3.86,7.64.34,3.54,2.82,11.15,4.2,16.21,4.2,5.26,0,8-1.16,13.27-2.78,4.45-1.37,7.5-2.93,9.21-2.39C136.76,38.5,137.35,39.33,137.88,40.14Z"/><path class="cls-17" d="M96.69,32.52c-.84-.43.22-.8.87-1.29,1.4-1.06,2.13-1.71,2.68-1.26a19.46,19.46,0,0,1,3.19,2.69c1.87,2,7.09,2.21,10.15,1.93s7.38-.52,9.72-1.48c1.63-.66,3.69-1.08,4.89-1.95.58-.43,1.43.18,2.35,1.09s1.45,1,1,1.59c-1,1.28-4.33,2.59-6.22,3.42a46.88,46.88,0,0,1-11.05,2.52c-4.08.3-9.76-1.15-12.52-3-1.48-1-3.57-2.34-4.28-3.62"/><path class="cls-17" d="M143.9,53.26a8.37,8.37,0,0,1,.47,3c-.11,1.32-5.85,3.15-10.88,4.85A62.35,62.35,0,0,1,114.05,64c-9.5,0-18-1.79-23.71-4.61-4.36-2.16-8-2.88-7.56-6,0-.18.78-2.19.82-2.37,1.68-6.36,2.38-4.95,9.1.4,4.51,3.6,14.21,5.08,20.65,5.08,6.71,0,10.27-1.2,16.92-3.26,5.93-1.83,11.85-5.18,12.83-2.86A20.16,20.16,0,0,1,143.9,53.26Z"/><circle class="cls-19" cx="95.97" cy="216.14" r="6.85"/></svg>