<svg xmlns="http://www.w3.org/2000/svg" width="143.61" height="132.65" viewBox="0 0 143.61 132.65"><defs><style>.cls-1{fill:#0d0811;}.cls-2{fill:#5a2f7c;}.cls-3{fill:#7e5289;}.cls-4{fill:#fff;}</style></defs><g id="Ui_and_character" data-name="Ui and character"><rect class="cls-1" x="22.1" y="46.14" width="54.46" height="50.97" rx="9"/><polygon class="cls-1" points="77.43 115.84 48.46 97.11 49.33 46.14 78.31 27.4 77.43 115.84"/><path class="cls-1" d="M89.47,37.83v8.54c15.35,0,27.79,11.31,27.79,25.25S104.82,96.87,89.47,96.87v8.55c20.54,0,37.19-15.13,37.19-33.8S110,37.83,89.47,37.83Z"/><path class="cls-1" d="M89.47,53.22v5.72a13.83,13.83,0,0,1,0,27.65v5.73a19.55,19.55,0,1,0,0-39.1Z"/><rect class="cls-2" x="23.11" y="41.56" width="54.46" height="50.97" rx="9"/><polygon class="cls-2" points="78.44 111.27 49.46 92.53 50.34 41.56 79.31 22.83 78.44 111.27"/><path class="cls-3" d="M90.47,33.26V41.8c15.35,0,27.79,11.3,27.79,25.25S105.82,92.3,90.47,92.3v8.54c20.54,0,37.2-15.13,37.2-33.79S111,33.26,90.47,33.26Z"/><path class="cls-3" d="M90.47,48.64v5.73a13.83,13.83,0,1,1,0,27.65v5.72a19.55,19.55,0,0,0,0-39.1Z"/><rect class="cls-4" x="66.74" y="29.35" width="1.27" height="18.44" rx="0.64" transform="translate(61.32 -38.83) rotate(55.74)"/></g></svg>