<svg xmlns="http://www.w3.org/2000/svg" width="143.61" height="132.65" viewBox="0 0 143.61 132.65"><defs><style>.cls-1{fill:#0d0811;}.cls-2{fill:#5a2f7c;}.cls-3{fill:#7e5289;}.cls-4{fill:#fff;}</style></defs><g id="Ui_and_character" data-name="Ui and character"><rect class="cls-1" x="20.8" y="45.23" width="53.52" height="50.1" rx="9"/><polygon class="cls-1" points="75.18 113.74 46.7 95.33 47.56 45.23 76.03 26.82 75.18 113.74"/><rect class="cls-1" x="98.96" y="43.16" width="11.78" height="57.62" rx="5.89" transform="translate(81.6 -53.06) rotate(45)"/><rect class="cls-1" x="98.96" y="43.16" width="11.78" height="57.62" rx="5.89" transform="translate(229.89 48.72) rotate(135)"/><rect class="cls-2" x="63.96" y="35.52" width="1.27" height="18.47" rx="0.64" transform="translate(65.23 -33.83) rotate(55.74)"/><rect class="cls-2" x="23.3" y="42.6" width="53.52" height="50.1" rx="9"/><polygon class="cls-2" points="77.68 111.11 49.21 92.69 50.06 42.59 78.54 24.18 77.68 111.11"/><rect class="cls-3" x="101.47" y="40.53" width="11.78" height="57.62" rx="5.89" transform="translate(80.47 -55.6) rotate(45)"/><rect class="cls-3" x="101.47" y="40.53" width="11.78" height="57.62" rx="5.89" transform="translate(232.3 42.45) rotate(135)"/><rect class="cls-4" x="65.22" y="29.85" width="1.27" height="18.47" rx="0.64" transform="translate(61.09 -37.35) rotate(55.74)"/></g></svg>