<svg xmlns="http://www.w3.org/2000/svg" width="173.74" height="147.18" viewBox="0 0 173.74 147.18"><defs><style>.cls-1{fill:#b6c683;}.cls-2{fill:#c4d36e;}.cls-3{fill:#fff;}</style></defs><g id="Ui_and_character" data-name="Ui and character"><path class="cls-1" d="M150.6,77.87c0,30.43-26.18,55.1-58.48,55.1a61.55,61.55,0,0,1-22.51-4.23c-21.13-8.31-36-28-36-50.87,0-30.43,26.18-55.1,58.48-55.1a60.86,60.86,0,0,1,30.59,8.13C139.44,40.59,150.6,58,150.6,77.87Z"/><path class="cls-1" d="M144,53.6l0,.31c.5,10.23,1.13,25-3.71,38.51-9.32,26.12-37.7,47.5-64.93,35.38l-.32-.12C58.72,122.54,39.42,107.49,41.7,90.8c2-20.21,40.48-22.45,51.65-32.94,3.45-3.23,5.19-11.54,7.24-19,1.79-6.45,3.81-12.26,7.4-13.55a3.45,3.45,0,0,1,2.39,0C126.1,31.19,142.71,42.7,144,53.6Z"/><path class="cls-1" d="M140.21,50.4C141.1,60.67,142.73,79,136,94.35c-7.37,16.68-23.79,30.12-36.55,33.79-4.83,1.38-13.62.43-20.48-1.69-4.51-1.4-11.51-3.44-14.44-5.44-7-4.78-21.19-14.73-20.08-26.64C45.44,83.31,56,77,69.14,71.5c9.5-4,21.29-7.44,26-10.92,3.7-2.72,7.47-13.09,8.67-21.28,1.13-7.66,6-13.1,8.67-12.16C128.87,33.33,139.48,41.81,140.21,50.4Z"/><path class="cls-2" d="M147.53,75.5c0,30.43-26.18,55.1-58.48,55.1a61.38,61.38,0,0,1-22.51-4.23c-21.12-8.3-36-27.95-36-50.87,0-30.43,26.18-55.09,58.48-55.09a60.86,60.86,0,0,1,30.59,8.13C136.37,38.23,147.53,55.64,147.53,75.5Z"/><path class="cls-3" d="M140.93,51.24a3,3,0,0,1,0,.31c.5,10.22,1.13,25-3.7,38.51-9.33,26.11-37.71,47.5-64.94,35.38a2,2,0,0,0-.31-.12c-16.35-5.15-35.65-20.19-33.38-36.88C40.65,68.23,79.12,66,90.28,55.5c3.45-3.24,5.19-11.54,7.24-19,1.79-6.46,3.81-12.27,7.4-13.56a3.51,3.51,0,0,1,2.39,0C123,28.83,139.64,40.33,140.93,51.24Z"/><path class="cls-2" d="M137.15,48c.88,10.27,2.51,28.62-4.27,44-7.37,16.68-23.79,30.12-36.55,33.79-4.83,1.39-13.62.44-20.48-1.69-4.51-1.39-11.51-3.43-14.44-5.43-7-4.78-21.19-14.74-20.08-26.64C42.37,81,53,74.66,66.07,69.14c9.5-4,21.29-7.45,26-10.92,3.7-2.72,7.47-13.09,8.67-21.28,1.13-7.67,6-13.11,8.68-12.17C125.8,31,136.41,39.45,137.15,48Z"/></g></svg>