<svg xmlns="http://www.w3.org/2000/svg" width="182.2" height="170.22" viewBox="0 0 182.2 170.22"><defs><style>.cls-1{fill:#0d0811;}.cls-2{fill:#7e5289;}</style></defs><g id="points_and_time" data-name="points and time"><path class="cls-1" d="M99.78,117.68q0,13.8,1.61,19.8v2.2H84.79v-2.2q1.59-6,1.6-19.8V89.08a70.94,70.94,0,0,0-.3-8.5A83.48,83.48,0,0,1,73,82.08l-1.1-5.7Q83,74.47,90.18,69.68h10.11l-.51,11.8Z"/><path class="cls-2" d="M104.28,117.68q0,13.8,1.61,19.8v2.2H89.29v-2.2q1.59-6,1.6-19.8V89.08a70.94,70.94,0,0,0-.3-8.5,83.48,83.48,0,0,1-13.1,1.5l-1.1-5.7q11.08-1.91,18.29-6.7h10.11l-.51,11.8Z"/><path class="cls-1" d="M12.84,20.9q0-2.87-.32-6.5,12.42.19,18.6.19t18.6-.19c-.22,2.42-.32,4.59-.32,6.5H48.19a67.41,67.41,0,0,0-12.36-1.85c-.17,2.12-.25,5.31-.25,9.55V45.29q0,8.67,1,12.49v1.4h-11v-1.4a60.43,60.43,0,0,0,.89-12.3V28.86c0-4.37-.08-7.65-.25-9.81A71.59,71.59,0,0,0,14.05,20.9Z"/><path class="cls-1" d="M62.84,34.15V47.78a23.5,23.5,0,0,0,1.85,10v1.4H53.54v-1.4a28,28,0,0,0,1.08-8.6V39.75a13.86,13.86,0,0,0-1.08-5.83,6.63,6.63,0,0,0-2.74-3.21V29.3l11.66-2.16.76,1.27A27.93,27.93,0,0,0,62.84,34.15ZM61.63,13.51a3.57,3.57,0,0,1,.79,2.16,20.79,20.79,0,0,1,.23,2.55,9.29,9.29,0,0,1-.13,1.59l-.57.51a34.7,34.7,0,0,1-7.33,1.15l-.7-.32a7.84,7.84,0,0,1-.8-2.74,20.93,20.93,0,0,1-.28-2.64v-1l.57-.51a21.58,21.58,0,0,1,6.82-1.14h.7Z"/><path class="cls-1" d="M93.09,27.39q6.06,0,8,5.35,2.1-1.71,3.41-2.67a17.28,17.28,0,0,1,3.28-1.82,9.45,9.45,0,0,1,3.76-.86,9.34,9.34,0,0,1,7.39,3c1.74,2,2.61,4.83,2.61,8.56v8.73a25.38,25.38,0,0,0,1.91,10.13v1.4H112.27v-1.4a24.82,24.82,0,0,0,1.08-8.16v-8.4a12.72,12.72,0,0,0-.89-5.42c-.6-1.19-1.84-1.78-3.73-1.78A14.35,14.35,0,0,0,102,36.25c.08,1.1.13,2,.13,2.67v8.73A25.38,25.38,0,0,0,104,57.78v1.4H93.41v-1.4a24.82,24.82,0,0,0,1.08-8.16v-8.4a13.57,13.57,0,0,0-.82-5.42C93.11,34.61,92,34,90.2,34s-4.11.89-7,2.67V47.78a23.5,23.5,0,0,0,1.85,10v1.4H73.86v-1.4a28,28,0,0,0,1.08-8.6V39.75q0-7.14-3.82-9V29.3l10.32-2,.63,1.21a15.71,15.71,0,0,1,.77,4.08,31.23,31.23,0,0,1,5.25-3.95A10,10,0,0,1,93.09,27.39Z"/><path class="cls-1" d="M144.12,60.39a14.12,14.12,0,0,1-9.94-4.14q-4.4-4.14-4.4-11.18a18.22,18.22,0,0,1,4.65-12.36,15.28,15.28,0,0,1,12-5.32q6.24,0,9.3,4t3.06,11.08L156.41,45H139q.06,4.59,2.45,7.07a7.65,7.65,0,0,0,5.73,2.49q3.35,0,10.1-3.5l1.59,2.42c-.81.76-1.72,1.55-2.74,2.35A27.53,27.53,0,0,1,151,58.7,16.07,16.07,0,0,1,144.12,60.39ZM145,31.47a6.55,6.55,0,0,0-3.76,1,12.89,12.89,0,0,0-1.59,4.2,25.7,25.7,0,0,0-.64,4.65l11.15-.64Q150.17,31.48,145,31.47Z"/><path class="cls-2" d="M17.34,18.37q0-2.86-.32-6.49,12.42.18,18.6.19t18.6-.19c-.22,2.42-.32,4.58-.32,6.49H52.69a67.29,67.29,0,0,0-12.36-1.84c-.17,2.12-.25,5.31-.25,9.55V42.77q0,8.67,1,12.48v1.41h-11V55.25A60.25,60.25,0,0,0,31,43V26.34q0-6.57-.25-9.81a71.42,71.42,0,0,0-12.23,1.84Z"/><path class="cls-2" d="M67.34,31.62V45.25a23.47,23.47,0,0,0,1.85,10v1.41H58V55.25a27.92,27.92,0,0,0,1.08-8.59V37.23A13.83,13.83,0,0,0,58,31.4a6.71,6.71,0,0,0-2.74-3.22v-1.4L67,24.62l.76,1.27A27.16,27.16,0,0,0,67.34,31.62ZM66.13,11a3.67,3.67,0,0,1,.79,2.17,20.47,20.47,0,0,1,.23,2.55A9.47,9.47,0,0,1,67,17.29l-.57.51A36.05,36.05,0,0,1,59.12,19l-.7-.32a7.91,7.91,0,0,1-.8-2.74,21.11,21.11,0,0,1-.28-2.64v-1l.57-.51a21.27,21.27,0,0,1,6.82-1.15h.7Z"/><path class="cls-2" d="M97.59,24.87q6.06,0,8,5.35c1.4-1.14,2.54-2,3.41-2.67a16.74,16.74,0,0,1,3.28-1.82,10,10,0,0,1,11.15,2.1c1.74,2,2.61,4.83,2.61,8.57v8.73A25.33,25.33,0,0,0,128,55.25v1.41H116.77V55.25a24.72,24.72,0,0,0,1.08-8.15V38.69a12.67,12.67,0,0,0-.89-5.41c-.6-1.19-1.84-1.78-3.73-1.78a14.35,14.35,0,0,0-6.78,2.23c.08,1.1.13,2,.13,2.67v8.73a25.33,25.33,0,0,0,1.91,10.12v1.41H97.91V55.25A24.72,24.72,0,0,0,99,47.1V38.69a13.52,13.52,0,0,0-.82-5.41c-.56-1.19-1.71-1.78-3.47-1.78s-4.11.89-7,2.67V45.25a23.63,23.63,0,0,0,1.84,10v1.41H78.36V55.25a27.92,27.92,0,0,0,1.08-8.59V37.23q0-7.14-3.82-9v-1.4l10.32-2L86.57,26a15.7,15.7,0,0,1,.77,4.07,32.36,32.36,0,0,1,5.25-3.95A10.13,10.13,0,0,1,97.59,24.87Z"/><path class="cls-2" d="M148.62,57.87a14.12,14.12,0,0,1-9.94-4.14q-4.4-4.14-4.4-11.18a18.2,18.2,0,0,1,4.65-12.36,15.25,15.25,0,0,1,12-5.32q6.24,0,9.3,4T163.33,40l-2.42,2.48H143.46q.06,4.59,2.45,7.07A7.65,7.65,0,0,0,151.64,52q3.35,0,10.1-3.51l1.59,2.42c-.81.77-1.72,1.55-2.74,2.36a28.12,28.12,0,0,1-5.13,2.9A16.22,16.22,0,0,1,148.62,57.87ZM149.51,29a6.62,6.62,0,0,0-3.76.95,13,13,0,0,0-1.59,4.21,24.84,24.84,0,0,0-.64,4.65l11.15-.64Q154.67,29,149.51,29Z"/></g></svg>