<svg xmlns="http://www.w3.org/2000/svg" width="182.2" height="170.22" viewBox="0 0 182.2 170.22"><defs><style>.cls-1{fill:#0d0811;}.cls-2{fill:#7e5289;}</style></defs><g id="points_and_time" data-name="points and time"><path class="cls-1" d="M19.53,25.1c0-1.91-.1-4.07-.32-6.49q12.42.18,18.6.19t18.6-.19q-.31,3.63-.32,6.49h-1.2a67.29,67.29,0,0,0-12.36-1.84c-.17,2.12-.26,5.31-.26,9.55V49.5q0,8.67,1,12.49v1.4H32.34V62a60.43,60.43,0,0,0,.89-12.3V33.07q0-6.57-.26-9.81A71.7,71.7,0,0,0,20.74,25.1Z"/><path class="cls-1" d="M69.53,38.35V52a23.69,23.69,0,0,0,1.85,10v1.4H60.23V62a27.69,27.69,0,0,0,1.09-8.6V44a13.67,13.67,0,0,0-1.09-5.83,6.69,6.69,0,0,0-2.73-3.22v-1.4l11.65-2.16.77,1.27A27,27,0,0,0,69.53,38.35ZM68.32,17.72a3.56,3.56,0,0,1,.8,2.16,20.22,20.22,0,0,1,.22,2.55A9.53,9.53,0,0,1,69.22,24l-.58.51a35.37,35.37,0,0,1-7.32,1.15l-.7-.32a7.69,7.69,0,0,1-.8-2.74A21.55,21.55,0,0,1,59.53,20V19l.58-.51a21.54,21.54,0,0,1,6.81-1.15h.7Z"/><path class="cls-1" d="M99.79,31.6q6.06,0,8,5.35c1.4-1.14,2.53-2,3.4-2.67a16.85,16.85,0,0,1,3.29-1.82,9.95,9.95,0,0,1,11.14,2.1c1.74,2,2.61,4.83,2.61,8.57v8.73A25.42,25.42,0,0,0,130.18,62v1.4H119V62a24.52,24.52,0,0,0,1.09-8.16V45.42a12.67,12.67,0,0,0-.89-5.41c-.6-1.19-1.84-1.78-3.73-1.78a14.42,14.42,0,0,0-6.79,2.23c.09,1.1.13,2,.13,2.67v8.73A25.59,25.59,0,0,0,110.68,62v1.4H100.11V62a24.82,24.82,0,0,0,1.08-8.16V45.42a13.31,13.31,0,0,0-.83-5.41c-.55-1.19-1.71-1.78-3.47-1.78s-4.11.89-7,2.67V52A23.69,23.69,0,0,0,91.7,62v1.4H80.55V62a28,28,0,0,0,1.09-8.6V44q0-7.14-3.83-9.05v-1.4l10.32-2,.64,1.21a16.15,16.15,0,0,1,.77,4.08,30.83,30.83,0,0,1,5.25-3.95A10,10,0,0,1,99.79,31.6Z"/><path class="cls-1" d="M150.81,64.6a14.11,14.11,0,0,1-9.93-4.14q-4.41-4.14-4.4-11.18a18.22,18.22,0,0,1,4.65-12.36,15.26,15.26,0,0,1,12-5.32q6.24,0,9.3,4t3.06,11.09l-2.42,2.48H145.65q.06,4.59,2.46,7.07a7.65,7.65,0,0,0,5.73,2.49q3.34,0,10.09-3.51l1.6,2.42c-.81.77-1.72,1.56-2.74,2.36a27.53,27.53,0,0,1-5.13,2.9A16.22,16.22,0,0,1,150.81,64.6Zm.89-28.92a6.59,6.59,0,0,0-3.75,1,13.28,13.28,0,0,0-1.6,4.21,25.61,25.61,0,0,0-.63,4.65l11.14-.64Q156.86,35.69,151.7,35.68Z"/><path class="cls-2" d="M24,22.58c0-1.91-.1-4.07-.32-6.5q12.42.2,18.6.2t18.6-.2c-.21,2.43-.32,4.59-.32,6.5H59.38A68.19,68.19,0,0,0,47,20.73c-.17,2.13-.26,5.31-.26,9.56V47q0,8.66,1,12.48v1.4H36.84v-1.4a60.32,60.32,0,0,0,.89-12.29V30.54q0-6.55-.26-9.81a72.9,72.9,0,0,0-12.23,1.85Z"/><path class="cls-2" d="M74,35.83V49.46a23.62,23.62,0,0,0,1.85,10v1.4H64.73v-1.4a27.6,27.6,0,0,0,1.09-8.6V41.44a13.67,13.67,0,0,0-1.09-5.83A6.69,6.69,0,0,0,62,32.39V31l11.65-2.17.77,1.28A27,27,0,0,0,74,35.83ZM72.82,15.19a3.57,3.57,0,0,1,.8,2.17,20.07,20.07,0,0,1,.22,2.55,9.53,9.53,0,0,1-.12,1.59l-.58.51a35.45,35.45,0,0,1-7.32,1.14l-.7-.31a7.69,7.69,0,0,1-.8-2.74A21.85,21.85,0,0,1,64,17.45v-1l.58-.51a21.26,21.26,0,0,1,6.81-1.15h.7Z"/><path class="cls-2" d="M104.29,29.08q6,0,8,5.35,2.1-1.73,3.4-2.68A17.61,17.61,0,0,1,119,29.94a9.49,9.49,0,0,1,3.76-.86,9.34,9.34,0,0,1,7.39,3c1.74,2,2.61,4.83,2.61,8.57v8.73a25.37,25.37,0,0,0,1.92,10.12v1.4H123.46v-1.4a24.42,24.42,0,0,0,1.09-8.15V42.9a12.67,12.67,0,0,0-.89-5.41c-.6-1.19-1.84-1.79-3.73-1.79a14.53,14.53,0,0,0-6.79,2.23c.09,1.11.13,2,.13,2.68v8.73a25.54,25.54,0,0,0,1.91,10.12v1.4H104.61v-1.4a24.72,24.72,0,0,0,1.08-8.15V42.9a13.31,13.31,0,0,0-.83-5.41c-.55-1.19-1.71-1.79-3.47-1.79s-4.11.9-7,2.68V49.46a23.62,23.62,0,0,0,1.85,10v1.4H85.05v-1.4a27.91,27.91,0,0,0,1.09-8.6V41.44q0-7.14-3.83-9V31l10.32-2,.64,1.21A15.7,15.7,0,0,1,94,34.3a31.8,31.8,0,0,1,5.26-3.95A10,10,0,0,1,104.29,29.08Z"/><path class="cls-2" d="M155.31,62.07a14.09,14.09,0,0,1-9.94-4.14Q141,53.79,141,46.76a18.18,18.18,0,0,1,4.65-12.36,15.23,15.23,0,0,1,12-5.32q6.24,0,9.3,4T170,44.18l-2.42,2.48H150.15c0,3.06.86,5.41,2.46,7.07a7.64,7.64,0,0,0,5.73,2.48q3.34,0,10.09-3.5l1.6,2.42c-.81.77-1.72,1.55-2.74,2.36a28.12,28.12,0,0,1-5.13,2.9A16.2,16.2,0,0,1,155.31,62.07Zm.89-28.91a6.51,6.51,0,0,0-3.75,1,13.09,13.09,0,0,0-1.6,4.21,25.63,25.63,0,0,0-.63,4.64l11.14-.63Q161.36,33.15,156.2,33.16Z"/><path class="cls-1" d="M69.78,102.7q0-9-7.85-9-5.85,0-17.52,9.09A19.54,19.54,0,0,1,39,91.4q13.13-4.89,23.32-4.88t15.7,4.16A13.47,13.47,0,0,1,83.57,102q0,10.07-10.34,22.89-5.17,6.32-9.44,10.82c-2.83,3-6.4,6.61-10.67,10.82q6,0,8.33-.1,17.24-.57,23.26-5.26L87.3,143l-4.5,11.68h-42l-2.3-5.46q5.46-5.35,8.86-8.81c2.26-2.3,5-5.3,8.13-9a91,91,0,0,0,7.47-9.81,55.84,55.84,0,0,0,4.79-9.39A25.7,25.7,0,0,0,69.78,102.7Z"/><path class="cls-1" d="M102.64,127.72A15.88,15.88,0,0,1,97.56,121a25.86,25.86,0,0,1-1.88-10.27q0-11.33,6.68-18.24T121,85.6q12,0,18.93,7.07t7,21.88q0,21.69-15.78,33-8.52,5.91-24.69,8l-1.64-5.52a41.39,41.39,0,0,0,10.89-3.48,29.9,29.9,0,0,0,9-6.54,28.41,28.41,0,0,0,6-11.18,34.24,34.24,0,0,1-14.42,3.19A23.29,23.29,0,0,1,102.64,127.72Zm30.31-16q0-9.87-2.76-14.42t-9.73-4.55c-3.23,0-5.61.45-7.16,1.35q-3.69,4.75-3.68,14.62,0,14.63,11.13,14.62a27.69,27.69,0,0,0,11.71-2.9C132.79,116.13,133,113.23,133,111.74Z"/><path class="cls-2" d="M75.16,99.94q0-9-7.85-9-5.85,0-17.53,9.09a19.58,19.58,0,0,1-5.36-11.39q13.13-4.89,23.32-4.88t15.7,4.16A13.48,13.48,0,0,1,89,99.27q0,10-10.34,22.88-5.17,6.31-9.44,10.82T58.5,143.79q6,0,8.33-.1,17.24-.57,23.26-5.26l2.59,1.82-4.5,11.68h-42l-2.3-5.46q5.46-5.35,8.86-8.81c2.26-2.3,5-5.3,8.13-9a92.31,92.31,0,0,0,7.47-9.81,55.84,55.84,0,0,0,4.79-9.39A25.7,25.7,0,0,0,75.16,99.94Z"/><path class="cls-2" d="M108,125a15.8,15.8,0,0,1-5.08-6.68A25.86,25.86,0,0,1,101.06,108q0-11.33,6.68-18.24t18.63-6.93q12,0,18.93,7.07t7,21.88q0,21.69-15.78,33-8.52,5.91-24.69,8l-1.64-5.52a41.39,41.39,0,0,0,10.89-3.48,29.9,29.9,0,0,0,9-6.54,28.34,28.34,0,0,0,6-11.18,34.24,34.24,0,0,1-14.42,3.19A23.26,23.26,0,0,1,108,125Zm30.31-16q0-9.87-2.76-14.42T125.84,90c-3.23,0-5.61.45-7.17,1.35Q115,96.12,115,106q0,14.63,11.14,14.62a27.69,27.69,0,0,0,11.71-2.9C138.17,113.37,138.33,110.47,138.33,109Z"/></g></svg>