<svg xmlns="http://www.w3.org/2000/svg" width="182.2" height="170.22" viewBox="0 0 182.2 170.22"><defs><style>.cls-1{fill:#0d0811;}.cls-2{fill:#7e5289;}</style></defs><g id="points_and_time" data-name="points and time"><path class="cls-1" d="M141.63,99.56q0,10.17-11.43,17.14,7.94,4.56,11.28,8.18a13.38,13.38,0,0,1,3.34,9.44,16,16,0,0,1-7.26,14q-7.26,5-18.39,5t-18.5-4.89a15.71,15.71,0,0,1-7.36-13.89q0-12.3,14.53-17.62a26.36,26.36,0,0,1-7.94-7.07,15.34,15.34,0,0,1-2.52-8.91q0-8.52,6.05-13.07t16-4.55q9.91,0,16.07,3.92T141.63,99.56Zm-10.75,36.51a9.67,9.67,0,0,0-3.29-7.26q-3.3-3.11-12.4-7.75-7.93,3.59-7.94,12.3,0,12.09,12.5,12.1a20.91,20.91,0,0,0,7.74-1.16C129.75,142.75,130.88,140,130.88,136.07Zm-20.81-36.8a9.39,9.39,0,0,0,2.66,6.63q2.65,2.86,10.41,6.73,5.8-4.25,5.8-12.49,0-10.55-9.87-10.55A14.61,14.61,0,0,0,113,90.75Q110.07,93.27,110.07,99.27Z"/><path class="cls-2" d="M147.92,98.87q0,10.16-11.43,17.13,7.94,4.56,11.28,8.18a13.4,13.4,0,0,1,3.34,9.44,16,16,0,0,1-7.26,14q-7.26,5-18.39,5T107,147.71a15.71,15.71,0,0,1-7.36-13.89q0-12.3,14.52-17.62a26.3,26.3,0,0,1-7.93-7.07,15.32,15.32,0,0,1-2.52-8.91q0-8.52,6-13.07t16-4.55q9.92,0,16.07,3.92T147.92,98.87Zm-10.75,36.5a9.67,9.67,0,0,0-3.29-7.26q-3.3-3.11-12.4-7.75-7.94,3.58-7.94,12.3,0,12.1,12.5,12.1a20.91,20.91,0,0,0,7.74-1.16C136,142.05,137.17,139.3,137.17,135.37ZM116.35,98.58a9.43,9.43,0,0,0,2.67,6.63q2.66,2.85,10.41,6.72,5.81-4.25,5.8-12.48,0-10.56-9.87-10.56a14.61,14.61,0,0,0-6.11,1.16Q116.35,92.57,116.35,98.58Z"/><path class="cls-1" d="M77.84,132.12q0,13.8,1.6,19.8v2.2H62.84v-2.2q1.6-6,1.61-19.8V103.53A68.1,68.1,0,0,0,64.14,95,83.34,83.34,0,0,1,51,96.52l-1.1-5.7q11.1-1.89,18.3-6.7H78.35l-.51,11.8Z"/><path class="cls-2" d="M82.34,132.12q0,13.8,1.6,19.8v2.2H67.34v-2.2q1.6-6,1.61-19.8V103.53A68.1,68.1,0,0,0,68.64,95a83.34,83.34,0,0,1-13.1,1.5l-1.1-5.7q11.1-1.89,18.3-6.7H82.85l-.51,11.8Z"/><path class="cls-1" d="M18.24,26.39c0-1.91-.1-4.08-.32-6.5q12.42.2,18.6.19t18.6-.19q-.32,3.63-.31,6.5H53.6a67.41,67.41,0,0,0-12.36-1.85c-.17,2.12-.26,5.31-.26,9.55V50.78q0,8.67,1,12.49v1.4H31.05v-1.4A60.43,60.43,0,0,0,31.94,51V34.35q0-6.55-.26-9.81a71.88,71.88,0,0,0-12.23,1.85Z"/><path class="cls-1" d="M68.24,39.64V53.27a23.65,23.65,0,0,0,1.85,10v1.4H59v-1.4A28,28,0,0,0,60,54.67V45.24A13.86,13.86,0,0,0,59,39.41a6.69,6.69,0,0,0-2.74-3.21V34.79l11.65-2.16.77,1.27A27,27,0,0,0,68.24,39.64ZM67,19a3.56,3.56,0,0,1,.8,2.16,20.36,20.36,0,0,1,.22,2.55,9.36,9.36,0,0,1-.12,1.59l-.58.51A34.7,34.7,0,0,1,60,27l-.7-.32a7.63,7.63,0,0,1-.8-2.74,21.55,21.55,0,0,1-.29-2.64v-1l.58-.51a21.52,21.52,0,0,1,6.81-1.14h.7Z"/><path class="cls-1" d="M98.5,32.88q6.06,0,8,5.36,2.1-1.73,3.4-2.68a17.39,17.39,0,0,1,3.29-1.82,9.41,9.41,0,0,1,3.75-.86,9.31,9.31,0,0,1,7.39,3c1.74,2,2.61,4.83,2.61,8.56v8.73a25.38,25.38,0,0,0,1.92,10.13v1.4H117.67v-1.4a24.5,24.5,0,0,0,1.09-8.15V46.71a12.72,12.72,0,0,0-.89-5.42c-.6-1.19-1.84-1.78-3.73-1.78a14.42,14.42,0,0,0-6.79,2.23c.09,1.1.13,2,.13,2.67v8.73a25.56,25.56,0,0,0,1.91,10.13v1.4H98.82v-1.4a24.8,24.8,0,0,0,1.08-8.15V46.71a13.37,13.37,0,0,0-.83-5.42c-.55-1.19-1.71-1.78-3.47-1.78s-4.11.89-7,2.67V53.27a23.65,23.65,0,0,0,1.85,10v1.4H79.26v-1.4a28,28,0,0,0,1.09-8.6V45.24q0-7.12-3.83-9V34.79l10.32-2L87.48,34a16.15,16.15,0,0,1,.77,4.08,30.83,30.83,0,0,1,5.25-4A10,10,0,0,1,98.5,32.88Z"/><path class="cls-1" d="M149.52,65.88a14.11,14.11,0,0,1-9.93-4.14q-4.4-4.14-4.4-11.18a18.22,18.22,0,0,1,4.65-12.36,15.26,15.26,0,0,1,12-5.32q6.24,0,9.3,4T164.24,48l-2.42,2.49H144.36q.06,4.58,2.46,7.07A7.68,7.68,0,0,0,152.55,60q3.34,0,10.09-3.5l1.6,2.42c-.81.76-1.72,1.55-2.74,2.35a27.53,27.53,0,0,1-5.13,2.9A16.08,16.08,0,0,1,149.52,65.88ZM150.41,37a6.51,6.51,0,0,0-3.75,1,13.12,13.12,0,0,0-1.6,4.2,25.61,25.61,0,0,0-.63,4.65l11.14-.64Q155.57,37,150.41,37Z"/><path class="cls-2" d="M22.74,23.86c0-1.91-.1-4.07-.32-6.49q12.42.18,18.6.19t18.6-.19Q59.3,21,59.3,23.86H58.09A67.2,67.2,0,0,0,45.74,22c-.17,2.12-.26,5.31-.26,9.55V48.26q0,8.67,1,12.49v1.4h-11v-1.4a60.43,60.43,0,0,0,.89-12.3V31.83q0-6.57-.26-9.81A71.7,71.7,0,0,0,24,23.86Z"/><path class="cls-2" d="M72.74,37.11V50.75a23.69,23.69,0,0,0,1.85,10v1.4H63.44v-1.4a27.69,27.69,0,0,0,1.09-8.6V42.72a13.67,13.67,0,0,0-1.09-5.83,6.69,6.69,0,0,0-2.73-3.22v-1.4l11.65-2.16.77,1.27A27,27,0,0,0,72.74,37.11ZM71.53,16.48a3.56,3.56,0,0,1,.8,2.16,20.22,20.22,0,0,1,.22,2.55,9.53,9.53,0,0,1-.12,1.59l-.58.51a35.37,35.37,0,0,1-7.32,1.15l-.7-.32a7.69,7.69,0,0,1-.8-2.74,21.55,21.55,0,0,1-.29-2.64v-1l.58-.51a21.54,21.54,0,0,1,6.81-1.15h.7Z"/><path class="cls-2" d="M103,30.36q6,0,8,5.35c1.4-1.14,2.53-2,3.4-2.67a17,17,0,0,1,3.28-1.82,9.49,9.49,0,0,1,3.76-.86,9.34,9.34,0,0,1,7.39,3c1.74,2,2.61,4.83,2.61,8.57v8.73a25.42,25.42,0,0,0,1.92,10.13v1.4H122.17v-1.4a24.52,24.52,0,0,0,1.09-8.16V44.18a12.67,12.67,0,0,0-.89-5.41c-.6-1.19-1.84-1.78-3.73-1.78a14.42,14.42,0,0,0-6.79,2.23c.09,1.1.13,2,.13,2.67v8.73a25.59,25.59,0,0,0,1.91,10.13v1.4H103.32v-1.4a24.82,24.82,0,0,0,1.08-8.16V44.18a13.31,13.31,0,0,0-.83-5.41C103,37.58,101.86,37,100.1,37s-4.11.89-7,2.67V50.75a23.69,23.69,0,0,0,1.85,10v1.4H83.76v-1.4a28,28,0,0,0,1.09-8.6V42.72q0-7.14-3.83-9v-1.4l10.32-2L92,31.51a15.79,15.79,0,0,1,.76,4.08,31.25,31.25,0,0,1,5.26-4A10,10,0,0,1,103,30.36Z"/><path class="cls-2" d="M154,63.36a14.13,14.13,0,0,1-9.94-4.14q-4.4-4.14-4.39-11.18a18.22,18.22,0,0,1,4.65-12.36,15.26,15.26,0,0,1,12-5.32q6.24,0,9.3,4t3.06,11.09l-2.42,2.48H148.86q.06,4.59,2.46,7.07a7.65,7.65,0,0,0,5.73,2.49q3.34,0,10.09-3.51l1.6,2.42c-.81.77-1.72,1.56-2.74,2.36a28.12,28.12,0,0,1-5.13,2.9A16.22,16.22,0,0,1,154,63.36Zm.89-28.92a6.59,6.59,0,0,0-3.75,1,13.28,13.28,0,0,0-1.6,4.21,25.61,25.61,0,0,0-.63,4.65l11.14-.64Q160.07,34.45,154.91,34.44Z"/></g></svg>