<svg xmlns="http://www.w3.org/2000/svg" width="182.2" height="170.22" viewBox="0 0 182.2 170.22"><defs><style>.cls-1{fill:#0d0811;}.cls-2{fill:#7e5289;}</style></defs><g id="points_and_time" data-name="points and time"><path class="cls-1" d="M110.9,137q-6.95,6.24-19.11,6.25a48,48,0,0,1-22.44-5.33v-.58a12.88,12.88,0,0,1,4-9q11,7.66,18.52,7.66h.48q5,0,7.76-1.55,4.28-4,4.27-12.8,0-6.69-3-9.45t-9.64-2.77a78.57,78.57,0,0,0-9.41.39H80.4l-2.23-7.37H88.74a9.87,9.87,0,0,0,8-3.73,13.07,13.07,0,0,0,3.1-8.58q0-10-7.27-10-6.49,0-15.9,7.36a23.64,23.64,0,0,1-4.56-11,78.51,78.51,0,0,1,21.43-3.2q19.29,0,19.29,14.54a17,17,0,0,1-3,10,19,19,0,0,1-7,6.25q15,3.21,15,17.06A20.46,20.46,0,0,1,110.9,137Z"/><path class="cls-2" d="M114.66,137q-6.93,6.24-19.1,6.25a48.08,48.08,0,0,1-22.45-5.33v-.58a12.89,12.89,0,0,1,4-9Q88,136,95.61,136h.48c3.36,0,6-.52,7.75-1.55q4.27-4,4.27-12.8,0-6.69-3-9.45t-9.64-2.77a78.37,78.37,0,0,0-9.4.39H84.17l-2.24-7.37H92.51a9.87,9.87,0,0,0,7.94-3.73,13,13,0,0,0,3.11-8.58q0-10-7.27-10-6.51,0-15.9,7.36a23.54,23.54,0,0,1-4.56-11,78.4,78.4,0,0,1,21.43-3.2q19.29,0,19.29,14.54a17.05,17.05,0,0,1-3,10,19,19,0,0,1-7,6.25q15,3.21,15,17.06A20.44,20.44,0,0,1,114.66,137Z"/><path class="cls-1" d="M14.85,22.78q0-2.87-.32-6.49,12.42.18,18.6.19t18.6-.19c-.22,2.42-.32,4.58-.32,6.49H50.2a67.29,67.29,0,0,0-12.36-1.84c-.17,2.12-.26,5.31-.26,9.55V47.18q0,8.67,1,12.49v1.4h-11v-1.4a60.43,60.43,0,0,0,.89-12.3V30.75q0-6.57-.26-9.81a71.7,71.7,0,0,0-12.23,1.84Z"/><path class="cls-1" d="M64.85,36V49.67a23.69,23.69,0,0,0,1.84,10v1.4H55.55v-1.4a28,28,0,0,0,1.08-8.6V41.64a13.83,13.83,0,0,0-1.08-5.83,6.76,6.76,0,0,0-2.74-3.22v-1.4L64.46,29l.77,1.27A27.16,27.16,0,0,0,64.85,36ZM63.64,15.4a3.63,3.63,0,0,1,.79,2.16,20.62,20.62,0,0,1,.23,2.55,9.47,9.47,0,0,1-.13,1.59l-.57.51a35.48,35.48,0,0,1-7.33,1.15l-.7-.32a7.69,7.69,0,0,1-.8-2.74,20.93,20.93,0,0,1-.28-2.64v-1l.57-.51A21.55,21.55,0,0,1,62.24,15h.7Z"/><path class="cls-1" d="M95.1,29.28q6.06,0,8,5.35c1.4-1.14,2.54-2,3.41-2.67a16.74,16.74,0,0,1,3.28-1.82,9.45,9.45,0,0,1,3.76-.86,9.33,9.33,0,0,1,7.38,3c1.75,2,2.62,4.83,2.62,8.57v8.73a25.42,25.42,0,0,0,1.91,10.13v1.4H114.28v-1.4a24.82,24.82,0,0,0,1.08-8.16V43.1a12.67,12.67,0,0,0-.89-5.41c-.6-1.19-1.84-1.78-3.73-1.78A14.35,14.35,0,0,0,104,38.14q.12,1.65.12,2.67v8.73A25.59,25.59,0,0,0,106,59.67v1.4H95.42v-1.4a24.82,24.82,0,0,0,1.08-8.16V43.1a13.52,13.52,0,0,0-.82-5.41c-.56-1.19-1.71-1.78-3.48-1.78s-4.1.89-7,2.67V49.67a23.69,23.69,0,0,0,1.84,10v1.4H75.87v-1.4A28,28,0,0,0,77,51.07V41.64q0-7.14-3.82-9v-1.4l10.32-2,.63,1.21a15.71,15.71,0,0,1,.77,4.08,30.83,30.83,0,0,1,5.25-3.95A10,10,0,0,1,95.1,29.28Z"/><path class="cls-1" d="M146.12,62.28a14.11,14.11,0,0,1-9.93-4.14Q131.79,54,131.79,47a18.22,18.22,0,0,1,4.65-12.36,15.28,15.28,0,0,1,12-5.32q6.24,0,9.3,4t3.06,11.09l-2.42,2.48H141c0,3.06.86,5.42,2.46,7.07a7.65,7.65,0,0,0,5.73,2.49q3.34,0,10.1-3.51l1.59,2.42c-.81.77-1.72,1.56-2.74,2.36a28.12,28.12,0,0,1-5.13,2.9A16.22,16.22,0,0,1,146.12,62.28Zm.9-28.92a6.6,6.6,0,0,0-3.76,1,13,13,0,0,0-1.59,4.21,24.84,24.84,0,0,0-.64,4.65l11.15-.64Q152.18,33.37,147,33.36Z"/><path class="cls-2" d="M19.34,20.26c0-1.91-.1-4.07-.31-6.5q12.42.2,18.6.2t18.6-.2c-.22,2.43-.32,4.59-.32,6.5H54.7a68.28,68.28,0,0,0-12.36-1.85c-.17,2.13-.26,5.31-.26,9.56V44.66q0,8.66,1,12.48v1.4h-11v-1.4A60.32,60.32,0,0,0,33,44.85V28.22q0-6.55-.26-9.81a72.9,72.9,0,0,0-12.23,1.85Z"/><path class="cls-2" d="M69.35,33.51V47.14a23.63,23.63,0,0,0,1.84,10v1.4H60.05v-1.4a27.94,27.94,0,0,0,1.08-8.6V39.12a13.83,13.83,0,0,0-1.08-5.83,6.76,6.76,0,0,0-2.74-3.22v-1.4L69,26.5l.77,1.28A27.16,27.16,0,0,0,69.35,33.51ZM68.14,12.87A3.64,3.64,0,0,1,68.93,15a20.47,20.47,0,0,1,.23,2.55A9.47,9.47,0,0,1,69,19.18l-.57.51a35.56,35.56,0,0,1-7.33,1.14l-.7-.31a7.76,7.76,0,0,1-.8-2.74,21.22,21.22,0,0,1-.28-2.65v-1l.57-.51a21.26,21.26,0,0,1,6.81-1.15h.71Z"/><path class="cls-2" d="M99.6,26.76q6.06,0,8,5.35c1.4-1.15,2.53-2,3.41-2.68a17.29,17.29,0,0,1,3.28-1.81,9.45,9.45,0,0,1,3.75-.86,9.34,9.34,0,0,1,7.39,3c1.75,2,2.62,4.83,2.62,8.57V47A25.37,25.37,0,0,0,130,57.14v1.4H118.78v-1.4A24.72,24.72,0,0,0,119.86,49V40.58a12.67,12.67,0,0,0-.89-5.41c-.6-1.19-1.84-1.79-3.73-1.79a14.47,14.47,0,0,0-6.78,2.23c.08,1.11.12,2,.12,2.68V47a25.54,25.54,0,0,0,1.91,10.12v1.4H99.92v-1.4A24.72,24.72,0,0,0,101,49V40.58a13.52,13.52,0,0,0-.82-5.41c-.56-1.19-1.71-1.79-3.48-1.79s-4.1.9-7,2.68V47.14a23.63,23.63,0,0,0,1.84,10v1.4H80.37v-1.4a27.94,27.94,0,0,0,1.08-8.6V39.12q0-7.14-3.82-9v-1.4L88,26.7l.63,1.21A15.61,15.61,0,0,1,89.35,32,31.37,31.37,0,0,1,94.6,28,10,10,0,0,1,99.6,26.76Z"/><path class="cls-2" d="M150.62,59.75a14.07,14.07,0,0,1-9.93-4.14q-4.4-4.14-4.4-11.17a18.18,18.18,0,0,1,4.65-12.36,15.23,15.23,0,0,1,12-5.32q6.24,0,9.3,4t3.06,11.09l-2.42,2.48H145.46c0,3.06.86,5.41,2.46,7.07a7.64,7.64,0,0,0,5.73,2.48q3.34,0,10.1-3.5l1.59,2.42c-.81.77-1.72,1.55-2.74,2.36a28.12,28.12,0,0,1-5.13,2.9A16.2,16.2,0,0,1,150.62,59.75Zm.9-28.91a6.52,6.52,0,0,0-3.76.95A12.87,12.87,0,0,0,146.17,36a24.86,24.86,0,0,0-.64,4.64L156.68,40Q156.68,30.83,151.52,30.84Z"/></g></svg>