<svg xmlns="http://www.w3.org/2000/svg" width="182.2" height="170.22" viewBox="0 0 182.2 170.22"><defs><style>.cls-1{fill:#0d0811;}.cls-2{fill:#7e5289;}</style></defs><g id="points_and_time" data-name="points and time"><path class="cls-1" d="M86.44,80.81l25.44-.1.3,1.19q-2,3.36-14.25,34.36-8.13,20.49-10.41,34.15H69.61l-.4-2.18q10-16.62,17.82-33t11.69-25.9Q91.58,89,88.52,89q-14.05,0-20.3,5.74H66.54L63.67,80.41Q77.53,80.82,86.44,80.81Z"/><path class="cls-2" d="M91.53,78.05,117,78l.3,1.19q-2,3.36-14.25,34.36Q94.89,134,92.62,147.65H74.7l-.4-2.18q10-16.62,17.82-33t11.69-25.9q-7.14-.28-10.2-.29-14.06,0-20.3,5.74H71.63L68.76,77.65Q82.62,78.06,91.53,78.05Z"/><path class="cls-1" d="M15.38,24.76c0-1.91-.1-4.07-.32-6.5q12.42.19,18.6.2t18.6-.2c-.21,2.43-.32,4.59-.32,6.5H50.73a68.19,68.19,0,0,0-12.35-1.85c-.17,2.13-.26,5.31-.26,9.56V49.16q0,8.66,1,12.48V63H28.19v-1.4a60.32,60.32,0,0,0,.89-12.29V32.72q0-6.55-.26-9.81a72.9,72.9,0,0,0-12.23,1.85Z"/><path class="cls-1" d="M65.38,38V51.64a23.62,23.62,0,0,0,1.85,10V63H56.08v-1.4A27.6,27.6,0,0,0,57.17,53V43.62a13.67,13.67,0,0,0-1.09-5.83,6.69,6.69,0,0,0-2.73-3.22v-1.4L65,31l.77,1.28A27,27,0,0,0,65.38,38ZM64.17,17.37a3.57,3.57,0,0,1,.8,2.17,20.07,20.07,0,0,1,.22,2.55,8.52,8.52,0,0,1-.13,1.59l-.57.51a35.45,35.45,0,0,1-7.32,1.14l-.7-.31a7.69,7.69,0,0,1-.8-2.74,21.85,21.85,0,0,1-.29-2.65v-1l.58-.51A21.26,21.26,0,0,1,62.77,17h.7Z"/><path class="cls-1" d="M95.64,31.26q6,0,8,5.35,2.1-1.72,3.4-2.68a17.61,17.61,0,0,1,3.28-1.81,9.49,9.49,0,0,1,3.76-.86,9.34,9.34,0,0,1,7.39,3c1.74,2,2.61,4.83,2.61,8.57v8.73A25.54,25.54,0,0,0,126,61.64V63H114.81v-1.4a24.68,24.68,0,0,0,1.09-8.15V45.08a12.49,12.49,0,0,0-.9-5.41c-.59-1.19-1.83-1.79-3.72-1.79a14.53,14.53,0,0,0-6.79,2.23c.09,1.11.13,2,.13,2.68v8.73a25.54,25.54,0,0,0,1.91,10.12V63H96v-1.4A24.72,24.72,0,0,0,97,53.49V45.08a13.49,13.49,0,0,0-.83-5.41c-.55-1.19-1.71-1.79-3.47-1.79s-4.11.9-7,2.68V51.64a23.62,23.62,0,0,0,1.85,10V63H76.4v-1.4A27.91,27.91,0,0,0,77.49,53V43.62q0-7.14-3.83-9v-1.4L84,31.2l.64,1.21a15.7,15.7,0,0,1,.76,4.07,31.8,31.8,0,0,1,5.26-3.95A10,10,0,0,1,95.64,31.26Z"/><path class="cls-1" d="M146.66,64.25a14.09,14.09,0,0,1-9.94-4.14q-4.4-4.14-4.39-11.17A18.18,18.18,0,0,1,137,36.58a15.23,15.23,0,0,1,12-5.32q6.24,0,9.3,4t3.06,11.09L159,48.84H141.5c0,3.06.86,5.41,2.45,7.07a7.68,7.68,0,0,0,5.74,2.48q3.34,0,10.09-3.5l1.6,2.42c-.81.77-1.72,1.55-2.74,2.36a28.12,28.12,0,0,1-5.13,2.9A16.2,16.2,0,0,1,146.66,64.25Zm.89-28.91a6.51,6.51,0,0,0-3.75.95,12.86,12.86,0,0,0-1.6,4.21,25.63,25.63,0,0,0-.63,4.64l11.14-.63Q152.71,35.33,147.55,35.34Z"/><path class="cls-2" d="M19.88,22.24c0-1.91-.1-4.08-.32-6.5q12.42.19,18.6.19t18.6-.19q-.32,3.63-.32,6.5H55.23a68.19,68.19,0,0,0-12.35-1.85c-.17,2.13-.26,5.31-.26,9.56V46.64q0,8.65,1,12.48v1.4h-11v-1.4a59.42,59.42,0,0,0,.9-12.29V30.2q0-6.56-.26-9.81a72.9,72.9,0,0,0-12.23,1.85Z"/><path class="cls-2" d="M69.88,35.49V49.12a23.62,23.62,0,0,0,1.85,10v1.4H60.58v-1.4a27.6,27.6,0,0,0,1.09-8.6V41.09a13.65,13.65,0,0,0-1.09-5.82,6.61,6.61,0,0,0-2.74-3.22v-1.4L69.5,28.48l.76,1.28A27.75,27.75,0,0,0,69.88,35.49ZM68.67,14.85a3.57,3.57,0,0,1,.8,2.17,20.09,20.09,0,0,1,.22,2.54,8.56,8.56,0,0,1-.13,1.6l-.57.51a35.45,35.45,0,0,1-7.32,1.14l-.7-.32a7.63,7.63,0,0,1-.8-2.74,21.55,21.55,0,0,1-.29-2.64v-1l.58-.51a21.52,21.52,0,0,1,6.81-1.14H68Z"/><path class="cls-2" d="M100.14,28.74q6,0,8,5.35,2.1-1.73,3.4-2.68a17,17,0,0,1,3.28-1.81A10,10,0,0,1,126,31.7q2.61,3,2.61,8.57V49a25.56,25.56,0,0,0,1.91,10.13v1.4H119.31v-1.4A24.72,24.72,0,0,0,120.4,51V42.56a12.54,12.54,0,0,0-.9-5.42c-.59-1.18-1.83-1.78-3.72-1.78A14.42,14.42,0,0,0,109,37.59c.09,1.1.13,2,.13,2.68V49A25.56,25.56,0,0,0,111,59.12v1.4H100.46v-1.4A24.76,24.76,0,0,0,101.54,51V42.56a13.55,13.55,0,0,0-.83-5.42c-.55-1.18-1.71-1.78-3.47-1.78s-4.11.89-7,2.68V49.12a23.62,23.62,0,0,0,1.85,10v1.4H80.9v-1.4A27.91,27.91,0,0,0,82,50.52V41.09q0-7.12-3.83-9v-1.4l10.32-2,.64,1.21A15.79,15.79,0,0,1,89.88,34,31.8,31.8,0,0,1,95.14,30,10,10,0,0,1,100.14,28.74Z"/><path class="cls-2" d="M151.16,61.73a14.13,14.13,0,0,1-9.94-4.14q-4.4-4.14-4.39-11.18a18.22,18.22,0,0,1,4.65-12.36,15.25,15.25,0,0,1,12-5.31q6.24,0,9.3,4t3.05,11.08l-2.41,2.49H146q.06,4.57,2.45,7.07a7.72,7.72,0,0,0,5.74,2.48q3.34,0,10.09-3.5l1.59,2.42c-.8.76-1.71,1.55-2.73,2.36A28.21,28.21,0,0,1,158,60,16.08,16.08,0,0,1,151.16,61.73Zm.89-28.92a6.51,6.51,0,0,0-3.75,1,12.89,12.89,0,0,0-1.6,4.2,25.61,25.61,0,0,0-.63,4.65L157.21,42Q157.21,32.81,152.05,32.81Z"/></g></svg>