<svg xmlns="http://www.w3.org/2000/svg" width="182.2" height="170.22" viewBox="0 0 182.2 170.22"><defs><style>.cls-1{fill:none;}.cls-2{fill:#0d0811;}.cls-3{fill:#7e5289;}</style></defs><g id="sofa_and_floor" data-name="sofa and floor"><rect class="cls-1" x="-1904.9" y="-1.29" width="1920" height="1080"/></g><g id="points_and_time" data-name="points and time"><path class="cls-2" d="M93,125.9q0-11.67-16.67-12.75l-13-.88-2.45-2.64q1.66-12.45,5.4-31.28l34.7-.49,2.45,14.31h-1.86a23,23,0,0,0-9-4.36,46.62,46.62,0,0,0-12.5-1.62H75A121.77,121.77,0,0,0,71,104.63c7.32.32,12.37.67,15.14,1a45.38,45.38,0,0,1,8.19,1.87,19.47,19.47,0,0,1,6.47,3.38q5.79,4.71,5.78,14.17a20.76,20.76,0,0,1-7.5,16.12q-7.48,6.67-19.75,6.67t-25.59-6.57A18.63,18.63,0,0,1,56,136a19.17,19.17,0,0,1,3.62-4.85q12.56,9,22.16,9a18.77,18.77,0,0,0,7.45-1.28A14.33,14.33,0,0,0,92,133,28.06,28.06,0,0,0,93,125.9Z"/><path class="cls-3" d="M97.85,125.9q0-11.67-16.67-12.75l-13-.88-2.45-2.64q1.66-12.45,5.4-31.28l34.7-.49,2.45,14.31h-1.86a23,23,0,0,0-9-4.36,46.62,46.62,0,0,0-12.5-1.62h-5.1a123,123,0,0,0-3.92,18.44c7.32.32,12.37.67,15.14,1a45.38,45.38,0,0,1,8.19,1.87,19.47,19.47,0,0,1,6.47,3.38q5.79,4.71,5.78,14.17a20.76,20.76,0,0,1-7.5,16.12q-7.48,6.67-19.75,6.67t-25.59-6.57a24.66,24.66,0,0,1,5.88-10.19q12.55,9,22.16,9a18.77,18.77,0,0,0,7.45-1.28A14.47,14.47,0,0,0,96.87,133,28.48,28.48,0,0,0,97.85,125.9Z"/><path class="cls-2" d="M13.06,21.91c0-1.91-.1-4.08-.32-6.5q12.42.19,18.6.19t18.6-.19q-.31,3.63-.32,6.5H48.41a67.31,67.31,0,0,0-12.35-1.85c-.17,2.12-.26,5.31-.26,9.55V46.3q0,8.67,1,12.49v1.4H25.87v-1.4a60.43,60.43,0,0,0,.89-12.3V29.87q0-6.56-.26-9.81a71.88,71.88,0,0,0-12.23,1.85Z"/><path class="cls-2" d="M63.06,35.16V48.79a23.65,23.65,0,0,0,1.85,10v1.4H53.76v-1.4a27.65,27.65,0,0,0,1.09-8.6V40.76a13.7,13.7,0,0,0-1.09-5.83A6.62,6.62,0,0,0,51,31.72v-1.4l11.65-2.17.77,1.27A27,27,0,0,0,63.06,35.16ZM61.85,14.52a3.56,3.56,0,0,1,.8,2.16,20.36,20.36,0,0,1,.22,2.55,8.38,8.38,0,0,1-.13,1.59l-.57.51a34.7,34.7,0,0,1-7.32,1.15l-.7-.32a7.63,7.63,0,0,1-.8-2.74,21.55,21.55,0,0,1-.29-2.64v-1l.58-.51a21.52,21.52,0,0,1,6.81-1.14h.7Z"/><path class="cls-2" d="M93.32,28.4q6,0,8,5.36,2.1-1.73,3.4-2.68A17.6,17.6,0,0,1,108,29.26a9.49,9.49,0,0,1,3.76-.86,9.31,9.31,0,0,1,7.39,3c1.74,2,2.61,4.83,2.61,8.56v8.73a25.56,25.56,0,0,0,1.91,10.13v1.4H112.49v-1.4a24.72,24.72,0,0,0,1.09-8.15V42.23a12.54,12.54,0,0,0-.9-5.42C112.09,35.62,110.85,35,109,35a14.42,14.42,0,0,0-6.79,2.23c.09,1.1.13,2,.13,2.67v8.73a25.56,25.56,0,0,0,1.91,10.13v1.4H93.64v-1.4a24.76,24.76,0,0,0,1.08-8.15V42.23a13.55,13.55,0,0,0-.83-5.42C93.34,35.62,92.18,35,90.42,35s-4.11.89-7,2.67V48.79a23.65,23.65,0,0,0,1.85,10v1.4H74.08v-1.4a28,28,0,0,0,1.09-8.6V40.76q0-7.12-3.83-9v-1.4l10.32-2,.64,1.21a15.79,15.79,0,0,1,.76,4.08,31.25,31.25,0,0,1,5.26-4A10,10,0,0,1,93.32,28.4Z"/><path class="cls-2" d="M144.34,61.4a14.13,14.13,0,0,1-9.94-4.14Q130,53.12,130,46.08a18.22,18.22,0,0,1,4.65-12.36,15.26,15.26,0,0,1,12-5.32q6.24,0,9.3,4t3.06,11.08L156.64,46H139.18q.06,4.57,2.45,7.07a7.72,7.72,0,0,0,5.74,2.48q3.34,0,10.09-3.5l1.6,2.42c-.81.76-1.72,1.55-2.74,2.35a27.53,27.53,0,0,1-5.13,2.9A16.08,16.08,0,0,1,144.34,61.4Zm.89-28.92a6.51,6.51,0,0,0-3.75,1,12.89,12.89,0,0,0-1.6,4.2,25.61,25.61,0,0,0-.63,4.65l11.14-.64Q150.39,32.49,145.23,32.48Z"/><path class="cls-3" d="M17.56,19.39c0-1.92-.1-4.08-.32-6.5q12.42.18,18.6.19t18.6-.19c-.21,2.42-.32,4.58-.32,6.5H52.91a66.46,66.46,0,0,0-12.35-1.85c-.17,2.12-.26,5.31-.26,9.55V43.78q0,8.67,1,12.49v1.4h-11v-1.4a59.54,59.54,0,0,0,.9-12.3V27.35q0-6.57-.26-9.81a70.88,70.88,0,0,0-12.23,1.85Z"/><path class="cls-3" d="M67.56,32.63V46.27a23.69,23.69,0,0,0,1.85,10v1.4H58.26v-1.4a27.69,27.69,0,0,0,1.09-8.6V38.24a13.67,13.67,0,0,0-1.09-5.83,6.69,6.69,0,0,0-2.73-3.22v-1.4l11.65-2.16L68,26.9A27,27,0,0,0,67.56,32.63ZM66.35,12a3.56,3.56,0,0,1,.8,2.16,20.36,20.36,0,0,1,.22,2.55,8.52,8.52,0,0,1-.13,1.59l-.57.51A35.37,35.37,0,0,1,59.35,20l-.7-.32a7.69,7.69,0,0,1-.8-2.74,21.55,21.55,0,0,1-.29-2.64v-1l.58-.51A21.54,21.54,0,0,1,65,11.61h.7Z"/><path class="cls-3" d="M97.82,25.88q6,0,8,5.35c1.4-1.14,2.53-2,3.4-2.67a17,17,0,0,1,3.28-1.82,9.49,9.49,0,0,1,3.76-.86,9.34,9.34,0,0,1,7.39,3c1.74,2,2.61,4.83,2.61,8.57v8.73a25.59,25.59,0,0,0,1.91,10.13v1.4H117v-1.4a24.79,24.79,0,0,0,1.09-8.16V39.7a12.49,12.49,0,0,0-.9-5.41c-.59-1.19-1.83-1.78-3.72-1.78a14.42,14.42,0,0,0-6.79,2.23c.09,1.1.13,2,.13,2.67v8.73a25.59,25.59,0,0,0,1.91,10.13v1.4H98.14v-1.4a24.82,24.82,0,0,0,1.08-8.16V39.7a13.49,13.49,0,0,0-.83-5.41c-.55-1.19-1.71-1.78-3.47-1.78s-4.11.89-7,2.67V46.27a23.69,23.69,0,0,0,1.85,10v1.4H78.58v-1.4a28,28,0,0,0,1.09-8.6V38.24q0-7.14-3.83-9v-1.4l10.32-2L86.8,27a15.79,15.79,0,0,1,.76,4.08,31.25,31.25,0,0,1,5.26-3.95A10,10,0,0,1,97.82,25.88Z"/><path class="cls-3" d="M148.84,58.88a14.13,14.13,0,0,1-9.94-4.14q-4.4-4.14-4.39-11.18a18.22,18.22,0,0,1,4.65-12.36,15.26,15.26,0,0,1,12-5.32q6.24,0,9.3,4T163.55,41l-2.41,2.48H143.68q.06,4.59,2.45,7.07A7.69,7.69,0,0,0,151.87,53q3.34,0,10.09-3.51l1.59,2.42a35.79,35.79,0,0,1-2.73,2.36,27.53,27.53,0,0,1-5.13,2.9A16.22,16.22,0,0,1,148.84,58.88ZM149.73,30a6.59,6.59,0,0,0-3.75.95,13,13,0,0,0-1.6,4.21,25.61,25.61,0,0,0-.63,4.65l11.14-.64Q154.89,30,149.73,30Z"/></g></svg>