<svg xmlns="http://www.w3.org/2000/svg" width="182.2" height="170.22" viewBox="0 0 182.2 170.22"><defs><style>.cls-1{fill:#0d0811;}.cls-2{fill:#7e5289;}</style></defs><g id="points_and_time" data-name="points and time"><path class="cls-1" d="M134,144.06q-6.94,6.25-19.1,6.26A47.94,47.94,0,0,1,92.4,145v-.58a12.87,12.87,0,0,1,4-9q11,7.67,18.51,7.67h.48c3.37,0,5.95-.52,7.76-1.56q4.28-4,4.27-12.8c0-4.45-1-7.61-3-9.45s-5.18-2.76-9.64-2.76a76.45,76.45,0,0,0-9.41.39h-1.94l-2.23-7.37h10.57a9.9,9.9,0,0,0,7.95-3.73,13.1,13.1,0,0,0,3.11-8.59q0-10-7.28-10-6.5,0-15.9,7.37a23.69,23.69,0,0,1-4.56-11,78.13,78.13,0,0,1,21.43-3.2q19.29,0,19.29,14.54a17,17,0,0,1-3,10,18.84,18.84,0,0,1-7,6.26q15,3.19,15,17.06A20.44,20.44,0,0,1,134,144.06Z"/><path class="cls-2" d="M137.71,144.06q-6.93,6.25-19.1,6.26A48,48,0,0,1,96.16,145v-.58a12.91,12.91,0,0,1,4-9q11,7.67,18.52,7.67h.48q5,0,7.76-1.56,4.26-4,4.26-12.8c0-4.45-1-7.61-2.95-9.45s-5.19-2.76-9.65-2.76a76.37,76.37,0,0,0-9.4.39h-1.94L105,109.5h10.58a9.88,9.88,0,0,0,7.94-3.73,13,13,0,0,0,3.11-8.59q0-10-7.27-10-6.5,0-15.9,7.37a23.58,23.58,0,0,1-4.56-11,78,78,0,0,1,21.43-3.2q19.29,0,19.29,14.54a17,17,0,0,1-3,10,18.91,18.91,0,0,1-7,6.26q15,3.19,15,17.06A20.42,20.42,0,0,1,137.71,144.06Z"/><path class="cls-1" d="M80.17,127.61q0,13.8,1.6,19.8v2.2H65.17v-2.2q1.59-6,1.6-19.8V99a70.94,70.94,0,0,0-.3-8.5A83.48,83.48,0,0,1,53.37,92l-1.1-5.7q11.1-1.91,18.29-6.7H80.67l-.5,11.8Z"/><path class="cls-2" d="M84.67,127.61q0,13.8,1.6,19.8v2.2H69.67v-2.2q1.59-6,1.6-19.8V99a70.94,70.94,0,0,0-.3-8.5A83.48,83.48,0,0,1,57.87,92l-1.1-5.7q11.1-1.91,18.29-6.7H85.17l-.5,11.8Z"/><path class="cls-1" d="M20.57,21.87q0-2.86-.32-6.5,12.42.2,18.6.2t18.6-.2q-.31,3.63-.32,6.5H55.92A68.28,68.28,0,0,0,43.56,20c-.17,2.13-.25,5.31-.25,9.56V46.27q0,8.65,1,12.48v1.4h-11v-1.4a59.59,59.59,0,0,0,.89-12.29V29.83q0-6.55-.25-9.81a72.76,72.76,0,0,0-12.23,1.85Z"/><path class="cls-1" d="M70.57,35.12V48.75a23.47,23.47,0,0,0,1.85,10v1.4H61.27v-1.4a27.94,27.94,0,0,0,1.08-8.6V40.73a13.83,13.83,0,0,0-1.08-5.83,6.71,6.71,0,0,0-2.74-3.22v-1.4l11.66-2.17L71,29.39A27.88,27.88,0,0,0,70.57,35.12ZM69.36,14.48a3.64,3.64,0,0,1,.8,2.17,22.14,22.14,0,0,1,.22,2.55,8.52,8.52,0,0,1-.13,1.59l-.57.51a35.45,35.45,0,0,1-7.33,1.14l-.7-.31a7.79,7.79,0,0,1-.79-2.74,19.93,19.93,0,0,1-.29-2.65v-1l.57-.51A21.32,21.32,0,0,1,68,14.1h.7Z"/><path class="cls-1" d="M100.83,28.37q6,0,8,5.35Q111,32,112.26,31a17.29,17.29,0,0,1,3.28-1.81,9.49,9.49,0,0,1,3.76-.86,9.35,9.35,0,0,1,7.39,3c1.74,2,2.61,4.83,2.61,8.57v8.73a25.54,25.54,0,0,0,1.91,10.12v1.4H120v-1.4a24.72,24.72,0,0,0,1.08-8.15V42.19a12.67,12.67,0,0,0-.89-5.41c-.6-1.19-1.84-1.79-3.73-1.79a14.47,14.47,0,0,0-6.78,2.23c.08,1.11.13,2,.13,2.68v8.73a25.37,25.37,0,0,0,1.91,10.12v1.4H101.14v-1.4a24.42,24.42,0,0,0,1.09-8.15V42.19a13.49,13.49,0,0,0-.83-5.41c-.55-1.19-1.71-1.79-3.47-1.79s-4.11.89-7,2.68V48.75a23.47,23.47,0,0,0,1.85,10v1.4H81.59v-1.4a27.94,27.94,0,0,0,1.08-8.6V40.73q0-7.14-3.82-9v-1.4l10.32-2,.64,1.21a16.14,16.14,0,0,1,.76,4.07,31.8,31.8,0,0,1,5.26-4A10,10,0,0,1,100.83,28.37Z"/><path class="cls-1" d="M151.85,61.36a14.12,14.12,0,0,1-9.94-4.14q-4.4-4.14-4.39-11.17a18.18,18.18,0,0,1,4.65-12.36,15.21,15.21,0,0,1,12-5.32q6.26,0,9.3,4t3.06,11.09L164.14,46H146.69c0,3.06.86,5.41,2.45,7.07a7.64,7.64,0,0,0,5.73,2.48q3.34,0,10.1-3.5l1.59,2.42c-.81.77-1.72,1.55-2.74,2.36a28.73,28.73,0,0,1-5.13,2.9A16.16,16.16,0,0,1,151.85,61.36Zm.89-28.91a6.55,6.55,0,0,0-3.76.95,12.87,12.87,0,0,0-1.59,4.21,25.72,25.72,0,0,0-.64,4.64l11.15-.63Q157.9,32.44,152.74,32.45Z"/><path class="cls-2" d="M25.07,19.35q0-2.87-.32-6.5,12.42.2,18.6.19T62,12.85q-.31,3.63-.32,6.5H60.42A67.41,67.41,0,0,0,48.06,17.5q-.26,3.18-.25,9.56V43.75q0,8.66,1,12.48v1.4h-11v-1.4a59.66,59.66,0,0,0,.89-12.29V27.31q0-6.55-.25-9.81a71.74,71.74,0,0,0-12.23,1.85Z"/><path class="cls-2" d="M75.07,32.6V46.23a23.5,23.5,0,0,0,1.85,10v1.4H65.77v-1.4a28,28,0,0,0,1.08-8.6V38.2a13.81,13.81,0,0,0-1.08-5.82A6.66,6.66,0,0,0,63,29.16v-1.4l11.66-2.17.76,1.28A27.75,27.75,0,0,0,75.07,32.6ZM73.86,12a3.64,3.64,0,0,1,.8,2.17,22.18,22.18,0,0,1,.22,2.54,8.56,8.56,0,0,1-.13,1.6l-.57.51a35.45,35.45,0,0,1-7.33,1.14l-.7-.32a7.84,7.84,0,0,1-.8-2.74,20.93,20.93,0,0,1-.28-2.64v-1l.57-.51a21.58,21.58,0,0,1,6.82-1.14h.7Z"/><path class="cls-2" d="M105.33,25.85q6,0,8,5.35,2.1-1.72,3.41-2.68A16.75,16.75,0,0,1,120,26.71a10,10,0,0,1,11.15,2.1c1.74,2,2.61,4.83,2.61,8.56V46.1a25.56,25.56,0,0,0,1.91,10.13v1.4H124.5v-1.4a24.76,24.76,0,0,0,1.08-8.15V39.67a12.72,12.72,0,0,0-.89-5.42c-.6-1.18-1.84-1.78-3.73-1.78a14.35,14.35,0,0,0-6.78,2.23c.08,1.1.13,2,.13,2.67V46.1a25.38,25.38,0,0,0,1.91,10.13v1.4H105.64v-1.4a24.46,24.46,0,0,0,1.09-8.15V39.67a13.55,13.55,0,0,0-.83-5.42c-.55-1.18-1.71-1.78-3.47-1.78s-4.11.89-7,2.68V46.23a23.5,23.5,0,0,0,1.85,10v1.4H86.09v-1.4a28,28,0,0,0,1.08-8.6V38.2q0-7.12-3.82-9v-1.4l10.32-2L94.31,27a16.24,16.24,0,0,1,.76,4.08,31.8,31.8,0,0,1,5.26-3.95A10,10,0,0,1,105.33,25.85Z"/><path class="cls-2" d="M156.35,58.84a14.12,14.12,0,0,1-9.94-4.14Q142,50.56,142,43.52a18.17,18.17,0,0,1,4.65-12.36,15.23,15.23,0,0,1,12-5.31c4.16,0,7.27,1.33,9.3,4s3.06,6.37,3.06,11.08l-2.42,2.49H151.19q.06,4.57,2.45,7.07A7.68,7.68,0,0,0,159.37,53q3.34,0,10.1-3.5l1.59,2.42c-.81.76-1.72,1.55-2.74,2.36a28.21,28.21,0,0,1-5.13,2.89A16,16,0,0,1,156.35,58.84Zm.89-28.92a6.55,6.55,0,0,0-3.76,1,12.89,12.89,0,0,0-1.59,4.2,25.7,25.7,0,0,0-.64,4.65l11.15-.63Q162.4,29.92,157.24,29.92Z"/></g></svg>