<svg xmlns="http://www.w3.org/2000/svg" width="182.2" height="170.22" viewBox="0 0 182.2 170.22"><defs><style>.cls-1{fill:#0d0811;}.cls-2{fill:#7e5289;}</style></defs><g id="points_and_time" data-name="points and time"><path class="cls-1" d="M21.63,25.11q0-2.87-.32-6.49,12.42.18,18.6.19t18.6-.19q-.32,3.63-.32,6.49H57a68.28,68.28,0,0,0-12.36-1.85c-.17,2.13-.25,5.31-.25,9.56V49.51q0,8.66,1,12.48v1.4h-11V62a60.32,60.32,0,0,0,.89-12.29V33.07q0-6.55-.25-9.81a72.76,72.76,0,0,0-12.23,1.85Z"/><path class="cls-1" d="M71.63,38.36V52a23.47,23.47,0,0,0,1.85,10v1.4H62.33V62a27.94,27.94,0,0,0,1.08-8.6V44a13.83,13.83,0,0,0-1.08-5.83,6.71,6.71,0,0,0-2.74-3.22v-1.4l11.66-2.17L72,32.63A27.88,27.88,0,0,0,71.63,38.36ZM70.42,17.72a3.64,3.64,0,0,1,.8,2.17,22.14,22.14,0,0,1,.22,2.55A8.52,8.52,0,0,1,71.31,24l-.57.51a35.45,35.45,0,0,1-7.33,1.14l-.7-.31a7.91,7.91,0,0,1-.8-2.74A21.22,21.22,0,0,1,61.63,20V19l.57-.51A21.32,21.32,0,0,1,69,17.34h.7Z"/><path class="cls-1" d="M101.89,31.61q6,0,8,5.35,2.1-1.73,3.41-2.68a17.29,17.29,0,0,1,3.28-1.81,9.49,9.49,0,0,1,3.76-.86,9.35,9.35,0,0,1,7.39,3c1.74,2,2.61,4.83,2.61,8.57v8.73A25.54,25.54,0,0,0,132.27,62v1.4H121.06V62a24.72,24.72,0,0,0,1.08-8.15V45.43a12.67,12.67,0,0,0-.89-5.41c-.6-1.19-1.84-1.79-3.73-1.79a14.47,14.47,0,0,0-6.78,2.23c.08,1.11.13,2,.13,2.68v8.73A25.37,25.37,0,0,0,112.78,62v1.4H102.2V62a24.68,24.68,0,0,0,1.09-8.15V45.43a13.49,13.49,0,0,0-.83-5.41c-.55-1.19-1.71-1.79-3.47-1.79s-4.11.9-7,2.68V52A23.47,23.47,0,0,0,93.8,62v1.4H82.65V62a27.94,27.94,0,0,0,1.08-8.6V44q0-7.14-3.82-9v-1.4l10.32-2,.64,1.21a16.14,16.14,0,0,1,.76,4.07,32.21,32.21,0,0,1,5.25-3.95A10,10,0,0,1,101.89,31.61Z"/><path class="cls-1" d="M152.91,64.6A14.07,14.07,0,0,1,143,60.46q-4.4-4.14-4.4-11.17a18.14,18.14,0,0,1,4.66-12.36,15.21,15.21,0,0,1,12-5.32c4.16,0,7.27,1.34,9.3,4s3.06,6.37,3.06,11.09l-2.42,2.48H147.75c0,3.06.86,5.41,2.45,7.07a7.64,7.64,0,0,0,5.73,2.48q3.34,0,10.1-3.5l1.59,2.42c-.81.77-1.72,1.55-2.74,2.36a28.12,28.12,0,0,1-5.13,2.9A16.16,16.16,0,0,1,152.91,64.6Zm.89-28.91a6.62,6.62,0,0,0-3.76,1,12.87,12.87,0,0,0-1.59,4.21,25.72,25.72,0,0,0-.64,4.64L159,44.86Q159,35.68,153.8,35.69Z"/><path class="cls-2" d="M26.13,22.59q0-2.86-.32-6.5,12.42.19,18.6.19T63,16.09q-.32,3.63-.32,6.5H61.48a68.28,68.28,0,0,0-12.36-1.85c-.17,2.13-.25,5.31-.25,9.56V47q0,8.65,1,12.48v1.4h-11v-1.4a60.32,60.32,0,0,0,.89-12.29V30.55q0-6.56-.25-9.81a72.61,72.61,0,0,0-12.23,1.85Z"/><path class="cls-2" d="M76.13,35.84V49.47a23.47,23.47,0,0,0,1.85,10v1.4H66.83v-1.4a27.94,27.94,0,0,0,1.08-8.6V41.44a13.81,13.81,0,0,0-1.08-5.82,6.66,6.66,0,0,0-2.74-3.22V31l11.66-2.17.76,1.28A27.75,27.75,0,0,0,76.13,35.84ZM74.92,15.2a3.64,3.64,0,0,1,.8,2.17,22.18,22.18,0,0,1,.22,2.54,9.5,9.5,0,0,1-.13,1.6l-.57.51a35.45,35.45,0,0,1-7.33,1.14l-.7-.32a7.84,7.84,0,0,1-.8-2.73,21.22,21.22,0,0,1-.28-2.65v-1L66.7,16a21.58,21.58,0,0,1,6.82-1.14h.7Z"/><path class="cls-2" d="M106.39,29.09q6,0,8,5.35,2.1-1.72,3.41-2.68A16.75,16.75,0,0,1,121.1,30a10,10,0,0,1,11.15,2.1q2.61,3,2.61,8.57v8.72a25.56,25.56,0,0,0,1.91,10.13v1.4H125.56v-1.4a24.76,24.76,0,0,0,1.08-8.15V42.91a12.64,12.64,0,0,0-.89-5.41c-.6-1.19-1.84-1.79-3.73-1.79a14.35,14.35,0,0,0-6.78,2.23c.08,1.1.13,2,.13,2.68v8.72a25.38,25.38,0,0,0,1.91,10.13v1.4H106.7v-1.4a24.72,24.72,0,0,0,1.09-8.15V42.91A13.46,13.46,0,0,0,107,37.5c-.55-1.19-1.71-1.79-3.47-1.79s-4.11.89-7,2.68V49.47a23.47,23.47,0,0,0,1.85,10v1.4H87.15v-1.4a27.94,27.94,0,0,0,1.08-8.6V41.44q0-7.12-3.82-9V31l10.32-2,.64,1.21a16.24,16.24,0,0,1,.76,4.08,32.21,32.21,0,0,1,5.25-4A10,10,0,0,1,106.39,29.09Z"/><path class="cls-2" d="M157.41,62.08a14.12,14.12,0,0,1-9.94-4.14q-4.4-4.14-4.4-11.18a18.18,18.18,0,0,1,4.66-12.36,15.23,15.23,0,0,1,12-5.31q6.24,0,9.3,4t3.06,11.08l-2.42,2.49H152.25q.06,4.57,2.45,7.07a7.68,7.68,0,0,0,5.73,2.48q3.34,0,10.1-3.5l1.59,2.42c-.81.76-1.72,1.55-2.74,2.36a28.21,28.21,0,0,1-5.13,2.89A16.07,16.07,0,0,1,157.41,62.08Zm.89-28.92a6.55,6.55,0,0,0-3.76,1,12.89,12.89,0,0,0-1.59,4.2,25.7,25.7,0,0,0-.64,4.65l11.15-.63Q163.46,33.16,158.3,33.16Z"/><path class="cls-1" d="M109.86,146.22q-7.36-9.19-7.36-24.31t8-23.94q8-8.82,21-8.82t19.46,9q6.53,8.94,6.53,23.43t-7.4,24.17q-7.4,9.69-19.19,9.69Q117.21,155.4,109.86,146.22Zm33.21-9.78A61.44,61.44,0,0,0,144.35,124a74.51,74.51,0,0,0-.68-10.74,34.12,34.12,0,0,0-2.33-8.4q-3.39-8-12.25-8a18,18,0,0,0-5.07.73,9.1,9.1,0,0,0-3.61,1.73q-2,2.66-3.38,8.55a48.44,48.44,0,0,0-1.37,10.87,75.49,75.49,0,0,0,.46,8.87,43.22,43.22,0,0,0,1.6,7.67,23.2,23.2,0,0,0,3,6.45,13.23,13.23,0,0,0,15.4,5.2,7.12,7.12,0,0,0,3.43-2Q141.79,142.7,143.07,136.44Z"/><path class="cls-2" d="M110.45,142.28q-7.35-9.19-7.36-24.31t8-24q8.06-8.8,21-8.81t19.46,9q6.54,9,6.53,23.44t-7.4,24.17q-7.39,9.69-19.19,9.69Q117.82,151.46,110.45,142.28Zm33.22-9.78A62.23,62.23,0,0,0,145,120.07a73,73,0,0,0-.69-10.74,33.76,33.76,0,0,0-2.33-8.41q-3.37-8-12.24-8a18,18,0,0,0-5.08.74A9.24,9.24,0,0,0,121,95.44q-2,2.66-3.38,8.55a48.44,48.44,0,0,0-1.37,10.87,75.19,75.19,0,0,0,.46,8.86,44.43,44.43,0,0,0,1.6,7.68,22.85,22.85,0,0,0,3,6.44,13.21,13.21,0,0,0,11.51,5.94,13.44,13.44,0,0,0,3.89-.73,7.21,7.21,0,0,0,3.42-2Q142.38,138.76,143.67,132.5Z"/><path class="cls-1" d="M81.8,148q-6.93,6.24-19.1,6.25A48.08,48.08,0,0,1,40.25,149v-.58a12.89,12.89,0,0,1,4-9Q55.2,147,62.75,147h.48q5,0,7.76-1.56,4.26-4,4.26-12.79,0-6.69-3-9.45t-9.65-2.77a76.37,76.37,0,0,0-9.4.39H51.31l-2.23-7.37H59.65a9.85,9.85,0,0,0,7.94-3.73,13,13,0,0,0,3.11-8.58q0-10-7.27-10-6.49,0-15.9,7.37A23.58,23.58,0,0,1,43,87.49a78.4,78.4,0,0,1,21.43-3.2q19.29,0,19.29,14.54a17.07,17.07,0,0,1-3,10,19,19,0,0,1-7,6.25q15,3.19,15,17.06A20.44,20.44,0,0,1,81.8,148Z"/><path class="cls-2" d="M85.57,148q-6.94,6.24-19.1,6.25A48.08,48.08,0,0,1,44,149v-.58a12.85,12.85,0,0,1,4-9Q59,147,66.51,147H67q5,0,7.75-1.56,4.27-4,4.27-12.79,0-6.69-3-9.45t-9.64-2.77a76.45,76.45,0,0,0-9.41.39H55.07l-2.23-7.37H63.41a9.87,9.87,0,0,0,8-3.73,13,13,0,0,0,3.11-8.58q0-10-7.28-10-6.49,0-15.9,7.37a23.69,23.69,0,0,1-4.56-11.05,78.51,78.51,0,0,1,21.43-3.2q19.29,0,19.29,14.54a17.07,17.07,0,0,1-3,10,19,19,0,0,1-7,6.25q15,3.19,15,17.06A20.47,20.47,0,0,1,85.57,148Z"/></g></svg>