<svg xmlns="http://www.w3.org/2000/svg" width="182.2" height="170.22" viewBox="0 0 182.2 170.22"><defs><style>.cls-1{fill:#0d0811;}.cls-2{fill:#7e5289;}</style></defs><g id="points_and_time" data-name="points and time"><path class="cls-1" d="M65.49,120.72A15.74,15.74,0,0,1,60.41,114a25.78,25.78,0,0,1-1.88-10.26q0-11.32,6.68-18.25t18.63-6.92q12,0,18.93,7.07t7,21.88q0,21.68-15.78,33-8.52,5.91-24.69,8l-1.64-5.52a41.79,41.79,0,0,0,10.89-3.49,30,30,0,0,0,9-6.53,28.46,28.46,0,0,0,6-11.19,34.1,34.1,0,0,1-14.42,3.2A23.2,23.2,0,0,1,65.49,120.72Zm30.31-16q0-9.87-2.76-14.43t-9.73-4.55c-3.23,0-5.61.46-7.17,1.36q-3.67,4.74-3.68,14.62,0,14.61,11.14,14.62a27.6,27.6,0,0,0,11.71-2.91C95.64,109.14,95.8,106.23,95.8,104.75Z"/><path class="cls-2" d="M70.87,118a15.74,15.74,0,0,1-5.08-6.68A25.78,25.78,0,0,1,63.91,101q0-11.33,6.68-18.25t18.63-6.92q12,0,18.93,7.07t7,21.88q0,21.69-15.78,33-8.52,5.91-24.69,8L73,140.33a41.6,41.6,0,0,0,10.88-3.49A29.91,29.91,0,0,0,93,130.31a28.48,28.48,0,0,0,6-11.18,34.25,34.25,0,0,1-14.43,3.19A23.2,23.2,0,0,1,70.87,118Zm30.31-16q0-9.87-2.76-14.43T88.68,83c-3.22,0-5.6.46-7.16,1.36Q77.85,89.11,77.84,99q0,14.61,11.14,14.62a27.6,27.6,0,0,0,11.71-2.91C101,106.38,101.18,103.47,101.18,102Z"/><path class="cls-1" d="M15.24,20.08q0-2.86-.32-6.5,12.42.2,18.6.19t18.6-.19c-.22,2.42-.32,4.59-.32,6.5H50.59a67.41,67.41,0,0,0-12.36-1.85Q38,21.41,38,27.79V44.48Q38,53.14,39,57v1.4H28V57a60.39,60.39,0,0,0,.89-12.29V28q0-6.55-.25-9.81a71.59,71.59,0,0,0-12.23,1.85Z"/><path class="cls-1" d="M65.24,33.33V47a23.5,23.5,0,0,0,1.85,10v1.4H55.94V57A28,28,0,0,0,57,48.36V38.93a13.78,13.78,0,0,0-1.08-5.82,6.66,6.66,0,0,0-2.74-3.22v-1.4l11.66-2.17.76,1.28A27.75,27.75,0,0,0,65.24,33.33ZM64,12.69a3.58,3.58,0,0,1,.79,2.17,20.5,20.5,0,0,1,.23,2.54,9.5,9.5,0,0,1-.13,1.6l-.57.51A35.45,35.45,0,0,1,57,20.65l-.7-.32a7.84,7.84,0,0,1-.8-2.74A20.93,20.93,0,0,1,55.24,15V14l.57-.51a21.58,21.58,0,0,1,6.82-1.14h.7Z"/><path class="cls-1" d="M95.49,26.58q6.06,0,8,5.35,2.1-1.72,3.41-2.68a16.75,16.75,0,0,1,3.28-1.81,10,10,0,0,1,11.15,2.1c1.74,2,2.61,4.83,2.61,8.56v8.73A25.38,25.38,0,0,0,125.88,57v1.4H114.67V57a24.76,24.76,0,0,0,1.08-8.15V40.4a12.72,12.72,0,0,0-.89-5.42c-.6-1.18-1.84-1.78-3.73-1.78a14.35,14.35,0,0,0-6.78,2.23c.08,1.1.13,2,.13,2.67v8.73A25.38,25.38,0,0,0,106.39,57v1.4H95.81V57a24.72,24.72,0,0,0,1.09-8.15V40.4A13.55,13.55,0,0,0,96.07,35c-.56-1.18-1.71-1.78-3.47-1.78s-4.11.89-7,2.68V47a23.5,23.5,0,0,0,1.85,10v1.4H76.26V57a28,28,0,0,0,1.08-8.6V38.93q0-7.12-3.82-9v-1.4l10.32-2,.64,1.21a16.24,16.24,0,0,1,.76,4.08,31.23,31.23,0,0,1,5.25-3.95A10,10,0,0,1,95.49,26.58Z"/><path class="cls-1" d="M146.52,59.57a14.12,14.12,0,0,1-9.94-4.14q-4.4-4.14-4.4-11.18a18.22,18.22,0,0,1,4.65-12.36,15.27,15.27,0,0,1,12-5.31q6.24,0,9.3,4t3.06,11.08l-2.42,2.49H141.36q.06,4.58,2.45,7.07a7.68,7.68,0,0,0,5.73,2.48q3.35,0,10.1-3.5l1.59,2.42c-.81.76-1.72,1.55-2.74,2.35a27.53,27.53,0,0,1-5.13,2.9A16.07,16.07,0,0,1,146.52,59.57Zm.89-28.92a6.55,6.55,0,0,0-3.76,1,12.89,12.89,0,0,0-1.59,4.2,25.7,25.7,0,0,0-.64,4.65l11.15-.63Q152.57,30.65,147.41,30.65Z"/><path class="cls-2" d="M19.74,17.56q0-2.86-.32-6.5,12.42.19,18.6.19t18.6-.19c-.22,2.42-.32,4.59-.32,6.5H55.09a67.41,67.41,0,0,0-12.36-1.85c-.17,2.12-.25,5.31-.25,9.55V42q0,8.67,1,12.49v1.4h-11v-1.4a60.43,60.43,0,0,0,.89-12.3V25.52c0-4.37-.08-7.65-.25-9.81A71.59,71.59,0,0,0,21,17.56Z"/><path class="cls-2" d="M69.74,30.81V44.44a23.53,23.53,0,0,0,1.85,10v1.4H60.44v-1.4a28,28,0,0,0,1.08-8.6V36.41a13.86,13.86,0,0,0-1.08-5.83,6.63,6.63,0,0,0-2.74-3.21V26L69.36,23.8l.76,1.27A27.93,27.93,0,0,0,69.74,30.81ZM68.53,10.17a3.63,3.63,0,0,1,.79,2.16,20.79,20.79,0,0,1,.23,2.55,9.29,9.29,0,0,1-.13,1.59l-.57.51a34.7,34.7,0,0,1-7.33,1.15l-.7-.32a7.84,7.84,0,0,1-.8-2.74,20.93,20.93,0,0,1-.28-2.64v-1l.57-.51a21.55,21.55,0,0,1,6.82-1.15h.7Z"/><path class="cls-2" d="M100,24.05q6.06,0,8,5.35,2.1-1.71,3.41-2.67a17.28,17.28,0,0,1,3.28-1.82A10,10,0,0,1,125.86,27q2.61,3,2.61,8.57v8.73a25.42,25.42,0,0,0,1.91,10.13v1.4H119.17v-1.4a24.82,24.82,0,0,0,1.08-8.16v-8.4a12.69,12.69,0,0,0-.89-5.42c-.6-1.19-1.84-1.78-3.73-1.78a14.35,14.35,0,0,0-6.78,2.23c.08,1.1.13,2,.13,2.67v8.73a25.42,25.42,0,0,0,1.91,10.13v1.4H100.31v-1.4a24.82,24.82,0,0,0,1.08-8.16v-8.4a13.54,13.54,0,0,0-.82-5.42c-.56-1.19-1.71-1.78-3.47-1.78s-4.11.89-7,2.67V44.44a23.69,23.69,0,0,0,1.84,10v1.4H80.76v-1.4a28,28,0,0,0,1.08-8.6V36.41q0-7.14-3.82-9V26l10.32-2L89,25.2a15.71,15.71,0,0,1,.77,4.08,31.23,31.23,0,0,1,5.25-4A10,10,0,0,1,100,24.05Z"/><path class="cls-2" d="M151,57.05a14.12,14.12,0,0,1-9.94-4.14q-4.4-4.14-4.4-11.18a18.22,18.22,0,0,1,4.65-12.36,15.28,15.28,0,0,1,12-5.32q6.24,0,9.3,4t3.06,11.08l-2.42,2.48H145.86q.06,4.59,2.45,7.07A7.65,7.65,0,0,0,154,51.19q3.35,0,10.1-3.5l1.59,2.42c-.81.76-1.72,1.55-2.74,2.35a27.53,27.53,0,0,1-5.13,2.9A16.07,16.07,0,0,1,151,57.05Zm.89-28.92a6.55,6.55,0,0,0-3.76,1,12.89,12.89,0,0,0-1.59,4.2,24.84,24.84,0,0,0-.64,4.65l11.15-.64Q157.07,28.14,151.91,28.13Z"/></g></svg>