<svg xmlns="http://www.w3.org/2000/svg" width="182.2" height="170.22" viewBox="0 0 182.2 170.22"><defs><style>.cls-1{fill:#0d0811;}.cls-2{fill:#7e5289;}</style></defs><g id="points_and_time" data-name="points and time"><path class="cls-1" d="M100,87.23q0-9-7.84-9-5.85,0-17.53,9.1a19.58,19.58,0,0,1-5.36-11.39q13.13-4.89,23.32-4.89t15.7,4.17a13.47,13.47,0,0,1,5.51,11.34q0,10.06-10.34,22.89-5.19,6.31-9.44,10.82T83.32,131.09q6,0,8.33-.1,17.23-.57,23.26-5.26l2.59,1.82L113,139.23H71l-2.3-5.46q5.46-5.37,8.86-8.81c2.26-2.3,5-5.3,8.13-9a92.3,92.3,0,0,0,7.47-9.82,55.74,55.74,0,0,0,4.79-9.38A25.68,25.68,0,0,0,100,87.23Z"/><path class="cls-2" d="M105.35,84.47q0-9-7.84-9-5.85,0-17.53,9.1a19.58,19.58,0,0,1-5.36-11.39q13.13-4.89,23.32-4.89t15.7,4.17a13.47,13.47,0,0,1,5.51,11.34q0,10.07-10.34,22.89-5.19,6.32-9.44,10.82T88.7,128.33c4,0,6.8,0,8.32-.1q17.25-.57,23.27-5.26l2.59,1.82-4.5,11.68h-42L74.05,131q5.46-5.37,8.86-8.81t8.13-9a91.3,91.3,0,0,0,7.47-9.82A55.74,55.74,0,0,0,103.3,94,25.68,25.68,0,0,0,105.35,84.47Z"/><path class="cls-1" d="M17,21.35c0-1.91-.1-4.07-.32-6.49q12.42.18,18.6.19t18.6-.19q-.31,3.63-.32,6.49H52.38A67.2,67.2,0,0,0,40,19.51c-.17,2.12-.26,5.31-.26,9.55V45.75q0,8.67,1,12.48v1.41H29.84V58.23a60.25,60.25,0,0,0,.89-12.29V29.32q0-6.57-.26-9.81a71.7,71.7,0,0,0-12.23,1.84Z"/><path class="cls-1" d="M67,34.6V48.23a23.62,23.62,0,0,0,1.85,10v1.41H57.73V58.23a27.58,27.58,0,0,0,1.09-8.59V40.21a13.67,13.67,0,0,0-1.09-5.83A6.69,6.69,0,0,0,55,31.16v-1.4L66.65,27.6l.77,1.27A27,27,0,0,0,67,34.6ZM65.82,14a3.6,3.6,0,0,1,.8,2.17,20.07,20.07,0,0,1,.22,2.55,9.53,9.53,0,0,1-.12,1.59l-.58.51a36.06,36.06,0,0,1-7.32,1.15l-.7-.32a7.69,7.69,0,0,1-.8-2.74A22,22,0,0,1,57,16.23v-1l.58-.51a21.26,21.26,0,0,1,6.81-1.15h.7Z"/><path class="cls-1" d="M97.29,27.85q6,0,8,5.35,2.1-1.73,3.4-2.67A17,17,0,0,1,112,28.71a9.49,9.49,0,0,1,3.76-.86,9.34,9.34,0,0,1,7.39,3c1.74,2,2.61,4.83,2.61,8.57v8.73a25.51,25.51,0,0,0,1.91,10.12v1.41H116.46V58.23a24.42,24.42,0,0,0,1.09-8.15V41.67a12.67,12.67,0,0,0-.89-5.41c-.6-1.19-1.84-1.78-3.73-1.78a14.42,14.42,0,0,0-6.79,2.23c.09,1.1.13,2,.13,2.67v8.73a25.51,25.51,0,0,0,1.91,10.12v1.41H97.61V58.23a24.72,24.72,0,0,0,1.08-8.15V41.67a13.31,13.31,0,0,0-.83-5.41c-.55-1.19-1.71-1.78-3.47-1.78s-4.11.89-7,2.67V48.23a23.62,23.62,0,0,0,1.85,10v1.41H78.05V58.23a27.88,27.88,0,0,0,1.09-8.59V40.21q0-7.14-3.83-9v-1.4l10.32-2L86.27,29A15.79,15.79,0,0,1,87,33.07a31.8,31.8,0,0,1,5.26-3.95A10.1,10.1,0,0,1,97.29,27.85Z"/><path class="cls-1" d="M148.31,60.85a14.13,14.13,0,0,1-9.94-4.14Q134,52.57,134,45.53a18.2,18.2,0,0,1,4.65-12.36,15.23,15.23,0,0,1,12-5.32q6.24,0,9.3,4T163,43l-2.42,2.48H143.15q.06,4.59,2.45,7.07A7.69,7.69,0,0,0,151.34,55q3.34,0,10.09-3.51L163,53.9c-.81.77-1.72,1.55-2.74,2.36a28.12,28.12,0,0,1-5.13,2.9A16.22,16.22,0,0,1,148.31,60.85Zm.89-28.92a6.59,6.59,0,0,0-3.75,1,13,13,0,0,0-1.6,4.21,25.61,25.61,0,0,0-.63,4.65l11.14-.64Q154.36,31.92,149.2,31.93Z"/><path class="cls-2" d="M21.53,18.83c0-1.91-.1-4.08-.32-6.5q12.42.2,18.6.19t18.6-.19q-.31,3.63-.32,6.5H56.88A68.19,68.19,0,0,0,44.53,17c-.17,2.13-.26,5.31-.26,9.56V43.23q0,8.66,1,12.48v1.4H34.34v-1.4a60.32,60.32,0,0,0,.89-12.29V26.79q0-6.55-.26-9.81a72.9,72.9,0,0,0-12.23,1.85Z"/><path class="cls-2" d="M71.53,32.08V45.71a23.62,23.62,0,0,0,1.85,10v1.4H62.23v-1.4a27.6,27.6,0,0,0,1.09-8.6V37.68a13.65,13.65,0,0,0-1.09-5.82,6.69,6.69,0,0,0-2.73-3.22v-1.4l11.65-2.17.77,1.28A26.88,26.88,0,0,0,71.53,32.08ZM70.32,11.44a3.57,3.57,0,0,1,.8,2.17,20.07,20.07,0,0,1,.22,2.55,8.52,8.52,0,0,1-.13,1.59l-.57.51a35.45,35.45,0,0,1-7.32,1.14l-.7-.31a7.76,7.76,0,0,1-.8-2.74,21.85,21.85,0,0,1-.29-2.65v-1l.58-.51a21.26,21.26,0,0,1,6.81-1.15h.7Z"/><path class="cls-2" d="M101.79,25.33q6,0,8,5.35,2.1-1.72,3.4-2.68a17.61,17.61,0,0,1,3.28-1.81,9.49,9.49,0,0,1,3.76-.86,9.31,9.31,0,0,1,7.39,3q2.61,3,2.61,8.57v8.72a25.56,25.56,0,0,0,1.91,10.13v1.4H121v-1.4a24.68,24.68,0,0,0,1.09-8.15V39.15a12.49,12.49,0,0,0-.9-5.41c-.59-1.19-1.83-1.79-3.72-1.79a14.53,14.53,0,0,0-6.79,2.23c.09,1.11.13,2,.13,2.68v8.72a25.56,25.56,0,0,0,1.91,10.13v1.4H102.11v-1.4a24.72,24.72,0,0,0,1.08-8.15V39.15a13.31,13.31,0,0,0-.83-5.41c-.55-1.19-1.71-1.79-3.47-1.79s-4.11.89-7,2.68V45.71a23.62,23.62,0,0,0,1.85,10v1.4H82.55v-1.4a27.91,27.91,0,0,0,1.09-8.6V37.68q0-7.12-3.83-9v-1.4l10.32-2,.64,1.21a15.79,15.79,0,0,1,.76,4.08,31.8,31.8,0,0,1,5.26-3.95A10,10,0,0,1,101.79,25.33Z"/><path class="cls-2" d="M152.81,58.32a14.13,14.13,0,0,1-9.94-4.14Q138.48,50,138.48,43a18.18,18.18,0,0,1,4.65-12.35,15.23,15.23,0,0,1,12-5.32q6.24,0,9.3,4t3.06,11.08l-2.42,2.49H147.65c0,3.06.86,5.41,2.45,7.07a7.72,7.72,0,0,0,5.74,2.48q3.34,0,10.09-3.5l1.6,2.42c-.81.77-1.72,1.55-2.74,2.36a28.73,28.73,0,0,1-5.13,2.9A16.2,16.2,0,0,1,152.81,58.32Zm.89-28.92a6.51,6.51,0,0,0-3.75,1,12.89,12.89,0,0,0-1.6,4.2,25.84,25.84,0,0,0-.63,4.65l11.14-.63Q158.86,29.4,153.7,29.4Z"/></g></svg>