<svg xmlns="http://www.w3.org/2000/svg" width="182.2" height="170.22" viewBox="0 0 182.2 170.22"><defs><style>.cls-1{fill:#0d0811;}.cls-2{fill:#7e5289;}</style></defs><g id="points_and_time" data-name="points and time"><path class="cls-1" d="M112.2,98.22q0,10.17-11.42,17.14c5.28,3,9,5.76,11.27,8.18a13.37,13.37,0,0,1,3.34,9.44,16,16,0,0,1-7.25,14q-7.27,5-18.4,5t-18.5-4.88a15.74,15.74,0,0,1-7.35-13.9q0-12.28,14.52-17.62a26.1,26.1,0,0,1-7.94-7.07A15.36,15.36,0,0,1,68,99.58q0-8.52,6-13.08T90,82q9.92,0,16.07,3.92T112.2,98.22Zm-10.75,36.5a9.7,9.7,0,0,0-3.29-7.26q-3.3-3.1-12.39-7.74-8,3.57-8,12.29,0,12.11,12.5,12.1A21,21,0,0,0,98.07,143Q101.45,140.63,101.45,134.72ZM80.64,97.93a9.39,9.39,0,0,0,2.66,6.63q2.65,2.86,10.41,6.73Q99.52,107,99.52,98.8q0-10.55-9.88-10.55a14.53,14.53,0,0,0-6.1,1.16Q80.65,91.93,80.64,97.93Z"/><path class="cls-2" d="M118.49,97.52q0,10.17-11.42,17.14c5.28,3,9.05,5.76,11.27,8.18a13.38,13.38,0,0,1,3.34,9.44,16,16,0,0,1-7.26,14q-7.26,5-18.39,5t-18.5-4.89a15.71,15.71,0,0,1-7.36-13.89q0-12.3,14.53-17.63a26.22,26.22,0,0,1-7.94-7.06,15.42,15.42,0,0,1-2.52-8.91q0-8.52,6.05-13.07t16-4.55q9.92,0,16.07,3.92T118.49,97.52ZM107.74,134a9.7,9.7,0,0,0-3.29-7.26q-3.3-3.09-12.39-7.74-7.95,3.58-8,12.29,0,12.1,12.5,12.11a20.74,20.74,0,0,0,7.75-1.17C106.61,140.71,107.74,138,107.74,134ZM86.93,97.23a9.39,9.39,0,0,0,2.66,6.63q2.66,2.86,10.41,6.73,5.81-4.26,5.8-12.49,0-10.55-9.87-10.55a14.53,14.53,0,0,0-6.1,1.16Q86.94,91.23,86.93,97.23Z"/><path class="cls-1" d="M19.32,23.74q0-2.86-.32-6.5,12.42.2,18.6.19t18.6-.19q-.31,3.63-.32,6.5H54.67a68.19,68.19,0,0,0-12.35-1.85c-.17,2.13-.26,5.31-.26,9.56V48.14q0,8.65,1,12.48V62h-11v-1.4A59.59,59.59,0,0,0,33,48.33V31.7q0-6.56-.25-9.81a72.9,72.9,0,0,0-12.23,1.85Z"/><path class="cls-1" d="M69.32,37V50.62a23.62,23.62,0,0,0,1.85,10V62H60v-1.4A27.91,27.91,0,0,0,61.11,52V42.6A13.82,13.82,0,0,0,60,36.77a6.66,6.66,0,0,0-2.74-3.22v-1.4L68.94,30l.76,1.28A27.88,27.88,0,0,0,69.32,37ZM68.11,16.35a3.64,3.64,0,0,1,.8,2.17,20.07,20.07,0,0,1,.22,2.55A8.52,8.52,0,0,1,69,22.66l-.57.51a35.45,35.45,0,0,1-7.32,1.14L60.4,24a7.79,7.79,0,0,1-.79-2.74,21.85,21.85,0,0,1-.29-2.65v-1l.58-.51A21.26,21.26,0,0,1,66.71,16h.7Z"/><path class="cls-1" d="M99.58,30.24q6,0,8,5.35c1.41-1.15,2.54-2,3.41-2.68a17.61,17.61,0,0,1,3.28-1.81,9.49,9.49,0,0,1,3.76-.86,9.31,9.31,0,0,1,7.39,3q2.61,3,2.61,8.57v8.72A25.56,25.56,0,0,0,130,60.62V62H118.75v-1.4a24.72,24.72,0,0,0,1.08-8.15V44.06a12.52,12.52,0,0,0-.89-5.41c-.59-1.19-1.84-1.79-3.72-1.79a14.5,14.5,0,0,0-6.79,2.23c.09,1.11.13,2,.13,2.68v8.72a25.56,25.56,0,0,0,1.91,10.13V62H99.9v-1.4A24.72,24.72,0,0,0,101,52.47V44.06a13.49,13.49,0,0,0-.83-5.41c-.55-1.19-1.71-1.79-3.47-1.79s-4.11.89-7,2.68V50.62a23.62,23.62,0,0,0,1.85,10V62H80.34v-1.4A27.94,27.94,0,0,0,81.42,52V42.6q0-7.14-3.82-9.05v-1.4l10.32-2,.64,1.2a15.88,15.88,0,0,1,.76,4.08,31.8,31.8,0,0,1,5.26-3.95A10,10,0,0,1,99.58,30.24Z"/><path class="cls-1" d="M150.6,63.23a14.13,14.13,0,0,1-9.94-4.14q-4.4-4.14-4.39-11.18a18.18,18.18,0,0,1,4.65-12.35,15.23,15.23,0,0,1,12-5.32q6.24,0,9.3,4t3.05,11.08l-2.42,2.49H145.44c0,3.06.86,5.41,2.45,7.07a7.68,7.68,0,0,0,5.74,2.48q3.35,0,10.09-3.5l1.59,2.42c-.8.77-1.72,1.55-2.73,2.36a28.73,28.73,0,0,1-5.13,2.9A16.2,16.2,0,0,1,150.6,63.23Zm.89-28.91a6.57,6.57,0,0,0-3.76,1,12.89,12.89,0,0,0-1.59,4.2,26.88,26.88,0,0,0-.64,4.65l11.15-.63Q156.65,34.31,151.49,34.32Z"/><path class="cls-2" d="M23.82,21.22q0-2.87-.32-6.5,12.42.19,18.6.19t18.6-.19q-.31,3.63-.32,6.5H59.17a67.44,67.44,0,0,0-12.35-1.85c-.18,2.12-.26,5.31-.26,9.56V45.62q0,8.66,1,12.48v1.4h-11V58.1a59.66,59.66,0,0,0,.89-12.29V29.18q0-6.55-.25-9.81A71.88,71.88,0,0,0,25,21.22Z"/><path class="cls-2" d="M73.82,34.47V48.1a23.65,23.65,0,0,0,1.85,10v1.4H64.52V58.1a28,28,0,0,0,1.08-8.6V40.07a13.86,13.86,0,0,0-1.08-5.83A6.63,6.63,0,0,0,61.78,31v-1.4l11.66-2.17.76,1.27A27.93,27.93,0,0,0,73.82,34.47ZM72.61,13.83a3.63,3.63,0,0,1,.8,2.16,20.36,20.36,0,0,1,.22,2.55,8.56,8.56,0,0,1-.13,1.6l-.57.51a35.45,35.45,0,0,1-7.33,1.14l-.7-.32a7.66,7.66,0,0,1-.79-2.74,21.55,21.55,0,0,1-.29-2.64v-1l.58-.51a21.52,21.52,0,0,1,6.81-1.14h.7Z"/><path class="cls-2" d="M104.08,27.72q6,0,8,5.35c1.41-1.15,2.54-2,3.41-2.68a17.28,17.28,0,0,1,3.28-1.82,9.47,9.47,0,0,1,3.76-.85,9.31,9.31,0,0,1,7.39,3c1.74,2,2.61,4.83,2.61,8.56V48a25.56,25.56,0,0,0,1.91,10.13v1.4H123.25V58.1A24.76,24.76,0,0,0,124.33,50V41.54a12.57,12.57,0,0,0-.89-5.42c-.59-1.18-1.84-1.78-3.72-1.78a14.38,14.38,0,0,0-6.79,2.23c.09,1.1.13,2,.13,2.67V48A25.56,25.56,0,0,0,115,58.1v1.4H104.4V58.1A24.76,24.76,0,0,0,105.48,50V41.54a13.55,13.55,0,0,0-.83-5.42c-.55-1.18-1.71-1.78-3.47-1.78s-4.11.89-7,2.67V48.1A23.65,23.65,0,0,0,96,58.1v1.4H84.84V58.1a28,28,0,0,0,1.08-8.6V40.07q0-7.12-3.82-9v-1.4l10.32-2,.64,1.21a15.79,15.79,0,0,1,.76,4.08A31.25,31.25,0,0,1,99.08,29,10,10,0,0,1,104.08,27.72Z"/><path class="cls-2" d="M155.1,60.71a14.13,14.13,0,0,1-9.94-4.14q-4.4-4.14-4.39-11.18A18.22,18.22,0,0,1,145.42,33a15.25,15.25,0,0,1,12-5.31q6.24,0,9.3,4t3.05,11.08l-2.42,2.49H149.94q.06,4.58,2.45,7.07a7.72,7.72,0,0,0,5.74,2.48q3.35,0,10.09-3.5l1.59,2.42c-.8.76-1.72,1.55-2.74,2.35A27,27,0,0,1,162,59,16.08,16.08,0,0,1,155.1,60.71ZM156,31.79a6.57,6.57,0,0,0-3.76,1,12.89,12.89,0,0,0-1.59,4.2A26.63,26.63,0,0,0,150,41.6L161.15,41Q161.15,31.8,156,31.79Z"/></g></svg>