<svg xmlns="http://www.w3.org/2000/svg" width="182.2" height="170.22" viewBox="0 0 182.2 170.22"><defs><style>.cls-1{fill:#0d0811;}.cls-2{fill:#7e5289;}</style></defs><g id="points_and_time" data-name="points and time"><path class="cls-1" d="M128.24,134a103.19,103.19,0,0,0,1.18,16.18v2.16h-15v-2.16a95.4,95.4,0,0,0,1.17-15.2v-1q-21.47,0-28.81.1L84,128.7q11.28-19,29.31-44.9l15.2-1.47q-.49,10.49-.49,43.13l11.18-.58L137.17,134Zm-12.45-8.33q.1-11.47.1-18.87V94.87Q102,114.88,95.5,126,106.18,126,115.79,125.66Z"/><path class="cls-2" d="M133.93,131.44a103.19,103.19,0,0,0,1.18,16.18v2.16h-15v-2.16a95.4,95.4,0,0,0,1.17-15.2v-1q-21.47,0-28.82.1l-2.74-5.39q11.27-19,29.31-44.9l15.19-1.47q-.48,10.48-.48,43.13l11.17-.58-2,9.11Zm-12.45-8.33q.09-11.48.1-18.87V92.32q-13.92,20-20.4,31.08Q111.88,123.4,121.48,123.11Z"/><path class="cls-1" d="M76.84,129.05q0,13.8,1.6,19.8v2.2H61.84v-2.2q1.59-6,1.6-19.8v-28.6a68.73,68.73,0,0,0-.3-8.5A83.48,83.48,0,0,1,50,93.45l-1.1-5.7q11.1-1.91,18.29-6.7H77.34l-.5,11.8Z"/><path class="cls-2" d="M81.34,129.05q0,13.8,1.6,19.8v2.2H66.34v-2.2q1.59-6,1.6-19.8v-28.6a68.73,68.73,0,0,0-.3-8.5,83.48,83.48,0,0,1-13.1,1.5l-1.1-5.7q11.1-1.91,18.29-6.7H81.84l-.5,11.8Z"/><path class="cls-1" d="M17.24,23.32c0-1.92-.11-4.08-.32-6.5q12.42.2,18.6.19t18.6-.19c-.21,2.42-.32,4.58-.32,6.5H52.59a67.41,67.41,0,0,0-12.36-1.85C40.06,23.59,40,26.78,40,31V47.71q0,8.67,1,12.49v1.4H30V60.2a59.71,59.71,0,0,0,.89-12.3V31.28c0-4.37-.08-7.65-.25-9.81a71.74,71.74,0,0,0-12.23,1.85Z"/><path class="cls-1" d="M67.24,36.57V50.2a23.69,23.69,0,0,0,1.85,10v1.4H57.94V60.2A28,28,0,0,0,59,51.6V42.17a13.86,13.86,0,0,0-1.08-5.83,6.66,6.66,0,0,0-2.74-3.22v-1.4l11.66-2.16.76,1.27A27.93,27.93,0,0,0,67.24,36.57ZM66,15.93a3.63,3.63,0,0,1,.8,2.16,20.36,20.36,0,0,1,.22,2.55,8.38,8.38,0,0,1-.13,1.59l-.57.51A34.7,34.7,0,0,1,59,23.89l-.7-.32a7.66,7.66,0,0,1-.79-2.74,21.55,21.55,0,0,1-.29-2.64v-1l.57-.51a21.65,21.65,0,0,1,6.82-1.15h.7Z"/><path class="cls-1" d="M97.5,29.81q6,0,8,5.35c1.4-1.14,2.54-2,3.41-2.67a17.28,17.28,0,0,1,3.28-1.82,9.49,9.49,0,0,1,3.76-.86,9.35,9.35,0,0,1,7.39,3q2.61,3,2.61,8.57v8.73a25.59,25.59,0,0,0,1.91,10.13v1.4H116.67V60.2A24.82,24.82,0,0,0,117.75,52v-8.4a12.54,12.54,0,0,0-.89-5.42c-.59-1.19-1.84-1.78-3.72-1.78a14.35,14.35,0,0,0-6.79,2.23c.09,1.1.13,2,.13,2.67v8.73a25.59,25.59,0,0,0,1.91,10.13v1.4H97.82V60.2A24.82,24.82,0,0,0,98.9,52v-8.4a13.51,13.51,0,0,0-.83-5.42c-.55-1.19-1.71-1.78-3.47-1.78s-4.11.89-7,2.67V50.2a23.69,23.69,0,0,0,1.85,10v1.4H78.26V60.2a28,28,0,0,0,1.08-8.6V42.17q0-7.14-3.82-9.05v-1.4l10.32-2L86.48,31A15.79,15.79,0,0,1,87.24,35a31.25,31.25,0,0,1,5.26-3.95A10,10,0,0,1,97.5,29.81Z"/><path class="cls-1" d="M148.52,62.81a14.13,14.13,0,0,1-9.94-4.14q-4.4-4.14-4.39-11.18a18.22,18.22,0,0,1,4.65-12.36,15.26,15.26,0,0,1,12-5.32q6.24,0,9.3,4t3,11.08l-2.42,2.48H143.36q.06,4.59,2.45,7.07A7.69,7.69,0,0,0,151.55,57q3.33,0,10.09-3.5l1.59,2.42c-.8.76-1.72,1.55-2.74,2.35a27.71,27.71,0,0,1-5.12,2.9A16.08,16.08,0,0,1,148.52,62.81Zm.89-28.92a6.57,6.57,0,0,0-3.76,1,12.89,12.89,0,0,0-1.59,4.2,25.7,25.7,0,0,0-.64,4.65l11.15-.64Q154.57,33.9,149.41,33.89Z"/><path class="cls-2" d="M21.74,20.79q0-2.87-.32-6.49,12.42.18,18.6.19t18.6-.19q-.32,3.63-.32,6.49H57.09A67.29,67.29,0,0,0,44.73,19c-.17,2.12-.25,5.31-.25,9.55V45.19c0,5.77.34,9.94,1,12.48v1.41h-11V57.67a59.53,59.53,0,0,0,.89-12.29V28.76q0-6.57-.25-9.81A71.56,71.56,0,0,0,23,20.79Z"/><path class="cls-2" d="M71.74,34V47.67a23.62,23.62,0,0,0,1.85,10v1.41H62.44V57.67a27.92,27.92,0,0,0,1.08-8.59V39.65a13.83,13.83,0,0,0-1.08-5.83A6.66,6.66,0,0,0,59.7,30.6V29.2L71.36,27l.76,1.27A27.88,27.88,0,0,0,71.74,34ZM70.53,13.4a3.66,3.66,0,0,1,.8,2.17,20.07,20.07,0,0,1,.22,2.55,8.52,8.52,0,0,1-.13,1.59l-.57.51a36.05,36.05,0,0,1-7.33,1.15l-.7-.32A7.73,7.73,0,0,1,62,18.31a22,22,0,0,1-.29-2.64v-1l.57-.51A21.37,21.37,0,0,1,69.13,13h.7Z"/><path class="cls-2" d="M102,27.29q6,0,8,5.35,2.1-1.73,3.41-2.67a16.74,16.74,0,0,1,3.28-1.82,9.49,9.49,0,0,1,3.76-.86,9.35,9.35,0,0,1,7.39,3c1.74,2,2.61,4.83,2.61,8.57v8.73a25.51,25.51,0,0,0,1.91,10.12v1.41H121.17V57.67a24.72,24.72,0,0,0,1.08-8.15V41.11a12.67,12.67,0,0,0-.89-5.41c-.59-1.19-1.84-1.78-3.72-1.78a14.43,14.43,0,0,0-6.79,2.22c.09,1.11.13,2,.13,2.68v8.73a25.51,25.51,0,0,0,1.91,10.12v1.41H102.32V57.67a24.72,24.72,0,0,0,1.08-8.15V41.11a13.49,13.49,0,0,0-.83-5.41c-.55-1.19-1.71-1.78-3.47-1.78s-4.11.89-7,2.67V47.67a23.62,23.62,0,0,0,1.85,10v1.41H82.76V57.67a27.92,27.92,0,0,0,1.08-8.59V39.65q0-7.14-3.82-9V29.2l10.32-2L91,28.44a15.79,15.79,0,0,1,.76,4.07A31.8,31.8,0,0,1,97,28.56,10.07,10.07,0,0,1,102,27.29Z"/><path class="cls-2" d="M153,60.29a14.12,14.12,0,0,1-9.94-4.14Q138.69,52,138.69,45a18.2,18.2,0,0,1,4.65-12.36,15.23,15.23,0,0,1,12-5.32q6.24,0,9.3,4t3,11.09l-2.42,2.48H147.86q.06,4.59,2.45,7.07A7.67,7.67,0,0,0,156,54.43q3.35,0,10.1-3.51l1.59,2.42c-.8.77-1.72,1.55-2.74,2.36a28.31,28.31,0,0,1-5.12,2.9A16.22,16.22,0,0,1,153,60.29Zm.89-28.92a6.65,6.65,0,0,0-3.76.95,13,13,0,0,0-1.59,4.21,25.7,25.7,0,0,0-.64,4.65l11.15-.64Q159.07,31.36,153.91,31.37Z"/></g></svg>