<svg xmlns="http://www.w3.org/2000/svg" width="182.2" height="170.22" viewBox="0 0 182.2 170.22"><defs><style>.cls-1{fill:#0d0811;}.cls-2{fill:#7e5289;}</style></defs><g id="points_and_time" data-name="points and time"><path class="cls-1" d="M18.92,22.31c0-1.91-.1-4.08-.32-6.5Q31,16,37.2,16t18.6-.19q-.31,3.63-.32,6.5H54.27a68.19,68.19,0,0,0-12.35-1.85q-.26,3.18-.26,9.56V46.71q0,8.65,1,12.48v1.4h-11v-1.4a59.42,59.42,0,0,0,.9-12.29V30.27q0-6.56-.26-9.81a72.9,72.9,0,0,0-12.23,1.85Z"/><path class="cls-1" d="M68.92,35.56V49.19a23.65,23.65,0,0,0,1.85,10v1.4H59.62v-1.4a27.6,27.6,0,0,0,1.09-8.6V41.16a13.65,13.65,0,0,0-1.09-5.82,6.65,6.65,0,0,0-2.73-3.22v-1.4l11.65-2.17.77,1.28A26.82,26.82,0,0,0,68.92,35.56ZM67.71,14.92a3.57,3.57,0,0,1,.8,2.17,20.09,20.09,0,0,1,.22,2.54,8.56,8.56,0,0,1-.13,1.6l-.57.51a35.45,35.45,0,0,1-7.32,1.14l-.7-.32a7.63,7.63,0,0,1-.8-2.74,21.55,21.55,0,0,1-.29-2.64v-1l.58-.51a21.52,21.52,0,0,1,6.81-1.14H67Z"/><path class="cls-1" d="M99.18,28.81q6,0,8,5.35,2.1-1.72,3.4-2.68a17,17,0,0,1,3.28-1.81A10,10,0,0,1,125,31.77q2.61,3,2.61,8.57v8.72a25.56,25.56,0,0,0,1.91,10.13v1.4H118.35v-1.4A24.72,24.72,0,0,0,119.44,51V42.63a12.54,12.54,0,0,0-.9-5.42c-.59-1.18-1.83-1.78-3.72-1.78A14.42,14.42,0,0,0,108,37.66c.09,1.1.13,2,.13,2.68v8.72a25.56,25.56,0,0,0,1.91,10.13v1.4H99.5v-1.4A24.76,24.76,0,0,0,100.58,51V42.63a13.55,13.55,0,0,0-.83-5.42C99.2,36,98,35.43,96.28,35.43s-4.11.89-7,2.68V49.19a23.65,23.65,0,0,0,1.85,10v1.4H79.94v-1.4A27.91,27.91,0,0,0,81,50.59V41.16q0-7.12-3.83-9v-1.4l10.32-2L88.16,30A15.79,15.79,0,0,1,88.92,34a31.8,31.8,0,0,1,5.26-4A10,10,0,0,1,99.18,28.81Z"/><path class="cls-1" d="M150.2,61.8a14.13,14.13,0,0,1-9.94-4.14q-4.39-4.14-4.39-11.18a18.22,18.22,0,0,1,4.65-12.36,15.25,15.25,0,0,1,12-5.31q6.24,0,9.3,4t3,11.08l-2.41,2.49H145q.06,4.57,2.45,7.07a7.72,7.72,0,0,0,5.74,2.48q3.35,0,10.09-3.5l1.59,2.42c-.8.76-1.71,1.55-2.73,2.36a28.21,28.21,0,0,1-5.13,2.89A16.08,16.08,0,0,1,150.2,61.8Zm.89-28.92a6.51,6.51,0,0,0-3.75,1,12.89,12.89,0,0,0-1.6,4.2,25.61,25.61,0,0,0-.63,4.65l11.14-.63Q156.25,32.88,151.09,32.88Z"/><path class="cls-2" d="M23.42,19.79c0-1.91-.1-4.08-.32-6.5q12.42.2,18.6.19t18.6-.19Q60,16.92,60,19.79H58.77a67.31,67.31,0,0,0-12.35-1.85c-.17,2.12-.26,5.31-.26,9.55V44.18q0,8.67,1,12.49v1.4h-11v-1.4a59.54,59.54,0,0,0,.9-12.3V27.75c0-4.37-.09-7.65-.26-9.81a71.88,71.88,0,0,0-12.23,1.85Z"/><path class="cls-2" d="M73.42,33V46.67a23.65,23.65,0,0,0,1.85,10v1.4H64.12v-1.4a28,28,0,0,0,1.09-8.6V38.64a13.85,13.85,0,0,0-1.09-5.83,6.58,6.58,0,0,0-2.74-3.21V28.19L73,26l.76,1.27A27.93,27.93,0,0,0,73.42,33ZM72.21,12.4a3.63,3.63,0,0,1,.8,2.16,20.36,20.36,0,0,1,.22,2.55,8.38,8.38,0,0,1-.13,1.59l-.57.51a34.7,34.7,0,0,1-7.32,1.15l-.7-.32a7.63,7.63,0,0,1-.8-2.74,21.55,21.55,0,0,1-.29-2.64v-1l.58-.51A21.52,21.52,0,0,1,70.81,12h.7Z"/><path class="cls-2" d="M103.68,26.28q6,0,8,5.35,2.1-1.71,3.4-2.67a17.6,17.6,0,0,1,3.28-1.82,9.49,9.49,0,0,1,3.76-.86,9.31,9.31,0,0,1,7.39,3c1.74,2,2.61,4.83,2.61,8.56v8.73a25.56,25.56,0,0,0,1.91,10.13v1.4H122.85v-1.4a24.82,24.82,0,0,0,1.08-8.16v-8.4a12.57,12.57,0,0,0-.89-5.42c-.59-1.19-1.83-1.78-3.72-1.78a14.42,14.42,0,0,0-6.79,2.23c.09,1.1.13,2,.13,2.67v8.73a25.56,25.56,0,0,0,1.91,10.13v1.4H104v-1.4a24.82,24.82,0,0,0,1.08-8.16v-8.4a13.55,13.55,0,0,0-.83-5.42c-.55-1.19-1.71-1.78-3.47-1.78s-4.11.89-7,2.67V46.67a23.65,23.65,0,0,0,1.85,10v1.4H84.44v-1.4a28,28,0,0,0,1.09-8.6V38.64q0-7.12-3.83-9V28.19l10.32-2,.64,1.21a15.79,15.79,0,0,1,.76,4.08,31.25,31.25,0,0,1,5.26-4A10,10,0,0,1,103.68,26.28Z"/><path class="cls-2" d="M154.7,59.28a14.13,14.13,0,0,1-9.94-4.14Q140.37,51,140.37,44A18.22,18.22,0,0,1,145,31.6a15.26,15.26,0,0,1,12-5.32q6.24,0,9.3,4t3,11.08L167,43.86H149.54q.06,4.59,2.45,7.07a7.69,7.69,0,0,0,5.74,2.49q3.35,0,10.09-3.5l1.59,2.42c-.8.76-1.71,1.55-2.73,2.35a27.53,27.53,0,0,1-5.13,2.9A16.08,16.08,0,0,1,154.7,59.28Zm.89-28.92a6.57,6.57,0,0,0-3.76,1,13.12,13.12,0,0,0-1.59,4.2,25.61,25.61,0,0,0-.63,4.65l11.14-.64Q160.75,30.37,155.59,30.36Z"/><path class="cls-1" d="M69.16,99.9q0-9-7.84-9-5.85,0-17.53,9.1a19.58,19.58,0,0,1-5.36-11.4q13.13-4.87,23.32-4.88t15.7,4.16A13.48,13.48,0,0,1,83,99.23q0,10-10.34,22.88-5.19,6.33-9.44,10.82T52.51,143.75c4,0,6.8,0,8.32-.09q17.25-.58,23.27-5.27l2.59,1.82-4.5,11.68h-42l-2.3-5.46q5.46-5.35,8.86-8.81t8.13-9a92.31,92.31,0,0,0,7.47-9.81,56.12,56.12,0,0,0,4.79-9.38A25.72,25.72,0,0,0,69.16,99.9Z"/><path class="cls-2" d="M74.54,97.14q0-9-7.84-9-5.85,0-17.53,9.1a19.58,19.58,0,0,1-5.36-11.4Q56.92,81,67.13,81t15.7,4.16a13.48,13.48,0,0,1,5.51,11.35q0,10.05-10.34,22.88-5.19,6.33-9.44,10.82T57.88,141q6,0,8.33-.09,17.25-.59,23.27-5.27l2.59,1.82-4.5,11.68h-42l-2.29-5.46q5.44-5.35,8.86-8.81t8.13-9a92.31,92.31,0,0,0,7.47-9.81,56.12,56.12,0,0,0,4.79-9.38A25.72,25.72,0,0,0,74.54,97.14Z"/><path class="cls-1" d="M123,98.52q0-9-7.85-9-5.85,0-17.52,9.1a19.54,19.54,0,0,1-5.37-11.4q13.13-4.87,23.32-4.88t15.7,4.16a13.48,13.48,0,0,1,5.51,11.35q0,10.05-10.34,22.88-5.17,6.33-9.44,10.82c-2.83,3-6.4,6.61-10.67,10.82q6,0,8.33-.09Q131.94,141.7,138,137l2.59,1.82-4.5,11.68H94l-2.3-5.46q5.46-5.36,8.86-8.81c2.26-2.29,5-5.29,8.13-9a91,91,0,0,0,7.47-9.81,56.12,56.12,0,0,0,4.79-9.38A25.75,25.75,0,0,0,123,98.52Z"/><path class="cls-2" d="M128.41,95.76q0-9-7.85-9-5.85,0-17.53,9.1a19.58,19.58,0,0,1-5.36-11.4Q110.8,79.58,121,79.58t15.7,4.16a13.48,13.48,0,0,1,5.51,11.35q0,10.05-10.34,22.88-5.18,6.33-9.44,10.82t-10.67,10.82q6,0,8.33-.09,17.24-.59,23.26-5.27l2.59,1.82-4.5,11.68h-42l-2.3-5.46q5.46-5.35,8.86-8.81c2.26-2.29,5-5.29,8.13-9a93.33,93.33,0,0,0,7.47-9.82,56.12,56.12,0,0,0,4.79-9.38A25.75,25.75,0,0,0,128.41,95.76Z"/></g></svg>