<svg xmlns="http://www.w3.org/2000/svg" width="182.2" height="170.22" viewBox="0 0 182.2 170.22"><defs><style>.cls-1{fill:#0d0811;}.cls-2{fill:#7e5289;}</style></defs><g id="points_and_time" data-name="points and time"><path class="cls-1" d="M77.35,125.74q0,13.8,1.6,19.8v2.21H62.35v-2.21q1.6-6,1.61-19.8V97.15a67.78,67.78,0,0,0-.31-8.5,84.6,84.6,0,0,1-13.1,1.49l-1.1-5.7q11.1-1.89,18.3-6.69H77.86l-.51,11.8Z"/><path class="cls-2" d="M81.85,125.74q0,13.8,1.6,19.8v2.21H66.85v-2.21q1.61-6,1.6-19.8V97.15a68.62,68.62,0,0,0-.3-8.5,84.74,84.74,0,0,1-13.1,1.49L54,84.44q11.1-1.89,18.3-6.69h10.1l-.5,11.8Z"/><path class="cls-1" d="M119.11,125.74q0,13.8,1.6,19.8v2.21h-16.6v-2.21q1.61-6,1.6-19.8V97.15a68.62,68.62,0,0,0-.3-8.5,84.74,84.74,0,0,1-13.1,1.49l-1.1-5.7q11.1-1.89,18.3-6.69h10.1l-.5,11.8Z"/><path class="cls-2" d="M123.61,125.74q0,13.8,1.6,19.8v2.21h-16.6v-2.21q1.61-6,1.6-19.8V97.15a68.62,68.62,0,0,0-.3-8.5,84.74,84.74,0,0,1-13.1,1.49l-1.1-5.7q11.1-1.89,18.3-6.69h10.1l-.5,11.8Z"/><path class="cls-1" d="M17.75,20c0-1.91-.1-4.08-.32-6.5q12.42.2,18.6.19t18.6-.19q-.32,3.63-.32,6.5H53.1a67.31,67.31,0,0,0-12.35-1.85q-.26,3.18-.26,9.56V44.41q0,8.66,1,12.48v1.4H30.56v-1.4a60.39,60.39,0,0,0,.89-12.29V28q0-6.55-.26-9.81A71.88,71.88,0,0,0,19,20Z"/><path class="cls-1" d="M67.75,33.26V46.89a23.65,23.65,0,0,0,1.85,10v1.4H58.45v-1.4a27.65,27.65,0,0,0,1.09-8.6V38.86A13.7,13.7,0,0,0,58.45,33a6.67,6.67,0,0,0-2.73-3.21v-1.4l11.65-2.17.77,1.28A26.82,26.82,0,0,0,67.75,33.26ZM66.54,12.62a3.56,3.56,0,0,1,.8,2.16,20.36,20.36,0,0,1,.22,2.55,9.57,9.57,0,0,1-.12,1.6l-.58.51a35.45,35.45,0,0,1-7.32,1.14l-.7-.32a7.63,7.63,0,0,1-.8-2.74,21.55,21.55,0,0,1-.29-2.64v-1l.58-.51a21.52,21.52,0,0,1,6.81-1.14h.7Z"/><path class="cls-1" d="M98,26.51q6,0,8,5.35,2.1-1.72,3.4-2.68a17.6,17.6,0,0,1,3.28-1.82,9.47,9.47,0,0,1,3.76-.85,9.31,9.31,0,0,1,7.39,3c1.74,2,2.61,4.83,2.61,8.56v8.73a25.38,25.38,0,0,0,1.92,10.13v1.4H117.18v-1.4a24.46,24.46,0,0,0,1.09-8.15V40.33a12.72,12.72,0,0,0-.89-5.42c-.6-1.18-1.84-1.78-3.73-1.78a14.42,14.42,0,0,0-6.79,2.23c.09,1.1.13,2,.13,2.67v8.73a25.56,25.56,0,0,0,1.91,10.13v1.4H98.33v-1.4a24.76,24.76,0,0,0,1.08-8.15V40.33a13.37,13.37,0,0,0-.83-5.42c-.55-1.18-1.71-1.78-3.47-1.78s-4.11.89-7,2.68V46.89a23.65,23.65,0,0,0,1.85,10v1.4H78.77v-1.4a28,28,0,0,0,1.09-8.6V38.86q0-7.12-3.83-9v-1.4l10.32-2L87,27.65a15.79,15.79,0,0,1,.76,4.08A31.25,31.25,0,0,1,93,27.78,10,10,0,0,1,98,26.51Z"/><path class="cls-1" d="M149,59.5a14.15,14.15,0,0,1-9.94-4.14q-4.4-4.14-4.39-11.18a18.22,18.22,0,0,1,4.65-12.36,15.25,15.25,0,0,1,12-5.31q6.24,0,9.3,4t3.06,11.08l-2.42,2.49H143.87q.06,4.57,2.46,7.07a7.68,7.68,0,0,0,5.73,2.48q3.34,0,10.09-3.5l1.6,2.42c-.81.76-1.72,1.55-2.74,2.35a27.53,27.53,0,0,1-5.13,2.9A16.08,16.08,0,0,1,149,59.5Zm.89-28.92a6.51,6.51,0,0,0-3.75,1,13.12,13.12,0,0,0-1.6,4.2,25.61,25.61,0,0,0-.63,4.65l11.14-.64Q155.08,30.59,149.92,30.58Z"/><path class="cls-2" d="M22.25,17.49c0-1.92-.1-4.08-.32-6.5q12.42.19,18.6.19T59.13,11c-.21,2.42-.32,4.58-.32,6.5H57.6a67.31,67.31,0,0,0-12.35-1.85C45.08,17.76,45,21,45,25.19V41.88q0,8.67,1,12.49v1.4H35.06v-1.4A60.43,60.43,0,0,0,36,42.07V25.45q0-6.57-.26-9.81a71.88,71.88,0,0,0-12.23,1.85Z"/><path class="cls-2" d="M72.25,30.74V44.37a23.69,23.69,0,0,0,1.85,10v1.4H63v-1.4A27.69,27.69,0,0,0,64,45.77V36.34A13.7,13.7,0,0,0,63,30.51a6.69,6.69,0,0,0-2.73-3.22v-1.4l11.65-2.16L72.64,25A27,27,0,0,0,72.25,30.74ZM71,10.1a3.56,3.56,0,0,1,.8,2.16,20.36,20.36,0,0,1,.22,2.55,9.36,9.36,0,0,1-.12,1.59l-.58.51A34.7,34.7,0,0,1,64,18.06l-.7-.32a7.63,7.63,0,0,1-.8-2.74,21.55,21.55,0,0,1-.29-2.64v-1l.58-.51a21.54,21.54,0,0,1,6.81-1.15h.7Z"/><path class="cls-2" d="M102.51,24q6,0,8,5.35c1.4-1.14,2.53-2,3.4-2.67a17.6,17.6,0,0,1,3.28-1.82A9.49,9.49,0,0,1,121,24a9.34,9.34,0,0,1,7.39,3q2.61,3,2.61,8.57v8.73a25.59,25.59,0,0,0,1.91,10.13v1.4H121.68v-1.4a24.52,24.52,0,0,0,1.09-8.16v-8.4a12.51,12.51,0,0,0-.9-5.42c-.59-1.19-1.83-1.78-3.72-1.78a14.42,14.42,0,0,0-6.79,2.23c.09,1.1.13,2,.13,2.67v8.73a25.59,25.59,0,0,0,1.91,10.13v1.4H102.83v-1.4a24.82,24.82,0,0,0,1.08-8.16v-8.4a13.34,13.34,0,0,0-.83-5.42c-.55-1.19-1.71-1.78-3.47-1.78s-4.11.89-7,2.67V44.37a23.69,23.69,0,0,0,1.85,10v1.4H83.27v-1.4a28,28,0,0,0,1.09-8.6V36.34q0-7.14-3.83-9.05v-1.4l10.32-2,.64,1.21a15.79,15.79,0,0,1,.76,4.08,31.25,31.25,0,0,1,5.26-3.95A10,10,0,0,1,102.51,24Z"/><path class="cls-2" d="M153.53,57a14.13,14.13,0,0,1-9.94-4.14q-4.4-4.14-4.39-11.18a18.22,18.22,0,0,1,4.65-12.36,15.26,15.26,0,0,1,12-5.32q6.24,0,9.3,4t3.06,11.08l-2.42,2.48H148.37q.06,4.59,2.45,7.07a7.69,7.69,0,0,0,5.74,2.49q3.34,0,10.09-3.5l1.6,2.42c-.81.76-1.72,1.55-2.74,2.35a27.53,27.53,0,0,1-5.13,2.9A16.08,16.08,0,0,1,153.53,57Zm.89-28.92a6.51,6.51,0,0,0-3.75,1,12.89,12.89,0,0,0-1.6,4.2,25.61,25.61,0,0,0-.63,4.65l11.14-.64Q159.58,28.07,154.42,28.06Z"/></g></svg>