<svg xmlns="http://www.w3.org/2000/svg" width="182.2" height="170.22" viewBox="0 0 182.2 170.22"><defs><style>.cls-1{fill:#0d0811;}.cls-2{fill:#7e5289;}</style></defs><g id="points_and_time" data-name="points and time"><path class="cls-1" d="M137.06,145.7Q130.13,152,118,152a48,48,0,0,1-22.44-5.33V146a12.88,12.88,0,0,1,4-9q11,7.66,18.52,7.66h.48c3.36,0,6-.51,7.76-1.55q4.27-4,4.27-12.8,0-6.69-3-9.45t-9.64-2.76a79.18,79.18,0,0,0-9.41.38h-1.94l-2.23-7.37h10.57a9.84,9.84,0,0,0,7.94-3.73A13,13,0,0,0,126,98.82q0-10-7.27-10-6.5,0-15.9,7.37a23.72,23.72,0,0,1-4.56-11.06A78.46,78.46,0,0,1,119.66,82Q139,82,139,96.49a17.05,17.05,0,0,1-3,10,18.88,18.88,0,0,1-7,6.25q15,3.21,15,17.07A20.43,20.43,0,0,1,137.06,145.7Z"/><path class="cls-2" d="M140.83,145.7Q133.9,152,121.73,152a48.08,48.08,0,0,1-22.45-5.33V146a12.89,12.89,0,0,1,4-9q11,7.66,18.52,7.66h.48c3.36,0,6-.51,7.75-1.55q4.28-4,4.27-12.8,0-6.69-3-9.45t-9.64-2.76a79,79,0,0,0-9.4.38h-1.94l-2.24-7.37h10.57a9.87,9.87,0,0,0,8-3.73,13,13,0,0,0,3.11-8.58q0-10-7.28-10-6.49,0-15.89,7.37A23.62,23.62,0,0,1,102,85.15,78.39,78.39,0,0,1,123.42,82q19.3,0,19.3,14.54a17.05,17.05,0,0,1-3,10,18.91,18.91,0,0,1-7,6.25q15,3.21,15,17.07A20.43,20.43,0,0,1,140.83,145.7Z"/><path class="cls-1" d="M17.07,21.46q0-2.87-.32-6.5,12.42.19,18.6.19T54,15q-.31,3.63-.32,6.5H52.42a67.41,67.41,0,0,0-12.36-1.85c-.17,2.12-.25,5.31-.25,9.55V45.85q0,8.67,1,12.49v1.4h-11v-1.4A59.71,59.71,0,0,0,30.76,46V29.42c0-4.37-.08-7.65-.25-9.81a71.74,71.74,0,0,0-12.23,1.85Z"/><path class="cls-1" d="M67.07,34.71V48.34a23.65,23.65,0,0,0,1.85,10v1.4H57.77v-1.4a28,28,0,0,0,1.08-8.6V40.31a13.86,13.86,0,0,0-1.08-5.83A6.58,6.58,0,0,0,55,31.27V29.86L66.69,27.7,67.45,29A27.93,27.93,0,0,0,67.07,34.71ZM65.86,14.07a3.63,3.63,0,0,1,.8,2.16,20.36,20.36,0,0,1,.22,2.55,8.38,8.38,0,0,1-.13,1.59l-.57.51A34.7,34.7,0,0,1,58.85,22l-.7-.32A7.66,7.66,0,0,1,57.36,19a21.55,21.55,0,0,1-.29-2.64v-1l.57-.51a21.63,21.63,0,0,1,6.82-1.14h.7Z"/><path class="cls-1" d="M97.33,28q6,0,8,5.36,2.1-1.73,3.41-2.68A17.28,17.28,0,0,1,112,28.81,9.49,9.49,0,0,1,115.8,28a9.33,9.33,0,0,1,7.39,3c1.74,2,2.61,4.83,2.61,8.56v8.73a25.56,25.56,0,0,0,1.91,10.13v1.4H116.5v-1.4a24.8,24.8,0,0,0,1.08-8.15V41.78a12.72,12.72,0,0,0-.89-5.42c-.59-1.19-1.84-1.78-3.73-1.78a14.35,14.35,0,0,0-6.78,2.23c.08,1.1.13,2,.13,2.67v8.73a25.56,25.56,0,0,0,1.91,10.13v1.4H97.65v-1.4a24.8,24.8,0,0,0,1.08-8.15V41.78a13.55,13.55,0,0,0-.83-5.42c-.55-1.19-1.71-1.78-3.47-1.78s-4.11.89-7,2.67V48.34a23.65,23.65,0,0,0,1.85,10v1.4H78.09v-1.4a28,28,0,0,0,1.08-8.6V40.31q0-7.12-3.82-9V29.86l10.32-2,.64,1.21a15.79,15.79,0,0,1,.76,4.08,31.25,31.25,0,0,1,5.26-3.95A10,10,0,0,1,97.33,28Z"/><path class="cls-1" d="M148.35,61a14.12,14.12,0,0,1-9.94-4.14Q134,52.67,134,45.63a18.22,18.22,0,0,1,4.65-12.36,15.26,15.26,0,0,1,12-5.32Q157,28,160,32t3.06,11.08l-2.42,2.48H143.19q.06,4.59,2.45,7.08a7.69,7.69,0,0,0,5.73,2.48q3.34,0,10.1-3.5L163.06,54c-.8.76-1.72,1.55-2.74,2.35a27.71,27.71,0,0,1-5.12,2.9A16.08,16.08,0,0,1,148.35,61ZM149.24,32a6.57,6.57,0,0,0-3.76,1,12.89,12.89,0,0,0-1.59,4.2,25.7,25.7,0,0,0-.64,4.65l11.15-.64Q154.4,32,149.24,32Z"/><path class="cls-2" d="M21.57,18.93q0-2.87-.32-6.49,12.42.18,18.6.19t18.6-.19q-.31,3.63-.32,6.49H56.92a67.29,67.29,0,0,0-12.36-1.84c-.17,2.12-.25,5.31-.25,9.55V43.33q0,8.67,1,12.49v1.4h-11v-1.4a59.71,59.71,0,0,0,.89-12.3V26.9q0-6.57-.25-9.81a71.56,71.56,0,0,0-12.23,1.84Z"/><path class="cls-2" d="M71.57,32.18V45.82a23.69,23.69,0,0,0,1.85,10v1.4H62.27v-1.4a28,28,0,0,0,1.08-8.6V37.79A13.83,13.83,0,0,0,62.27,32a6.66,6.66,0,0,0-2.74-3.22v-1.4l11.66-2.16L72,26.45A27.88,27.88,0,0,0,71.57,32.18ZM70.36,11.54a3.69,3.69,0,0,1,.8,2.17,20.22,20.22,0,0,1,.22,2.55,8.52,8.52,0,0,1-.13,1.59l-.57.51a35.36,35.36,0,0,1-7.33,1.15l-.7-.32a7.73,7.73,0,0,1-.79-2.74,21.55,21.55,0,0,1-.29-2.64v-1l.57-.51A21.37,21.37,0,0,1,69,11.16h.7Z"/><path class="cls-2" d="M101.83,25.43q6,0,8,5.35c1.4-1.14,2.54-2,3.41-2.67a16.74,16.74,0,0,1,3.28-1.82,9.49,9.49,0,0,1,3.76-.86,9.35,9.35,0,0,1,7.39,3c1.74,2,2.61,4.83,2.61,8.57v8.73a25.59,25.59,0,0,0,1.91,10.13v1.4H121v-1.4a24.82,24.82,0,0,0,1.08-8.16V39.25a12.67,12.67,0,0,0-.89-5.41c-.59-1.19-1.84-1.78-3.73-1.78a14.35,14.35,0,0,0-6.78,2.23c.08,1.1.13,2,.13,2.67v8.73a25.59,25.59,0,0,0,1.91,10.13v1.4H102.14v-1.4a24.52,24.52,0,0,0,1.09-8.16V39.25a13.49,13.49,0,0,0-.83-5.41c-.55-1.19-1.71-1.78-3.47-1.78s-4.11.89-7,2.67V45.82a23.69,23.69,0,0,0,1.85,10v1.4H82.59v-1.4a28,28,0,0,0,1.08-8.6V37.79q0-7.14-3.82-9v-1.4l10.32-2,.64,1.21a15.79,15.79,0,0,1,.76,4.08,31.25,31.25,0,0,1,5.26-3.95A10,10,0,0,1,101.83,25.43Z"/><path class="cls-2" d="M152.85,58.43a14.12,14.12,0,0,1-9.94-4.14q-4.4-4.14-4.39-11.18a18.22,18.22,0,0,1,4.65-12.36,15.24,15.24,0,0,1,12-5.32q6.26,0,9.3,4t3.06,11.09L165.14,43H147.69q.06,4.59,2.45,7.07a7.65,7.65,0,0,0,5.73,2.49q3.34,0,10.1-3.51l1.59,2.42c-.81.77-1.72,1.55-2.74,2.36a28.31,28.31,0,0,1-5.12,2.9A16.26,16.26,0,0,1,152.85,58.43Zm.89-28.92a6.65,6.65,0,0,0-3.76.95,13,13,0,0,0-1.59,4.21,25.7,25.7,0,0,0-.64,4.65l11.15-.64Q158.9,29.52,153.74,29.51Z"/><path class="cls-1" d="M67.31,99.05q0-9-7.84-9-5.85,0-17.53,9.09a19.52,19.52,0,0,1-5.36-11.39q13.11-4.87,23.31-4.88c6.81,0,12,1.38,15.7,4.16A13.48,13.48,0,0,1,81.1,98.38q0,10.05-10.34,22.88-5.17,6.31-9.43,10.82T50.65,142.9c4,0,6.81,0,8.33-.1q17.25-.57,23.27-5.26l2.59,1.82L80.34,151h-42L36,145.58q5.46-5.36,8.86-8.81t8.14-9A92.31,92.31,0,0,0,60.47,118a56.1,56.1,0,0,0,4.78-9.38A25.59,25.59,0,0,0,67.31,99.05Z"/><path class="cls-2" d="M72.69,96.29q0-9-7.85-9-5.84,0-17.52,9.1A19.58,19.58,0,0,1,42,85q13.11-4.87,23.31-4.88c6.81,0,12,1.38,15.7,4.16a13.48,13.48,0,0,1,5.51,11.35q0,10-10.34,22.88-5.17,6.31-9.43,10.82T56,140.14q6,0,8.33-.1,17.24-.57,23.27-5.26l2.59,1.82-4.5,11.68h-42l-2.3-5.46q5.46-5.35,8.86-8.81t8.14-9a92.31,92.31,0,0,0,7.47-9.81,56.1,56.1,0,0,0,4.78-9.38A25.55,25.55,0,0,0,72.69,96.29Z"/></g></svg>