<svg xmlns="http://www.w3.org/2000/svg" width="182.2" height="170.22" viewBox="0 0 182.2 170.22"><defs><style>.cls-1{fill:#0d0811;}.cls-2{fill:#7e5289;}</style></defs><g id="points_and_time" data-name="points and time"><path class="cls-1" d="M142.09,114.3a15.35,15.35,0,0,1,5.13,6.43,23.49,23.49,0,0,1,1.94,9.91q0,10.73-6.58,17.55T123.92,155q-12.09,0-19-6.86T98,126.87q0-20.2,15.08-31.72a52.83,52.83,0,0,1,12.33-6.62A56.51,56.51,0,0,1,138.71,85L140,90.52q-13,4-19.44,10.73a31.89,31.89,0,0,0-7,13A26.17,26.17,0,0,1,128,110,23.92,23.92,0,0,1,142.09,114.3Zm-30.16,15.18q0,9.57,2.76,14.07t9.72,4.49c3.41,0,5.83-.45,7.24-1.35a14.88,14.88,0,0,0,2.57-5.71,38.85,38.85,0,0,0,1-9.62,14.5,14.5,0,0,0-2.8-9.28q-2.81-3.52-8.17-3.53t-12.14,4.55C112,125.67,111.93,127.8,111.93,129.48Z"/><path class="cls-2" d="M148.05,112.89a15.44,15.44,0,0,1,5.13,6.44,23.33,23.33,0,0,1,1.94,9.91q0,10.72-6.58,17.54t-18.66,6.82q-12.09,0-19-6.87T104,125.46q0-20.2,15.08-31.71a52.66,52.66,0,0,1,12.33-6.62,56.51,56.51,0,0,1,13.29-3.53l1.26,5.51q-13.05,4-19.43,10.73a31.89,31.89,0,0,0-7,13A26.2,26.2,0,0,1,134,108.64,24,24,0,0,1,148.05,112.89ZM117.9,128.08q0,9.57,2.75,14.06t9.72,4.5c3.41,0,5.83-.45,7.24-1.36a14.76,14.76,0,0,0,2.57-5.7,38.44,38.44,0,0,0,1-9.62,14.46,14.46,0,0,0-2.8-9.28q-2.8-3.53-8.17-3.53t-12.14,4.54Q117.9,125.56,117.9,128.08Z"/><path class="cls-1" d="M21.88,26q0-2.87-.32-6.5,12.42.2,18.6.19t18.6-.19q-.32,3.63-.32,6.5H57.23a67.31,67.31,0,0,0-12.35-1.85c-.17,2.12-.26,5.31-.26,9.55V50.35q0,8.67,1,12.49v1.4h-11v-1.4a59.54,59.54,0,0,0,.9-12.3V33.92c0-4.37-.09-7.65-.26-9.81A71.88,71.88,0,0,0,23.09,26Z"/><path class="cls-1" d="M71.88,39.21V52.84a23.65,23.65,0,0,0,1.85,10v1.4H62.58v-1.4a28,28,0,0,0,1.09-8.6V44.81A13.85,13.85,0,0,0,62.58,39a6.58,6.58,0,0,0-2.74-3.21V34.36L71.5,32.2l.76,1.27A27.93,27.93,0,0,0,71.88,39.21ZM70.67,18.57a3.63,3.63,0,0,1,.8,2.16,20.36,20.36,0,0,1,.22,2.55,8.38,8.38,0,0,1-.13,1.59l-.57.51a34.7,34.7,0,0,1-7.32,1.15L63,26.21a7.66,7.66,0,0,1-.79-2.74,21.55,21.55,0,0,1-.29-2.64v-1l.58-.51a21.52,21.52,0,0,1,6.81-1.14H70Z"/><path class="cls-1" d="M102.14,32.45q6,0,8,5.35c1.41-1.14,2.54-2,3.41-2.67a17.6,17.6,0,0,1,3.28-1.82,9.49,9.49,0,0,1,3.76-.86,9.31,9.31,0,0,1,7.39,3c1.74,2,2.61,4.83,2.61,8.56v8.73a25.56,25.56,0,0,0,1.91,10.13v1.4H121.31v-1.4a24.8,24.8,0,0,0,1.08-8.15V46.28a12.57,12.57,0,0,0-.89-5.42c-.59-1.19-1.84-1.78-3.72-1.78A14.38,14.38,0,0,0,111,41.31c.09,1.1.13,2,.13,2.67v8.73A25.56,25.56,0,0,0,113,62.84v1.4H102.46v-1.4a24.8,24.8,0,0,0,1.08-8.15V46.28a13.55,13.55,0,0,0-.83-5.42c-.55-1.19-1.71-1.78-3.47-1.78s-4.11.89-7,2.67V52.84a23.65,23.65,0,0,0,1.85,10v1.4H82.9v-1.4A28,28,0,0,0,84,54.24V44.81q0-7.12-3.82-9V34.36l10.32-2,.64,1.21a15.79,15.79,0,0,1,.76,4.08,31.25,31.25,0,0,1,5.26-4A10,10,0,0,1,102.14,32.45Z"/><path class="cls-1" d="M153.16,65.45a14.13,14.13,0,0,1-9.94-4.14q-4.4-4.14-4.39-11.18a18.22,18.22,0,0,1,4.65-12.36,15.26,15.26,0,0,1,12-5.32q6.24,0,9.3,4t3.05,11.08L165.45,50H148q.06,4.59,2.45,7.07a7.69,7.69,0,0,0,5.74,2.49q3.34,0,10.09-3.5l1.59,2.42c-.8.76-1.71,1.55-2.73,2.35a27.53,27.53,0,0,1-5.13,2.9A16.08,16.08,0,0,1,153.16,65.45Zm.89-28.92a6.57,6.57,0,0,0-3.76,1,12.89,12.89,0,0,0-1.59,4.2,26.63,26.63,0,0,0-.64,4.65l11.15-.64Q159.21,36.54,154.05,36.53Z"/><path class="cls-2" d="M26.38,23.43q0-2.87-.32-6.49,12.42.18,18.6.19t18.6-.19q-.32,3.63-.32,6.49H61.73a67.32,67.32,0,0,0-12.35-1.84c-.18,2.12-.26,5.31-.26,9.55V47.83q0,8.67,1,12.49v1.4h-11v-1.4A59.71,59.71,0,0,0,40.07,48V31.4q0-6.57-.25-9.81a71.7,71.7,0,0,0-12.23,1.84Z"/><path class="cls-2" d="M76.38,36.68V50.31a23.7,23.7,0,0,0,1.85,10v1.4H67.08v-1.4a28,28,0,0,0,1.09-8.6V42.29a13.82,13.82,0,0,0-1.09-5.83,6.66,6.66,0,0,0-2.74-3.22v-1.4L76,29.68,76.76,31A27.88,27.88,0,0,0,76.38,36.68ZM75.17,16a3.69,3.69,0,0,1,.8,2.17,20.22,20.22,0,0,1,.22,2.55,8.52,8.52,0,0,1-.13,1.59l-.57.51A35.37,35.37,0,0,1,68.17,24l-.71-.32A7.73,7.73,0,0,1,66.67,21a21.55,21.55,0,0,1-.29-2.64v-1l.58-.51a21.26,21.26,0,0,1,6.81-1.15h.7Z"/><path class="cls-2" d="M106.64,29.93q6,0,8,5.35c1.41-1.14,2.54-2,3.41-2.67a17,17,0,0,1,3.28-1.82,9.49,9.49,0,0,1,3.76-.86,9.34,9.34,0,0,1,7.39,3c1.74,2,2.61,4.83,2.61,8.57v8.73A25.59,25.59,0,0,0,137,60.32v1.4H125.81v-1.4a24.82,24.82,0,0,0,1.08-8.16V43.75a12.52,12.52,0,0,0-.89-5.41c-.59-1.19-1.84-1.78-3.72-1.78a14.38,14.38,0,0,0-6.79,2.23c.09,1.1.13,2,.13,2.67v8.73a25.59,25.59,0,0,0,1.91,10.13v1.4H107v-1.4A24.82,24.82,0,0,0,108,52.16V43.75a13.49,13.49,0,0,0-.83-5.41c-.55-1.19-1.71-1.78-3.47-1.78s-4.11.89-7,2.67V50.31a23.7,23.7,0,0,0,1.85,10v1.4H87.4v-1.4a28,28,0,0,0,1.08-8.6V42.29q0-7.14-3.82-9v-1.4l10.32-2,.64,1.21a15.79,15.79,0,0,1,.76,4.08,31.25,31.25,0,0,1,5.26-3.95A10,10,0,0,1,106.64,29.93Z"/><path class="cls-2" d="M157.66,62.93a14.13,14.13,0,0,1-9.94-4.14q-4.4-4.14-4.39-11.18A18.22,18.22,0,0,1,148,35.25a15.26,15.26,0,0,1,12-5.32q6.24,0,9.3,4T172.37,45L170,47.51H152.5q.06,4.59,2.45,7.07a7.69,7.69,0,0,0,5.74,2.49q3.34,0,10.09-3.51L172.37,56c-.8.77-1.72,1.55-2.73,2.36a28.12,28.12,0,0,1-5.13,2.9A16.22,16.22,0,0,1,157.66,62.93ZM158.55,34a6.65,6.65,0,0,0-3.76,1,13,13,0,0,0-1.59,4.21,26.63,26.63,0,0,0-.64,4.65l11.15-.64Q163.71,34,158.55,34Z"/><path class="cls-1" d="M72.12,103.55q0-9-7.84-9-5.85,0-17.53,9.09a19.58,19.58,0,0,1-5.36-11.39q13.11-4.87,23.32-4.88t15.7,4.16a13.48,13.48,0,0,1,5.51,11.35q0,10.05-10.34,22.88-5.19,6.31-9.44,10.82T55.46,147.4q6,0,8.33-.1Q81,146.73,87.06,142l2.59,1.82-4.5,11.68h-42l-2.29-5.46q5.45-5.36,8.86-8.81t8.13-9a92.31,92.31,0,0,0,7.47-9.81,56.12,56.12,0,0,0,4.79-9.38A25.76,25.76,0,0,0,72.12,103.55Z"/><path class="cls-2" d="M77.5,100.79q0-9-7.84-9-5.85,0-17.53,9.09a19.58,19.58,0,0,1-5.36-11.39q13.11-4.87,23.32-4.88t15.7,4.16a13.47,13.47,0,0,1,5.5,11.35q0,10-10.34,22.88-5.17,6.31-9.43,10.82T60.84,144.64c4,0,6.81,0,8.33-.1q17.25-.57,23.27-5.26L95,141.1l-4.5,11.68h-42l-2.3-5.46q5.46-5.35,8.86-8.81t8.14-9a92.31,92.31,0,0,0,7.47-9.81,56.89,56.89,0,0,0,4.79-9.38A25.72,25.72,0,0,0,77.5,100.79Z"/></g></svg>