<svg xmlns="http://www.w3.org/2000/svg" width="182.2" height="170.22" viewBox="0 0 182.2 170.22"><defs><style>.cls-1{fill:#0d0811;}.cls-2{fill:#7e5289;}</style></defs><g id="points_and_time" data-name="points and time"><path class="cls-1" d="M97.61,126.81A101.8,101.8,0,0,0,98.8,143v2.16h-15V143A95.28,95.28,0,0,0,85,127.79v-1q-21.48,0-28.82.1l-2.74-5.4q11.27-19,29.31-44.9l15.19-1.47q-.5,10.5-.49,43.14l11.18-.59-2.06,9.12Zm-12.44-8.34q.09-11.46.09-18.87V87.69q-13.92,20-20.39,31.08Q75.57,118.77,85.17,118.47Z"/><path class="cls-2" d="M103.3,124.26a103.05,103.05,0,0,0,1.18,16.17v2.16h-15v-2.16a94.11,94.11,0,0,0,1.18-15.19v-1q-21.48,0-28.82.1L59.09,119q11.28-19,29.32-44.9l15.19-1.47q-.5,10.5-.49,43.14l11.18-.59-2.06,9.12Zm-12.44-8.34Q91,104.46,91,97.05V85.14q-13.92,20-20.39,31.08Q81.24,116.22,90.86,115.92Z"/><path class="cls-1" d="M13.59,21.82q0-2.87-.31-6.5,12.42.19,18.59.19t18.6-.19q-.31,3.63-.31,6.5H49A68.28,68.28,0,0,0,36.59,20q-.26,3.18-.26,9.56V46.22q0,8.66,1,12.48v1.4h-11V58.7a60.32,60.32,0,0,0,.89-12.29V29.78q0-6.55-.26-9.81A72.9,72.9,0,0,0,14.8,21.82Z"/><path class="cls-1" d="M63.6,35.07V48.7a23.66,23.66,0,0,0,1.84,10v1.4H54.3V58.7a28,28,0,0,0,1.08-8.6V40.67a13.81,13.81,0,0,0-1.08-5.82,6.71,6.71,0,0,0-2.74-3.22v-1.4l11.65-2.17L64,29.34A27,27,0,0,0,63.6,35.07ZM62.39,14.43a3.64,3.64,0,0,1,.79,2.17,20.5,20.5,0,0,1,.23,2.54,9.5,9.5,0,0,1-.13,1.6l-.58.51a35.45,35.45,0,0,1-7.32,1.14l-.7-.32a7.63,7.63,0,0,1-.8-2.74,20.93,20.93,0,0,1-.28-2.64v-1l.57-.51A21.52,21.52,0,0,1,61,14.05h.71Z"/><path class="cls-1" d="M93.85,28.32q6.06,0,8,5.35c1.4-1.15,2.53-2,3.41-2.68a16.75,16.75,0,0,1,3.28-1.81,9.95,9.95,0,0,1,11.14,2.1c1.74,2,2.61,4.83,2.61,8.56v8.73a25.38,25.38,0,0,0,1.92,10.13v1.4H113V58.7a24.46,24.46,0,0,0,1.09-8.15V42.14a12.72,12.72,0,0,0-.89-5.42c-.6-1.18-1.84-1.78-3.73-1.78a14.35,14.35,0,0,0-6.78,2.23c.08,1.1.12,2,.12,2.67v8.73a25.56,25.56,0,0,0,1.91,10.13v1.4H94.17V58.7a24.76,24.76,0,0,0,1.08-8.15V42.14a13.37,13.37,0,0,0-.83-5.42c-.55-1.18-1.71-1.78-3.47-1.78s-4.1.89-7,2.68V48.7a23.66,23.66,0,0,0,1.84,10v1.4H74.62V58.7a28,28,0,0,0,1.08-8.6V40.67q0-7.12-3.82-9v-1.4l10.31-2,.64,1.21a15.71,15.71,0,0,1,.77,4.08,31.37,31.37,0,0,1,5.25-3.95A10,10,0,0,1,93.85,28.32Z"/><path class="cls-1" d="M144.87,61.31a14.11,14.11,0,0,1-9.93-4.14Q130.54,53,130.54,46a18.22,18.22,0,0,1,4.65-12.36,15.25,15.25,0,0,1,12-5.31q6.24,0,9.3,4t3.06,11.08l-2.42,2.49H139.71c0,3.05.86,5.41,2.46,7.07a7.68,7.68,0,0,0,5.73,2.48q3.34,0,10.1-3.5l1.59,2.42c-.81.76-1.72,1.55-2.74,2.36a28.21,28.21,0,0,1-5.13,2.89A16.08,16.08,0,0,1,144.87,61.31Zm.9-28.92a6.52,6.52,0,0,0-3.76,1,13.12,13.12,0,0,0-1.6,4.2,25.61,25.61,0,0,0-.63,4.65l11.15-.63Q150.93,32.39,145.77,32.39Z"/><path class="cls-2" d="M18.09,19.3c0-1.91-.1-4.08-.32-6.5q12.42.19,18.6.19T55,12.8q-.31,3.63-.31,6.5H53.45a67.41,67.41,0,0,0-12.36-1.85c-.17,2.12-.26,5.31-.26,9.55V43.69q0,8.67,1,12.49v1.4h-11v-1.4a60.43,60.43,0,0,0,.89-12.3V27.26c0-4.37-.09-7.65-.26-9.81A71.88,71.88,0,0,0,19.3,19.3Z"/><path class="cls-2" d="M68.1,32.55V46.18a23.66,23.66,0,0,0,1.84,10v1.4H58.8v-1.4a28,28,0,0,0,1.08-8.6V38.15a13.86,13.86,0,0,0-1.08-5.83,6.69,6.69,0,0,0-2.74-3.21V27.7l11.65-2.16.77,1.27A27.21,27.21,0,0,0,68.1,32.55ZM66.89,11.91a3.63,3.63,0,0,1,.79,2.16,20.36,20.36,0,0,1,.22,2.55,9.36,9.36,0,0,1-.12,1.59l-.58.51a34.7,34.7,0,0,1-7.32,1.15l-.7-.32a7.63,7.63,0,0,1-.8-2.74,21.55,21.55,0,0,1-.29-2.64v-1l.58-.51a21.52,21.52,0,0,1,6.81-1.14h.7Z"/><path class="cls-2" d="M98.35,25.79q6.06,0,8,5.35c1.4-1.14,2.53-2,3.41-2.67a17.28,17.28,0,0,1,3.28-1.82,9.45,9.45,0,0,1,3.75-.86,9.34,9.34,0,0,1,7.39,3q2.61,3,2.61,8.57v8.73a25.38,25.38,0,0,0,1.92,10.13v1.4H117.52v-1.4A24.52,24.52,0,0,0,118.61,48v-8.4a12.72,12.72,0,0,0-.89-5.42c-.6-1.19-1.84-1.78-3.73-1.78a14.35,14.35,0,0,0-6.78,2.23q.12,1.65.12,2.67v8.73a25.56,25.56,0,0,0,1.91,10.13v1.4H98.67v-1.4A24.82,24.82,0,0,0,99.75,48v-8.4a13.37,13.37,0,0,0-.83-5.42c-.55-1.19-1.71-1.78-3.47-1.78s-4.11.89-7,2.67V46.18a23.65,23.65,0,0,0,1.85,10v1.4H79.12v-1.4a28,28,0,0,0,1.08-8.6V38.15q0-7.14-3.82-9V27.7l10.31-2,.64,1.21A15.71,15.71,0,0,1,88.1,31a30.83,30.83,0,0,1,5.25-3.95A10,10,0,0,1,98.35,25.79Z"/><path class="cls-2" d="M149.37,58.79a14.11,14.11,0,0,1-9.93-4.14Q135,50.51,135,43.47a18.22,18.22,0,0,1,4.65-12.36,15.26,15.26,0,0,1,12-5.32q6.24,0,9.3,4t3.06,11.08l-2.42,2.48H144.21c0,3.06.86,5.42,2.46,7.07a7.65,7.65,0,0,0,5.73,2.49q3.34,0,10.1-3.5l1.59,2.42c-.81.76-1.72,1.55-2.74,2.35a27.53,27.53,0,0,1-5.13,2.9A16.08,16.08,0,0,1,149.37,58.79Zm.9-28.92a6.52,6.52,0,0,0-3.76,1,13.12,13.12,0,0,0-1.6,4.2,25.61,25.61,0,0,0-.63,4.65L155.42,39Q155.42,29.88,150.27,29.87Z"/></g></svg>