<svg xmlns="http://www.w3.org/2000/svg" width="182.2" height="170.22" viewBox="0 0 182.2 170.22"><defs><style>.cls-1{fill:#0d0811;}.cls-2{fill:#7e5289;}</style></defs><g id="points_and_time" data-name="points and time"><path class="cls-1" d="M133.35,135.33q0-11.66-16.66-12.74l-13-.89-2.45-2.64q1.67-12.45,5.39-31.28l34.71-.49,2.45,14.32h-1.87a22.62,22.62,0,0,0-9-4.36,46.12,46.12,0,0,0-12.5-1.62h-5.1a121.53,121.53,0,0,0-3.91,18.43q11,.48,15.14,1a44.53,44.53,0,0,1,8.19,1.86,19.47,19.47,0,0,1,6.47,3.38Q147,125,147,134.5a20.82,20.82,0,0,1-7.5,16.13q-7.48,6.66-19.75,6.66t-25.59-6.56a18.55,18.55,0,0,1,2.26-5.35,19.12,19.12,0,0,1,3.62-4.85q12.56,9,22.16,9a18.84,18.84,0,0,0,7.45-1.28,14.33,14.33,0,0,0,2.74-5.83A28,28,0,0,0,133.35,135.33Z"/><path class="cls-2" d="M138.21,135.33q0-11.66-16.66-12.74l-13-.89-2.45-2.64q1.66-12.45,5.39-31.28l34.71-.49,2.45,14.32h-1.87a22.64,22.64,0,0,0-9-4.36,46.25,46.25,0,0,0-12.51-1.62h-5.1a121.53,121.53,0,0,0-3.91,18.43q11,.48,15.14,1a44.53,44.53,0,0,1,8.19,1.86,19.47,19.47,0,0,1,6.47,3.38q5.79,4.71,5.78,14.17a20.82,20.82,0,0,1-7.5,16.13q-7.49,6.66-19.75,6.66T99,150.73a18.55,18.55,0,0,1,2.26-5.35,19.12,19.12,0,0,1,3.62-4.85q12.56,9,22.16,9a18.84,18.84,0,0,0,7.45-1.28,14.33,14.33,0,0,0,2.74-5.83A28,28,0,0,0,138.21,135.33Z"/><path class="cls-1" d="M21,26.8c0-1.91-.1-4.08-.32-6.5q12.42.19,18.6.19t18.6-.19q-.32,3.63-.32,6.5H56.34A67.31,67.31,0,0,0,44,25c-.17,2.12-.26,5.31-.26,9.55V51.19q0,8.67,1,12.49v1.4h-11v-1.4a60.43,60.43,0,0,0,.89-12.3V34.76c0-4.37-.09-7.65-.26-9.81A71.88,71.88,0,0,0,22.2,26.8Z"/><path class="cls-1" d="M71,40.05V53.68a23.65,23.65,0,0,0,1.85,10v1.4H61.69v-1.4a27.65,27.65,0,0,0,1.09-8.6V45.65a13.7,13.7,0,0,0-1.09-5.83A6.62,6.62,0,0,0,59,36.61V35.2L70.61,33l.77,1.27A27,27,0,0,0,71,40.05ZM69.78,19.41a3.56,3.56,0,0,1,.8,2.16,20.36,20.36,0,0,1,.22,2.55,9.36,9.36,0,0,1-.12,1.59l-.58.51a34.7,34.7,0,0,1-7.32,1.15l-.7-.32a7.63,7.63,0,0,1-.8-2.74A21.55,21.55,0,0,1,61,21.67v-1l.58-.51A21.52,21.52,0,0,1,68.38,19h.7Z"/><path class="cls-1" d="M101.25,33.29q6,0,8,5.35,2.1-1.71,3.4-2.67A17.6,17.6,0,0,1,116,34.15a9.49,9.49,0,0,1,3.76-.86,9.31,9.31,0,0,1,7.39,3c1.74,2,2.61,4.83,2.61,8.56v8.73a25.38,25.38,0,0,0,1.92,10.13v1.4H120.42v-1.4a24.52,24.52,0,0,0,1.09-8.16v-8.4a12.72,12.72,0,0,0-.89-5.42c-.6-1.19-1.84-1.78-3.73-1.78a14.42,14.42,0,0,0-6.79,2.23c.09,1.1.13,2,.13,2.67v8.73a25.56,25.56,0,0,0,1.91,10.13v1.4H101.57v-1.4a24.82,24.82,0,0,0,1.08-8.16v-8.4a13.37,13.37,0,0,0-.83-5.42c-.55-1.19-1.71-1.78-3.47-1.78s-4.11.89-7,2.67V53.68a23.65,23.65,0,0,0,1.85,10v1.4H82v-1.4a28,28,0,0,0,1.09-8.6V45.65q0-7.12-3.83-9V35.2l10.32-2,.64,1.21A15.79,15.79,0,0,1,91,38.52a31.25,31.25,0,0,1,5.26-4A10,10,0,0,1,101.25,33.29Z"/><path class="cls-1" d="M152.27,66.29a14.13,14.13,0,0,1-9.94-4.14Q137.94,58,137.94,51a18.22,18.22,0,0,1,4.65-12.36,15.26,15.26,0,0,1,12-5.32q6.24,0,9.3,4T167,48.39l-2.42,2.48H147.11q.06,4.59,2.46,7.07a7.65,7.65,0,0,0,5.73,2.49q3.34,0,10.09-3.5l1.6,2.42c-.81.76-1.72,1.55-2.74,2.35a27.53,27.53,0,0,1-5.13,2.9A16.08,16.08,0,0,1,152.27,66.29Zm.89-28.92a6.51,6.51,0,0,0-3.75,1,13.12,13.12,0,0,0-1.6,4.2,25.61,25.61,0,0,0-.63,4.65l11.14-.64Q158.32,37.38,153.16,37.37Z"/><path class="cls-2" d="M25.49,24.27c0-1.91-.1-4.07-.32-6.49q12.42.18,18.6.19t18.6-.19q-.32,3.63-.32,6.49H60.84a67.2,67.2,0,0,0-12.35-1.84c-.17,2.12-.26,5.31-.26,9.55V48.67q0,8.67,1,12.49v1.4h-11v-1.4a60.43,60.43,0,0,0,.89-12.3V32.24q0-6.57-.26-9.81A71.7,71.7,0,0,0,26.7,24.27Z"/><path class="cls-2" d="M75.49,37.52V51.15a23.7,23.7,0,0,0,1.85,10v1.4H66.19v-1.4a27.69,27.69,0,0,0,1.09-8.6V43.13a13.67,13.67,0,0,0-1.09-5.83,6.69,6.69,0,0,0-2.73-3.22v-1.4l11.65-2.16.77,1.27A27,27,0,0,0,75.49,37.52ZM74.28,16.88a3.63,3.63,0,0,1,.8,2.17,20.22,20.22,0,0,1,.22,2.55,9.53,9.53,0,0,1-.12,1.59l-.58.51a35.37,35.37,0,0,1-7.32,1.15l-.7-.32a7.69,7.69,0,0,1-.8-2.74,21.75,21.75,0,0,1-.29-2.64v-1l.58-.51a21.26,21.26,0,0,1,6.81-1.15h.7Z"/><path class="cls-2" d="M105.75,30.77q6,0,8,5.35c1.4-1.14,2.53-2,3.4-2.67a17,17,0,0,1,3.28-1.82,9.49,9.49,0,0,1,3.76-.86,9.34,9.34,0,0,1,7.39,3c1.74,2,2.61,4.83,2.61,8.57V51a25.59,25.59,0,0,0,1.91,10.13v1.4H124.92v-1.4A24.52,24.52,0,0,0,126,53V44.59a12.49,12.49,0,0,0-.9-5.41c-.59-1.19-1.83-1.78-3.72-1.78a14.42,14.42,0,0,0-6.79,2.23c.09,1.1.13,2,.13,2.67V51a25.59,25.59,0,0,0,1.91,10.13v1.4H106.07v-1.4A24.82,24.82,0,0,0,107.15,53V44.59a13.31,13.31,0,0,0-.83-5.41c-.55-1.19-1.71-1.78-3.47-1.78s-4.11.89-7,2.67V51.15a23.7,23.7,0,0,0,1.85,10v1.4H86.51v-1.4a28,28,0,0,0,1.09-8.6V43.13q0-7.14-3.83-9.05v-1.4l10.32-2,.64,1.21A15.79,15.79,0,0,1,95.49,36a31.66,31.66,0,0,1,5.26-3.94A10,10,0,0,1,105.75,30.77Z"/><path class="cls-2" d="M156.77,63.77a14.13,14.13,0,0,1-9.94-4.14q-4.4-4.14-4.39-11.18a18.22,18.22,0,0,1,4.65-12.36,15.26,15.26,0,0,1,12-5.32q6.24,0,9.3,4t3.06,11.09l-2.42,2.48H151.61q.06,4.59,2.45,7.07a7.69,7.69,0,0,0,5.74,2.49q3.34,0,10.09-3.51l1.6,2.42c-.81.77-1.72,1.55-2.74,2.36a28.12,28.12,0,0,1-5.13,2.9A16.22,16.22,0,0,1,156.77,63.77Zm.89-28.92a6.59,6.59,0,0,0-3.75.95,13,13,0,0,0-1.6,4.21,25.61,25.61,0,0,0-.63,4.65L162.82,44Q162.82,34.85,157.66,34.85Z"/><path class="cls-1" d="M71.24,104.39q0-9-7.85-9-5.85,0-17.52,9.09A19.54,19.54,0,0,1,40.5,93.09q13.13-4.87,23.32-4.88t15.7,4.16A13.48,13.48,0,0,1,85,103.72q0,10.05-10.34,22.88-5.18,6.32-9.44,10.82c-2.83,3-6.4,6.61-10.67,10.82q6,0,8.33-.1,17.24-.57,23.26-5.26l2.59,1.82-4.5,11.68h-42l-2.3-5.46q5.46-5.35,8.86-8.81c2.26-2.3,5-5.3,8.13-9a91,91,0,0,0,7.47-9.81,56.12,56.12,0,0,0,4.79-9.38A25.79,25.79,0,0,0,71.24,104.39Z"/><path class="cls-2" d="M76.61,101.63q0-9-7.84-9-5.85,0-17.53,9.09a19.58,19.58,0,0,1-5.36-11.39Q59,85.46,69.2,85.45t15.7,4.16A13.48,13.48,0,0,1,90.41,101q0,10-10.34,22.88-5.19,6.32-9.44,10.82T60,145.48q6,0,8.33-.1,17.24-.57,23.26-5.26l2.59,1.82-4.5,11.68h-42l-2.3-5.46q5.46-5.35,8.86-8.81c2.26-2.3,5-5.3,8.13-9a92.31,92.31,0,0,0,7.47-9.81,56.12,56.12,0,0,0,4.79-9.38A25.76,25.76,0,0,0,76.61,101.63Z"/></g></svg>