<svg xmlns="http://www.w3.org/2000/svg" width="182.2" height="170.22" viewBox="0 0 182.2 170.22"><defs><style>.cls-1{fill:#0d0811;}.cls-2{fill:#7e5289;}</style></defs><g id="points_and_time" data-name="points and time"><path class="cls-1" d="M142.09,103.16q0,10.17-11.42,17.14,7.94,4.56,11.27,8.18a13.39,13.39,0,0,1,3.35,9.44,16,16,0,0,1-7.26,14q-7.28,5-18.4,5T101.14,152a15.71,15.71,0,0,1-7.36-13.89q0-12.3,14.52-17.62a26.31,26.31,0,0,1-7.93-7.07,15.35,15.35,0,0,1-2.53-8.91q0-8.52,6.06-13.07t16-4.55q9.93,0,16.07,3.92T142.09,103.16Zm-10.74,36.51a9.71,9.71,0,0,0-3.3-7.27q-3.29-3.09-12.39-7.74-7.95,3.59-7.94,12.3,0,12.09,12.49,12.1A21,21,0,0,0,128,147.9C130.21,146.35,131.35,143.6,131.35,139.67Zm-20.82-36.8a9.39,9.39,0,0,0,2.66,6.63c1.78,1.91,5.24,4.15,10.41,6.73q5.81-4.24,5.81-12.49,0-10.55-9.87-10.55a14.57,14.57,0,0,0-6.11,1.16Q110.54,96.87,110.53,102.87Z"/><path class="cls-2" d="M148.38,102.47q0,10.16-11.42,17.13,7.93,4.56,11.27,8.18a13.41,13.41,0,0,1,3.35,9.44,16,16,0,0,1-7.26,14q-7.27,5-18.4,5t-18.49-4.89a15.71,15.71,0,0,1-7.36-13.89q0-12.3,14.52-17.62a26.35,26.35,0,0,1-7.94-7.07,15.42,15.42,0,0,1-2.52-8.91q0-8.52,6.05-13.07t16-4.55q9.92,0,16.07,3.92T148.38,102.47ZM137.64,139a9.68,9.68,0,0,0-3.3-7.26Q131,128.6,122,124q-8,3.58-7.94,12.3,0,12.11,12.49,12.1a21,21,0,0,0,7.75-1.16C136.5,145.65,137.64,142.9,137.64,139Zm-20.82-36.8a9.43,9.43,0,0,0,2.66,6.64c1.78,1.9,5.24,4.14,10.41,6.72q5.81-4.25,5.81-12.48,0-10.56-9.87-10.56a14.57,14.57,0,0,0-6.11,1.16Q116.83,96.17,116.82,102.17Z"/><path class="cls-1" d="M19.61,26.05q0-2.86-.32-6.49,12.42.18,18.6.19t18.6-.19c-.22,2.42-.32,4.58-.32,6.49H55A67.29,67.29,0,0,0,42.6,24.21q-.26,3.18-.26,9.55V50.45c0,5.77.34,9.94,1,12.48v1.4h-11v-1.4a60.25,60.25,0,0,0,.89-12.29V34q0-6.57-.26-9.81a71.47,71.47,0,0,0-12.22,1.84Z"/><path class="cls-1" d="M69.61,39.3V52.93a23.63,23.63,0,0,0,1.84,10v1.4H60.31v-1.4a27.94,27.94,0,0,0,1.08-8.6V44.91a13.83,13.83,0,0,0-1.08-5.83,6.76,6.76,0,0,0-2.74-3.22v-1.4l11.66-2.17L70,33.57A27.16,27.16,0,0,0,69.61,39.3ZM68.4,18.66a3.67,3.67,0,0,1,.79,2.17,20.47,20.47,0,0,1,.23,2.55A9.47,9.47,0,0,1,69.29,25l-.57.51a35.45,35.45,0,0,1-7.33,1.14l-.7-.31a7.69,7.69,0,0,1-.8-2.74,21.22,21.22,0,0,1-.28-2.65v-1l.57-.51A21.27,21.27,0,0,1,67,18.28h.7Z"/><path class="cls-1" d="M99.86,32.55q6.06,0,8,5.35,2.1-1.73,3.41-2.67a16.74,16.74,0,0,1,3.28-1.82,9.45,9.45,0,0,1,3.76-.86,9.33,9.33,0,0,1,7.38,3c1.75,2,2.62,4.83,2.62,8.57v8.73a25.33,25.33,0,0,0,1.91,10.12v1.4H119v-1.4a24.72,24.72,0,0,0,1.08-8.15V46.37a12.67,12.67,0,0,0-.89-5.41c-.6-1.19-1.84-1.79-3.73-1.79a14.47,14.47,0,0,0-6.78,2.23c.08,1.11.12,2,.12,2.68v8.73a25.51,25.51,0,0,0,1.91,10.12v1.4H100.18v-1.4a24.72,24.72,0,0,0,1.08-8.15V46.37a13.52,13.52,0,0,0-.82-5.41c-.56-1.19-1.71-1.79-3.47-1.79s-4.11.9-7,2.68V52.93a23.63,23.63,0,0,0,1.84,10v1.4H80.63v-1.4a27.94,27.94,0,0,0,1.08-8.6V44.91q0-7.14-3.82-9v-1.4l10.32-2,.63,1.21a15.61,15.61,0,0,1,.77,4.07,31.79,31.79,0,0,1,5.25-4A10,10,0,0,1,99.86,32.55Z"/><path class="cls-1" d="M150.88,65.54A14.07,14.07,0,0,1,141,61.4q-4.39-4.12-4.4-11.17a18.18,18.18,0,0,1,4.65-12.36,15.25,15.25,0,0,1,12-5.32q6.24,0,9.3,4t3.06,11.09l-2.42,2.48H145.73c0,3.06.85,5.41,2.45,7.07a7.64,7.64,0,0,0,5.73,2.48q3.34,0,10.1-3.5l1.59,2.42c-.81.77-1.72,1.55-2.74,2.36a28.12,28.12,0,0,1-5.13,2.9A16.2,16.2,0,0,1,150.88,65.54Zm.9-28.91a6.62,6.62,0,0,0-3.76.95,12.87,12.87,0,0,0-1.59,4.21,24.84,24.84,0,0,0-.64,4.65l11.15-.64Q156.94,36.62,151.78,36.63Z"/><path class="cls-2" d="M24.11,23.53q0-2.87-.32-6.5,12.42.2,18.6.19T61,17c-.22,2.42-.32,4.59-.32,6.5H59.46A68.28,68.28,0,0,0,47.1,21.68c-.17,2.13-.26,5.31-.26,9.56V47.93q0,8.66,1,12.48v1.4h-11v-1.4a60.32,60.32,0,0,0,.89-12.29V31.49q0-6.55-.26-9.81a72.9,72.9,0,0,0-12.23,1.85Z"/><path class="cls-2" d="M74.11,36.78V50.41a23.63,23.63,0,0,0,1.84,10v1.4H64.81v-1.4a27.94,27.94,0,0,0,1.08-8.6V42.38a13.81,13.81,0,0,0-1.08-5.82,6.71,6.71,0,0,0-2.74-3.22v-1.4l11.65-2.17.77,1.28A27,27,0,0,0,74.11,36.78ZM72.9,16.14a3.64,3.64,0,0,1,.79,2.17,20.5,20.5,0,0,1,.23,2.54,9.5,9.5,0,0,1-.13,1.6l-.57.51a35.56,35.56,0,0,1-7.33,1.14l-.7-.32a7.63,7.63,0,0,1-.8-2.73,21.22,21.22,0,0,1-.28-2.65v-1l.57-.51a21.54,21.54,0,0,1,6.82-1.14h.7Z"/><path class="cls-2" d="M104.36,30q6.06,0,8,5.35,2.1-1.73,3.41-2.68a16.75,16.75,0,0,1,3.28-1.81A9.95,9.95,0,0,1,130.22,33q2.63,3,2.62,8.57v8.72a25.38,25.38,0,0,0,1.91,10.13v1.4H123.54v-1.4a24.72,24.72,0,0,0,1.08-8.15V43.85a12.64,12.64,0,0,0-.89-5.41c-.6-1.19-1.84-1.79-3.73-1.79a14.35,14.35,0,0,0-6.78,2.23c.08,1.11.12,2,.12,2.68v8.72a25.56,25.56,0,0,0,1.91,10.13v1.4H104.68v-1.4a24.72,24.72,0,0,0,1.08-8.15V43.85a13.49,13.49,0,0,0-.82-5.41c-.56-1.19-1.71-1.79-3.48-1.79s-4.1.89-7,2.68V50.41a23.63,23.63,0,0,0,1.84,10v1.4H85.13v-1.4a27.94,27.94,0,0,0,1.08-8.6V42.38q0-7.12-3.82-9v-1.4l10.32-2,.63,1.21a15.71,15.71,0,0,1,.77,4.08,31.37,31.37,0,0,1,5.25-3.95A10,10,0,0,1,104.36,30Z"/><path class="cls-2" d="M155.38,63a14.11,14.11,0,0,1-9.93-4.14q-4.39-4.14-4.4-11.18a18.18,18.18,0,0,1,4.65-12.35,15.25,15.25,0,0,1,12-5.32q6.24,0,9.3,4t3.06,11.08l-2.42,2.49H150.22c.05,3.06.86,5.41,2.46,7.07a7.68,7.68,0,0,0,5.73,2.48q3.34,0,10.1-3.5l1.59,2.42c-.81.76-1.72,1.55-2.74,2.36a28.21,28.21,0,0,1-5.13,2.89A16.08,16.08,0,0,1,155.38,63Zm.9-28.92a6.52,6.52,0,0,0-3.76,1,12.89,12.89,0,0,0-1.59,4.2,24.84,24.84,0,0,0-.64,4.65l11.15-.63Q161.44,34.1,156.28,34.1Z"/><path class="cls-1" d="M69.85,103.64q0-9-7.85-9-5.84,0-17.52,9.1a19.46,19.46,0,0,1-5.36-11.4q13.11-4.87,23.31-4.88t15.7,4.17A13.46,13.46,0,0,1,83.64,103q0,10.07-10.34,22.89-5.17,6.31-9.44,10.82T53.19,147.5c4,0,6.8,0,8.33-.1q17.24-.57,23.27-5.27L87.37,144l-4.49,11.68h-42l-2.3-5.45q5.46-5.37,8.86-8.81t8.13-9A92.56,92.56,0,0,0,63,122.55a56.47,56.47,0,0,0,4.78-9.38A25.71,25.71,0,0,0,69.85,103.64Z"/><path class="cls-2" d="M75.23,100.88q0-9-7.85-9-5.83,0-17.52,9.1a19.46,19.46,0,0,1-5.36-11.4q13.11-4.87,23.31-4.88t15.7,4.17A13.46,13.46,0,0,1,89,100.21q0,10.07-10.34,22.89-5.18,6.32-9.44,10.82T58.57,144.74q6,0,8.33-.1,17.23-.57,23.26-5.26l2.59,1.81-4.49,11.68h-42l-2.3-5.45q5.46-5.37,8.86-8.81t8.13-9a92.56,92.56,0,0,0,7.48-9.82,56.47,56.47,0,0,0,4.78-9.38A25.71,25.71,0,0,0,75.23,100.88Z"/></g></svg>