<svg xmlns="http://www.w3.org/2000/svg" width="182.2" height="170.22" viewBox="0 0 182.2 170.22"><defs><style>.cls-1{fill:#0d0811;}.cls-2{fill:#7e5289;}</style></defs><g id="points_and_time" data-name="points and time"><path class="cls-1" d="M113,84.85l25.44-.1.3,1.18q-2,3.38-14.25,34.36-8.13,20.49-10.4,34.16H96.15l-.4-2.18q10-16.64,17.83-33t11.68-25.89q-7.14-.3-10.2-.3-14.06,0-20.3,5.75H93.08L90.21,84.45Q104.07,84.84,113,84.85Z"/><path class="cls-2" d="M118.07,82.09l25.44-.1.3,1.18q-2,3.38-14.25,34.36-8.11,20.49-10.4,34.16H101.24l-.4-2.18q10-16.63,17.83-33T130.35,90.6c-4.75-.2-8.15-.29-10.2-.29q-14.06,0-20.3,5.74H98.17L95.3,81.69Q109.16,82.08,118.07,82.09Z"/><path class="cls-1" d="M75.33,129.83q0,13.8,1.6,19.8v2.2H60.33v-2.2q1.61-6,1.61-19.8v-28.6a67.9,67.9,0,0,0-.31-8.5,83.34,83.34,0,0,1-13.1,1.5l-1.1-5.7q11.1-1.91,18.3-6.7H75.84l-.51,11.8Z"/><path class="cls-2" d="M79.83,129.83q0,13.8,1.6,19.8v2.2H64.83v-2.2q1.61-6,1.61-19.8v-28.6a67.9,67.9,0,0,0-.31-8.5A83.34,83.34,0,0,1,53,94.23l-1.1-5.7q11.1-1.91,18.3-6.7H80.34l-.51,11.8Z"/><path class="cls-1" d="M15.73,24.09c0-1.91-.1-4.07-.32-6.49q12.42.18,18.6.19t18.6-.19q-.31,3.63-.31,6.49H51.09a67.29,67.29,0,0,0-12.36-1.84c-.17,2.12-.26,5.31-.26,9.55V48.49q0,8.67,1,12.48v1.41h-11V61a60.25,60.25,0,0,0,.89-12.29V32.06q0-6.57-.26-9.81a71.7,71.7,0,0,0-12.23,1.84Z"/><path class="cls-1" d="M65.73,37.34V51a23.62,23.62,0,0,0,1.85,10v1.41H56.44V61a27.92,27.92,0,0,0,1.08-8.59V43a13.83,13.83,0,0,0-1.08-5.83A6.76,6.76,0,0,0,53.7,33.9V32.5l11.65-2.16.77,1.27A27,27,0,0,0,65.73,37.34ZM64.52,16.7a3.63,3.63,0,0,1,.8,2.17,20.22,20.22,0,0,1,.22,2.55A9.53,9.53,0,0,1,65.42,23l-.58.51a35.37,35.37,0,0,1-7.32,1.15l-.7-.32a7.69,7.69,0,0,1-.8-2.74A21.75,21.75,0,0,1,55.73,19V18l.58-.51a21.26,21.26,0,0,1,6.81-1.15h.7Z"/><path class="cls-1" d="M96,30.59q6.06,0,8,5.35c1.4-1.14,2.53-2,3.4-2.67a16.85,16.85,0,0,1,3.29-1.82,9.95,9.95,0,0,1,11.14,2.1c1.74,2,2.61,4.83,2.61,8.57v8.73A25.33,25.33,0,0,0,126.38,61v1.41H115.16V61a24.42,24.42,0,0,0,1.09-8.15V44.41a12.67,12.67,0,0,0-.89-5.41c-.6-1.19-1.84-1.78-3.73-1.78a14.35,14.35,0,0,0-6.78,2.23q.12,1.65.12,2.67v8.73A25.51,25.51,0,0,0,106.88,61v1.41H96.31V61a24.72,24.72,0,0,0,1.08-8.15V44.41A13.31,13.31,0,0,0,96.56,39c-.55-1.19-1.71-1.78-3.47-1.78s-4.11.89-7,2.67V51A23.62,23.62,0,0,0,87.9,61v1.41H76.75V61a27.58,27.58,0,0,0,1.09-8.59V43q0-7.14-3.83-9.05V32.5l10.32-2L85,31.74a16.14,16.14,0,0,1,.77,4.07A31.24,31.24,0,0,1,91,31.87,10,10,0,0,1,96,30.59Z"/><path class="cls-1" d="M147,63.59a14.11,14.11,0,0,1-9.93-4.14q-4.4-4.14-4.4-11.18a18.22,18.22,0,0,1,4.65-12.36,15.23,15.23,0,0,1,12-5.32q6.24,0,9.3,4t3.06,11.09l-2.42,2.48H141.85c.05,3.06.86,5.42,2.46,7.07A7.65,7.65,0,0,0,150,57.73q3.35,0,10.09-3.51l1.6,2.42c-.81.77-1.72,1.55-2.74,2.36a28.12,28.12,0,0,1-5.13,2.9A16.22,16.22,0,0,1,147,63.59Zm.9-28.92a6.6,6.6,0,0,0-3.76.95,13.18,13.18,0,0,0-1.6,4.21,25.61,25.61,0,0,0-.63,4.65l11.14-.64Q153.06,34.67,147.91,34.67Z"/><path class="cls-2" d="M20.23,21.57c0-1.91-.1-4.08-.32-6.5q12.42.19,18.6.2t18.6-.2q-.31,3.63-.32,6.5h-1.2a68.28,68.28,0,0,0-12.36-1.85C43.06,21.85,43,25,43,29.28V46q0,8.66,1,12.48v1.4H33v-1.4a60.32,60.32,0,0,0,.89-12.29V29.53q0-6.55-.26-9.81a72.9,72.9,0,0,0-12.23,1.85Z"/><path class="cls-2" d="M70.23,34.82V48.45a23.62,23.62,0,0,0,1.85,10v1.4H60.93v-1.4A27.6,27.6,0,0,0,62,49.85V40.43a13.67,13.67,0,0,0-1.09-5.83,6.69,6.69,0,0,0-2.73-3.22V30l11.65-2.17.77,1.28A27,27,0,0,0,70.23,34.82ZM69,14.18a3.57,3.57,0,0,1,.8,2.17A20.07,20.07,0,0,1,70,18.9a9.53,9.53,0,0,1-.12,1.59l-.58.51A35.45,35.45,0,0,1,62,22.14l-.7-.31a7.76,7.76,0,0,1-.8-2.74,21.85,21.85,0,0,1-.29-2.65v-1l.58-.51a21.26,21.26,0,0,1,6.81-1.15h.7Z"/><path class="cls-2" d="M100.49,28.07q6,0,8,5.35,2.1-1.72,3.4-2.68a17.4,17.4,0,0,1,3.29-1.81A9.95,9.95,0,0,1,126.35,31Q129,34,129,39.6v8.72a25.38,25.38,0,0,0,1.92,10.13v1.4H119.66v-1.4a24.42,24.42,0,0,0,1.09-8.15V41.89a12.67,12.67,0,0,0-.89-5.41c-.6-1.19-1.84-1.79-3.73-1.79a14.53,14.53,0,0,0-6.79,2.23c.09,1.11.13,2,.13,2.68v8.72a25.56,25.56,0,0,0,1.91,10.13v1.4H100.81v-1.4a24.72,24.72,0,0,0,1.08-8.15V41.89a13.31,13.31,0,0,0-.83-5.41c-.55-1.19-1.71-1.79-3.47-1.79s-4.11.89-7,2.68V48.45a23.62,23.62,0,0,0,1.85,10v1.4H81.25v-1.4a27.91,27.91,0,0,0,1.09-8.6V40.43q0-7.14-3.83-9V30l10.32-2,.64,1.21a16,16,0,0,1,.77,4.07,31.37,31.37,0,0,1,5.25-3.95A10,10,0,0,1,100.49,28.07Z"/><path class="cls-2" d="M151.51,61.06a14.11,14.11,0,0,1-9.93-4.14q-4.41-4.14-4.4-11.18a18.18,18.18,0,0,1,4.65-12.35,15.23,15.23,0,0,1,12-5.32q6.24,0,9.3,4t3.06,11.09l-2.42,2.48H146.35c0,3.06.86,5.41,2.46,7.07a7.64,7.64,0,0,0,5.73,2.48q3.35,0,10.09-3.5l1.6,2.42c-.81.77-1.72,1.55-2.74,2.36a28.73,28.73,0,0,1-5.13,2.9A16.2,16.2,0,0,1,151.51,61.06Zm.89-28.91a6.51,6.51,0,0,0-3.75,1,13.12,13.12,0,0,0-1.6,4.2,25.84,25.84,0,0,0-.63,4.65l11.14-.63Q157.56,32.14,152.4,32.15Z"/></g></svg>