<svg xmlns="http://www.w3.org/2000/svg" width="182.2" height="170.22" viewBox="0 0 182.2 170.22"><defs><style>.cls-1{fill:none;}.cls-2{fill:#0d0811;}.cls-3{fill:#7e5289;}</style></defs><g id="sofa_and_floor" data-name="sofa and floor"><rect class="cls-1" x="-1679.51" y="-1.29" width="1920" height="1080"/></g><g id="points_and_time" data-name="points and time"><path class="cls-2" d="M104.08,109a15.49,15.49,0,0,1,5.13,6.43,23.52,23.52,0,0,1,1.94,9.91q0,10.74-6.58,17.55t-18.66,6.82q-12.09,0-19-6.87T60,121.6q0-20.2,15.08-31.71a52.1,52.1,0,0,1,12.33-6.62,56,56,0,0,1,13.29-3.53L102,85.25q-13,4-19.44,10.73a31.93,31.93,0,0,0-7,13A26.09,26.09,0,0,1,90,104.78,23.92,23.92,0,0,1,104.08,109ZM73.92,124.21q0,9.57,2.76,14.07t9.71,4.49c3.42,0,5.83-.44,7.25-1.35a14.76,14.76,0,0,0,2.57-5.7,39,39,0,0,0,1-9.62,14.52,14.52,0,0,0-2.8-9.28c-1.87-2.36-4.59-3.53-8.18-3.53s-7.61,1.51-12.13,4.54C74,120.41,73.92,122.54,73.92,124.21Z"/><path class="cls-3" d="M110,107.63a15.35,15.35,0,0,1,5.13,6.43,23.52,23.52,0,0,1,1.94,9.91q0,10.72-6.58,17.55t-18.66,6.81q-12.09,0-19-6.86T66,120.2Q66,100,81,88.48a52.83,52.83,0,0,1,12.33-6.62,57,57,0,0,1,13.29-3.53l1.26,5.52q-13,4-19.44,10.73a32,32,0,0,0-7,13A26.17,26.17,0,0,1,96,103.37,23.92,23.92,0,0,1,110,107.63ZM79.88,122.81q0,9.57,2.76,14.07t9.72,4.49c3.41,0,5.83-.45,7.24-1.35a14.88,14.88,0,0,0,2.57-5.71,38.85,38.85,0,0,0,1-9.62,14.5,14.5,0,0,0-2.8-9.28q-2.8-3.52-8.17-3.53t-12.14,4.55C80,119,79.88,121.13,79.88,122.81Z"/><path class="cls-2" d="M16,24.78c0-1.91-.1-4.08-.32-6.5q12.42.2,18.6.19t18.6-.19q-.31,3.63-.32,6.5H51.36A67.31,67.31,0,0,0,39,22.93c-.17,2.12-.26,5.31-.26,9.55V49.17q0,8.67,1,12.49v1.4h-11v-1.4a59.54,59.54,0,0,0,.9-12.3V32.74c0-4.37-.09-7.65-.26-9.81a71.88,71.88,0,0,0-12.23,1.85Z"/><path class="cls-2" d="M66,38V51.66a23.65,23.65,0,0,0,1.85,10v1.4H56.71v-1.4a28,28,0,0,0,1.09-8.6V43.63a13.85,13.85,0,0,0-1.09-5.83A6.58,6.58,0,0,0,54,34.59V33.18L65.63,31l.76,1.27A27.93,27.93,0,0,0,66,38ZM64.8,17.39a3.63,3.63,0,0,1,.8,2.16,20.36,20.36,0,0,1,.22,2.55,8.38,8.38,0,0,1-.13,1.59l-.57.51a34.7,34.7,0,0,1-7.32,1.15L57.1,25a7.63,7.63,0,0,1-.8-2.74A21.55,21.55,0,0,1,56,19.65v-1l.58-.51A21.52,21.52,0,0,1,63.4,17h.7Z"/><path class="cls-2" d="M96.27,31.27q6,0,8,5.36,2.1-1.73,3.4-2.68A17.6,17.6,0,0,1,111,32.13a9.49,9.49,0,0,1,3.76-.86,9.31,9.31,0,0,1,7.39,3c1.74,2,2.61,4.83,2.61,8.56v8.73a25.56,25.56,0,0,0,1.91,10.13v1.4H115.44v-1.4a24.8,24.8,0,0,0,1.08-8.15V45.1a12.57,12.57,0,0,0-.89-5.42c-.59-1.19-1.83-1.78-3.72-1.78a14.42,14.42,0,0,0-6.79,2.23c.09,1.1.13,2,.13,2.67v8.73a25.56,25.56,0,0,0,1.91,10.13v1.4H96.59v-1.4a24.8,24.8,0,0,0,1.08-8.15V45.1a13.55,13.55,0,0,0-.83-5.42c-.55-1.19-1.71-1.78-3.47-1.78s-4.11.89-7,2.67V51.66a23.65,23.65,0,0,0,1.85,10v1.4H77v-1.4a28,28,0,0,0,1.09-8.6V43.63q0-7.12-3.83-9V33.18l10.32-2,.64,1.21A15.79,15.79,0,0,1,86,36.5a31.25,31.25,0,0,1,5.26-4A10,10,0,0,1,96.27,31.27Z"/><path class="cls-2" d="M147.29,64.27a14.13,14.13,0,0,1-9.94-4.14Q133,56,133,49a18.22,18.22,0,0,1,4.65-12.36,15.26,15.26,0,0,1,12-5.32q6.24,0,9.3,4T162,46.37l-2.42,2.48H142.13q.06,4.59,2.45,7.07a7.69,7.69,0,0,0,5.74,2.49q3.35,0,10.09-3.5L162,57.33c-.8.76-1.71,1.55-2.73,2.35a27.53,27.53,0,0,1-5.13,2.9A16.08,16.08,0,0,1,147.29,64.27Zm.89-28.92a6.57,6.57,0,0,0-3.76,1,13.12,13.12,0,0,0-1.59,4.2,25.61,25.61,0,0,0-.63,4.65l11.14-.64Q153.34,35.35,148.18,35.35Z"/><path class="cls-3" d="M20.51,22.25q0-2.87-.32-6.49,12.42.18,18.6.19t18.6-.19q-.31,3.63-.32,6.49H55.86a67.2,67.2,0,0,0-12.35-1.84c-.17,2.12-.26,5.31-.26,9.55V46.65q0,8.67,1,12.49v1.4h-11v-1.4a59.54,59.54,0,0,0,.9-12.3V30.22q0-6.57-.26-9.81a71.7,71.7,0,0,0-12.23,1.84Z"/><path class="cls-3" d="M70.51,35.5V49.13a23.7,23.7,0,0,0,1.85,10v1.4H61.21v-1.4a28,28,0,0,0,1.09-8.6V41.11a13.82,13.82,0,0,0-1.09-5.83,6.66,6.66,0,0,0-2.74-3.22v-1.4L70.13,28.5l.76,1.27A27.88,27.88,0,0,0,70.51,35.5ZM69.3,14.86A3.69,3.69,0,0,1,70.1,17a20.22,20.22,0,0,1,.22,2.55,8.52,8.52,0,0,1-.13,1.59l-.57.51a35.37,35.37,0,0,1-7.32,1.15l-.71-.32a7.73,7.73,0,0,1-.79-2.74,21.55,21.55,0,0,1-.29-2.64v-1l.58-.51a21.26,21.26,0,0,1,6.81-1.15h.7Z"/><path class="cls-3" d="M100.77,28.75q6,0,8,5.35c1.41-1.14,2.54-2,3.41-2.67a17,17,0,0,1,3.28-1.82,9.49,9.49,0,0,1,3.76-.86,9.34,9.34,0,0,1,7.39,3c1.74,2,2.61,4.83,2.61,8.57V49a25.59,25.59,0,0,0,1.91,10.13v1.4H119.94v-1.4A24.82,24.82,0,0,0,121,51V42.57a12.52,12.52,0,0,0-.89-5.41c-.59-1.19-1.83-1.78-3.72-1.78a14.38,14.38,0,0,0-6.79,2.23c.09,1.1.13,2,.13,2.67V49a25.59,25.59,0,0,0,1.91,10.13v1.4H101.09v-1.4A24.82,24.82,0,0,0,102.17,51V42.57a13.49,13.49,0,0,0-.83-5.41c-.55-1.19-1.71-1.78-3.47-1.78s-4.11.89-7,2.67V49.13a23.7,23.7,0,0,0,1.85,10v1.4H81.53v-1.4a28,28,0,0,0,1.08-8.6V41.11q0-7.14-3.82-9v-1.4l10.32-2,.64,1.21A15.79,15.79,0,0,1,90.51,34,31.25,31.25,0,0,1,95.77,30,10,10,0,0,1,100.77,28.75Z"/><path class="cls-3" d="M151.79,61.75a14.13,14.13,0,0,1-9.94-4.14q-4.4-4.14-4.39-11.18a18.22,18.22,0,0,1,4.65-12.36,15.26,15.26,0,0,1,12-5.32q6.24,0,9.3,4t3.05,11.09l-2.42,2.48H146.63q.06,4.59,2.45,7.07a7.69,7.69,0,0,0,5.74,2.49q3.35,0,10.09-3.51l1.59,2.42c-.8.77-1.71,1.55-2.73,2.36a28.12,28.12,0,0,1-5.13,2.9A16.22,16.22,0,0,1,151.79,61.75Zm.89-28.92a6.65,6.65,0,0,0-3.76,1A13,13,0,0,0,147.33,38a25.61,25.61,0,0,0-.63,4.65L157.84,42Q157.84,32.84,152.68,32.83Z"/></g></svg>