<svg xmlns="http://www.w3.org/2000/svg" width="182.2" height="170.22" viewBox="0 0 182.2 170.22"><defs><style>.cls-1{fill:#0d0811;}.cls-2{fill:#7e5289;}</style></defs><g id="points_and_time" data-name="points and time"><path class="cls-1" d="M120.13,129.35q0,13.8,1.61,19.8v2.2h-16.6v-2.2q1.59-6,1.6-19.8V100.76a70.82,70.82,0,0,0-.3-8.5,84.74,84.74,0,0,1-13.1,1.49l-1.1-5.7q11.08-1.89,18.29-6.7h10.11l-.51,11.81Z"/><path class="cls-2" d="M124.63,129.35q0,13.8,1.61,19.8v2.2H109.63v-2.2q1.61-6,1.61-19.8V100.76a70.82,70.82,0,0,0-.3-8.5,84.74,84.74,0,0,1-13.11,1.49l-1.09-5.7q11.08-1.89,18.29-6.7h10.11l-.51,11.81Z"/><path class="cls-1" d="M20.58,20.86q0-2.87-.31-6.5,12.42.2,18.59.19t18.6-.19q-.32,3.63-.31,6.5H55.94A67.41,67.41,0,0,0,43.58,19q-.26,3.18-.26,9.56V45.26q0,8.66,1,12.48v1.4h-11v-1.4a60.39,60.39,0,0,0,.89-12.29V28.82q0-6.55-.26-9.81a71.88,71.88,0,0,0-12.23,1.85Z"/><path class="cls-1" d="M70.59,34.11V47.74a23.66,23.66,0,0,0,1.84,10v1.4H61.29v-1.4a28,28,0,0,0,1.08-8.6V39.71a13.78,13.78,0,0,0-1.08-5.82,6.71,6.71,0,0,0-2.74-3.22v-1.4L70.2,27.1,71,28.38A27,27,0,0,0,70.59,34.11ZM69.38,13.47a3.64,3.64,0,0,1,.79,2.17,20.5,20.5,0,0,1,.23,2.54,9.5,9.5,0,0,1-.13,1.6l-.58.51a35.45,35.45,0,0,1-7.32,1.14l-.7-.32a7.63,7.63,0,0,1-.8-2.74,20.93,20.93,0,0,1-.28-2.64v-1l.57-.51A21.52,21.52,0,0,1,68,13.09h.7Z"/><path class="cls-1" d="M100.84,27.36q6.06,0,8,5.35c1.4-1.15,2.53-2,3.41-2.68a16.75,16.75,0,0,1,3.28-1.81,9.95,9.95,0,0,1,11.14,2.1c1.74,2,2.61,4.83,2.61,8.56v8.73a25.38,25.38,0,0,0,1.92,10.13v1.4H120v-1.4a24.46,24.46,0,0,0,1.09-8.15V41.18a12.72,12.72,0,0,0-.89-5.42c-.6-1.18-1.84-1.78-3.73-1.78a14.35,14.35,0,0,0-6.78,2.23c.08,1.1.12,2,.12,2.67v8.73a25.56,25.56,0,0,0,1.91,10.13v1.4H101.16v-1.4a24.76,24.76,0,0,0,1.08-8.15V41.18a13.37,13.37,0,0,0-.83-5.42C100.86,34.58,99.7,34,97.94,34s-4.1.89-7,2.68V47.74a23.65,23.65,0,0,0,1.85,10v1.4H81.61v-1.4a28,28,0,0,0,1.08-8.6V39.71q0-7.12-3.82-9v-1.4l10.31-2,.64,1.21a15.71,15.71,0,0,1,.77,4.08,30.83,30.83,0,0,1,5.25-3.95A10,10,0,0,1,100.84,27.36Z"/><path class="cls-1" d="M151.86,60.35a14.11,14.11,0,0,1-9.93-4.14q-4.4-4.14-4.4-11.18a18.22,18.22,0,0,1,4.65-12.36,15.25,15.25,0,0,1,12-5.31q6.24,0,9.3,4t3.06,11.08l-2.42,2.49H146.7c.05,3.05.86,5.41,2.46,7.07a7.68,7.68,0,0,0,5.73,2.48q3.35,0,10.1-3.5l1.59,2.42c-.81.76-1.72,1.55-2.74,2.35a27.53,27.53,0,0,1-5.13,2.9A16.08,16.08,0,0,1,151.86,60.35Zm.9-28.92a6.52,6.52,0,0,0-3.76,1,13.12,13.12,0,0,0-1.6,4.2,25.61,25.61,0,0,0-.63,4.65l11.15-.63C157.92,34.49,156.19,31.43,152.76,31.43Z"/><path class="cls-2" d="M25.08,18.34c0-1.91-.1-4.08-.32-6.5q12.42.2,18.6.19T62,11.84q-.32,3.63-.31,6.5H60.44a67.41,67.41,0,0,0-12.36-1.85c-.17,2.12-.26,5.31-.26,9.55V42.73q0,8.67,1,12.49v1.4h-11v-1.4a60.43,60.43,0,0,0,.89-12.3V26.3c0-4.37-.09-7.65-.26-9.81a71.88,71.88,0,0,0-12.23,1.85Z"/><path class="cls-2" d="M75.09,31.59V45.22a23.69,23.69,0,0,0,1.84,10v1.4H65.79v-1.4a28,28,0,0,0,1.08-8.6V37.19a13.86,13.86,0,0,0-1.08-5.83,6.69,6.69,0,0,0-2.74-3.21V26.74L74.7,24.58l.77,1.27A27.21,27.21,0,0,0,75.09,31.59ZM73.88,11a3.63,3.63,0,0,1,.79,2.16,20.36,20.36,0,0,1,.22,2.55,9.36,9.36,0,0,1-.12,1.59l-.58.51a34.7,34.7,0,0,1-7.32,1.15l-.7-.32a7.63,7.63,0,0,1-.8-2.74,21.55,21.55,0,0,1-.29-2.64v-1l.58-.51a21.54,21.54,0,0,1,6.81-1.15h.7Z"/><path class="cls-2" d="M105.34,24.83q6.06,0,8,5.35c1.4-1.14,2.53-2,3.41-2.67a17.28,17.28,0,0,1,3.28-1.82,9.95,9.95,0,0,1,11.14,2.1q2.61,3,2.61,8.57v8.73a25.42,25.42,0,0,0,1.92,10.13v1.4H124.51v-1.4a24.52,24.52,0,0,0,1.09-8.16v-8.4a12.69,12.69,0,0,0-.89-5.42c-.6-1.19-1.84-1.78-3.73-1.78a14.35,14.35,0,0,0-6.78,2.23q.12,1.65.12,2.67v8.73a25.59,25.59,0,0,0,1.91,10.13v1.4H105.66v-1.4a24.82,24.82,0,0,0,1.08-8.16v-8.4a13.34,13.34,0,0,0-.83-5.42c-.55-1.19-1.71-1.78-3.47-1.78s-4.11.89-7,2.67V45.22a23.69,23.69,0,0,0,1.85,10v1.4H86.11v-1.4a28,28,0,0,0,1.08-8.6V37.19q0-7.14-3.82-9V26.74l10.31-2L94.32,26a15.71,15.71,0,0,1,.77,4.08,30.83,30.83,0,0,1,5.25-3.95A10,10,0,0,1,105.34,24.83Z"/><path class="cls-2" d="M156.36,57.83a14.11,14.11,0,0,1-9.93-4.14Q142,49.55,142,42.51a18.22,18.22,0,0,1,4.65-12.36,15.26,15.26,0,0,1,12-5.32q6.24,0,9.3,4t3.06,11.08l-2.42,2.48H151.2c.05,3.06.86,5.42,2.46,7.07A7.65,7.65,0,0,0,159.39,52q3.35,0,10.1-3.5l1.59,2.42c-.81.76-1.72,1.55-2.74,2.35a27.53,27.53,0,0,1-5.13,2.9A16.08,16.08,0,0,1,156.36,57.83Zm.9-28.92a6.52,6.52,0,0,0-3.76,1,13.12,13.12,0,0,0-1.6,4.2,25.61,25.61,0,0,0-.63,4.65l11.14-.64Q162.41,28.92,157.26,28.91Z"/><path class="cls-1" d="M70.83,98.45q0-9-7.85-9-5.85,0-17.52,9.1a19.49,19.49,0,0,1-5.36-11.4q13.11-4.87,23.31-4.88t15.7,4.16a13.48,13.48,0,0,1,5.51,11.35q0,10.05-10.34,22.88Q69.1,127,64.84,131.48T54.17,142.3q6,0,8.33-.1,17.23-.57,23.26-5.26l2.59,1.82-4.5,11.68h-42L39.52,145q5.46-5.35,8.86-8.81t8.13-9A92.56,92.56,0,0,0,64,117.36,56.86,56.86,0,0,0,68.77,108,25.75,25.75,0,0,0,70.83,98.45Z"/><path class="cls-2" d="M76.21,95.69q0-9-7.85-9-5.85,0-17.52,9.1a19.54,19.54,0,0,1-5.37-11.4q13.13-4.87,23.32-4.88t15.7,4.16A13.48,13.48,0,0,1,90,95q0,10-10.34,22.88-5.18,6.33-9.44,10.82c-2.83,3-6.4,6.61-10.67,10.82q6,0,8.33-.09,17.24-.58,23.26-5.27L93.73,136l-4.5,11.68h-42l-2.3-5.46q5.46-5.35,8.86-8.81c2.26-2.29,5-5.29,8.13-9a91,91,0,0,0,7.47-9.81,56.12,56.12,0,0,0,4.79-9.38A25.75,25.75,0,0,0,76.21,95.69Z"/></g></svg>