<svg xmlns="http://www.w3.org/2000/svg" width="182.2" height="170.22" viewBox="0 0 182.2 170.22"><defs><style>.cls-1{fill:#0d0811;}.cls-2{fill:#7e5289;}</style></defs><g id="points_and_time" data-name="points and time"><path class="cls-1" d="M130.88,109.79a15.41,15.41,0,0,1,5.13,6.43,23.52,23.52,0,0,1,1.94,9.91q0,10.74-6.58,17.55t-18.66,6.82q-12.09,0-19-6.87T86.8,122.36q0-20.2,15.08-31.71A52.1,52.1,0,0,1,114.21,84,56,56,0,0,1,127.5,80.5L128.76,86q-13,4-19.44,10.73a31.93,31.93,0,0,0-6.95,13,26.09,26.09,0,0,1,14.45-4.16A23.92,23.92,0,0,1,130.88,109.79ZM100.72,125q0,9.57,2.76,14.07t9.72,4.49c3.41,0,5.83-.44,7.24-1.35a14.76,14.76,0,0,0,2.57-5.7,39,39,0,0,0,1-9.62,14.46,14.46,0,0,0-2.8-9.28c-1.87-2.36-4.59-3.53-8.17-3.53s-7.62,1.51-12.14,4.54C100.79,121.17,100.72,123.3,100.72,125Z"/><path class="cls-2" d="M136.84,108.39a15.41,15.41,0,0,1,5.13,6.43,23.36,23.36,0,0,1,1.94,9.91q0,10.72-6.58,17.55t-18.66,6.81q-12.09,0-19-6.86T92.76,121q0-20.2,15.08-31.72a53,53,0,0,1,12.33-6.62,57,57,0,0,1,13.29-3.53l1.26,5.52q-13.05,4-19.43,10.73a31.85,31.85,0,0,0-7,13,26.2,26.2,0,0,1,14.45-4.16A23.9,23.9,0,0,1,136.84,108.39Zm-30.15,15.18q0,9.57,2.75,14.07t9.72,4.49c3.41,0,5.83-.45,7.24-1.35a14.88,14.88,0,0,0,2.57-5.71,38.38,38.38,0,0,0,1-9.62,14.5,14.5,0,0,0-2.8-9.28q-2.81-3.53-8.17-3.53t-12.14,4.55C106.75,119.77,106.69,121.89,106.69,123.57Z"/><path class="cls-1" d="M75.61,128.26q0,13.8,1.6,19.8v2.2H60.61v-2.2q1.61-6,1.6-19.8V99.67a68.62,68.62,0,0,0-.3-8.5,84.74,84.74,0,0,1-13.1,1.49L47.71,87q11.1-1.89,18.3-6.7h10.1l-.5,11.8Z"/><path class="cls-2" d="M80.11,128.26q0,13.8,1.6,19.8v2.2H65.11v-2.2q1.61-6,1.6-19.8V99.67a68.62,68.62,0,0,0-.3-8.5,84.74,84.74,0,0,1-13.1,1.49L52.21,87q11.1-1.89,18.3-6.7h10.1l-.5,11.8Z"/><path class="cls-1" d="M16,22.53c0-1.91-.1-4.08-.32-6.5q12.42.2,18.6.19T52.89,16q-.31,3.63-.32,6.5H51.36A67.31,67.31,0,0,0,39,20.68c-.17,2.12-.26,5.31-.26,9.55V46.92q0,8.67,1,12.49v1.4h-11v-1.4a59.54,59.54,0,0,0,.9-12.3V30.49q0-6.55-.26-9.81a71.88,71.88,0,0,0-12.23,1.85Z"/><path class="cls-1" d="M66,35.78V49.41a23.65,23.65,0,0,0,1.85,10v1.4H56.71v-1.4a28,28,0,0,0,1.09-8.6V41.38a13.85,13.85,0,0,0-1.09-5.83A6.58,6.58,0,0,0,54,32.34v-1.4l11.66-2.17L66.39,30A27.93,27.93,0,0,0,66,35.78ZM64.8,15.14a3.63,3.63,0,0,1,.8,2.16,20.36,20.36,0,0,1,.22,2.55,8.38,8.38,0,0,1-.13,1.59l-.57.51A34.7,34.7,0,0,1,57.8,23.1l-.7-.32A7.63,7.63,0,0,1,56.3,20,21.55,21.55,0,0,1,56,17.4v-1l.58-.51a21.52,21.52,0,0,1,6.81-1.14h.7Z"/><path class="cls-1" d="M96.27,29q6,0,8,5.36,2.1-1.73,3.4-2.68A17.6,17.6,0,0,1,111,29.88a9.49,9.49,0,0,1,3.76-.86,9.31,9.31,0,0,1,7.39,3c1.74,2,2.61,4.83,2.61,8.56v8.73a25.56,25.56,0,0,0,1.91,10.13v1.4H115.44v-1.4a24.76,24.76,0,0,0,1.08-8.15V42.85a12.57,12.57,0,0,0-.89-5.42c-.59-1.19-1.83-1.78-3.72-1.78a14.42,14.42,0,0,0-6.79,2.23c.09,1.1.13,2,.13,2.67v8.73a25.56,25.56,0,0,0,1.91,10.13v1.4H96.59v-1.4a24.76,24.76,0,0,0,1.08-8.15V42.85a13.55,13.55,0,0,0-.83-5.42c-.55-1.19-1.71-1.78-3.47-1.78s-4.11.89-7,2.67V49.41a23.65,23.65,0,0,0,1.85,10v1.4H77v-1.4a28,28,0,0,0,1.09-8.6V41.38q0-7.12-3.83-9v-1.4l10.32-2,.64,1.21A15.79,15.79,0,0,1,86,34.25a31.25,31.25,0,0,1,5.26-3.95A10,10,0,0,1,96.27,29Z"/><path class="cls-1" d="M147.29,62a14.13,14.13,0,0,1-9.94-4.14Q133,53.74,133,46.7a18.22,18.22,0,0,1,4.65-12.36,15.26,15.26,0,0,1,12-5.32q6.24,0,9.3,4T162,44.12l-2.42,2.49H142.13q.06,4.57,2.45,7.07a7.72,7.72,0,0,0,5.74,2.48q3.35,0,10.09-3.5L162,55.08c-.8.76-1.71,1.55-2.73,2.35a27.53,27.53,0,0,1-5.13,2.9A16.08,16.08,0,0,1,147.29,62Zm.89-28.92a6.57,6.57,0,0,0-3.76,1,13.12,13.12,0,0,0-1.59,4.2,25.61,25.61,0,0,0-.63,4.65l11.14-.64Q153.34,33.1,148.18,33.1Z"/><path class="cls-2" d="M20.51,20c0-1.92-.11-4.08-.32-6.5q12.42.2,18.6.19t18.6-.19c-.21,2.42-.32,4.58-.32,6.5H55.86a66.46,66.46,0,0,0-12.35-1.85c-.17,2.12-.26,5.31-.26,9.55V44.4q0,8.67,1,12.49v1.4h-11v-1.4a59.54,59.54,0,0,0,.9-12.3V28q0-6.57-.26-9.81A70.88,70.88,0,0,0,21.72,20Z"/><path class="cls-2" d="M70.51,33.25V46.89a23.69,23.69,0,0,0,1.85,10v1.4H61.21v-1.4a28,28,0,0,0,1.09-8.6V38.86A13.82,13.82,0,0,0,61.21,33a6.66,6.66,0,0,0-2.74-3.22v-1.4l11.66-2.16.76,1.27A27.88,27.88,0,0,0,70.51,33.25ZM69.3,12.62a3.63,3.63,0,0,1,.8,2.16,20.36,20.36,0,0,1,.22,2.55,8.52,8.52,0,0,1-.13,1.59l-.57.51a35.37,35.37,0,0,1-7.32,1.15l-.71-.32a7.73,7.73,0,0,1-.79-2.74,21.55,21.55,0,0,1-.29-2.64v-1l.58-.51a21.54,21.54,0,0,1,6.81-1.15h.7Z"/><path class="cls-2" d="M100.77,26.5q6,0,8,5.35c1.41-1.14,2.54-2,3.41-2.67a17,17,0,0,1,3.28-1.82,9.49,9.49,0,0,1,3.76-.86,9.34,9.34,0,0,1,7.39,3q2.61,3,2.61,8.57v8.73a25.59,25.59,0,0,0,1.91,10.13v1.4H119.94v-1.4A24.82,24.82,0,0,0,121,48.73V40.32a12.52,12.52,0,0,0-.89-5.41c-.59-1.19-1.83-1.78-3.72-1.78a14.38,14.38,0,0,0-6.79,2.23c.09,1.1.13,2,.13,2.67v8.73a25.59,25.59,0,0,0,1.91,10.13v1.4H101.09v-1.4a24.82,24.82,0,0,0,1.08-8.16V40.32a13.49,13.49,0,0,0-.83-5.41c-.55-1.19-1.71-1.78-3.47-1.78s-4.11.89-7,2.67V46.89a23.69,23.69,0,0,0,1.85,10v1.4H81.53v-1.4a28,28,0,0,0,1.08-8.6V38.86q0-7.14-3.82-9v-1.4l10.32-2,.64,1.21a15.79,15.79,0,0,1,.76,4.08,31.25,31.25,0,0,1,5.26-3.95A10,10,0,0,1,100.77,26.5Z"/><path class="cls-2" d="M151.79,59.5a14.13,14.13,0,0,1-9.94-4.14q-4.4-4.14-4.39-11.18a18.22,18.22,0,0,1,4.65-12.36,15.26,15.26,0,0,1,12-5.32q6.24,0,9.3,4T166.5,41.6l-2.42,2.48H146.63q.06,4.59,2.45,7.07a7.69,7.69,0,0,0,5.74,2.49q3.35,0,10.09-3.51l1.59,2.42a35.79,35.79,0,0,1-2.73,2.36,27.53,27.53,0,0,1-5.13,2.9A16.22,16.22,0,0,1,151.79,59.5Zm.89-28.92a6.65,6.65,0,0,0-3.76,1,13,13,0,0,0-1.59,4.21,25.61,25.61,0,0,0-.63,4.65l11.14-.64Q157.84,30.59,152.68,30.58Z"/></g></svg>