<svg xmlns="http://www.w3.org/2000/svg" width="182.2" height="170.22" viewBox="0 0 182.2 170.22"><defs><style>.cls-1{fill:#0d0811;}.cls-2{fill:#7e5289;}</style></defs><g id="points_and_time" data-name="points and time"><path class="cls-1" d="M118.1,97.67q0-9-7.85-9-5.84,0-17.52,9.1a19.46,19.46,0,0,1-5.36-11.4q13.11-4.87,23.31-4.88t15.7,4.16A13.48,13.48,0,0,1,131.89,97q0,10.05-10.34,22.88-5.17,6.33-9.43,10.82t-10.68,10.82q6,0,8.33-.09,17.24-.59,23.27-5.27l2.58,1.82-4.49,11.68h-42l-2.3-5.46q5.46-5.35,8.86-8.81t8.14-9a92.31,92.31,0,0,0,7.47-9.81A56.86,56.86,0,0,0,116,107.2,25.75,25.75,0,0,0,118.1,97.67Z"/><path class="cls-2" d="M123.48,94.91q0-9-7.85-9-5.84,0-17.52,9.1a19.46,19.46,0,0,1-5.36-11.4q13.11-4.87,23.31-4.88t15.7,4.16a13.48,13.48,0,0,1,5.51,11.35q0,10-10.34,22.88-5.18,6.33-9.43,10.82t-10.68,10.82q6,0,8.33-.09,17.23-.58,23.27-5.27l2.58,1.82-4.49,11.68h-42l-2.3-5.46q5.46-5.35,8.86-8.81t8.14-9a93.68,93.68,0,0,0,7.47-9.81,56.86,56.86,0,0,0,4.78-9.38A25.75,25.75,0,0,0,123.48,94.91Z"/><path class="cls-1" d="M74.79,127.19q0,13.8,1.6,19.8v2.21H59.79V147q1.6-6,1.6-19.8V98.6a68.62,68.62,0,0,0-.3-8.5A84.74,84.74,0,0,1,48,91.59l-1.1-5.7Q58,84,65.19,79.2h10.1L74.79,91Z"/><path class="cls-2" d="M79.29,127.19q0,13.8,1.6,19.8v2.21H64.29V147q1.6-6,1.6-19.8V98.6a68.62,68.62,0,0,0-.3-8.5,84.74,84.74,0,0,1-13.1,1.49l-1.1-5.7Q62.49,84,69.69,79.2h10.1L79.29,91Z"/><path class="cls-1" d="M15.19,21.46q0-2.87-.32-6.5,12.42.19,18.6.19T52.07,15q-.32,3.63-.32,6.5H50.54a67.31,67.31,0,0,0-12.35-1.85q-.25,3.18-.26,9.56V45.86q0,8.66,1,12.48v1.4H28v-1.4a59.49,59.49,0,0,0,.9-12.29V29.42q0-6.55-.26-9.81A71.88,71.88,0,0,0,16.4,21.46Z"/><path class="cls-1" d="M65.19,34.71V48.34a23.65,23.65,0,0,0,1.85,10v1.4H55.89v-1.4A28,28,0,0,0,57,49.74V40.31a13.8,13.8,0,0,0-1.09-5.82,6.61,6.61,0,0,0-2.74-3.22v-1.4L64.81,27.7,65.57,29A27.75,27.75,0,0,0,65.19,34.71ZM64,14.07a3.64,3.64,0,0,1,.8,2.17A20.09,20.09,0,0,1,65,18.78a8.56,8.56,0,0,1-.13,1.6l-.57.51A35.45,35.45,0,0,1,57,22l-.71-.32A7.87,7.87,0,0,1,55.48,19a21.55,21.55,0,0,1-.29-2.64v-1l.58-.51a21.52,21.52,0,0,1,6.81-1.14h.7Z"/><path class="cls-1" d="M95.45,28q6,0,8,5.35c1.41-1.15,2.54-2,3.41-2.68a17,17,0,0,1,3.28-1.81,10,10,0,0,1,11.15,2.1c1.74,2,2.61,4.83,2.61,8.56v8.73a25.56,25.56,0,0,0,1.91,10.13v1.4H114.62v-1.4a24.76,24.76,0,0,0,1.08-8.15V41.78a12.57,12.57,0,0,0-.89-5.42c-.59-1.18-1.83-1.78-3.72-1.78a14.42,14.42,0,0,0-6.79,2.23c.09,1.1.13,2,.13,2.67v8.73a25.56,25.56,0,0,0,1.91,10.13v1.4H95.77v-1.4a24.76,24.76,0,0,0,1.08-8.15V41.78A13.55,13.55,0,0,0,96,36.36c-.55-1.18-1.71-1.78-3.47-1.78s-4.11.89-7,2.68V48.34a23.65,23.65,0,0,0,1.85,10v1.4H76.21v-1.4a28,28,0,0,0,1.09-8.6V40.31q0-7.12-3.83-9v-1.4l10.32-2,.64,1.21a15.79,15.79,0,0,1,.76,4.08,31.8,31.8,0,0,1,5.26-3.95A10,10,0,0,1,95.45,28Z"/><path class="cls-1" d="M146.47,61a14.13,14.13,0,0,1-9.94-4.14q-4.4-4.14-4.39-11.18a18.22,18.22,0,0,1,4.65-12.36,15.25,15.25,0,0,1,12-5.31q6.24,0,9.3,4t3.05,11.08l-2.42,2.49H141.31q.06,4.58,2.45,7.07a7.72,7.72,0,0,0,5.74,2.48q3.34,0,10.09-3.5L161.18,54c-.8.76-1.71,1.55-2.73,2.36a28.21,28.21,0,0,1-5.13,2.89A16.08,16.08,0,0,1,146.47,61ZM147.36,32a6.57,6.57,0,0,0-3.76,1,12.89,12.89,0,0,0-1.59,4.2,25.61,25.61,0,0,0-.63,4.65l11.14-.63Q152.52,32,147.36,32Z"/><path class="cls-2" d="M19.69,18.94q0-2.86-.32-6.5,12.42.2,18.6.19t18.6-.19q-.32,3.63-.32,6.5H55a67.31,67.31,0,0,0-12.35-1.85c-.17,2.12-.26,5.31-.26,9.55V43.33q0,8.67,1,12.49v1.4h-11v-1.4a59.71,59.71,0,0,0,.89-12.3V26.9c0-4.37-.08-7.65-.25-9.81A71.88,71.88,0,0,0,20.9,18.94Z"/><path class="cls-2" d="M69.69,32.19V45.82a23.69,23.69,0,0,0,1.85,10v1.4H60.39v-1.4a28,28,0,0,0,1.09-8.6V37.79A13.85,13.85,0,0,0,60.39,32a6.58,6.58,0,0,0-2.74-3.21V27.34l11.66-2.16.76,1.27A27.93,27.93,0,0,0,69.69,32.19ZM68.48,11.55a3.63,3.63,0,0,1,.8,2.16,20.36,20.36,0,0,1,.22,2.55,8.38,8.38,0,0,1-.13,1.59l-.57.51a34.7,34.7,0,0,1-7.32,1.15l-.71-.32A7.66,7.66,0,0,1,60,16.45a21.55,21.55,0,0,1-.29-2.64v-1l.58-.51a21.54,21.54,0,0,1,6.81-1.15h.7Z"/><path class="cls-2" d="M100,25.43q6,0,8,5.35c1.41-1.14,2.54-2,3.41-2.67a17.6,17.6,0,0,1,3.28-1.82,9.49,9.49,0,0,1,3.76-.86,9.34,9.34,0,0,1,7.39,3q2.61,3,2.61,8.57v8.73a25.56,25.56,0,0,0,1.91,10.13v1.4H119.12v-1.4a24.82,24.82,0,0,0,1.08-8.16v-8.4a12.54,12.54,0,0,0-.89-5.42c-.59-1.19-1.84-1.78-3.72-1.78a14.38,14.38,0,0,0-6.79,2.23c.09,1.1.13,2,.13,2.67v8.73a25.56,25.56,0,0,0,1.91,10.13v1.4H100.27v-1.4a24.82,24.82,0,0,0,1.08-8.16v-8.4a13.51,13.51,0,0,0-.83-5.42c-.55-1.19-1.71-1.78-3.47-1.78s-4.11.89-7,2.67V45.82a23.69,23.69,0,0,0,1.85,10v1.4H80.71v-1.4a28,28,0,0,0,1.08-8.6V37.79q0-7.14-3.82-9V27.34l10.32-2,.64,1.21a15.79,15.79,0,0,1,.76,4.08A31.25,31.25,0,0,1,95,26.71,10,10,0,0,1,100,25.43Z"/><path class="cls-2" d="M151,58.43A14.13,14.13,0,0,1,141,54.29q-4.4-4.14-4.39-11.18a18.22,18.22,0,0,1,4.65-12.36,15.26,15.26,0,0,1,12-5.32q6.24,0,9.3,4t3.05,11.08L163.26,43H145.81q.06,4.59,2.45,7.07A7.69,7.69,0,0,0,154,52.57q3.34,0,10.09-3.5l1.59,2.42c-.8.76-1.72,1.55-2.73,2.35a27.53,27.53,0,0,1-5.13,2.9A16.08,16.08,0,0,1,151,58.43Zm.89-28.92a6.57,6.57,0,0,0-3.76,1,12.89,12.89,0,0,0-1.59,4.2,26.63,26.63,0,0,0-.64,4.65L157,38.68Q157,29.52,151.86,29.51Z"/></g></svg>