<svg xmlns="http://www.w3.org/2000/svg" width="182.2" height="170.22" viewBox="0 0 182.2 170.22"><defs><style>.cls-1{fill:#0d0811;}.cls-2{fill:#7e5289;}</style></defs><g id="points_and_time" data-name="points and time"><path class="cls-1" d="M127.82,129.77q0-11.66-16.66-12.74l-13-.89-2.45-2.64q1.67-12.45,5.39-31.28l34.71-.49,2.45,14.32h-1.87a22.62,22.62,0,0,0-9-4.36,46.12,46.12,0,0,0-12.5-1.62h-5.1a121.53,121.53,0,0,0-3.91,18.43q11,.48,15.14,1a44.71,44.71,0,0,1,8.19,1.86,19.47,19.47,0,0,1,6.47,3.38q5.79,4.71,5.78,14.17a20.82,20.82,0,0,1-7.5,16.13q-7.48,6.66-19.75,6.66t-25.59-6.56a18.55,18.55,0,0,1,2.26-5.35A18.94,18.94,0,0,1,94.49,135q12.56,9,22.16,9a18.84,18.84,0,0,0,7.45-1.28,14.33,14.33,0,0,0,2.74-5.83A28,28,0,0,0,127.82,129.77Z"/><path class="cls-2" d="M132.68,129.77q0-11.66-16.66-12.74l-13-.89-2.45-2.64q1.66-12.45,5.39-31.28l34.71-.49,2.45,14.32h-1.87a22.62,22.62,0,0,0-9-4.36,46.12,46.12,0,0,0-12.5-1.62h-5.1a121.53,121.53,0,0,0-3.91,18.43q11,.48,15.14,1a44.53,44.53,0,0,1,8.19,1.86,19.47,19.47,0,0,1,6.47,3.38q5.79,4.71,5.78,14.17a20.82,20.82,0,0,1-7.5,16.13q-7.49,6.66-19.75,6.66t-25.59-6.56a18.55,18.55,0,0,1,2.26-5.35A18.94,18.94,0,0,1,99.35,135q12.56,9,22.16,9a18.84,18.84,0,0,0,7.45-1.28,14.33,14.33,0,0,0,2.74-5.83A28,28,0,0,0,132.68,129.77Z"/><path class="cls-1" d="M77.39,129.5q0,13.8,1.61,19.8v2.2H62.4v-2.2q1.59-6,1.6-19.8V100.9a70.94,70.94,0,0,0-.3-8.5,83.48,83.48,0,0,1-13.1,1.5l-1.1-5.7q11.09-1.9,18.29-6.7H77.9l-.51,11.8Z"/><path class="cls-2" d="M81.89,129.5q0,13.8,1.61,19.8v2.2H66.9v-2.2q1.59-6,1.6-19.8V100.9a70.94,70.94,0,0,0-.3-8.5,83.48,83.48,0,0,1-13.1,1.5L54,88.2q11.09-1.9,18.29-6.7H82.4l-.51,11.8Z"/><path class="cls-1" d="M17.8,23.76c0-1.91-.11-4.07-.32-6.5q12.42.19,18.6.2t18.6-.2c-.22,2.43-.32,4.59-.32,6.5H53.15a68.28,68.28,0,0,0-12.36-1.85c-.17,2.13-.25,5.31-.25,9.56V48.16q0,8.66,1,12.48V62h-11v-1.4a60.32,60.32,0,0,0,.89-12.29V31.72q0-6.55-.25-9.81A72.61,72.61,0,0,0,19,23.76Z"/><path class="cls-1" d="M67.8,37V50.64a23.47,23.47,0,0,0,1.85,10V62H58.5v-1.4A27.94,27.94,0,0,0,59.58,52V42.62a13.83,13.83,0,0,0-1.08-5.83,6.71,6.71,0,0,0-2.74-3.22v-1.4L67.42,30l.76,1.28A27.88,27.88,0,0,0,67.8,37ZM66.59,16.37a3.58,3.58,0,0,1,.79,2.17,20.47,20.47,0,0,1,.23,2.55,9.47,9.47,0,0,1-.13,1.59l-.57.51a35.45,35.45,0,0,1-7.33,1.14l-.7-.31a8,8,0,0,1-.8-2.74,21.22,21.22,0,0,1-.28-2.65v-1l.57-.51A21.32,21.32,0,0,1,65.19,16h.7Z"/><path class="cls-1" d="M98.06,30.26q6,0,8,5.35,2.1-1.72,3.41-2.68a17.29,17.29,0,0,1,3.28-1.81,10,10,0,0,1,11.15,2.1c1.74,2,2.61,4.83,2.61,8.57v8.73a25.54,25.54,0,0,0,1.91,10.12V62H117.23v-1.4a24.72,24.72,0,0,0,1.08-8.15V44.08a12.67,12.67,0,0,0-.89-5.41c-.6-1.19-1.84-1.79-3.73-1.79a14.47,14.47,0,0,0-6.78,2.23c.08,1.11.13,2,.13,2.68v8.73A25.37,25.37,0,0,0,109,60.64V62H98.37v-1.4a24.68,24.68,0,0,0,1.09-8.15V44.08a13.49,13.49,0,0,0-.83-5.41c-.56-1.19-1.71-1.79-3.47-1.79s-4.11.9-7,2.68V50.64a23.47,23.47,0,0,0,1.85,10V62H78.82v-1.4A27.94,27.94,0,0,0,79.9,52V42.62q0-7.14-3.82-9v-1.4l10.32-2L87,31.41a16.14,16.14,0,0,1,.76,4.07,31.79,31.79,0,0,1,5.25-3.95A10,10,0,0,1,98.06,30.26Z"/><path class="cls-1" d="M149.08,63.25a14.07,14.07,0,0,1-9.94-4.14q-4.39-4.14-4.4-11.17a18.18,18.18,0,0,1,4.65-12.36,15.25,15.25,0,0,1,12-5.32q6.24,0,9.3,4t3.06,11.09l-2.42,2.48H143.92c0,3.06.86,5.41,2.45,7.07a7.64,7.64,0,0,0,5.73,2.48q3.35,0,10.1-3.5l1.59,2.42c-.81.77-1.72,1.55-2.74,2.36a28.73,28.73,0,0,1-5.13,2.9A16.2,16.2,0,0,1,149.08,63.25ZM150,34.34a6.55,6.55,0,0,0-3.76.95,12.87,12.87,0,0,0-1.59,4.21,25.72,25.72,0,0,0-.64,4.64l11.15-.63Q155.13,34.33,150,34.34Z"/><path class="cls-2" d="M22.3,21.24q0-2.86-.32-6.5,12.42.19,18.6.19t18.6-.19c-.22,2.42-.32,4.59-.32,6.5H57.65a68.28,68.28,0,0,0-12.36-1.85Q45,22.57,45,29V45.64q0,8.65,1,12.48v1.4h-11v-1.4A60.32,60.32,0,0,0,36,45.83V29.2q0-6.56-.25-9.81a72.61,72.61,0,0,0-12.23,1.85Z"/><path class="cls-2" d="M72.3,34.49V48.12a23.5,23.5,0,0,0,1.85,10v1.4H63v-1.4a27.94,27.94,0,0,0,1.08-8.6V40.09A13.81,13.81,0,0,0,63,34.27a6.66,6.66,0,0,0-2.74-3.22v-1.4l11.66-2.17.76,1.28A27.75,27.75,0,0,0,72.3,34.49ZM71.09,13.85A3.58,3.58,0,0,1,71.88,16a20.5,20.5,0,0,1,.23,2.54,9.5,9.5,0,0,1-.13,1.6l-.57.51a35.45,35.45,0,0,1-7.33,1.14l-.7-.32a7.84,7.84,0,0,1-.8-2.74,20.93,20.93,0,0,1-.28-2.64v-1l.57-.51a21.54,21.54,0,0,1,6.82-1.14h.7Z"/><path class="cls-2" d="M102.55,27.74q6.06,0,8,5.35,2.1-1.73,3.41-2.68a16.75,16.75,0,0,1,3.28-1.81,10,10,0,0,1,11.15,2.1q2.61,3,2.61,8.57V48a25.38,25.38,0,0,0,1.91,10.13v1.4H121.73v-1.4A24.76,24.76,0,0,0,122.81,50V41.56a12.72,12.72,0,0,0-.89-5.42c-.6-1.18-1.84-1.78-3.73-1.78a14.35,14.35,0,0,0-6.78,2.23c.08,1.1.13,2,.13,2.68V48a25.38,25.38,0,0,0,1.91,10.13v1.4H102.87v-1.4A24.76,24.76,0,0,0,104,50V41.56a13.57,13.57,0,0,0-.82-5.42c-.56-1.18-1.71-1.78-3.47-1.78s-4.11.89-7,2.68V48.12a23.5,23.5,0,0,0,1.85,10v1.4H83.32v-1.4a27.94,27.94,0,0,0,1.08-8.6V40.09q0-7.12-3.82-9v-1.4l10.32-2,.63,1.21A15.71,15.71,0,0,1,92.3,33,31.79,31.79,0,0,1,97.55,29,10,10,0,0,1,102.55,27.74Z"/><path class="cls-2" d="M153.58,60.73a14.12,14.12,0,0,1-9.94-4.14q-4.39-4.14-4.4-11.18a18.22,18.22,0,0,1,4.65-12.36,15.27,15.27,0,0,1,12-5.31q6.24,0,9.3,4t3.06,11.08l-2.42,2.49H148.42q.06,4.57,2.45,7.07a7.68,7.68,0,0,0,5.73,2.48q3.35,0,10.1-3.5l1.59,2.42c-.81.76-1.72,1.55-2.74,2.36A28.21,28.21,0,0,1,160.42,59,16.07,16.07,0,0,1,153.58,60.73Zm.89-28.92a6.55,6.55,0,0,0-3.76,1,12.89,12.89,0,0,0-1.59,4.2,25.7,25.7,0,0,0-.64,4.65L159.63,41Q159.63,31.81,154.47,31.81Z"/></g></svg>