<svg xmlns="http://www.w3.org/2000/svg" width="182.2" height="170.22" viewBox="0 0 182.2 170.22"><defs><style>.cls-1{fill:#0d0811;}.cls-2{fill:#7e5289;}</style></defs><g id="points_and_time" data-name="points and time"><path class="cls-1" d="M100.07,142.87q-7.35-9.19-7.35-24.31t8-23.94q8-8.82,21-8.82t19.47,9q6.53,9,6.53,23.44t-7.4,24.16q-7.41,9.69-19.19,9.69Q107.43,152.05,100.07,142.87Zm33.22-9.78a62.16,62.16,0,0,0,1.28-12.43,73,73,0,0,0-.69-10.74,33.69,33.69,0,0,0-2.33-8.4q-3.37-8-12.24-8a17.92,17.92,0,0,0-5.07.73A9.09,9.09,0,0,0,110.63,96q-2,2.64-3.38,8.54a47.87,47.87,0,0,0-1.37,10.87,77.89,77.89,0,0,0,.45,8.87,45.08,45.08,0,0,0,1.6,7.67,22.92,22.92,0,0,0,3,6.45,13.22,13.22,0,0,0,11.52,5.94,13.73,13.73,0,0,0,3.88-.73,7.26,7.26,0,0,0,3.43-2Q132,139.35,133.29,133.09Z"/><path class="cls-2" d="M100.67,138.93q-7.36-9.19-7.36-24.31t8-23.94q8-8.82,21-8.82t19.46,9q6.53,9,6.53,23.44t-7.4,24.17q-7.39,9.69-19.19,9.69Q108,148.11,100.67,138.93Zm33.21-9.78a61.44,61.44,0,0,0,1.28-12.43,74.51,74.51,0,0,0-.68-10.74,34,34,0,0,0-2.33-8.4q-3.39-8-12.25-8a18,18,0,0,0-5.07.74,9.1,9.1,0,0,0-3.61,1.73q-2,2.66-3.38,8.55a48.44,48.44,0,0,0-1.37,10.87,75.49,75.49,0,0,0,.46,8.87,43.41,43.41,0,0,0,1.6,7.67,22.72,22.72,0,0,0,3,6.44A13.23,13.23,0,0,0,123,140.43a13.38,13.38,0,0,0,3.88-.73,7.2,7.2,0,0,0,3.43-2Q132.6,135.41,133.88,129.15Z"/><path class="cls-1" d="M17.05,23.22q0-2.87-.32-6.49,12.42.18,18.6.19t18.6-.19q-.32,3.63-.32,6.49H52.4a67.2,67.2,0,0,0-12.35-1.84c-.17,2.12-.26,5.31-.26,9.55V47.62q0,8.67,1,12.48v1.41h-11V60.1a59.36,59.36,0,0,0,.9-12.29V31.19q0-6.57-.26-9.81a71.7,71.7,0,0,0-12.23,1.84Z"/><path class="cls-1" d="M67.05,36.47V50.1a23.62,23.62,0,0,0,1.85,10v1.41H57.75V60.1a27.88,27.88,0,0,0,1.09-8.59V42.08a13.82,13.82,0,0,0-1.09-5.83A6.66,6.66,0,0,0,55,33v-1.4l11.66-2.16.76,1.27A27.88,27.88,0,0,0,67.05,36.47ZM65.84,15.83a3.66,3.66,0,0,1,.8,2.17,20.07,20.07,0,0,1,.22,2.55,8.52,8.52,0,0,1-.13,1.59l-.57.51a36.06,36.06,0,0,1-7.32,1.15l-.71-.32a7.94,7.94,0,0,1-.79-2.74,22,22,0,0,1-.29-2.64v-1l.58-.51a21.26,21.26,0,0,1,6.81-1.15h.7Z"/><path class="cls-1" d="M97.31,29.72q6,0,8,5.35c1.41-1.15,2.54-2,3.41-2.67A17,17,0,0,1,112,30.58a9.49,9.49,0,0,1,3.76-.86,9.34,9.34,0,0,1,7.39,3c1.74,2,2.61,4.83,2.61,8.57V50a25.51,25.51,0,0,0,1.91,10.12v1.41H116.48V60.1A24.72,24.72,0,0,0,117.56,52V43.54a12.52,12.52,0,0,0-.89-5.41c-.59-1.19-1.83-1.78-3.72-1.78a14.5,14.5,0,0,0-6.79,2.22c.09,1.11.13,2,.13,2.68V50A25.51,25.51,0,0,0,108.2,60.1v1.41H97.63V60.1A24.72,24.72,0,0,0,98.71,52V43.54a13.49,13.49,0,0,0-.83-5.41c-.55-1.19-1.71-1.78-3.47-1.78s-4.11.89-7,2.67V50.1a23.62,23.62,0,0,0,1.85,10v1.41H78.07V60.1a27.88,27.88,0,0,0,1.09-8.59V42.08q0-7.14-3.83-9v-1.4l10.32-2,.64,1.21a15.79,15.79,0,0,1,.76,4.07A31.8,31.8,0,0,1,92.31,31,10.1,10.1,0,0,1,97.31,29.72Z"/><path class="cls-1" d="M148.33,62.72a14.13,14.13,0,0,1-9.94-4.14Q134,54.44,134,47.4A18.2,18.2,0,0,1,138.65,35a15.23,15.23,0,0,1,12-5.32q6.24,0,9.3,4t3,11.09l-2.42,2.48H143.17q.06,4.59,2.45,7.07a7.69,7.69,0,0,0,5.74,2.49q3.34,0,10.09-3.51L163,55.77c-.8.77-1.71,1.55-2.73,2.36a28.12,28.12,0,0,1-5.13,2.9A16.22,16.22,0,0,1,148.33,62.72Zm.89-28.92a6.65,6.65,0,0,0-3.76,1A13,13,0,0,0,143.87,39a25.61,25.61,0,0,0-.63,4.65L154.38,43Q154.38,33.79,149.22,33.8Z"/><path class="cls-2" d="M21.55,20.7q0-2.86-.32-6.5,12.42.2,18.6.19t18.6-.19q-.32,3.63-.32,6.5H56.9a68.19,68.19,0,0,0-12.35-1.85c-.17,2.13-.26,5.31-.26,9.56V45.1q0,8.65,1,12.48V59h-11v-1.4a59.59,59.59,0,0,0,.89-12.29V28.66q0-6.56-.25-9.81A72.9,72.9,0,0,0,22.76,20.7Z"/><path class="cls-2" d="M71.55,34V47.58a23.62,23.62,0,0,0,1.85,10V59H62.25v-1.4A27.91,27.91,0,0,0,63.34,49V39.55a13.8,13.8,0,0,0-1.09-5.82,6.66,6.66,0,0,0-2.74-3.22v-1.4l11.66-2.17.76,1.28A27.82,27.82,0,0,0,71.55,34ZM70.34,13.31a3.64,3.64,0,0,1,.8,2.17A20.07,20.07,0,0,1,71.36,18a8.52,8.52,0,0,1-.13,1.59l-.57.51a35.45,35.45,0,0,1-7.32,1.14L62.63,21a7.79,7.79,0,0,1-.79-2.74,21.85,21.85,0,0,1-.29-2.65v-1l.58-.51a21.26,21.26,0,0,1,6.81-1.15h.7Z"/><path class="cls-2" d="M101.81,27.2q6,0,8,5.35c1.41-1.15,2.54-2,3.41-2.68a17.61,17.61,0,0,1,3.28-1.81,10,10,0,0,1,11.15,2.1q2.61,3,2.61,8.57v8.72a25.56,25.56,0,0,0,1.91,10.13V59H121v-1.4a24.72,24.72,0,0,0,1.08-8.15V41a12.52,12.52,0,0,0-.89-5.41c-.59-1.19-1.84-1.79-3.72-1.79a14.5,14.5,0,0,0-6.79,2.23c.09,1.11.13,2,.13,2.68v8.72a25.56,25.56,0,0,0,1.91,10.13V59H102.13v-1.4a24.72,24.72,0,0,0,1.08-8.15V41a13.49,13.49,0,0,0-.83-5.41c-.55-1.19-1.71-1.79-3.47-1.79s-4.11.89-7,2.68V47.58a23.62,23.62,0,0,0,1.85,10V59H82.57v-1.4A27.94,27.94,0,0,0,83.65,49V39.55q0-7.12-3.82-9v-1.4l10.32-2,.64,1.21a15.79,15.79,0,0,1,.76,4.08,31.8,31.8,0,0,1,5.26-4A10,10,0,0,1,101.81,27.2Z"/><path class="cls-2" d="M152.83,60.19a14.13,14.13,0,0,1-9.94-4.14q-4.39-4.14-4.39-11.18a18.18,18.18,0,0,1,4.65-12.35,15.23,15.23,0,0,1,12-5.32q6.24,0,9.3,4t3,11.08l-2.42,2.49H147.67c0,3.06.86,5.41,2.45,7.07a7.72,7.72,0,0,0,5.74,2.48q3.34,0,10.09-3.5l1.59,2.42c-.8.77-1.72,1.55-2.73,2.36a28.73,28.73,0,0,1-5.13,2.9A16.2,16.2,0,0,1,152.83,60.19Zm.89-28.92a6.57,6.57,0,0,0-3.76,1,12.89,12.89,0,0,0-1.59,4.2,26.88,26.88,0,0,0-.64,4.65l11.15-.63Q158.88,31.27,153.72,31.27Z"/><path class="cls-1" d="M67.29,100.81q0-9-7.84-9-5.85,0-17.53,9.1a19.58,19.58,0,0,1-5.36-11.39q13.13-4.89,23.32-4.89t15.7,4.17a13.47,13.47,0,0,1,5.51,11.34q0,10.06-10.34,22.89-5.19,6.31-9.44,10.82T50.63,144.67q6,0,8.33-.1,17.25-.57,23.27-5.26l2.59,1.82-4.5,11.68h-42L36,147.35q5.44-5.37,8.86-8.81t8.13-9a92.3,92.3,0,0,0,7.47-9.82,55.74,55.74,0,0,0,4.79-9.38A25.68,25.68,0,0,0,67.29,100.81Z"/><path class="cls-2" d="M72.67,98.05q0-9-7.84-9-5.85,0-17.53,9.1a19.58,19.58,0,0,1-5.36-11.39q13.11-4.89,23.32-4.89T81,86a13.47,13.47,0,0,1,5.51,11.34q0,10.07-10.34,22.89-5.19,6.32-9.44,10.82T56,141.91c4,0,6.81,0,8.33-.1q17.25-.57,23.27-5.26l2.59,1.82-4.5,11.68h-42l-2.29-5.46C45,141,48,138.08,50.22,135.78s5-5.3,8.14-9A92.31,92.31,0,0,0,65.83,117a57,57,0,0,0,4.79-9.39A25.68,25.68,0,0,0,72.67,98.05Z"/></g></svg>