<svg xmlns="http://www.w3.org/2000/svg" width="182.2" height="170.22" viewBox="0 0 182.2 170.22"><defs><style>.cls-1{fill:#0d0811;}.cls-2{fill:#7e5289;}</style></defs><g id="points_and_time" data-name="points and time"><path class="cls-1" d="M97.23,139.08q-7.35-9.2-7.36-24.31t8-23.94q8-8.82,21-8.82T138.35,91q6.54,9,6.53,23.44t-7.4,24.17q-7.39,9.69-19.18,9.69Q104.59,148.26,97.23,139.08Zm33.22-9.78a62.16,62.16,0,0,0,1.28-12.43,73,73,0,0,0-.69-10.74,33.69,33.69,0,0,0-2.33-8.4q-3.38-8-12.24-8a18,18,0,0,0-5.08.73,9.24,9.24,0,0,0-3.61,1.73q-2,2.66-3.38,8.55A48.4,48.4,0,0,0,103,111.66a75.65,75.65,0,0,0,.45,8.87,45.08,45.08,0,0,0,1.6,7.67,22.92,22.92,0,0,0,3,6.45,13.22,13.22,0,0,0,11.51,5.93,13.44,13.44,0,0,0,3.89-.73,7.22,7.22,0,0,0,3.43-2Q129.17,135.56,130.45,129.3Z"/><path class="cls-2" d="M97.82,135.14q-7.35-9.19-7.35-24.31t8-24q8-8.8,21-8.81T139,87q6.53,9,6.53,23.44t-7.4,24.17q-7.41,9.69-19.19,9.69Q105.18,144.32,97.82,135.14ZM131,125.36a62.23,62.23,0,0,0,1.28-12.43,74.51,74.51,0,0,0-.68-10.74,34.64,34.64,0,0,0-2.33-8.41q-3.39-7.95-12.25-8a18,18,0,0,0-5.07.74,9.1,9.1,0,0,0-3.61,1.73q-2,2.65-3.38,8.55a47.87,47.87,0,0,0-1.37,10.87,77.58,77.58,0,0,0,.45,8.86,45.39,45.39,0,0,0,1.6,7.68,22.85,22.85,0,0,0,3,6.44,13.23,13.23,0,0,0,11.52,5.94,13.38,13.38,0,0,0,3.88-.73,7.25,7.25,0,0,0,3.43-2Q129.76,131.62,131,125.36Z"/><path class="cls-1" d="M74.67,126.16q0,13.8,1.6,19.8v2.2H59.67V146q1.61-6,1.6-19.8V97.56a68.73,68.73,0,0,0-.3-8.5,83.48,83.48,0,0,1-13.1,1.5l-1.1-5.7q11.1-1.9,18.3-6.7h10.1L74.67,90Z"/><path class="cls-2" d="M79.17,126.16q0,13.8,1.6,19.8v2.2H64.17V146q1.6-6,1.6-19.8V97.56a68.73,68.73,0,0,0-.3-8.5,83.48,83.48,0,0,1-13.1,1.5l-1.1-5.7q11.1-1.9,18.3-6.7h10.1L79.17,90Z"/><path class="cls-1" d="M15.07,20.43c0-1.92-.1-4.08-.32-6.5q12.42.2,18.6.19T52,13.93c-.21,2.42-.32,4.58-.32,6.5H50.42a67.31,67.31,0,0,0-12.35-1.85c-.17,2.12-.26,5.31-.26,9.55V44.82q0,8.67,1,12.49v1.4H27.88v-1.4A60.43,60.43,0,0,0,28.77,45V28.39q0-6.57-.26-9.81a71.88,71.88,0,0,0-12.23,1.85Z"/><path class="cls-1" d="M65.07,33.68V47.31a23.69,23.69,0,0,0,1.85,10v1.4H55.77v-1.4a27.69,27.69,0,0,0,1.09-8.6V39.28a13.7,13.7,0,0,0-1.09-5.83A6.69,6.69,0,0,0,53,30.23v-1.4l11.65-2.16.77,1.27A27,27,0,0,0,65.07,33.68ZM63.86,13a3.56,3.56,0,0,1,.8,2.16,20.36,20.36,0,0,1,.22,2.55,9.36,9.36,0,0,1-.12,1.59l-.58.51A34.7,34.7,0,0,1,56.86,21l-.7-.32a7.63,7.63,0,0,1-.8-2.74,21.55,21.55,0,0,1-.29-2.64v-1l.58-.51a21.54,21.54,0,0,1,6.81-1.15h.7Z"/><path class="cls-1" d="M95.33,26.92q6,0,8,5.35c1.4-1.14,2.53-2,3.4-2.67A17.6,17.6,0,0,1,110,27.78a9.49,9.49,0,0,1,3.76-.86,9.34,9.34,0,0,1,7.39,3q2.61,3,2.61,8.57v8.73a25.59,25.59,0,0,0,1.91,10.13v1.4H114.5v-1.4a24.79,24.79,0,0,0,1.09-8.16v-8.4a12.51,12.51,0,0,0-.9-5.42c-.59-1.19-1.83-1.78-3.72-1.78a14.42,14.42,0,0,0-6.79,2.23c.09,1.1.13,2,.13,2.67v8.73a25.59,25.59,0,0,0,1.91,10.13v1.4H95.65v-1.4a24.82,24.82,0,0,0,1.08-8.16v-8.4a13.34,13.34,0,0,0-.83-5.42c-.55-1.19-1.71-1.78-3.47-1.78s-4.11.89-7,2.67V47.31a23.69,23.69,0,0,0,1.85,10v1.4H76.09v-1.4a28,28,0,0,0,1.09-8.6V39.28q0-7.14-3.83-9v-1.4l10.32-2,.64,1.21a15.79,15.79,0,0,1,.76,4.08,31.25,31.25,0,0,1,5.26-3.95A10,10,0,0,1,95.33,26.92Z"/><path class="cls-1" d="M146.35,59.92a14.13,14.13,0,0,1-9.94-4.14Q132,51.64,132,44.6a18.22,18.22,0,0,1,4.65-12.36,15.26,15.26,0,0,1,12-5.32q6.24,0,9.3,4T161.07,42l-2.42,2.48H141.19q.06,4.59,2.45,7.07a7.69,7.69,0,0,0,5.74,2.49q3.35,0,10.09-3.5l1.6,2.42c-.81.76-1.72,1.55-2.74,2.35a27.53,27.53,0,0,1-5.13,2.9A16.08,16.08,0,0,1,146.35,59.92ZM147.24,31a6.51,6.51,0,0,0-3.75,1,12.89,12.89,0,0,0-1.6,4.2,25.61,25.61,0,0,0-.63,4.65l11.14-.64Q152.4,31,147.24,31Z"/><path class="cls-2" d="M19.57,17.9c0-1.91-.1-4.07-.32-6.49q12.42.18,18.6.19t18.6-.19q-.31,3.63-.32,6.49H54.92a67.2,67.2,0,0,0-12.35-1.84c-.17,2.12-.26,5.31-.26,9.55V42.3c0,5.77.34,9.94,1,12.48v1.41H32.38V54.78a60.25,60.25,0,0,0,.89-12.29V25.87q0-6.57-.26-9.81A71.7,71.7,0,0,0,20.78,17.9Z"/><path class="cls-2" d="M69.57,31.15V44.78a23.62,23.62,0,0,0,1.85,10v1.41H60.27V54.78a27.58,27.58,0,0,0,1.09-8.59V36.76a13.67,13.67,0,0,0-1.09-5.83,6.69,6.69,0,0,0-2.73-3.22v-1.4l11.65-2.16L70,25.42A27,27,0,0,0,69.57,31.15ZM68.36,10.51a3.6,3.6,0,0,1,.8,2.17,20.07,20.07,0,0,1,.22,2.55,8.52,8.52,0,0,1-.13,1.59l-.57.51a36.06,36.06,0,0,1-7.32,1.15l-.7-.32a7.69,7.69,0,0,1-.8-2.74,22,22,0,0,1-.29-2.64v-1l.58-.51A21.26,21.26,0,0,1,67,10.13h.7Z"/><path class="cls-2" d="M99.83,24.4q6,0,8,5.35,2.1-1.72,3.4-2.67a17,17,0,0,1,3.28-1.82,9.49,9.49,0,0,1,3.76-.86,9.34,9.34,0,0,1,7.39,3c1.74,2,2.61,4.83,2.61,8.57v8.73a25.51,25.51,0,0,0,1.91,10.12v1.41H119V54.78a24.68,24.68,0,0,0,1.09-8.15V38.22a12.49,12.49,0,0,0-.9-5.41c-.59-1.19-1.83-1.78-3.72-1.78a14.5,14.5,0,0,0-6.79,2.22c.09,1.11.13,2,.13,2.68v8.73a25.51,25.51,0,0,0,1.91,10.12v1.41H100.15V54.78a24.72,24.72,0,0,0,1.08-8.15V38.22a13.49,13.49,0,0,0-.83-5.41C99.85,31.62,98.69,31,96.93,31s-4.11.89-7,2.67V44.78a23.62,23.62,0,0,0,1.85,10v1.41H80.59V54.78a27.88,27.88,0,0,0,1.09-8.59V36.76q0-7.14-3.83-9v-1.4l10.32-2,.64,1.21a15.79,15.79,0,0,1,.76,4.07,31.8,31.8,0,0,1,5.26-3.95A10.1,10.1,0,0,1,99.83,24.4Z"/><path class="cls-2" d="M150.85,57.4a14.13,14.13,0,0,1-9.94-4.14q-4.4-4.14-4.39-11.18a18.2,18.2,0,0,1,4.65-12.36,15.23,15.23,0,0,1,12-5.32q6.24,0,9.3,4t3.06,11.09L163.15,42H145.69q.06,4.59,2.45,7.07a7.69,7.69,0,0,0,5.74,2.49q3.35,0,10.09-3.51l1.6,2.42c-.81.77-1.72,1.55-2.74,2.36a28.12,28.12,0,0,1-5.13,2.9A16.22,16.22,0,0,1,150.85,57.4Zm.89-28.92a6.59,6.59,0,0,0-3.75.95,13,13,0,0,0-1.6,4.21,25.61,25.61,0,0,0-.63,4.65l11.14-.64Q156.9,28.47,151.74,28.48Z"/></g></svg>