<svg xmlns="http://www.w3.org/2000/svg" viewBox="0 0 234.8 293.5"><defs><style>.cls-1{fill:#341b49;}.cls-2{fill:#57297f;}.cls-3{fill:#46205e;}.cls-4{fill:#662d91;}.cls-5{fill:#8759c1;}.cls-6{fill:#fff;}</style></defs><g id="Layer_5" data-name="Layer 5"><path class="cls-1" d="M115.49,6.52A27.52,27.52,0,1,0,143,34,27.52,27.52,0,0,0,115.49,6.52Zm0,50.16A22.65,22.65,0,1,1,138.14,34,22.65,22.65,0,0,1,115.49,56.68Z"/><rect class="cls-1" x="105.52" y="37.29" width="19.95" height="32.68"/><rect class="cls-1" x="105.51" y="20.95" width="19.95" height="32.68" rx="7.81" transform="translate(152.73 -78.22) rotate(89.98)"/><path class="cls-2" d="M117.44,6A27.52,27.52,0,1,0,145,33.54,27.52,27.52,0,0,0,117.44,6Zm0,50.17a22.65,22.65,0,1,1,22.65-22.65A22.65,22.65,0,0,1,117.44,56.19Z"/><rect class="cls-1" x="36.3" y="76.04" width="18.93" height="31" transform="translate(-50.62 57.15) rotate(-43.8)"/><rect class="cls-1" x="25.57" y="64.85" width="18.93" height="31" rx="7.81" transform="translate(68.78 -0.55) rotate(46.2)"/><rect class="cls-1" x="182.99" y="78.53" width="18.93" height="31" transform="translate(256.96 298.29) rotate(-133.57)"/><rect class="cls-1" x="194.22" y="67.85" width="18.93" height="31" rx="7.81" transform="translate(408.72 3.37) rotate(136.43)"/><circle class="cls-1" cx="117.45" cy="167.5" r="108.2"/><circle class="cls-1" cx="117.45" cy="167.5" r="92.38"/><rect class="cls-3" x="37.02" y="74.24" width="18.5" height="30.29" transform="translate(-49 56.9) rotate(-43.8)"/><rect class="cls-4" x="26.53" y="63.31" width="18.5" height="30.29" rx="7.81" transform="translate(67.64 -1.67) rotate(46.2)"/><rect class="cls-3" x="107.47" y="36.8" width="19.95" height="32.68"/><rect class="cls-2" x="107.47" y="20.46" width="19.95" height="32.68" rx="7.81" transform="translate(154.19 -80.66) rotate(89.98)"/><rect class="cls-3" x="184.27" y="77.75" width="18.5" height="30.29" transform="translate(259.58 297.15) rotate(-133.57)"/><rect class="cls-4" x="195.25" y="67.31" width="18.5" height="30.29" rx="7.81" transform="translate(409.51 1.27) rotate(136.43)"/><circle class="cls-4" cx="117.45" cy="164.7" r="105.75"/><circle class="cls-5" cx="117.44" cy="167.5" r="86.26"/><path class="cls-6" d="M56.62,120.37c-2.85-4,1.73-12.15,10.23-18.21s17.69-7.74,20.54-3.75-10.8,2.87-19.3,8.93S59.47,124.37,56.62,120.37Z"/><path class="cls-6" d="M163,228.94c4.05,2.77,12.12-2,18-10.57s7.4-17.84,3.35-20.61-2.65,10.86-8.56,19.47S159,226.16,163,228.94Z"/></g></svg>