<svg xmlns="http://www.w3.org/2000/svg" width="182.2" height="170.22" viewBox="0 0 182.2 170.22"><defs><style>.cls-1{fill:#0d0811;}.cls-2{fill:#7e5289;}</style></defs><g id="points_and_time" data-name="points and time"><path class="cls-1" d="M131.85,138.44A103.19,103.19,0,0,0,133,154.62v2.16H118v-2.16a95.29,95.29,0,0,0,1.18-15.2v-1q-21.48,0-28.82.1l-2.75-5.39q11.28-19,29.32-44.9l15.19-1.47q-.5,10.48-.49,43.13l11.18-.58-2.06,9.11Zm-12.44-8.33q.09-11.48.09-18.87V99.32q-13.92,20-20.39,31.09Q109.79,130.41,119.41,130.11Z"/><path class="cls-2" d="M137.54,135.89a103.19,103.19,0,0,0,1.18,16.18v2.16h-15v-2.16a95.28,95.28,0,0,0,1.17-15.19v-1q-21.47,0-28.82.1l-2.74-5.39q11.28-19,29.31-44.9l15.19-1.47q-.48,10.49-.48,43.14l11.18-.59-2.06,9.11Zm-12.45-8.33q.1-11.48.1-18.87V96.78q-13.92,20-20.39,31.08Q115.48,127.86,125.09,127.56Z"/><path class="cls-1" d="M18.52,23.73q0-2.86-.32-6.49,12.42.18,18.6.19t18.6-.19q-.32,3.63-.32,6.49H53.87a67.29,67.29,0,0,0-12.36-1.84q-.25,3.18-.25,9.55V48.13c0,5.77.34,9.94,1,12.48V62h-11V60.61a60.25,60.25,0,0,0,.89-12.29V31.7q0-6.57-.25-9.81a71.42,71.42,0,0,0-12.23,1.84Z"/><path class="cls-1" d="M68.52,37V50.61a23.47,23.47,0,0,0,1.85,10V62H59.22V60.61A27.92,27.92,0,0,0,60.3,52V42.59a13.83,13.83,0,0,0-1.08-5.83,6.71,6.71,0,0,0-2.74-3.22v-1.4L68.14,30l.76,1.27A27.88,27.88,0,0,0,68.52,37ZM67.31,16.34a3.66,3.66,0,0,1,.8,2.17,22.14,22.14,0,0,1,.22,2.55,9.47,9.47,0,0,1-.13,1.59l-.57.51a36.05,36.05,0,0,1-7.33,1.15L59.6,24a7.91,7.91,0,0,1-.8-2.74,21.3,21.3,0,0,1-.28-2.64v-1l.57-.51A21.32,21.32,0,0,1,65.91,16h.7Z"/><path class="cls-1" d="M98.78,30.23q6,0,8,5.35,2.1-1.72,3.41-2.67a16.74,16.74,0,0,1,3.28-1.82,9.49,9.49,0,0,1,3.76-.86,9.37,9.37,0,0,1,7.39,3c1.74,2,2.61,4.83,2.61,8.57v8.73a25.51,25.51,0,0,0,1.91,10.12V62H118V60.61A24.72,24.72,0,0,0,119,52.46V44.05a12.67,12.67,0,0,0-.89-5.41c-.6-1.19-1.84-1.78-3.73-1.78a14.43,14.43,0,0,0-6.78,2.22c.08,1.11.13,2,.13,2.68v8.73a25.33,25.33,0,0,0,1.91,10.12V62H99.09V60.61a24.68,24.68,0,0,0,1.09-8.15V44.05a13.49,13.49,0,0,0-.83-5.41c-.56-1.19-1.71-1.78-3.47-1.78s-4.11.89-7,2.67V50.61a23.47,23.47,0,0,0,1.85,10V62H79.54V60.61A27.92,27.92,0,0,0,80.62,52V42.59q0-7.14-3.82-9.05v-1.4l10.32-2,.64,1.21a16.24,16.24,0,0,1,.76,4.07,31.79,31.79,0,0,1,5.25-4A10.14,10.14,0,0,1,98.78,30.23Z"/><path class="cls-1" d="M149.8,63.23a14.12,14.12,0,0,1-9.94-4.14q-4.4-4.14-4.4-11.18a18.2,18.2,0,0,1,4.65-12.36,15.25,15.25,0,0,1,12-5.32q6.24,0,9.3,4t3.06,11.09l-2.42,2.48H144.64q.06,4.59,2.45,7.07a7.65,7.65,0,0,0,5.73,2.49q3.35,0,10.1-3.51l1.59,2.42c-.81.77-1.72,1.55-2.74,2.36a28.12,28.12,0,0,1-5.13,2.9A16.22,16.22,0,0,1,149.8,63.23Zm.89-28.92a6.62,6.62,0,0,0-3.76.95,13,13,0,0,0-1.59,4.21,25.7,25.7,0,0,0-.64,4.65l11.15-.64Q155.85,34.3,150.69,34.31Z"/><path class="cls-2" d="M23,21.21q0-2.87-.32-6.5,12.42.19,18.6.19t18.6-.19c-.22,2.42-.32,4.59-.32,6.5H58.37A68.28,68.28,0,0,0,46,19.36c-.17,2.13-.25,5.31-.25,9.56V45.61q0,8.66,1,12.48v1.4h-11v-1.4a60.32,60.32,0,0,0,.89-12.29V29.17q0-6.55-.25-9.81a72.61,72.61,0,0,0-12.23,1.85Z"/><path class="cls-2" d="M73,34.46V48.09a23.47,23.47,0,0,0,1.85,10v1.4H63.72v-1.4a27.94,27.94,0,0,0,1.08-8.6V40.06a13.81,13.81,0,0,0-1.08-5.82A6.71,6.71,0,0,0,61,31v-1.4l11.66-2.17.76,1.28A27.82,27.82,0,0,0,73,34.46ZM71.81,13.82A3.58,3.58,0,0,1,72.6,16a20.5,20.5,0,0,1,.23,2.54,9.5,9.5,0,0,1-.13,1.6l-.57.51a35.45,35.45,0,0,1-7.33,1.14l-.7-.31a8,8,0,0,1-.8-2.74A21.22,21.22,0,0,1,63,16.08v-1l.57-.51a21.27,21.27,0,0,1,6.82-1.15h.7Z"/><path class="cls-2" d="M103.27,27.71q6.06,0,8,5.35,2.1-1.73,3.41-2.68A17.29,17.29,0,0,1,118,28.57a10,10,0,0,1,11.15,2.1q2.61,3,2.61,8.57V48a25.38,25.38,0,0,0,1.91,10.13v1.4H122.45v-1.4a24.72,24.72,0,0,0,1.08-8.15V41.53a12.64,12.64,0,0,0-.89-5.41c-.6-1.19-1.84-1.79-3.73-1.79a14.47,14.47,0,0,0-6.78,2.23c.08,1.11.13,2,.13,2.68V48a25.38,25.38,0,0,0,1.91,10.13v1.4H103.59v-1.4a24.72,24.72,0,0,0,1.08-8.15V41.53a13.49,13.49,0,0,0-.82-5.41c-.56-1.19-1.71-1.79-3.47-1.79s-4.11.89-7,2.68V48.09a23.47,23.47,0,0,0,1.85,10v1.4H84v-1.4a27.94,27.94,0,0,0,1.08-8.6V40.06q0-7.12-3.82-9v-1.4l10.32-2,.63,1.21A15.71,15.71,0,0,1,93,32.93,31.79,31.79,0,0,1,98.27,29,10,10,0,0,1,103.27,27.71Z"/><path class="cls-2" d="M154.3,60.7a14.12,14.12,0,0,1-9.94-4.14Q140,52.42,140,45.38A18.18,18.18,0,0,1,144.61,33a15.25,15.25,0,0,1,12-5.32q6.24,0,9.3,4T169,42.8l-2.42,2.49H149.14c0,3.06.86,5.41,2.45,7.07a7.68,7.68,0,0,0,5.73,2.48q3.35,0,10.1-3.5L169,53.76c-.81.76-1.72,1.55-2.74,2.36a28.73,28.73,0,0,1-5.13,2.9A16.2,16.2,0,0,1,154.3,60.7Zm.89-28.92a6.55,6.55,0,0,0-3.76,1,12.89,12.89,0,0,0-1.59,4.2,25.82,25.82,0,0,0-.64,4.65L160.35,41Q160.35,31.78,155.19,31.78Z"/><path class="cls-1" d="M68.76,101.32q0-9-7.85-9-5.83,0-17.52,9.1A19.46,19.46,0,0,1,38,90q13.11-4.87,23.31-4.88T77,89.31a13.47,13.47,0,0,1,5.51,11.34q0,10.06-10.34,22.89-5.17,6.31-9.43,10.82T52.1,145.18q6,0,8.33-.1,17.24-.57,23.27-5.26l2.58,1.81-4.49,11.69h-42l-2.3-5.46q5.46-5.37,8.86-8.81t8.14-9a92.3,92.3,0,0,0,7.47-9.82,56.47,56.47,0,0,0,4.78-9.38A25.71,25.71,0,0,0,68.76,101.32Z"/><path class="cls-2" d="M74.14,98.56q0-9-7.85-9-5.84,0-17.52,9.1a19.46,19.46,0,0,1-5.36-11.39q13.11-4.89,23.31-4.89t15.7,4.17a13.47,13.47,0,0,1,5.51,11.34q0,10.06-10.34,22.89-5.18,6.31-9.44,10.82T57.48,142.42q6,0,8.33-.1,17.23-.57,23.27-5.26l2.58,1.82-4.49,11.68h-42l-2.3-5.46q5.46-5.37,8.86-8.81t8.14-9a93.67,93.67,0,0,0,7.47-9.82,56.47,56.47,0,0,0,4.78-9.38A25.71,25.71,0,0,0,74.14,98.56Z"/></g></svg>