<svg xmlns="http://www.w3.org/2000/svg" width="182.2" height="170.22" viewBox="0 0 182.2 170.22"><defs><style>.cls-1{fill:#0d0811;}.cls-2{fill:#7e5289;}</style></defs><g id="points_and_time" data-name="points and time"><path class="cls-1" d="M80.38,129.08q0,13.8,1.6,19.8v2.2H65.38v-2.2q1.61-6,1.6-19.8v-28.6a68.85,68.85,0,0,0-.3-8.5,83.48,83.48,0,0,1-13.1,1.5l-1.1-5.7q11.1-1.89,18.3-6.7h10.1l-.5,11.8Z"/><path class="cls-2" d="M84.88,129.08q0,13.8,1.6,19.8v2.2H69.88v-2.2q1.61-6,1.6-19.8v-28.6a68.85,68.85,0,0,0-.3-8.5,83.48,83.48,0,0,1-13.1,1.5L57,87.78q11.1-1.89,18.29-6.7H85.38l-.5,11.8Z"/><path class="cls-1" d="M102.62,123.6a15.74,15.74,0,0,1-5.08-6.68,25.77,25.77,0,0,1-1.89-10.26q0-11.32,6.69-18.25T121,81.49q12,0,18.92,7.07t7,21.88q0,21.68-15.78,33-8.52,5.91-24.69,8L104.75,146a41.55,41.55,0,0,0,10.89-3.49,29.77,29.77,0,0,0,9.06-6.54,28.34,28.34,0,0,0,6-11.18,34.11,34.11,0,0,1-14.43,3.2A23.2,23.2,0,0,1,102.62,123.6Zm30.31-16q0-9.87-2.77-14.43t-9.73-4.55q-4.83,0-7.16,1.36-3.67,4.74-3.68,14.62,0,14.61,11.14,14.62a27.64,27.64,0,0,0,11.71-2.91C132.76,112,132.93,109.11,132.93,107.63Z"/><path class="cls-2" d="M108,120.84a15.74,15.74,0,0,1-5.08-6.68A25.6,25.6,0,0,1,101,103.9q0-11.33,6.69-18.25t18.63-6.92q12,0,18.92,7.07t7,21.88q0,21.67-15.78,33-8.53,5.91-24.69,8l-1.65-5.52A41.55,41.55,0,0,0,121,139.72a30,30,0,0,0,9.06-6.53,28.46,28.46,0,0,0,6-11.19,34.14,34.14,0,0,1-14.43,3.2A23.2,23.2,0,0,1,108,120.84Zm30.31-16q0-9.87-2.77-14.43t-9.73-4.55c-3.22,0-5.61.46-7.16,1.36Q115,92,115,101.87q0,14.61,11.13,14.62a27.64,27.64,0,0,0,11.72-2.91C138.14,109.26,138.31,106.35,138.31,104.87Z"/><path class="cls-1" d="M20.78,23.35q0-2.87-.32-6.5,12.42.2,18.6.19t18.6-.19q-.31,3.63-.32,6.5H56.13A67.44,67.44,0,0,0,43.78,21.5c-.18,2.12-.26,5.31-.26,9.55V47.74q0,8.67,1,12.49v1.4h-11v-1.4a59.71,59.71,0,0,0,.89-12.3V31.31c0-4.37-.08-7.65-.25-9.81A71.88,71.88,0,0,0,22,23.35Z"/><path class="cls-1" d="M70.78,36.6V50.23a23.65,23.65,0,0,0,1.85,10v1.4H61.48v-1.4a28,28,0,0,0,1.08-8.6V42.2a13.86,13.86,0,0,0-1.08-5.83,6.58,6.58,0,0,0-2.74-3.21V31.75L70.4,29.59l.76,1.27A27.93,27.93,0,0,0,70.78,36.6ZM69.57,16a3.63,3.63,0,0,1,.8,2.16,20.36,20.36,0,0,1,.22,2.55,8.38,8.38,0,0,1-.13,1.59l-.57.51a34.7,34.7,0,0,1-7.33,1.15l-.7-.32a7.66,7.66,0,0,1-.79-2.74,21.55,21.55,0,0,1-.29-2.64v-1l.58-.51a21.52,21.52,0,0,1,6.81-1.14h.7Z"/><path class="cls-1" d="M101,29.84q6,0,8,5.35c1.41-1.14,2.54-2,3.41-2.67a17.6,17.6,0,0,1,3.28-1.82,9.49,9.49,0,0,1,3.76-.86,9.34,9.34,0,0,1,7.39,3q2.61,3,2.61,8.57V50.1a25.56,25.56,0,0,0,1.91,10.13v1.4H120.21v-1.4a24.82,24.82,0,0,0,1.08-8.16v-8.4a12.57,12.57,0,0,0-.89-5.42c-.59-1.19-1.84-1.78-3.72-1.78a14.38,14.38,0,0,0-6.79,2.23c.09,1.1.13,2,.13,2.67V50.1a25.56,25.56,0,0,0,1.91,10.13v1.4H101.36v-1.4a24.82,24.82,0,0,0,1.08-8.16v-8.4a13.55,13.55,0,0,0-.83-5.42c-.55-1.19-1.71-1.78-3.47-1.78s-4.11.89-7,2.67V50.23a23.65,23.65,0,0,0,1.85,10v1.4H81.8v-1.4a28,28,0,0,0,1.08-8.6V42.2q0-7.14-3.82-9V31.75l10.32-2L90,31a15.79,15.79,0,0,1,.76,4.08A31.25,31.25,0,0,1,96,31.12,10,10,0,0,1,101,29.84Z"/><path class="cls-1" d="M152.06,62.84a14.13,14.13,0,0,1-9.94-4.14q-4.4-4.14-4.39-11.18a18.22,18.22,0,0,1,4.65-12.36,15.26,15.26,0,0,1,12-5.32q6.24,0,9.3,4t3.05,11.08l-2.42,2.48H146.9q.06,4.59,2.45,7.07A7.69,7.69,0,0,0,155.09,57q3.34,0,10.09-3.5l1.59,2.42c-.8.76-1.72,1.55-2.73,2.35a27.53,27.53,0,0,1-5.13,2.9A16.08,16.08,0,0,1,152.06,62.84ZM153,33.92a6.57,6.57,0,0,0-3.76,1,12.89,12.89,0,0,0-1.59,4.2,26.63,26.63,0,0,0-.64,4.65l11.15-.64Q158.11,33.92,153,33.92Z"/><path class="cls-2" d="M25.28,20.82q0-2.87-.32-6.49,12.42.18,18.6.19t18.6-.19q-.31,3.63-.32,6.49H60.63A67.32,67.32,0,0,0,48.28,19C48.1,21.1,48,24.29,48,28.53V45.22q0,8.67,1,12.48v1.41h-11V57.7A59.53,59.53,0,0,0,39,45.41V28.79q0-6.57-.25-9.81a71.56,71.56,0,0,0-12.23,1.84Z"/><path class="cls-2" d="M75.28,34.07V47.7a23.62,23.62,0,0,0,1.85,10v1.41H66V57.7a27.92,27.92,0,0,0,1.08-8.59V39.68A13.83,13.83,0,0,0,66,33.85a6.66,6.66,0,0,0-2.74-3.22v-1.4L74.9,27.07l.76,1.27A27.88,27.88,0,0,0,75.28,34.07ZM74.07,13.43a3.66,3.66,0,0,1,.8,2.17,20.07,20.07,0,0,1,.22,2.55A8.52,8.52,0,0,1,75,19.74l-.57.51a36.05,36.05,0,0,1-7.33,1.15l-.7-.32a7.73,7.73,0,0,1-.79-2.74,21.75,21.75,0,0,1-.29-2.64v-1l.57-.51a21.37,21.37,0,0,1,6.82-1.15h.7Z"/><path class="cls-2" d="M105.54,27.32q6,0,8,5.35c1.41-1.15,2.54-2,3.41-2.67a16.74,16.74,0,0,1,3.28-1.82,9.49,9.49,0,0,1,3.76-.86,9.34,9.34,0,0,1,7.39,3c1.74,2,2.61,4.83,2.61,8.57v8.73a25.51,25.51,0,0,0,1.91,10.12v1.41H124.71V57.7a24.72,24.72,0,0,0,1.08-8.15V41.14a12.52,12.52,0,0,0-.89-5.41c-.59-1.19-1.84-1.78-3.72-1.78a14.38,14.38,0,0,0-6.79,2.23c.09,1.1.13,2,.13,2.67v8.73a25.51,25.51,0,0,0,1.91,10.12v1.41H105.86V57.7a24.72,24.72,0,0,0,1.08-8.15V41.14a13.49,13.49,0,0,0-.83-5.41c-.55-1.19-1.71-1.78-3.47-1.78s-4.11.89-7,2.67V47.7a23.62,23.62,0,0,0,1.85,10v1.41H86.3V57.7a27.92,27.92,0,0,0,1.08-8.59V39.68q0-7.14-3.82-9v-1.4l10.32-2,.64,1.21a15.79,15.79,0,0,1,.76,4.07,32.38,32.38,0,0,1,5.26-3.95A10.07,10.07,0,0,1,105.54,27.32Z"/><path class="cls-2" d="M156.56,60.32a14.13,14.13,0,0,1-9.94-4.14Q142.23,52,142.23,45a18.2,18.2,0,0,1,4.65-12.36,15.23,15.23,0,0,1,12-5.32q6.24,0,9.3,4t3.05,11.09l-2.42,2.48H151.4q.06,4.59,2.45,7.07a7.69,7.69,0,0,0,5.74,2.49q3.33,0,10.09-3.51l1.59,2.42c-.8.77-1.72,1.55-2.74,2.36a27.6,27.6,0,0,1-5.12,2.9A16.22,16.22,0,0,1,156.56,60.32Zm.89-28.92a6.65,6.65,0,0,0-3.76,1,13,13,0,0,0-1.59,4.21,25.7,25.7,0,0,0-.64,4.65l11.15-.64Q162.61,31.41,157.45,31.4Z"/></g></svg>