<svg xmlns="http://www.w3.org/2000/svg" width="173.74" height="147.18" viewBox="0 0 173.74 147.18"><defs><style>.cls-1,.cls-2,.cls-3,.cls-4{fill:#ffe861;}.cls-1{opacity:0.24;}.cls-2{opacity:0.14;}.cls-3{opacity:0.6;}.cls-5{fill:#353031;}.cls-6{fill:#5b5a59;}.cls-7{fill:#33312f;}</style></defs><g id="Ui_and_character" data-name="Ui and character"><path class="cls-1" d="M14.55,83.93c3,.43,5.93.92,8.9,1.39-4.43,11.05-3.21,23.75,4.4,33.31,7.79,9.78,20.28,13.8,32.3,11.63.18,1.43.31,2.83.47,4.15.19,1.55.33,3.11.46,4.66C46.25,141.26,31,136,21.29,123.86A42.39,42.39,0,0,1,14.55,83.93Z"/><path class="cls-2" d="M23.45,85.32l4.14.65a57.64,57.64,0,0,0,7.24,8.52c2.6,2.44,5.58.73,6.65-1.9a4.67,4.67,0,0,0,4.86-2.31q2.8,3.43,5.63,6.85c3.77,4.54,7.66,9,11.47,13.49a5.35,5.35,0,0,0-.89,3.13c0,.55.07,1.11.1,1.66-3.38-.43-7,2.44-4.92,6.09a23.48,23.48,0,0,1,2.42,8.76c-12,2.17-24.51-1.85-32.3-11.63C20.24,109.07,19,96.37,23.45,85.32Z"/><path class="cls-3" d="M23.45,85.32l4.14.65c1.22,1.68,2.48,3.33,3.82,4.91,6.5,8.35,12.86,15.87,19.38,24.22,2.92,3.73,5.9,8.15,9.12,11.43.24,1.16.1,2.56.24,3.73-12,2.17-24.51-1.85-32.3-11.63C20.24,109.07,19,96.37,23.45,85.32Z"/><ellipse class="cls-4" cx="55.67" cy="96.48" rx="26.25" ry="24.3" transform="translate(-47.98 55.69) rotate(-38.53)"/><rect class="cls-5" x="61.11" y="40.07" width="106.21" height="25.38" rx="4.73" transform="translate(-8 82.64) rotate(-38.53)"/><path class="cls-5" d="M70.87,121.73l10.64-8.48c2.41-1.92,3.54-8.54,3.91-11.44.41-3.13-2.11-10-4.25-12.74L69.93,75A16.78,16.78,0,0,0,59.69,69.5c-2.79-.18-9.44-.25-11.75,1.6L37.3,79.57c-5,4-5.69,10.62-1.57,15.79L54.22,119.6A11.91,11.91,0,0,0,70.87,121.73Z"/><path class="cls-5" d="M43.58,77.13h9.56A2.84,2.84,0,0,1,56,80v48.21A2.84,2.84,0,0,1,53.14,131H43.58a0,0,0,0,1,0,0V77.13a0,0,0,0,1,0,0Z" transform="translate(153.56 154.47) rotate(141.47)"/><rect class="cls-5" x="86.44" y="38.6" width="59.24" height="25.38" transform="translate(238.81 19.11) rotate(141.47)"/><rect class="cls-6" x="59.7" y="38.29" width="106.21" height="25.38" rx="4.73" transform="translate(-7.2 81.37) rotate(-38.53)"/><path class="cls-6" d="M69.45,120l10.64-8.48c2.41-1.92,3.54-8.54,3.92-11.44.4-3.13-2.11-10-4.26-12.74L68.51,73.17a16.73,16.73,0,0,0-10.23-5.45c-2.79-.18-9.44-.24-11.76,1.6L35.88,77.79c-5,4-5.69,10.62-1.56,15.8L52.8,117.82A11.91,11.91,0,0,0,69.45,120Z"/><path class="cls-7" d="M42.16,75.35h9.56a2.84,2.84,0,0,1,2.84,2.84V126.4a2.84,2.84,0,0,1-2.84,2.84H42.16a0,0,0,0,1,0,0V75.35A0,0,0,0,1,42.16,75.35Z" transform="matrix(-0.78, 0.62, -0.62, -0.78, 149.92, 152.19)"/><rect class="cls-7" x="85.03" y="36.82" width="59.24" height="25.38" transform="translate(235.17 16.82) rotate(141.47)"/></g></svg>