<svg id="Layer_1" data-name="Layer 1" xmlns="http://www.w3.org/2000/svg" xmlns:xlink="http://www.w3.org/1999/xlink" width="833.5" height="535.2" viewBox="0 0 833.5 535.2"><defs><style>.cls-1{fill:#bd9568;}.cls-2{fill:#af8a60;}.cls-3{fill:#5c3c11;}.cls-4{fill:#422505;}.cls-5{fill:#775430;}.cls-6{fill:#c69c6d;}.cls-7{fill:url(#linear-gradient);}.cls-8{fill:#4f2e0c;}.cls-9{fill:url(#linear-gradient-2);}.cls-10{fill:url(#linear-gradient-3);}.cls-11{fill:#34a5ea;}.cls-12{fill:#fff;}.cls-13{fill:url(#linear-gradient-4);}.cls-14{fill:#603813;}.cls-15{fill:#8c6239;}.cls-16{fill:#b0471b;}.cls-17{fill:#42210b;}.cls-18{fill:none;stroke:#42210b;stroke-miterlimit:10;stroke-width:3px;}.cls-19{fill:#83370f;}</style><linearGradient id="linear-gradient" x1="555.19" y1="193.93" x2="552.06" y2="309.24" gradientTransform="matrix(1, 0, 0, -1, 0, 694)" gradientUnits="userSpaceOnUse"><stop offset="0.12" stop-color="#775430"/><stop offset="0.23" stop-color="#8b653f"/><stop offset="0.35" stop-color="#9a724a"/><stop offset="0.49" stop-color="#a37a50"/><stop offset="0.71" stop-color="#a67c52"/></linearGradient><linearGradient id="linear-gradient-2" x1="640.74" y1="181.04" x2="633.96" y2="311.47" gradientTransform="matrix(1, 0, 0, -1, 0, 694)" gradientUnits="userSpaceOnUse"><stop offset="0.12" stop-color="#775430"/><stop offset="0.16" stop-color="#805d37"/><stop offset="0.3" stop-color="#9f784f"/><stop offset="0.45" stop-color="#b48c5f"/><stop offset="0.58" stop-color="#c2986a"/><stop offset="0.71" stop-color="#c69c6d"/></linearGradient><linearGradient id="linear-gradient-3" x1="735.25" y1="169.17" x2="723.25" y2="272.47" gradientTransform="matrix(1, 0, 0, -1, 0, 694)" gradientUnits="userSpaceOnUse"><stop offset="0" stop-color="#775430"/><stop offset="0.22" stop-color="#89643e"/><stop offset="1" stop-color="#c69c6d"/></linearGradient><linearGradient id="linear-gradient-4" x1="604.03" y1="349.95" x2="604.55" y2="394.56" gradientTransform="matrix(1, 0, 0, -1, 0, 694)" gradientUnits="userSpaceOnUse"><stop offset="0" stop-color="#42210b"/><stop offset="0.14" stop-color="#4c2910"/><stop offset="0.38" stop-color="#66401d"/><stop offset="0.49" stop-color="#754c24"/><stop offset="0.64" stop-color="#7f562e"/><stop offset="0.9" stop-color="#9b7147"/><stop offset="0.99" stop-color="#a67c52"/></linearGradient></defs><path d="M104.85,124.69q0,4.05.51,11.88A67,67,0,0,0,106.54,147v2.48H88.3V147q1.7-6.4,1.69-19.36V116.36L79,95.87q-4.38-8-9-14.86t-6.76-7.89V70.65H84v2.47q0,4.51,4.16,13t10.93,20.6q9.45-19.14,11.59-24.83t2.14-8.73V70.65h16.33v2.47q-4,2.82-9.91,13.74-3.27,6.08-14.41,29.73Z"/><path d="M173.19,150.81q-18,0-28.76-11.37t-10.76-28.76a40.24,40.24,0,0,1,12.05-29.5q12-12.11,30.74-12.11t28.82,11.26Q215.42,91.6,215.41,108q0,18.57-12.1,30.68T173.19,150.81Zm25.22-39.74a54.75,54.75,0,0,0-2.19-16.33,23.77,23.77,0,0,0-8.05-11.65q-5.86-4.66-15.09-4.67a39,39,0,0,0-8.44,1,22.9,22.9,0,0,0-6.2,2.09q-3.37,3.48-5.57,10.7a51.71,51.71,0,0,0-2.2,15.14,57.24,57.24,0,0,0,1.41,13.62,36.29,36.29,0,0,0,4.39,10.47,20.94,20.94,0,0,0,8.28,7.55,27.35,27.35,0,0,0,12.78,2.75,26.45,26.45,0,0,0,13.12-3.15Q198.4,131.12,198.41,111.07Z"/><path d="M297,94.18v20.15q0,20.49-7.49,28.44t-25.16,7.93q-17.69,0-25.56-7.71T231,118.27V96q0-16.77-1.8-22.86V70.65h19.36v2.47a177.24,177.24,0,0,0-1.57,26.24v13.85q0,11.37,1.4,16.21t3.44,7q4.6,5.07,14.13,5.07T280,138.54q2.93-4.39,3.71-12t.79-25.95q0-18.3-1.8-27.42V70.65h16.1V73a53.73,53.73,0,0,0-1.29,9.85Q297,90.14,297,94.18Z"/><path d="M219.27,243.44V241q1.8-7.77,1.8-22.29V189.51q0-15.64-1.8-22.41v-2.47h19.59v2.47q-.78,2.6-1.29,10.59t-.51,12.16v30.06a148.28,148.28,0,0,0,.68,15c1.42.15,4.39.23,8.89.23q17.79,0,26.35-3.6h2.14l-2,11.93Z"/><path d="M320.81,246.37q-18,0-28.76-11.37t-10.76-28.77a40.24,40.24,0,0,1,12-29.5q12-12.1,30.74-12.1t28.83,11.25Q363,187.15,363,203.58q0,18.58-12.11,30.68T320.81,246.37ZM346,206.62a54.32,54.32,0,0,0-2.19-16.32,23.75,23.75,0,0,0-8-11.66Q329.94,174,320.7,174a38.41,38.41,0,0,0-8.44,1,22.86,22.86,0,0,0-6.19,2.08c-2.26,2.33-4.11,5.89-5.58,10.7a51.76,51.76,0,0,0-2.19,15.14,57.22,57.22,0,0,0,1.4,13.62A36.1,36.1,0,0,0,304.1,227a20.82,20.82,0,0,0,8.27,7.54,27.35,27.35,0,0,0,12.78,2.76,26.35,26.35,0,0,0,13.12-3.16Q346,226.66,346,206.62Z"/><path d="M389.58,189a26.9,26.9,0,0,0,6.42,4.22c2.32,1.09,4.4,2,6.25,2.87s3,1.37,3.54,1.63,1.78.85,3.77,1.75,3.25,1.48,3.78,1.74,1.68.92,3.48,2a19.85,19.85,0,0,1,3.72,2.59c.68.68,1.65,1.67,2.93,3a13.34,13.34,0,0,1,2.7,3.77,26.21,26.21,0,0,1,2.14,10.25q0,11.58-8.28,17.56t-22.63,6a46.14,46.14,0,0,1-26.18-7.88,25.26,25.26,0,0,1,6.2-15.2,48.58,48.58,0,0,0,12.16,9.8q6.75,3.83,12.33,3.83a19.32,19.32,0,0,0,9.85-2.48q2.14-2.81,2.14-8.78a10,10,0,0,0-2.59-7.21c-1.05-1-1.94-1.78-2.65-2.42a18.64,18.64,0,0,0-3.77-2.31q-2.7-1.46-11-5.12a90.17,90.17,0,0,1-11.54-5.8q-9.35-6.3-9.34-16.94t8.05-15.82q8-5.17,20-5.18t25.11,5.63a43.71,43.71,0,0,1-5.74,15.09,56.19,56.19,0,0,0-12.16-8.62q-6.42-3.32-11.6-3.32a17.05,17.05,0,0,0-8.22,1.69q-1.8,2.14-1.8,6.64A9,9,0,0,0,389.58,189Z"/><path d="M433.66,177.52q0-5.07-.56-11.49,21.94.34,32.88.34t32.87-.34q-.56,6.42-.56,11.49h-2.14a120.22,120.22,0,0,0-21.84-3.27c-.3,3.76-.45,9.38-.45,16.89v29.5q0,15.31,1.8,22.07v2.48H456.29v-2.48q1.57-6.77,1.58-21.73V191.59q0-11.59-.45-17.34a128.12,128.12,0,0,0-21.62,3.27Z"/><circle class="cls-1" cx="802.19" cy="458.27" r="21.13"/><circle class="cls-2" cx="802.19" cy="454.07" r="12.23"/><path class="cls-3" d="M537.31,402.69c0,9.05,9,9.78-2,9.78s-27.37-13.31-27.37-22.36,8.68-13.79,19.69-13.79S537.31,393.69,537.31,402.69Z"/><ellipse class="cls-4" cx="753.42" cy="337.4" rx="8.95" ry="11.49"/><path class="cls-5" d="M672.67,506.69c.23,14.92-25.3,11.92-34.61,12.22s-28.48,9-28.83-5.33,26-14.59,37.87-12.89C661.08,502.63,672.48,491.69,672.67,506.69Z"/><path class="cls-6" d="M639.18,357.24c-28,2.28-55.54,1.79-81.4,1.56-23.09-.21-26.3-13.89-32.94-29.48a32.82,32.82,0,0,1-2.62-11.84c-.42-12.56-2.77-14.42-2.12-33.85.75-22.22,33.42-70,59.93-69.7s35.23-1.49,60.87-.22,53.52,33,53.84,55.64,3.49,19.19,0,38.53S660.48,355.21,639.18,357.24Z"/><path class="cls-7" d="M555,522.55c-4.79.76-11.78.8-15.41-1.58-6.56-4.28,3.09-11.59,3.89-17.64,4.24-33.36-14.26-68.47-9.74-108.28.82-7.22,7.31-12.35,14.77-12.74a43.93,43.93,0,0,1,12.93,1c7.3,1.91,11.1,9.39,10.48,15.66-3.41,34.6,6.53,65.86-.31,99.26C570.34,504.28,563.64,521.18,555,522.55Z"/><path class="cls-6" d="M801.56,452.31C795.48,521.69,679.74,509,632.61,498S525.74,467,532.61,388.69s93.61-84.5,165.56-72.23S807.62,383,801.56,452.31Z"/><path class="cls-8" d="M518.29,295.74c-8.1,5.16-14.91,7.11-19.7,1.86-3.91-1.63,5.14-6.13,6.38-10a72.86,72.86,0,0,0-.69-24.6c-1.52-7.89-.31-16.36,6.2-21.53,8.34-3.43,21.5-7.09,29.44-5.93s9.11.27,12.55,6.16c-.47,10-3.25,24.76-9.34,32S522.31,293.18,518.29,295.74Z"/><path class="cls-8" d="M697.48,283c7.6,3,14.41,4.24,17.36-1.58,3.11-1.85-5.73-6.42-7.19-9.88-2.51-9-.41-18.74-3.49-27.82s-9.81-19.21-20-20.53c-9.06,1-22.5,4.3-28.08,10.15s-6.1,5.46-5.63,12.14c6.43,7.43,18.94,18.37,25.6,23.69S693.66,281.52,697.48,283Z"/><path class="cls-9" d="M654.93,523c-4.28,4.09-12.13,3.55-15.75,3.2-6.55-.62-5.45-16.9-5.95-25.28-2.75-46.19-18-45-25.06-91.85-1.29-8.49,7.25-24.9,14-26.87,3.73-1.09,16.15-.24,20.1,0,7.13.44,12.83,3.67,14.39,13,8.57,51.73,10.72,51.21,5,104.2C660.64,509.09,659.89,518.27,654.93,523Z"/><path class="cls-10" d="M783,498.61c-13.51,8.07-29.58,11.95-46,13.62a161.42,161.42,0,0,1-34.3,4.76c-9.42.31-35.46,11.46-36-3.56-.32-8.78,10.47-13.82,21.9-16.6-1-10.21,3.75-23.86,3.1-37.37-1.22-25.41,11.54-54.88,42.59-62.79s54.66,19.22,59.24,50.13C795.71,462.25,794.15,491.93,783,498.61Z"/><path class="cls-8" d="M586,328.24c-.47,9.44-.86,18.21,16.07,19s22.16-3.2,22.63-12.64-.56-16.69-17.5-17.53S586.48,318.8,586,328.24Z"/><path class="cls-11" d="M574.35,296.76a6.38,6.38,0,0,0-12.1-.5,6.74,6.74,0,0,0-1-.08h0a6.4,6.4,0,0,0-6.39,6.39v35.86a6.39,6.39,0,0,0,6.39,6.39h.62a6.39,6.39,0,0,0,12.69-.66,6.41,6.41,0,0,0,3.51-5.7V302.57A6.44,6.44,0,0,0,574.35,296.76Z"/><path class="cls-11" d="M635.06,299a6.37,6.37,0,0,1,12.09-.5,6.63,6.63,0,0,1,1-.08h0a6.42,6.42,0,0,1,6.39,6.39v35.86a6.42,6.42,0,0,1-6.39,6.4h-.63a6.39,6.39,0,0,1-12.69-.66,6.41,6.41,0,0,1-3.51-5.7v-35.9A6.39,6.39,0,0,1,635.06,299Z"/><circle class="cls-12" cx="570.95" cy="292.14" r="18.43"/><circle class="cls-12" cx="640.58" cy="292.14" r="18.43"/><path class="cls-13" d="M649.17,331.69c-4,8.55-9.67,18.71-25,11.5a61.77,61.77,0,0,1-19.27-14.14c-4.83,5.94-12.59,11.78-20.83,15.54-15.42,7-21-3.19-24.88-11.79s3.88-14.17,19.3-21.21c10.23-4.67,18.71-5.59,24.41-3.16,5.54-4.23,15.19-3.84,27.23,1.82C645.48,317.42,653.2,323.08,649.17,331.69Z"/><path class="cls-14" d="M603.91,301.82c2.52.05,7.4.18,9.54,1.94s.9,3.86.39,6.05a19.4,19.4,0,0,1-9.7,3.95c-2.68.19-6.71-2.36-8.8-4-.83-2.14-1.5-5,.91-6.46S601.34,301.88,603.91,301.82Z"/><circle cx="573.1" cy="297.3" r="11.78"/><circle cx="637.31" cy="297.3" r="11.76"/><circle cx="567.34" cy="336.37" r="0.85"/><circle cx="578.73" cy="341.95" r="0.52"/><circle cx="576.38" cy="335.06" r="1.02"/><circle cx="626.82" cy="335.9" r="0.85"/><circle cx="636.79" cy="339.6" r="0.52"/><circle cx="641.6" cy="333.23" r="0.65"/><path class="cls-15" d="M642.83,264c-4.15-3.63-8.72-8.15-14-9.64-1.06-.3-1.73-1.3-2.82-1.15s-3.42-1-3.83,0c-.77,2,2,7.86,3.77,9,4,2.78,8.66,5.5,13.55,5,1.77-.19,3.88-1.52,3.36-3.22a3.67,3.67,0,0,0-1.82-1.78l-8.69-5.08"/><path class="cls-15" d="M578.37,255.9a52.77,52.77,0,0,0-6.89,2.12c-3.6,1.38-7.38,3.54-8.49,7.24a1.28,1.28,0,0,0,1.29,1.78c4.23.78,8.45-1.1,12.35-2.93,2.6-1.22,9.54-4.75,11.11-7.16.78-1.19-2.43-3.18-3.75-3.72-.44-.17.14-.55-1.89-.19-3.27.55-6.73,3.65-9.62,5.13"/><path class="cls-8" d="M585.6,379.39c0,18.29-18.53,33.09-38.93,33.09-12,0-37.24-8.13-38.87-23.48-1.15-10.79,16.68-16.39,20.87-22.64,13-19.3,12.47-7.56,32.87-7.56S585.6,361.11,585.6,379.39Z"/><path class="cls-8" d="M760.84,331.84c4.48,19.64-48.35,70.3-93.71,80.64-27.2,6.21-54.15,5.77-72.55-7.43-12.29-8.82-10.66-23.42-9-31.31,3.52-16.52,13.84-7.83,42.07-14.94,9.6-2.41,28.84-1,37.17-8.93,11.23-10.74,23.54-24.31,28.22-36.1,1.9-4.78,9.23.27,15.61,0C727.93,313,758.48,321.69,760.84,331.84Z"/><path class="cls-16" d="M568.48,364.75c5.67.89,9.74,3.69,12.63,5.56,2.17,1.41,1.55.46,1.12,3.17-.54,3.43-2.1,4.2-5.18,6-2.92,1.73-14.09,9.42-18.63,8.7-9.94-1.57-8.61-8.25-7.61-14.56S558.59,363.18,568.48,364.75Z"/><path class="cls-16" d="M600.48,366.69c-5.28,0-9.39,2-12.29,3.25-2.19,1-1.48.2-1.48,2.73,0,3.19,1.31,4.12,3.85,6.22s11.48,10.6,15.72,10.6c9.27,0,9-6.28,9-12.16S609.75,366.69,600.48,366.69Z"/><path class="cls-14" d="M633.12,218.18c0,8-4.38,10.74-10.76,11.53s-14.88-.45-22.88-.45c-7.7,0-14.69,1.14-19.87.53-5.58-.65-9-3.32-9-11.61,0-16,15.3-33.91,31.29-33.91S633.12,202.19,633.12,218.18Z"/><path class="cls-17" d="M622.37,230c0,6.92-9.58,12.52-21.39,12.52s-21.4-5.6-21.4-12.52a.54.54,0,0,1,0-.18c.53.06,1.07.1,1.63.13,5,.26,11.32-.66,18.24-.66,8,0,16.47,1.24,22.9.45A2.46,2.46,0,0,1,622.37,230Z"/><path class="cls-18" d="M600.08,175.14a17.6,17.6,0,0,1,2.29,7.36c.2,1.44.37.83-.93,1.64-1.64,1-2.54.65-4.43,0a6.71,6.71,0,0,1-4.42-3.24c-3-4.77-5.76-8.07-2.74-10S597.1,170.38,600.08,175.14Z"/><path class="cls-18" d="M606.73,177.85a10.51,10.51,0,0,0-3.76,4.41c-.68,1.28-.63.64.3,1.86,1.19,1.53.79,1.45,2.78,1.52s3.58,1.18,5.62-.39c4.44-3.43,11.3-5.11,9.12-7.93S611.18,174.42,606.73,177.85Z"/><path class="cls-17" d="M584,220.46c0,3.32.9,7.92,0,9.5-.22.41-.82,0-1.28,0-1.94.18-.76,0-2.5-.11a16.59,16.59,0,0,1-4-.85c-2.87-.84-.2-.28-.2-13.84s19.26-30.38,22.23-30.38c2.14,0-9,11.07-12,22.34C585.15,211.4,584,216.69,584,220.46Z"/><path class="cls-17" d="M618,220.46c0,4.19-1,9.3,1.23,9.5,1.94.18.75,0,2.49-.11a16.69,16.69,0,0,0,4-.85c2.86-.84.2-.28.2-13.84s-19.65-31-22.62-31c-2.14,0,9.41,11.73,12.43,23C616.85,211.4,618,216.69,618,220.46Z"/><path class="cls-17" d="M605.83,223.45c.28,4.18,2.29,6.65,0,6.85a93.13,93.13,0,0,1-10.35-.2c-1.9-.16-3.41,1-4.47.71-2.86-.84-.17-1.24-.17-14.8s8.65-31.73,11.59-31.73c2.14,0,1.38,13.32,1.5,25C604.07,215.53,605.54,219.05,605.83,223.45Z"/><path class="cls-17" d="M626.36,198.83c.79,1.2,1.75,2.14,1,3-1.23,1.45-6,2.6-9.51,3.79a48.71,48.71,0,0,1-15.25,2.24c-7.45,0-14.13-1.4-18.6-3.61-3.61-1.79-7.25-4.57-5.79-6.63,3-4.2,2.37-3.86,7.64.34,3.54,2.82,11.15,4.2,16.21,4.2,5.26,0,8-1.16,13.27-2.78,4.45-1.37,7.5-2.93,9.21-2.39C625.24,197.19,625.83,198,626.36,198.83Z"/><path class="cls-17" d="M585.17,191.21c-.84-.43.22-.8.87-1.29,1.4-1.06,2.13-1.71,2.68-1.26a20.47,20.47,0,0,1,3.19,2.69c1.87,2,7.09,2.21,10.15,1.93s7.38-.52,9.72-1.48c1.63-.66,3.69-1.08,4.89-2,.58-.43,1.43.18,2.35,1.09s1.45,1,1,1.59c-1,1.28-4.33,2.59-6.22,3.42a46.62,46.62,0,0,1-11,2.52c-4.08.3-9.76-1.15-12.52-3-1.48-1-3.57-2.34-4.28-3.62"/><path class="cls-17" d="M632.38,212a8.3,8.3,0,0,1,.47,3c-.11,1.32-5.85,3.15-10.88,4.85a62.24,62.24,0,0,1-19.44,2.89c-9.5,0-18-1.79-23.71-4.61-4.36-2.16-8-2.88-7.56-6,0-.18.78-2.19.82-2.37,1.68-6.36,2.38-5,9.1.4,4.51,3.6,14.21,5.08,20.65,5.08,6.71,0,10.27-1.2,16.92-3.26,5.93-1.83,11.85-5.18,12.83-2.86A20.86,20.86,0,0,1,632.38,212Z"/><circle class="cls-19" cx="584.45" cy="374.83" r="6.85"/></svg>