<svg id="Layer_1" data-name="Layer 1" xmlns="http://www.w3.org/2000/svg" xmlns:xlink="http://www.w3.org/1999/xlink" width="833.5" height="535.2" viewBox="0 0 833.5 535.2"><defs><style>.cls-1{fill:#bd9568;}.cls-2{fill:#af8a60;}.cls-3{fill:#5c3c11;}.cls-4{fill:#422505;}.cls-5{fill:#775430;}.cls-6{fill:#c69c6d;}.cls-7{fill:url(#linear-gradient);}.cls-8{fill:#4f2e0c;}.cls-9{fill:url(#linear-gradient-2);}.cls-10{fill:url(#linear-gradient-3);}.cls-11{fill:#e0a39a;}.cls-12,.cls-20{fill:none;}.cls-12{stroke:#d2948b;stroke-linecap:round;stroke-linejoin:round;}.cls-13{fill:url(#linear-gradient-4);}.cls-14{fill:#603813;}.cls-15{fill:#8c6239;}.cls-16{fill:#db9b0e;}.cls-17{fill:#f9d128;}.cls-18{fill:#b0471b;}.cls-19{fill:#42210b;}.cls-20{stroke:#42210b;stroke-miterlimit:10;stroke-width:3px;}.cls-21{fill:#83370f;}</style><linearGradient id="linear-gradient" x1="553.63" y1="194.21" x2="550.5" y2="309.51" gradientTransform="matrix(1, 0, 0, -1, 0, 694)" gradientUnits="userSpaceOnUse"><stop offset="0.12" stop-color="#775430"/><stop offset="0.23" stop-color="#8b653f"/><stop offset="0.35" stop-color="#9a724a"/><stop offset="0.49" stop-color="#a37a50"/><stop offset="0.71" stop-color="#a67c52"/></linearGradient><linearGradient id="linear-gradient-2" x1="639.22" y1="181.31" x2="632.43" y2="311.75" gradientTransform="matrix(1, 0, 0, -1, 0, 694)" gradientUnits="userSpaceOnUse"><stop offset="0.12" stop-color="#775430"/><stop offset="0.16" stop-color="#805d37"/><stop offset="0.3" stop-color="#9f784f"/><stop offset="0.45" stop-color="#b48c5f"/><stop offset="0.58" stop-color="#c2986a"/><stop offset="0.71" stop-color="#c69c6d"/></linearGradient><linearGradient id="linear-gradient-3" x1="733.7" y1="169.44" x2="721.7" y2="272.75" gradientTransform="matrix(1, 0, 0, -1, 0, 694)" gradientUnits="userSpaceOnUse"><stop offset="0" stop-color="#775430"/><stop offset="0.22" stop-color="#89643e"/><stop offset="1" stop-color="#c69c6d"/></linearGradient><linearGradient id="linear-gradient-4" x1="602.48" y1="350.23" x2="603.01" y2="394.83" gradientTransform="matrix(1, 0, 0, -1, 0, 694)" gradientUnits="userSpaceOnUse"><stop offset="0" stop-color="#42210b"/><stop offset="0.14" stop-color="#4c2910"/><stop offset="0.38" stop-color="#66401d"/><stop offset="0.49" stop-color="#754c24"/><stop offset="0.64" stop-color="#7f562e"/><stop offset="0.9" stop-color="#9b7147"/><stop offset="0.99" stop-color="#a67c52"/></linearGradient></defs><circle class="cls-1" cx="800.65" cy="457.99" r="21.13"/><circle class="cls-2" cx="800.65" cy="453.79" r="12.23"/><path class="cls-3" d="M535.76,402.43c0,9,9,9.78-2,9.78s-27.35-13.32-27.35-22.4S515.09,376,526.1,376,535.76,393.38,535.76,402.43Z"/><ellipse class="cls-4" cx="751.88" cy="337.13" rx="8.95" ry="11.49"/><path class="cls-5" d="M671.12,506.38c.24,14.92-25.29,11.91-34.6,12.21s-28.49,9-28.83-5.32,26-14.56,37.87-12.89C659.53,502.36,670.89,491.45,671.12,506.38Z"/><path class="cls-6" d="M637.64,357.13c-28,2.29-55.54,1.8-81.4,1.57-23.09-.21-26.35-13.89-33-29.48a33.34,33.34,0,0,1-2.62-11.84c-.41-12.57-2.78-14.43-2.11-33.85.74-22.22,33.42-70,59.93-69.7s35.23-1.49,60.87-.23,53.52,33,53.84,55.65,3.49,19.19,0,38.53S658.89,355.11,637.64,357.13Z"/><path class="cls-7" d="M553.45,522.28c-4.78.76-11.77.8-15.4-1.58-6.56-4.31,3.08-11.6,3.85-17.65,4.25-33.36-14.25-68.46-9.73-108.28.81-7.22,7.3-12.34,14.77-12.74a43.88,43.88,0,0,1,12.93,1c7.3,1.92,11.1,9.39,10.48,15.67-3.42,34.6,6.53,65.86-.31,99.26C568.8,504,562.1,520.91,553.45,522.28Z"/><path class="cls-6" d="M800,452c-6.06,69.34-121.83,56.69-169,45.64S524.16,466.72,531,388.39s93.62-84.49,165.57-72.22S806.07,382.69,800,452Z"/><path class="cls-8" d="M516.74,295.47c-8.09,5.15-14.9,7.1-19.69,1.85-3.92-1.62,5.14-6.13,6.38-9.95a72.36,72.36,0,0,0-.7-24.56c-1.51-7.89-.3-16.4,6.24-21.53,8.35-3.43,21.5-7.1,29.45-5.93s9.11.27,12.54,6.16c-.46,10-3.24,24.76-9.33,32S520.77,292.9,516.74,295.47Z"/><path class="cls-8" d="M695.89,282.74c7.6,3,14.42,4.25,17.37-1.57,3.11-1.86-5.74-6.42-7.2-9.89-2.51-9-.4-18.73-3.49-27.81s-9.8-19.21-20-20.53c-9.06,1-22.5,4.3-28.08,10.14s-6.1,5.46-5.6,12.14c6.43,7.44,19,18.38,25.61,23.7S692.11,281.25,695.89,282.74Z"/><path class="cls-9" d="M653.39,522.74c-4.28,4.09-12.13,3.55-15.75,3.21-6.55-.63-5.46-16.9-6-25.28-2.75-46.19-17.94-45-25-91.85-1.29-8.49,7.25-24.91,14-26.87,3.72-1.09,16.15-.25,20.1,0,7.13.44,12.83,3.67,14.38,13.05,8.58,51.73,10.73,51.21,5,104.2C659.09,508.81,658.35,518,653.39,522.74Z"/><path class="cls-10" d="M781.41,498.33c-13.51,8.07-29.58,12-46,13.63a162.7,162.7,0,0,1-34.3,4.75c-9.42.31-35.46,11.46-36-3.56-.32-8.78,10.47-13.82,21.9-16.6-1-10.21,3.75-23.86,3.1-37.37-1.22-25.37,11.52-54.88,42.57-62.79s54.68,19.22,59.21,50.13C794.17,462,792.61,491.65,781.41,498.33Z"/><path class="cls-8" d="M584.21,327.62c-.47,9.44-.87,18.21,16.06,19.06s22.16-3.2,22.63-12.64-.56-16.7-17.49-17.54S584.68,318.18,584.21,327.62Z"/><path class="cls-11" d="M610.89,331.74c0,6.81-3.37,12.31-7.44,12.28s-7.34-5.56-7.3-12.37,2.35-5.4,6.42-5.37S611,324.93,610.89,331.74Z"/><line class="cls-12" x1="603.48" y1="328.03" x2="603.55" y2="336.58"/><path class="cls-13" d="M647.63,331.36c-4,8.55-9.67,18.71-25,11.5a62,62,0,0,1-19.27-14.14c-4.83,5.94-12.59,11.78-20.83,15.54-15.42,7-20.95-3.19-24.88-11.79s3.88-14.17,19.3-21.21c10.23-4.67,18.71-5.59,24.41-3.16,5.54-4.23,15.19-3.84,27.23,1.82C643.89,317.14,651.66,322.81,647.63,331.36Z"/><path class="cls-14" d="M602.37,301.55c2.52,0,7.4.17,9.54,1.93s.89,3.87.39,6.06a19.61,19.61,0,0,1-9.71,3.94c-2.67.2-6.7-2.35-8.8-4-.82-2.13-1.49-5,.92-6.46S599.8,301.61,602.37,301.55Z"/><path d="M558.36,302.64c1.53-4.18,4.58-17.67,12.61-19.15s18.62,7.49,21.54,10.84c0,0,.4.07.22-.89-.94-5.09-12.77-16-22.63-14.21S556.1,294.94,557,300A5.57,5.57,0,0,0,558.36,302.64Z"/><path d="M616.35,294.87c2.57-3.68,12.35-13.53,19.79-12.56s10.61,14,12.16,18.23a6.1,6.1,0,0,0,1.13-2.79c.7-5.33-3.37-18.69-12.51-19.88s-19.87,10.24-20.57,15.57A3.82,3.82,0,0,0,616.35,294.87Z"/><circle cx="565.8" cy="336.09" r="0.85"/><circle cx="577.19" cy="341.68" r="0.52"/><circle cx="574.84" cy="334.78" r="1.02"/><circle cx="625.28" cy="335.63" r="0.85"/><circle cx="635.25" cy="339.33" r="0.52"/><circle cx="640.05" cy="332.96" r="0.65"/><path class="cls-15" d="M643.11,261.2c-4.57-3.09-9.45-5.59-14.91-6.4a7.7,7.7,0,0,0-3.31,0,3.18,3.18,0,0,0-2.33,2.12c-.52,2,1.65,3.7,3.53,4.66,4.37,2.25,9.28,4.37,14.06,3.22,1.73-.41,3.66-2,2.93-3.61a3.43,3.43,0,0,0-2-1.54l-9.26-4"/><path class="cls-15" d="M579.66,253.07a51.38,51.38,0,0,0-7.2.83c-3.8.7-7.91,2.14-9.67,5.57a1.58,1.58,0,0,0-.22,1c.1.52.63.82,1.12,1,4,1.54,8.51.46,12.67-.63,2.78-.73,5.72-1.55,7.7-3.64,1-1,1.55-3,.35-3.71a2.65,2.65,0,0,0-1.38-.32,29.76,29.76,0,0,0-9.57,1.12"/><path class="cls-8" d="M584.06,379.12c0,18.28-18.53,33.09-38.93,33.09-12,0-37.25-8.14-38.88-23.48-1.14-10.79,16.64-16.39,20.87-22.65,13-19.27,12.47-7.55,32.87-7.55S584.06,360.81,584.06,379.12Z"/><path class="cls-8" d="M759.3,331.57c4.48,19.63-48.36,70.29-93.71,80.64-27.2,6.2-54.15,5.77-72.55-7.44-12.29-8.82-10.66-23.41-9-31.3,3.52-16.52,13.84-7.84,42.06-14.94,9.61-2.42,28.85-1,37.17-8.93,11.24-10.74,23.55-24.31,28.23-36.11,1.9-4.77,9.22.27,15.6,0C726.39,312.69,757,321.41,759.3,331.57Z"/><path class="cls-16" d="M651.64,386.74H620.39a2.73,2.73,0,0,0-2.73,2.73v12.34l.39,4.65c.21,1.45,1.26,4.25,2.59,5.23l12.25,12.24a4.09,4.09,0,0,0,5.64.11l12.63-11.65c1.17-1.07,1.79-3.83,2.09-5.39l.64-5.19V389a2.21,2.21,0,0,0-2.22-2.22Z"/><polygon class="cls-17" points="640.69 397.96 649.89 402.83 640.83 407.95 635.96 417.16 630.84 408.09 621.63 403.22 630.7 398.1 635.56 388.9 640.69 397.96"/><path class="cls-18" d="M567,364.47c5.66.9,9.74,3.7,12.62,5.57,2.18,1.41,1.56.46,1.13,3.17-.54,3.42-2.1,4.2-5.18,6-2.93,1.73-14.09,9.42-18.64,8.7-9.93-1.57-8.6-8.26-7.6-14.57S557.05,362.91,567,364.47Z"/><path class="cls-18" d="M598.89,366.39c-5.29,0-9.4,2-12.29,3.25-2.19,1-1.49.19-1.49,2.72,0,3.2,1.31,4.13,3.85,6.22s11.48,10.61,15.72,10.61c9.28,0,9-6.28,9-12.17S608.2,366.39,598.89,366.39Z"/><path class="cls-14" d="M631.58,217.9c0,8-4.38,10.74-10.76,11.53s-14.88-.45-22.9-.45c-7.7,0-14.69,1.14-19.87.53-5.58-.65-9-3.32-9-11.61,0-16,15.3-33.91,31.29-33.91S631.58,201.91,631.58,217.9Z"/><path class="cls-19" d="M620.83,229.69c0,6.92-9.58,12.52-21.39,12.52s-21.4-5.6-21.4-12.52v-.18c.53.06,1.07.11,1.63.14,5,.25,11.32-.67,18.24-.67,8,0,16.47,1.24,22.9.45A1.1,1.1,0,0,1,620.83,229.69Z"/><path class="cls-20" d="M598.54,174.87a17.36,17.36,0,0,1,2.28,7.36c.21,1.43.38.82-.92,1.64-1.64,1-2.54.65-4.43,0a6.84,6.84,0,0,1-4.42-3.25c-3-4.76-5.76-8.07-2.74-10S595.56,170.11,598.54,174.87Z"/><path class="cls-20" d="M605.19,177.58a10.4,10.4,0,0,0-3.76,4.41c-.69,1.27-.64.64.3,1.85,1.18,1.53.78,1.46,2.78,1.52s3.58,1.19,5.61-.38c4.45-3.44,11.31-5.11,9.13-7.93S609.63,174.14,605.19,177.58Z"/><path class="cls-19" d="M582.48,220.18c0,3.32.9,7.93,0,9.5-.23.42-.82,0-1.28,0-1.94.17-.76,0-2.5-.11a17.72,17.72,0,0,1-4-.85c-2.87-.85-.2-.28-.2-13.84s19.33-30.37,22.29-30.37c2.15,0-9,11.06-12,22.33C583.61,211.13,582.48,216.45,582.48,220.18Z"/><path class="cls-19" d="M616.44,220.18c0,4.19-1,9.31,1.23,9.51,1.93.17.75,0,2.49-.11a18,18,0,0,0,4-.85c2.86-.85.2-.28.2-13.84s-19.67-31.08-22.63-31.08c-2.15,0,9.41,11.73,12.43,23C615.3,211.13,616.44,216.45,616.44,220.18Z"/><path class="cls-19" d="M604.29,223.18c.28,4.18,2.29,6.65,0,6.85a95.8,95.8,0,0,1-10.36-.2c-1.89-.16-3.4,1-4.46.71-2.86-.84-.17-1.25-.17-14.8S598,184,600.91,184c2.15,0,1.38,13.32,1.5,25C602.53,215.26,604,218.81,604.29,223.18Z"/><path class="cls-19" d="M624.82,198.55c.79,1.2,1.75,2.15,1,3-1.23,1.45-6,2.61-9.51,3.79a49,49,0,0,1-15.25,2.25c-7.46,0-14.13-1.41-18.61-3.62-3.6-1.78-7.24-4.56-5.78-6.62,3-4.21,2.37-3.87,7.64.33,3.54,2.83,11.15,4.2,16.2,4.2,5.27,0,8.06-1.15,13.28-2.77,4.45-1.38,7.49-2.93,9.2-2.4C623.7,196.91,624.28,197.74,624.82,198.55Z"/><path class="cls-19" d="M583.63,190.93c-.84-.42.22-.8.87-1.29,1.4-1.06,2.13-1.7,2.68-1.25a19,19,0,0,1,3.19,2.68c1.87,2,7.09,2.22,10.15,1.94s7.38-.53,9.72-1.48c1.63-.67,3.69-1.09,4.88-1.95.59-.43,1.44.18,2.35,1.08s1.45,1,1,1.59c-1,1.29-4.33,2.6-6.23,3.43a47.6,47.6,0,0,1-11,2.52c-4.08.3-9.76-1.16-12.52-3-1.48-1-3.57-2.34-4.28-3.62"/><path class="cls-19" d="M630.83,211.67a7.86,7.86,0,0,1,.47,3c-.11,1.32-5.84,3.16-10.87,4.85A62.77,62.77,0,0,1,601,222.39c-9.51,0-18-1.79-23.72-4.62-4.36-2.15-8-2.88-7.56-6.05,0-.17.78-2.18.83-2.36,1.67-6.36,2.37-5,9.09.4,4.52,3.6,14.22,5.08,20.66,5.08,6.71,0,10.27-1.2,16.92-3.26,5.92-1.84,11.85-5.18,12.82-2.86A17.61,17.61,0,0,1,630.83,211.67Z"/><circle class="cls-21" cx="582.91" cy="374.56" r="6.85"/><path d="M104.85,124.69q0,4.05.51,11.88A67,67,0,0,0,106.54,147v2.48H88.3V147q1.7-6.4,1.69-19.36V116.36L79,95.87q-4.38-8-9-14.86t-6.76-7.89V70.65H84v2.47q0,4.51,4.16,13t10.93,20.6q9.45-19.14,11.59-24.83t2.14-8.73V70.65h16.33v2.47q-4,2.82-9.91,13.74-3.27,6.08-14.41,29.73Z"/><path d="M173.19,150.81q-18,0-28.76-11.37t-10.76-28.76a40.24,40.24,0,0,1,12.05-29.5q12-12.11,30.74-12.11t28.82,11.26Q215.42,91.6,215.41,108q0,18.57-12.1,30.68T173.19,150.81Zm25.22-39.74a54.75,54.75,0,0,0-2.19-16.33,23.77,23.77,0,0,0-8.05-11.65q-5.86-4.66-15.09-4.67a39,39,0,0,0-8.44,1,22.9,22.9,0,0,0-6.2,2.09q-3.37,3.48-5.57,10.7a51.71,51.71,0,0,0-2.2,15.14,57.24,57.24,0,0,0,1.41,13.62,36.29,36.29,0,0,0,4.39,10.47,20.94,20.94,0,0,0,8.28,7.55,27.35,27.35,0,0,0,12.78,2.75,26.45,26.45,0,0,0,13.12-3.15Q198.4,131.12,198.41,111.07Z"/><path d="M297,94.18v20.15q0,20.49-7.49,28.44t-25.16,7.93q-17.69,0-25.56-7.71T231,118.27V96q0-16.77-1.8-22.86V70.65h19.36v2.47a177.24,177.24,0,0,0-1.57,26.24v13.85q0,11.37,1.4,16.21t3.44,7q4.6,5.07,14.13,5.07T280,138.54q2.93-4.39,3.71-12t.79-25.95q0-18.3-1.8-27.42V70.65h16.1V73a53.73,53.73,0,0,0-1.29,9.85Q297,90.14,297,94.18Z"/><path d="M299.89,171.54v-2.41h18.24v2.41Q313,178.8,305.6,202.37t-12.74,43.68l-16.71,1.54q-1.53-10.87-12.19-46.71l-3.19-10.76q-2.2,6.58-3.9,12.2t-11.81,43.73l-16.82,1.54q-.33-9.22-15-55.06-3.4-10.65-5.16-14.83a22.47,22.47,0,0,0-3.52-6.16v-2.41h20.23v3.07q0,7.49,3.4,18.47L239.56,231q13.84-45.94,14.29-61.87h16.81A153.62,153.62,0,0,0,273.85,185q2.52,10.49,13.29,46,.66-2.31,3.14-10.61t3.79-13q4.06-14.94,4.94-22.86A123.69,123.69,0,0,0,299.89,171.54Z"/><path d="M359.56,247.37q-17.58,0-28.08-11.1T321,208.2a39.28,39.28,0,0,1,11.76-28.8q11.76-11.81,30-11.81t28.13,11q9.89,11,9.89,27,0,18.13-11.82,29.95T359.56,247.37Zm24.61-38.79A53.3,53.3,0,0,0,382,192.64a23.17,23.17,0,0,0-7.85-11.37q-5.71-4.56-14.73-4.56a37.79,37.79,0,0,0-8.24.93,22.62,22.62,0,0,0-6,2q-3.3,3.4-5.44,10.44a50.7,50.7,0,0,0-2.14,14.78A56.22,56.22,0,0,0,339,218.19a35.31,35.31,0,0,0,4.29,10.23,20.42,20.42,0,0,0,8.08,7.36,26.74,26.74,0,0,0,12.47,2.69,25.77,25.77,0,0,0,12.8-3.08Q384.18,228.15,384.17,208.58Z"/><path d="M429.12,246.05H414.07v-2.42q1.76-6.58,1.76-24.94V196.38q0-16.37-1.43-24.73v-2.41L431.76,168l38.68,54.29V193.41a110.83,110.83,0,0,0-.77-12.36,48.44,48.44,0,0,0-1.75-9.51v-2.41h15.49v2.41a78.14,78.14,0,0,0-1.21,10.72q-.56,8-.55,14.23v26.15q0,6.39.66,14a78.59,78.59,0,0,0,1.1,9.23L469,247.26l-42-58.79v33.4q0,13.86,2.09,21.76Z"/></svg>